G04 DipTrace 2.4.0.2*
%INTopMask.gbr*%
%MOIN*%
%ADD28C,0.067*%
%ADD31C,0.122*%
%ADD39R,0.0867X0.0316*%
%ADD41C,0.075*%
%ADD42R,0.0316X0.0828*%
%ADD44O,0.0415X0.0198*%
%ADD46C,0.108*%
%ADD48C,0.0749*%
%ADD50R,0.0749X0.0749*%
%ADD52R,0.0907X0.0631*%
%ADD54R,0.0474X0.0513*%
%ADD56R,0.0513X0.0474*%
%FSLAX44Y44*%
G04*
G70*
G90*
G75*
G01*
%LNTopMask*%
%LPD*%
D56*
X23628Y13378D3*
X24297D3*
X23628Y12378D3*
X24297D3*
D54*
X16940Y12565D3*
Y11896D3*
X11940Y12565D3*
Y11896D3*
D52*
X8440Y5440D3*
Y7173D3*
X9440Y5440D3*
Y7173D3*
D31*
X40940Y40940D3*
X5440Y5440D3*
Y40940D3*
X40940Y5440D3*
D50*
X22940Y36940D3*
D48*
X21940D3*
X22940Y37940D3*
X21940D3*
X22940Y38940D3*
X21940D3*
D50*
X11440Y5440D3*
D48*
Y6440D3*
X12440Y5440D3*
Y6440D3*
X13440Y5440D3*
Y6440D3*
D50*
X33940Y5440D3*
D48*
X34940D3*
X35940D3*
X36940D3*
X37940D3*
X38940D3*
D50*
X26940D3*
D48*
X27940D3*
X28940D3*
X29940D3*
X30940D3*
X31940D3*
D50*
X6440Y8940D3*
D48*
Y9940D3*
Y10940D3*
Y11940D3*
Y12940D3*
Y13940D3*
D50*
X22940Y22440D3*
D48*
X23940D3*
X24940D3*
X25940D3*
X26940D3*
X27940D3*
X28940D3*
X29940D3*
X30940D3*
X31940D3*
X32940D3*
X33940D3*
X34940D3*
X35940D3*
D50*
X22940Y32440D3*
D48*
X23940D3*
X24940D3*
X25940D3*
X26940D3*
X27940D3*
X28940D3*
X29940D3*
X30940D3*
X31940D3*
X32940D3*
X33940D3*
X34940D3*
X35940D3*
D50*
X37940Y25440D3*
D48*
Y26440D3*
Y27440D3*
Y28440D3*
Y29440D3*
D50*
X23940Y33440D3*
D48*
X24940D3*
X25940D3*
X26940D3*
D50*
X28940Y21440D3*
D48*
X29940D3*
X30940D3*
X31940D3*
X32940D3*
X33940D3*
X34940D3*
D50*
X28940Y33440D3*
D48*
X29940D3*
X30940D3*
X31940D3*
X32940D3*
X33940D3*
X34940D3*
D50*
X16440Y8940D3*
D48*
Y9940D3*
X17440Y8940D3*
Y9940D3*
X18440Y8940D3*
Y9940D3*
X19440Y8940D3*
Y9940D3*
D50*
X21940Y5440D3*
D48*
X22940D3*
X23940D3*
X24940D3*
D50*
X39940Y19440D3*
D48*
X38940D3*
X37940D3*
X36940D3*
X35940D3*
X34940D3*
X33940D3*
X32940D3*
X31940D3*
X30940D3*
X29940D3*
X28940D3*
X27940D3*
X26940D3*
X25940D3*
X24940D3*
X23940D3*
X22940D3*
D50*
X6440Y33440D3*
D48*
X7440D3*
X8440D3*
X9440D3*
X10440D3*
X11440D3*
X12440D3*
X13440D3*
X14440D3*
X15440D3*
X16440D3*
X17440D3*
X18440D3*
X19440D3*
D50*
X6440Y32440D3*
D48*
X7440D3*
X8440D3*
X9440D3*
X10440D3*
X11440D3*
X12440D3*
X13440D3*
X14440D3*
X15440D3*
X16440D3*
X17440D3*
X18440D3*
X19440D3*
D50*
X6440Y18440D3*
D48*
X7440D3*
X8440D3*
X9440D3*
X10440D3*
X11440D3*
X12440D3*
X13440D3*
X14440D3*
X15440D3*
X16440D3*
X17440D3*
X18440D3*
X19440D3*
D50*
X15440Y5440D3*
D48*
Y6440D3*
X16440Y5440D3*
Y6440D3*
X17440Y5440D3*
Y6440D3*
X18440Y5440D3*
Y6440D3*
X19440Y5440D3*
Y6440D3*
D28*
X6440Y31440D3*
X7440D3*
X8440D3*
X9440D3*
X10440D3*
X11440D3*
X12440D3*
X13440D3*
X15440D3*
X14440D3*
X16440D3*
X17440D3*
X18440D3*
X19440D3*
X6440Y30440D3*
X7440D3*
X8440D3*
X9440D3*
X10440D3*
X11440D3*
X12440D3*
X13440D3*
X15440D3*
X14440D3*
X16440D3*
X17440D3*
X18440D3*
X19440D3*
X6440Y29440D3*
X7440D3*
X8440D3*
X9440D3*
X10440D3*
X11440D3*
X12440D3*
X13440D3*
X15440D3*
X14440D3*
X16440D3*
X17440D3*
X18440D3*
X19440D3*
X6440Y28440D3*
X7440D3*
X8440D3*
X9440D3*
X10440D3*
X11440D3*
X12440D3*
X13440D3*
X15440D3*
X14440D3*
X16440D3*
X17440D3*
X18440D3*
X19440D3*
X6440Y27440D3*
X7440D3*
X8440D3*
X9440D3*
X10440D3*
X11440D3*
X12440D3*
X13440D3*
X15440D3*
X14440D3*
X16440D3*
X17440D3*
X18440D3*
X19440D3*
X6440Y26440D3*
X7440D3*
X8440D3*
X9440D3*
X10440D3*
X11440D3*
X12440D3*
X13440D3*
X15440D3*
X14440D3*
X16440D3*
X17440D3*
X18440D3*
X19440D3*
X6440Y25440D3*
X7440D3*
X8440D3*
X9440D3*
X10440D3*
X11440D3*
X12440D3*
X13440D3*
X15440D3*
X14440D3*
X16440D3*
X17440D3*
X18440D3*
X19440D3*
X6440Y24440D3*
X7440D3*
X8440D3*
X9440D3*
X10440D3*
X11440D3*
X12440D3*
X13440D3*
X15440D3*
X14440D3*
X16440D3*
X17440D3*
X18440D3*
X19440D3*
X6440Y23440D3*
X7440D3*
X8440D3*
X9440D3*
X10440D3*
X11440D3*
X12440D3*
X13440D3*
X15440D3*
X14440D3*
X16440D3*
X17440D3*
X18440D3*
X19440D3*
X6440Y22440D3*
X7440D3*
X8440D3*
X9440D3*
X10440D3*
X12440D3*
X11440D3*
X13440D3*
X14440D3*
X15440D3*
X16440D3*
X17440D3*
X18440D3*
X19440D3*
X6440Y21440D3*
X7440D3*
X8440D3*
X9440D3*
X10440D3*
X12440D3*
X11440D3*
X13440D3*
X14440D3*
X15440D3*
X16440D3*
X17440D3*
X18440D3*
X19440D3*
X6440Y20440D3*
X7440D3*
X8440D3*
X9440D3*
X10440D3*
X12440D3*
X11440D3*
X13440D3*
X14440D3*
X15440D3*
X16440D3*
X17440D3*
X18440D3*
X19440D3*
X6440Y19440D3*
X7440D3*
X8440D3*
X9440D3*
X10440D3*
X12440D3*
X11440D3*
X13440D3*
X14440D3*
X15440D3*
X16440D3*
X17440D3*
X18440D3*
X19440D3*
D54*
X20003Y12253D3*
Y12922D3*
D56*
X23628Y15003D3*
X24297D3*
X23628Y14378D3*
X24297D3*
D54*
X19440Y12940D3*
Y12271D3*
D56*
X11940Y13065D3*
X12610D3*
X16940D3*
X17610D3*
D54*
X12628Y14628D3*
Y15297D3*
D56*
X15628Y14878D3*
X14958D3*
X14253Y15378D3*
X14922D3*
D54*
X15628Y15940D3*
Y16610D3*
D56*
X39440Y38940D3*
X40110D3*
D46*
X25940D3*
X30862D3*
X25940Y36972D3*
X30862D3*
X32940Y38940D3*
X37862D3*
X32940Y36972D3*
X37862D3*
D50*
X10440Y8940D3*
D48*
X11440D3*
X12440D3*
X13440D3*
D44*
X9253Y16003D3*
Y15806D3*
Y15609D3*
Y15412D3*
X10001D3*
Y15609D3*
Y15806D3*
Y16003D3*
D42*
X9627Y15707D3*
D41*
X22940Y30440D3*
X23940D3*
X24940D3*
X25940D3*
X26940D3*
X27940D3*
X28940D3*
X29940D3*
X30940D3*
X31940D3*
X32940D3*
X33940D3*
X34940D3*
X35940D3*
D50*
X22940Y24440D3*
D41*
X23940D3*
X24940D3*
X25940D3*
X26940D3*
X27940D3*
X28940D3*
X29940D3*
X30940D3*
X31940D3*
X32940D3*
X33940D3*
X34940D3*
X35940D3*
Y29440D3*
Y28440D3*
Y27440D3*
Y26440D3*
Y25440D3*
X23940Y29440D3*
X25940D3*
X26940D3*
X27940D3*
X28940Y28440D3*
Y27440D3*
X30940D3*
X29940D3*
Y28440D3*
X30940D3*
X31940D3*
X32940D3*
X33940D3*
X34940D3*
Y27440D3*
X33940D3*
X32940D3*
X31940D3*
X39940Y17440D3*
X38940D3*
X37940D3*
X36940D3*
X35940D3*
X34940D3*
X33940D3*
X32940D3*
X31940D3*
X30940D3*
X29940D3*
X28940D3*
X27940D3*
X26940D3*
X25940D3*
X24940D3*
X23940D3*
X22940D3*
D46*
X34704Y8373D3*
X33326D3*
X31950Y8370D3*
X30570Y8373D3*
X29192D3*
X27810Y8370D3*
D39*
X8940Y13565D3*
Y13065D3*
Y12565D3*
Y12065D3*
X11066D3*
Y12565D3*
Y13065D3*
Y13565D3*
X13940D3*
Y13065D3*
Y12565D3*
Y12065D3*
X16066D3*
Y12565D3*
Y13065D3*
Y13565D3*
X16628Y16378D3*
Y15878D3*
Y15378D3*
Y14878D3*
X18754D3*
Y15378D3*
Y15878D3*
Y16378D3*
M02*
