M48
INCH
T01C0.012
T02C0.0354
T03C0.043
T04C0.0433
T05C0.0512
T06C0.06
T07C0.122
%
T01
X+024940Y+011375
X+027315Y+010878
X+022951Y+013378
X+023051Y+014378
X+022170Y+016626
X+019440Y+016875
X+018135Y+016645
X+017905Y+016378
X+017610Y+015878
X+016670Y+014511
X+016054Y+015058
X+014562Y+014511
X+013236Y+013813
X+011640Y+013442
X+014795Y+012065
X+017610Y+012688
X+019440Y+011874
X+020034Y+010125
X+019804Y+009405
X+021940Y+007526
X+022951Y+006905
X+023281Y+007756
X+021940Y+012115
X+020070Y+018760
X+016905Y+017788
X+009440Y+016792
X+008905Y+015642
X+007574Y+008940
X+009440Y+006320
X+012260Y+007173
X+012260Y+008216
X+014795Y+007135
X+018905Y+005026
X+031270Y+006545
X+033405Y+010125
X+035405Y+009405
X+035815Y+010440
X+039175Y+016745
X+036685Y+023265
X+031940Y+024955
X+029940Y+026595
X+031940Y+029365
X+033425Y+028905
X+034940Y+028955
X+035405Y+029185
X+036685Y+030210
X+036455Y+030905
X+036455Y+031926
X+032304Y+033905
X+027405Y+029905
X+026405Y+028670
X+022405Y+027955
X+020530Y+028440
X+020350Y+028965
X+020120Y+027866
X+020775Y+026365
X+021005Y+025415
X+020300Y+025185
X+020065Y+031190
X+021440Y+031690
X+022190Y+030940
X+028940Y+023265
X+030405Y+020135
T02
X+006440Y+031440
X+007440Y+031440
X+008440Y+031440
X+009440Y+031440
X+010440Y+031440
X+011440Y+031440
X+012440Y+031440
X+013440Y+031440
X+014440Y+031440
X+015440Y+031440
X+016440Y+031440
X+017440Y+031440
X+018440Y+031440
X+019440Y+031440
X+019440Y+030440
X+018440Y+030440
X+018440Y+029440
X+019440Y+029440
X+019440Y+028440
X+018440Y+028440
X+017440Y+028440
X+017440Y+029440
X+017440Y+030440
X+016440Y+030440
X+016440Y+029440
X+016440Y+028440
X+015440Y+028440
X+015440Y+029440
X+015440Y+030440
X+014440Y+030440
X+014440Y+029440
X+014440Y+028440
X+013440Y+028440
X+013440Y+029440
X+013440Y+030440
X+012440Y+030440
X+012440Y+029440
X+012440Y+028440
X+011440Y+028440
X+010440Y+028440
X+010440Y+029440
X+011440Y+029440
X+011440Y+030440
X+010440Y+030440
X+009440Y+030440
X+009440Y+029440
X+009440Y+028440
X+008440Y+028440
X+008440Y+029440
X+008440Y+030440
X+007440Y+030440
X+007440Y+029440
X+007440Y+028440
X+006440Y+028440
X+006440Y+029440
X+006440Y+030440
X+006440Y+027440
X+006440Y+026440
X+007440Y+026440
X+007440Y+027440
X+008440Y+027440
X+008440Y+026440
X+009440Y+026440
X+009440Y+027440
X+010440Y+027440
X+011440Y+027440
X+011440Y+026440
X+010440Y+026440
X+010440Y+025440
X+011440Y+025440
X+011440Y+024440
X+010440Y+024440
X+010440Y+023440
X+011440Y+023440
X+012440Y+023440
X+012440Y+024440
X+012440Y+025440
X+012440Y+026440
X+012440Y+027440
X+013440Y+027440
X+013440Y+026440
X+013440Y+025440
X+013440Y+024440
X+013440Y+023440
X+014440Y+023440
X+014440Y+024440
X+014440Y+025440
X+015440Y+025440
X+015440Y+024440
X+015440Y+023440
X+016440Y+023440
X+016440Y+024440
X+016440Y+025440
X+017440Y+025440
X+017440Y+024440
X+017440Y+023440
X+018440Y+023440
X+019440Y+023440
X+019440Y+024440
X+018440Y+024440
X+018440Y+025440
X+019440Y+025440
X+019440Y+026440
X+018440Y+026440
X+018440Y+027440
X+019440Y+027440
X+017440Y+027440
X+017440Y+026440
X+016440Y+026440
X+016440Y+027440
X+015440Y+027440
X+015440Y+026440
X+014440Y+026440
X+014440Y+027440
X+014440Y+022440
X+014440Y+021440
X+014440Y+020440
X+013440Y+020440
X+013440Y+021440
X+013440Y+022440
X+012440Y+022440
X+012440Y+021440
X+012440Y+020440
X+011440Y+020440
X+010440Y+020440
X+010440Y+021440
X+011440Y+021440
X+011440Y+022440
X+010440Y+022440
X+009440Y+022440
X+009440Y+021440
X+009440Y+020440
X+008440Y+020440
X+008440Y+021440
X+008440Y+022440
X+008440Y+023440
X+008440Y+024440
X+008440Y+025440
X+009440Y+025440
X+009440Y+024440
X+009440Y+023440
X+007440Y+023440
X+007440Y+024440
X+007440Y+025440
X+006440Y+025440
X+006440Y+024440
X+006440Y+023440
X+006440Y+022440
X+006440Y+021440
X+006440Y+020440
X+007440Y+020440
X+007440Y+021440
X+007440Y+022440
X+007440Y+019440
X+006440Y+019440
X+008440Y+019440
X+009440Y+019440
X+010440Y+019440
X+011440Y+019440
X+012440Y+019440
X+013440Y+019440
X+014440Y+019440
X+015440Y+019440
X+015440Y+020440
X+015440Y+021440
X+015440Y+022440
X+016440Y+022440
X+016440Y+021440
X+016440Y+020440
X+017440Y+020440
X+017440Y+021440
X+017440Y+022440
X+018440Y+022440
X+019440Y+022440
X+019440Y+021440
X+018440Y+021440
X+018440Y+020440
X+019440Y+020440
X+019440Y+019440
X+018440Y+019440
X+017440Y+019440
X+016440Y+019440
T03
X+022940Y+030440
X+023940Y+030440
X+023940Y+029440
X+024940Y+030440
X+025940Y+030440
X+025940Y+029440
X+026940Y+029440
X+026940Y+030440
X+027940Y+030440
X+027940Y+029440
X+028940Y+030440
X+029940Y+030440
X+030940Y+030440
X+031940Y+030440
X+032940Y+030440
X+033940Y+030440
X+034940Y+030440
X+035940Y+030440
X+035940Y+029440
X+035940Y+028440
X+035940Y+027440
X+035940Y+026440
X+035940Y+025440
X+035940Y+024440
X+034940Y+024440
X+033940Y+024440
X+032940Y+024440
X+031940Y+024440
X+030940Y+024440
X+029940Y+024440
X+028940Y+024440
X+027940Y+024440
X+026940Y+024440
X+025940Y+024440
X+024940Y+024440
X+023940Y+024440
X+022940Y+024440
X+028940Y+027440
X+028940Y+028440
X+029940Y+028440
X+029940Y+027440
X+030940Y+027440
X+031940Y+027440
X+031940Y+028440
X+030940Y+028440
X+032940Y+028440
X+032940Y+027440
X+033940Y+027440
X+034940Y+027440
X+034940Y+028440
X+033940Y+028440
X+033940Y+017440
X+032940Y+017440
X+031940Y+017440
X+030940Y+017440
X+029940Y+017440
X+028940Y+017440
X+027940Y+017440
X+026940Y+017440
X+025940Y+017440
X+024940Y+017440
X+023940Y+017440
X+022940Y+017440
X+034940Y+017440
X+035940Y+017440
X+036940Y+017440
X+037940Y+017440
X+038940Y+017440
X+039940Y+017440
T04
X+022940Y+036940
X+021940Y+036940
X+021940Y+037940
X+022940Y+037940
X+022940Y+038940
X+021940Y+038940
X+023940Y+033440
X+023940Y+032440
X+022940Y+032440
X+024940Y+032440
X+025940Y+032440
X+026940Y+032440
X+027940Y+032440
X+028940Y+032440
X+029940Y+032440
X+030940Y+032440
X+031940Y+032440
X+032940Y+032440
X+033940Y+032440
X+034940Y+032440
X+035940Y+032440
X+034940Y+033440
X+033940Y+033440
X+032940Y+033440
X+031940Y+033440
X+030940Y+033440
X+029940Y+033440
X+028940Y+033440
X+026940Y+033440
X+025940Y+033440
X+024940Y+033440
X+019440Y+033440
X+018440Y+033440
X+017440Y+033440
X+016440Y+033440
X+015440Y+033440
X+014440Y+033440
X+013440Y+033440
X+012440Y+033440
X+011440Y+033440
X+010440Y+033440
X+009440Y+033440
X+008440Y+033440
X+007440Y+033440
X+006440Y+033440
X+006440Y+032440
X+007440Y+032440
X+008440Y+032440
X+009440Y+032440
X+010440Y+032440
X+011440Y+032440
X+012440Y+032440
X+013440Y+032440
X+014440Y+032440
X+015440Y+032440
X+016440Y+032440
X+017440Y+032440
X+018440Y+032440
X+019440Y+032440
X+022940Y+022440
X+023940Y+022440
X+024940Y+022440
X+025940Y+022440
X+026940Y+022440
X+027940Y+022440
X+028940Y+022440
X+028940Y+021440
X+029940Y+021440
X+029940Y+022440
X+030940Y+022440
X+031940Y+022440
X+031940Y+021440
X+032940Y+021440
X+032940Y+022440
X+033940Y+022440
X+034940Y+022440
X+034940Y+021440
X+033940Y+021440
X+033940Y+019440
X+032940Y+019440
X+031940Y+019440
X+030940Y+019440
X+029940Y+019440
X+028940Y+019440
X+027940Y+019440
X+026940Y+019440
X+025940Y+019440
X+024940Y+019440
X+023940Y+019440
X+022940Y+019440
X+019440Y+018440
X+018440Y+018440
X+017440Y+018440
X+016440Y+018440
X+015440Y+018440
X+014440Y+018440
X+013440Y+018440
X+012440Y+018440
X+011440Y+018440
X+010440Y+018440
X+009440Y+018440
X+008440Y+018440
X+007440Y+018440
X+006440Y+018440
X+006440Y+013940
X+006440Y+012940
X+006440Y+011940
X+006440Y+010940
X+006440Y+009940
X+006440Y+008940
X+010440Y+008940
X+011440Y+008940
X+012440Y+008940
X+013440Y+008940
X+013440Y+006440
X+012440Y+006440
X+011440Y+006440
X+011440Y+005440
X+012440Y+005440
X+013440Y+005440
X+015440Y+005440
X+015440Y+006440
X+016440Y+006440
X+016440Y+005440
X+017440Y+005440
X+017440Y+006440
X+018440Y+006440
X+018440Y+005440
X+019440Y+005440
X+019440Y+006440
X+019440Y+008940
X+019440Y+009940
X+018440Y+009940
X+018440Y+008940
X+017440Y+008940
X+016440Y+008940
X+016440Y+009940
X+017440Y+009940
X+021940Y+005440
X+022940Y+005440
X+023940Y+005440
X+024940Y+005440
X+026940Y+005440
X+027940Y+005440
X+028940Y+005440
X+029940Y+005440
X+030940Y+005440
X+031940Y+005440
X+033940Y+005440
X+034940Y+005440
X+035940Y+005440
X+036940Y+005440
X+037940Y+005440
X+038940Y+005440
X+038940Y+019440
X+037940Y+019440
X+036940Y+019440
X+035940Y+019440
X+034940Y+019440
X+035940Y+022440
X+037940Y+025440
X+037940Y+026440
X+037940Y+027440
X+037940Y+028440
X+037940Y+029440
X+039940Y+019440
X+030940Y+021440
T05
X+025940Y+038940
X+025940Y+036972
X+030862Y+036972
X+030862Y+038940
X+032940Y+038940
X+032940Y+036972
X+037862Y+036972
X+037862Y+038940
T06
X+034704Y+008373
X+033326Y+008373
X+031950Y+008370
X+030570Y+008373
X+029192Y+008373
X+027810Y+008370
T07
X+040940Y+040940
X+005440Y+040940
X+005440Y+005440
X+040940Y+005440
T00
M30
