G75*
%MOIN*%
%OFA0B0*%
%FSLAX25Y25*%
%IPPOS*%
%LPD*%
%AMOC8*
5,1,8,0,0,1.08239X$1,22.5*
%
%ADD10C,0.13005*%
%ADD11R,0.03950X0.05524*%
%ADD12R,0.05524X0.03950*%
%ADD13R,0.15811X0.06312*%
%ADD14R,0.06312X0.15811*%
%ADD15R,0.05524X0.08674*%
%ADD16C,0.07800*%
%ADD17R,0.07800X0.07800*%
%ADD18C,0.09398*%
%ADD19R,0.05800X0.06587*%
%ADD20R,0.08800X0.03400*%
%ADD21OC8,0.08200*%
%ADD22R,0.06312X0.05524*%
%ADD23C,0.08200*%
%ADD24R,0.17500X0.15800*%
%ADD25R,0.10250X0.10250*%
%ADD26C,0.10250*%
%ADD27C,0.07000*%
%ADD28R,0.25209X0.22060*%
%ADD29R,0.07099X0.04737*%
%ADD30R,0.09461X0.03162*%
%ADD31R,0.05800X0.03000*%
%ADD32R,0.09500X0.03200*%
%ADD33R,0.08600X0.03000*%
%ADD34R,0.06300X0.02170*%
%ADD35C,0.09300*%
%ADD36R,0.08200X0.08200*%
%ADD37R,0.06312X0.04737*%
%ADD38R,0.06350X0.06350*%
%ADD39C,0.06350*%
%ADD40R,0.08674X0.05524*%
%ADD41C,0.24422*%
%ADD42R,0.24422X0.24422*%
%ADD43R,0.11725X0.11725*%
%ADD44C,0.11725*%
%ADD45C,0.04737*%
%ADD46OC8,0.08300*%
%ADD47C,0.06737*%
%ADD48C,0.08300*%
D10*
X0022000Y0022000D03*
X0377000Y0022000D03*
X0377000Y0377000D03*
X0022000Y0377000D03*
D11*
X0095457Y0365000D03*
X0102543Y0365000D03*
X0111457Y0365000D03*
X0118543Y0365000D03*
X0126457Y0365000D03*
X0133543Y0365000D03*
X0142457Y0365000D03*
X0149543Y0365000D03*
X0158457Y0361000D03*
X0165543Y0361000D03*
X0158543Y0353000D03*
X0151457Y0353000D03*
X0154543Y0339000D03*
X0147457Y0339000D03*
X0185457Y0315000D03*
X0192543Y0315000D03*
X0190457Y0266000D03*
X0197543Y0266000D03*
X0137543Y0253000D03*
X0130457Y0253000D03*
X0125543Y0266000D03*
X0118457Y0266000D03*
X0082543Y0255000D03*
X0075457Y0255000D03*
X0072543Y0265000D03*
X0065457Y0265000D03*
X0190457Y0092000D03*
X0197543Y0092000D03*
X0145543Y0082000D03*
X0138457Y0082000D03*
X0138543Y0072000D03*
X0131457Y0072000D03*
X0058543Y0031000D03*
X0051457Y0031000D03*
X0211457Y0041000D03*
X0218543Y0041000D03*
X0231457Y0040000D03*
X0238543Y0040000D03*
X0276457Y0089000D03*
X0283543Y0089000D03*
X0283543Y0100000D03*
X0276457Y0100000D03*
X0280457Y0111000D03*
X0287543Y0111000D03*
X0298457Y0125000D03*
X0305543Y0125000D03*
X0316457Y0256000D03*
X0323543Y0256000D03*
X0323543Y0280000D03*
X0316457Y0280000D03*
D12*
X0242000Y0279543D03*
X0242000Y0272457D03*
X0242000Y0296457D03*
X0242000Y0303543D03*
X0242000Y0320457D03*
X0242000Y0327543D03*
X0242000Y0344457D03*
X0242000Y0351543D03*
X0242000Y0368457D03*
X0242000Y0375543D03*
X0185000Y0290543D03*
X0185000Y0283457D03*
X0176000Y0284543D03*
X0176000Y0277457D03*
X0136000Y0274457D03*
X0136000Y0281543D03*
X0136000Y0287957D03*
X0136000Y0295043D03*
X0124500Y0295543D03*
X0124500Y0288457D03*
X0126000Y0281543D03*
X0126000Y0274457D03*
X0128000Y0247543D03*
X0128000Y0240457D03*
X0076000Y0241457D03*
X0076000Y0248543D03*
X0053000Y0329457D03*
X0053000Y0336543D03*
X0212000Y0215543D03*
X0212000Y0208457D03*
X0222000Y0208457D03*
X0222000Y0215543D03*
X0232000Y0215543D03*
X0232000Y0208457D03*
X0238000Y0233457D03*
X0238000Y0240543D03*
X0097000Y0108543D03*
X0097000Y0101457D03*
X0121000Y0104543D03*
X0121000Y0097457D03*
X0195000Y0079543D03*
X0195000Y0072457D03*
X0214000Y0090457D03*
X0214000Y0097543D03*
X0223000Y0097543D03*
X0223000Y0090457D03*
X0233000Y0090457D03*
X0233000Y0097543D03*
X0243000Y0097543D03*
X0243000Y0090457D03*
X0253000Y0090457D03*
X0253000Y0097543D03*
X0262000Y0097543D03*
X0262000Y0090457D03*
X0251000Y0041543D03*
X0251000Y0034457D03*
X0251000Y0026543D03*
X0251000Y0019457D03*
X0223000Y0025457D03*
X0223000Y0032543D03*
X0308000Y0031543D03*
X0308000Y0024457D03*
D13*
X0346051Y0159000D03*
X0367949Y0159000D03*
X0313949Y0234000D03*
X0292051Y0234000D03*
X0329051Y0374000D03*
X0350949Y0374000D03*
D14*
X0188000Y0356949D03*
X0188000Y0335051D03*
D15*
X0163299Y0099000D03*
X0150701Y0099000D03*
D16*
X0325000Y0292000D03*
X0335000Y0292000D03*
X0345000Y0292000D03*
X0365000Y0292000D03*
X0309500Y0312000D03*
X0279500Y0312000D03*
X0269500Y0312000D03*
D17*
X0289500Y0312000D03*
X0299500Y0312000D03*
X0325000Y0334000D03*
X0355000Y0292000D03*
D18*
X0381000Y0296000D03*
X0329000Y0348000D03*
X0308500Y0378500D03*
X0255500Y0315500D03*
D19*
X0321535Y0039000D03*
X0338465Y0039000D03*
D20*
X0189100Y0229000D03*
X0189100Y0234000D03*
X0189100Y0239000D03*
X0189100Y0244000D03*
X0189100Y0249000D03*
X0189100Y0254000D03*
X0189100Y0259000D03*
X0164900Y0259000D03*
X0164900Y0254000D03*
X0164900Y0249000D03*
X0164900Y0244000D03*
X0164900Y0239000D03*
X0164900Y0234000D03*
X0164900Y0229000D03*
D21*
X0141000Y0220000D03*
X0141000Y0210000D03*
X0131000Y0210000D03*
X0131000Y0220000D03*
X0121000Y0220000D03*
X0121000Y0210000D03*
X0032000Y0177000D03*
X0032000Y0167000D03*
X0022000Y0167000D03*
X0022000Y0177000D03*
X0022000Y0157000D03*
X0022000Y0147000D03*
X0032000Y0147000D03*
X0032000Y0157000D03*
X0032000Y0137000D03*
X0022000Y0137000D03*
X0029000Y0101000D03*
X0029000Y0091000D03*
X0039000Y0091000D03*
X0039000Y0101000D03*
X0049000Y0101000D03*
X0049000Y0091000D03*
X0049000Y0062000D03*
X0049000Y0052000D03*
X0039000Y0052000D03*
X0039000Y0062000D03*
X0029000Y0062000D03*
X0029000Y0052000D03*
X0228000Y0061000D03*
X0238000Y0061000D03*
X0238000Y0071000D03*
X0228000Y0071000D03*
X0248000Y0071000D03*
X0248000Y0061000D03*
X0268000Y0267000D03*
X0278000Y0267000D03*
X0278000Y0277000D03*
X0268000Y0277000D03*
X0288000Y0277000D03*
X0288000Y0267000D03*
X0032000Y0317000D03*
X0032000Y0327000D03*
X0022000Y0327000D03*
X0022000Y0317000D03*
X0022000Y0337000D03*
X0032000Y0337000D03*
D22*
X0212000Y0028906D03*
X0212000Y0017094D03*
X0235000Y0017094D03*
X0235000Y0028906D03*
D23*
X0131000Y0090000D03*
X0131000Y0100000D03*
X0108000Y0082000D03*
X0098000Y0082000D03*
X0088000Y0082000D03*
X0219000Y0231000D03*
X0219000Y0241000D03*
X0221000Y0271000D03*
X0231000Y0271000D03*
X0231000Y0297000D03*
X0221000Y0297000D03*
X0221000Y0323000D03*
X0231000Y0323000D03*
X0231000Y0349000D03*
X0221000Y0349000D03*
X0221000Y0375000D03*
X0231000Y0375000D03*
X0183000Y0377000D03*
X0173000Y0377000D03*
X0163000Y0377000D03*
X0153000Y0377000D03*
X0143000Y0377000D03*
X0133000Y0377000D03*
X0112000Y0377000D03*
X0102000Y0377000D03*
X0092000Y0377000D03*
X0082000Y0377000D03*
X0072000Y0377000D03*
X0062000Y0377000D03*
D24*
X0324500Y0021000D03*
X0349600Y0021000D03*
D25*
X0372567Y0115638D03*
D26*
X0372567Y0095638D03*
D27*
X0287000Y0124500D03*
X0277000Y0124500D03*
X0267000Y0124500D03*
X0257000Y0124500D03*
X0247000Y0124500D03*
X0237000Y0124500D03*
X0227000Y0124500D03*
X0217000Y0124500D03*
X0207000Y0124500D03*
X0197000Y0124500D03*
X0187000Y0124500D03*
X0177000Y0124500D03*
X0167000Y0124500D03*
X0157000Y0124500D03*
X0147000Y0124500D03*
X0137000Y0124500D03*
X0127000Y0124500D03*
X0117000Y0124500D03*
X0107000Y0124500D03*
X0097000Y0124500D03*
X0087000Y0124500D03*
X0077000Y0124500D03*
X0067000Y0124500D03*
X0057000Y0124500D03*
X0057000Y0184500D03*
X0067000Y0184500D03*
X0077000Y0184500D03*
X0087000Y0184500D03*
X0097000Y0184500D03*
X0107000Y0184500D03*
X0117000Y0184500D03*
X0127000Y0184500D03*
X0137000Y0184500D03*
X0147000Y0184500D03*
X0157000Y0184500D03*
X0167000Y0184500D03*
X0177000Y0184500D03*
X0187000Y0184500D03*
X0197000Y0184500D03*
X0207000Y0184500D03*
X0217000Y0184500D03*
X0227000Y0184500D03*
X0237000Y0184500D03*
X0247000Y0184500D03*
X0257000Y0184500D03*
X0267000Y0184500D03*
X0277000Y0184500D03*
X0287000Y0184500D03*
D28*
X0269157Y0028000D03*
D29*
X0297898Y0019024D03*
X0297898Y0036976D03*
D30*
X0180236Y0074500D03*
X0180236Y0079500D03*
X0180236Y0084500D03*
X0180236Y0089500D03*
X0159764Y0089500D03*
X0159764Y0084500D03*
X0159764Y0079500D03*
X0159764Y0074500D03*
D31*
X0324100Y0265300D03*
X0324100Y0272700D03*
X0315900Y0269000D03*
D32*
X0118300Y0257500D03*
X0118300Y0252500D03*
X0118300Y0247500D03*
X0118300Y0242500D03*
X0097700Y0242500D03*
X0097700Y0247500D03*
X0097700Y0252500D03*
X0097700Y0257500D03*
X0066300Y0258500D03*
X0066300Y0253500D03*
X0066300Y0248500D03*
X0066300Y0243500D03*
X0045700Y0243500D03*
X0045700Y0248500D03*
X0045700Y0253500D03*
X0045700Y0258500D03*
D33*
X0145700Y0277500D03*
X0145700Y0282500D03*
X0145700Y0287500D03*
X0145700Y0292500D03*
X0164300Y0292500D03*
X0164300Y0287500D03*
X0164300Y0282500D03*
X0164300Y0277500D03*
D34*
X0136394Y0317925D03*
X0136394Y0320484D03*
X0136394Y0323043D03*
X0136394Y0325602D03*
X0136394Y0328161D03*
X0136394Y0330720D03*
X0136394Y0333280D03*
X0136394Y0335839D03*
X0136394Y0338398D03*
X0136394Y0340957D03*
X0136394Y0343516D03*
X0136394Y0346075D03*
X0107606Y0346075D03*
X0107606Y0343516D03*
X0107606Y0340957D03*
X0107606Y0338398D03*
X0107606Y0335839D03*
X0107606Y0333280D03*
X0107606Y0330720D03*
X0107606Y0328161D03*
X0107606Y0325602D03*
X0107606Y0323043D03*
X0107606Y0320484D03*
X0107606Y0317925D03*
D35*
X0130606Y0051843D03*
X0145394Y0051843D03*
X0145394Y0032157D03*
X0130606Y0032157D03*
X0081394Y0032157D03*
X0081394Y0051843D03*
X0194606Y0051843D03*
X0194606Y0032157D03*
D36*
X0118000Y0082000D03*
X0219000Y0251000D03*
X0211000Y0271000D03*
X0211000Y0297000D03*
X0211000Y0323000D03*
X0211000Y0349000D03*
X0211000Y0375000D03*
D37*
X0104669Y0108740D03*
X0104669Y0101260D03*
X0113331Y0105000D03*
D38*
X0345059Y0262195D03*
X0375059Y0262195D03*
D39*
X0365059Y0262195D03*
X0365059Y0272195D03*
X0375059Y0272195D03*
X0355059Y0272195D03*
X0345059Y0272195D03*
X0355059Y0262195D03*
D40*
X0085000Y0109299D03*
X0085000Y0096701D03*
D41*
X0336528Y0099000D03*
D42*
X0307000Y0099000D03*
D43*
X0313000Y0062000D03*
D44*
X0298000Y0062000D03*
X0283000Y0062000D03*
X0363000Y0052000D03*
X0363000Y0072000D03*
D45*
X0365000Y0034000D03*
X0034000Y0034000D03*
X0034000Y0365000D03*
D46*
X0053000Y0344000D03*
X0020000Y0221000D03*
X0087000Y0209000D03*
X0066000Y0015000D03*
X0326000Y0141000D03*
X0323000Y0383000D03*
D47*
X0333000Y0281000D03*
X0289000Y0028000D03*
D48*
X0350000Y0041000D03*
M02*
