%
M48
M72
T01C0.02165
T02C0.03150
T03C0.03800
T04C0.03937
T05C0.04000
T06C0.04724
T07C0.06300
T08C0.07283
T09C0.08598
T10C0.12205
T11C0.17716
%
T01
X46000Y31000
X74000Y44000
X72000Y65000
X64000Y70000
X72000Y82000
X77000Y89000
X68000Y110000
X49000Y117000
X48000Y124000
X30000Y112000
X26000Y121000
X14000Y106000
X19000Y75500
X77000Y145000
X97000Y141000
X116000Y144000
X120000Y157000
X129000Y152000
X133000Y162000
X117000Y168000
X109000Y163000
X87000Y172000
X66000Y168000
X58000Y160000
X31000Y195000
X39000Y206000
X76000Y232000
X85000Y227000
X85000Y238000
X90000Y245000
X90000Y255000
X86000Y266000
X81500Y269000
X78000Y265000
X82000Y279000
X88000Y282000
X104000Y296000
X117000Y296000
X124000Y303000
X130000Y298617
X130000Y293000
X130500Y286000
X120000Y284000
X116000Y274000
X126000Y260000
X137500Y259500
X153000Y248000
X158000Y244000
X157000Y235000
X152000Y237000
X145000Y240000
X158000Y254000
X168000Y264000
X172000Y290000
X174000Y314000
X179000Y326000
X175000Y334000
X166974Y346075
X165000Y354000
X173000Y365000
X144000Y359000
X136000Y359000
X130000Y349000
X125989Y345989
X124967Y339967
X120000Y337000
X117000Y330000
X130000Y323043
X145000Y329500
X115000Y359000
X108000Y360000
X102000Y352000
X95000Y352000
X94000Y345000
X96000Y334600
X86000Y320000
X75000Y315000
X75000Y302000
X66000Y329400
X80000Y340000
X80000Y350000
X60000Y265000
X38000Y256000
X38000Y246000
X22000Y249000
X102000Y232000
X122000Y238000
X125000Y194000
X165000Y160883
X161000Y150000
X163000Y140500
X163000Y131000
X177000Y131000
X183000Y146000
X192000Y142117
X196000Y136000
X202000Y138000
X212000Y153000
X224000Y146000
X231000Y153000
X240000Y155000
X249000Y167117
X255000Y167000
X260626Y170117
X265000Y163000
X256000Y158000
X267000Y150000
X257000Y137000
X247000Y141000
X237000Y134000
X254000Y112000
X243000Y104000
X253000Y83000
X272000Y76000
X286000Y80000
X272000Y55000
X259000Y45000
X244000Y38000
X227000Y40000
X211000Y56500
X204000Y42000
X184000Y56500
X189000Y79500
X193000Y85000
X203000Y82000
X204000Y93000
X186000Y99383
X177000Y109000
X167000Y109000
X150000Y87000
X144000Y104500
X132000Y108000
X132000Y131000
X122000Y131000
X142000Y131000
X148000Y136000
X175000Y171283
X179117Y178000
X187000Y172083
X197000Y177000
X197000Y196000
X186000Y195000
X177000Y193000
X170000Y201000
X166000Y206000
X170000Y212000
X166000Y223000
X206000Y218000
X206000Y211000
X212000Y224000
X206000Y234000
X230000Y222000
X241000Y216000
X256000Y194000
X267000Y195000
X273000Y195500
X289000Y173000
X280000Y166000
X309000Y164000
X278000Y117000
X266000Y112000
X223000Y83000
X222000Y109000
X215000Y109000
X222000Y176000
X227000Y193000
X249000Y178000
X287000Y248500
X324000Y249000
X324000Y243000
X326000Y234000
X342000Y235500
X342000Y243000
X300000Y292500
X264000Y297000
X242000Y291000
X242000Y267000
X237000Y264000
X241000Y259000
X200883Y296000
X197000Y301083
X198000Y315000
X188000Y322200
X242000Y315000
X253000Y330000
X257000Y349000
X242000Y357000
X285000Y345500
X296000Y359500
X306000Y353000
X379000Y159000
X305000Y13000
X253000Y13000
X145000Y66000
X133000Y42000
X131000Y17000
T02
X345059Y262195
X355059Y262195
X355059Y272195
X345059Y272195
X365059Y272195
X375059Y272195
X375059Y262195
X365059Y262195
T03
X287000Y184500
X277000Y184500
X267000Y184500
X257000Y184500
X247000Y184500
X237000Y184500
X227000Y184500
X217000Y184500
X207000Y184500
X197000Y184500
X187000Y184500
X177000Y184500
X167000Y184500
X157000Y184500
X147000Y184500
X137000Y184500
X127000Y184500
X117000Y184500
X107000Y184500
X97000Y184500
X87000Y184500
X77000Y184500
X67000Y184500
X57000Y184500
X57000Y124500
X67000Y124500
X77000Y124500
X87000Y124500
X97000Y124500
X107000Y124500
X117000Y124500
X127000Y124500
X137000Y124500
X147000Y124500
X157000Y124500
X167000Y124500
X177000Y124500
X187000Y124500
X197000Y124500
X207000Y124500
X217000Y124500
X227000Y124500
X237000Y124500
X247000Y124500
X257000Y124500
X267000Y124500
X277000Y124500
X287000Y124500
T04
X326000Y141000
X350000Y41000
X289000Y28000
X87000Y209000
X20000Y221000
X53000Y344000
X323000Y383000
X333000Y281000
X66000Y15000
T05
X49000Y52000
X49000Y62000
X39000Y62000
X39000Y52000
X29000Y52000
X29000Y62000
X29000Y91000
X29000Y101000
X39000Y101000
X39000Y91000
X49000Y91000
X49000Y101000
X32000Y137000
X22000Y137000
X22000Y147000
X22000Y157000
X32000Y157000
X32000Y147000
X32000Y167000
X32000Y177000
X22000Y177000
X22000Y167000
X88000Y82000
X98000Y82000
X108000Y82000
X118000Y82000
X131000Y90000
X131000Y100000
X228000Y71000
X238000Y71000
X238000Y61000
X228000Y61000
X248000Y61000
X248000Y71000
X141000Y210000
X141000Y220000
X131000Y220000
X131000Y210000
X121000Y210000
X121000Y220000
X211000Y271000
X221000Y271000
X231000Y271000
X219000Y251000
X219000Y241000
X219000Y231000
X268000Y267000
X278000Y267000
X278000Y277000
X268000Y277000
X288000Y277000
X288000Y267000
X325000Y292000
X335000Y292000
X345000Y292000
X355000Y292000
X365000Y292000
X325000Y334000
X309500Y312000
X299500Y312000
X289500Y312000
X279500Y312000
X269500Y312000
X231000Y323000
X221000Y323000
X211000Y323000
X211000Y297000
X221000Y297000
X231000Y297000
X231000Y349000
X221000Y349000
X211000Y349000
X211000Y375000
X221000Y375000
X231000Y375000
X183000Y377000
X173000Y377000
X163000Y377000
X153000Y377000
X143000Y377000
X133000Y377000
X112000Y377000
X102000Y377000
X92000Y377000
X82000Y377000
X72000Y377000
X62000Y377000
X32000Y337000
X22000Y337000
X22000Y327000
X22000Y317000
X32000Y317000
X32000Y327000
T06
X81394Y51843
X81394Y32157
X130606Y32157
X145394Y32157
X145394Y51843
X130606Y51843
X194606Y51843
X194606Y32157
T07
X372567Y95638
X372567Y115638
T08
X363000Y72000
X363000Y52000
X313000Y62000
X298000Y62000
X283000Y62000
T09
X381000Y296000
X329000Y348000
X308500Y378500
X255500Y315500
T10
X22000Y22000
X377000Y22000
X377000Y377000
X22000Y377000
T11
X307000Y99000
X336528Y99000
M30
