G75*
%MOIN*%
%OFA0B0*%
%FSLAX25Y25*%
%IPPOS*%
%LPD*%
%AMOC8*
5,1,8,0,0,1.08239X$1,22.5*
%
%ADD10C,0.07000*%
%ADD11R,0.07000X0.07000*%
%ADD12OC8,0.07400*%
%ADD13C,0.07400*%
%ADD14R,0.09450X0.09450*%
%ADD15C,0.09450*%
%ADD16C,0.06200*%
%ADD17C,0.08500*%
%ADD18R,0.07400X0.07400*%
%ADD19R,0.05550X0.05550*%
%ADD20C,0.05550*%
%ADD21C,0.23622*%
%ADD22R,0.23622X0.23622*%
%ADD23R,0.10925X0.10925*%
%ADD24C,0.10925*%
%ADD25C,0.02000*%
%ADD26OC8,0.04165*%
%ADD27OC8,0.07500*%
%ADD28C,0.05937*%
%ADD29C,0.08000*%
%ADD30C,0.04165*%
%ADD31C,0.03000*%
%ADD32C,0.04000*%
%ADD33C,0.05000*%
%ADD34C,0.06000*%
%ADD35C,0.10000*%
%ADD36C,0.07500*%
D10*
X0269500Y0312000D03*
X0279500Y0312000D03*
X0309500Y0312000D03*
X0325000Y0292000D03*
X0335000Y0292000D03*
X0345000Y0292000D03*
X0365000Y0292000D03*
D11*
X0355000Y0292000D03*
X0325000Y0334000D03*
X0299500Y0312000D03*
X0289500Y0312000D03*
D12*
X0288000Y0277000D03*
X0288000Y0267000D03*
X0278000Y0267000D03*
X0268000Y0267000D03*
X0268000Y0277000D03*
X0278000Y0277000D03*
X0141000Y0220000D03*
X0141000Y0210000D03*
X0131000Y0210000D03*
X0131000Y0220000D03*
X0121000Y0220000D03*
X0121000Y0210000D03*
X0032000Y0177000D03*
X0032000Y0167000D03*
X0022000Y0167000D03*
X0022000Y0177000D03*
X0022000Y0157000D03*
X0022000Y0147000D03*
X0032000Y0147000D03*
X0032000Y0157000D03*
X0032000Y0137000D03*
X0022000Y0137000D03*
X0029000Y0101000D03*
X0029000Y0091000D03*
X0039000Y0091000D03*
X0039000Y0101000D03*
X0049000Y0101000D03*
X0049000Y0091000D03*
X0049000Y0062000D03*
X0049000Y0052000D03*
X0039000Y0052000D03*
X0039000Y0062000D03*
X0029000Y0062000D03*
X0029000Y0052000D03*
X0228000Y0061000D03*
X0238000Y0061000D03*
X0238000Y0071000D03*
X0228000Y0071000D03*
X0248000Y0071000D03*
X0248000Y0061000D03*
X0032000Y0317000D03*
X0032000Y0327000D03*
X0022000Y0327000D03*
X0022000Y0317000D03*
X0022000Y0337000D03*
X0032000Y0337000D03*
D13*
X0062000Y0377000D03*
X0072000Y0377000D03*
X0082000Y0377000D03*
X0092000Y0377000D03*
X0102000Y0377000D03*
X0112000Y0377000D03*
X0133000Y0377000D03*
X0143000Y0377000D03*
X0153000Y0377000D03*
X0163000Y0377000D03*
X0173000Y0377000D03*
X0183000Y0377000D03*
X0221000Y0375000D03*
X0231000Y0375000D03*
X0231000Y0349000D03*
X0221000Y0349000D03*
X0221000Y0323000D03*
X0231000Y0323000D03*
X0231000Y0297000D03*
X0221000Y0297000D03*
X0221000Y0271000D03*
X0231000Y0271000D03*
X0219000Y0241000D03*
X0219000Y0231000D03*
X0131000Y0100000D03*
X0131000Y0090000D03*
X0108000Y0082000D03*
X0098000Y0082000D03*
X0088000Y0082000D03*
D14*
X0372567Y0115638D03*
D15*
X0372567Y0095638D03*
D16*
X0287000Y0124500D03*
X0277000Y0124500D03*
X0267000Y0124500D03*
X0257000Y0124500D03*
X0247000Y0124500D03*
X0237000Y0124500D03*
X0227000Y0124500D03*
X0217000Y0124500D03*
X0207000Y0124500D03*
X0197000Y0124500D03*
X0187000Y0124500D03*
X0177000Y0124500D03*
X0167000Y0124500D03*
X0157000Y0124500D03*
X0147000Y0124500D03*
X0137000Y0124500D03*
X0127000Y0124500D03*
X0117000Y0124500D03*
X0107000Y0124500D03*
X0097000Y0124500D03*
X0087000Y0124500D03*
X0077000Y0124500D03*
X0067000Y0124500D03*
X0057000Y0124500D03*
X0057000Y0184500D03*
X0067000Y0184500D03*
X0077000Y0184500D03*
X0087000Y0184500D03*
X0097000Y0184500D03*
X0107000Y0184500D03*
X0117000Y0184500D03*
X0127000Y0184500D03*
X0137000Y0184500D03*
X0147000Y0184500D03*
X0157000Y0184500D03*
X0167000Y0184500D03*
X0177000Y0184500D03*
X0187000Y0184500D03*
X0197000Y0184500D03*
X0207000Y0184500D03*
X0217000Y0184500D03*
X0227000Y0184500D03*
X0237000Y0184500D03*
X0247000Y0184500D03*
X0257000Y0184500D03*
X0267000Y0184500D03*
X0277000Y0184500D03*
X0287000Y0184500D03*
D17*
X0194606Y0051843D03*
X0194606Y0032157D03*
X0145394Y0032157D03*
X0130606Y0032157D03*
X0130606Y0051843D03*
X0145394Y0051843D03*
X0081394Y0051843D03*
X0081394Y0032157D03*
D18*
X0118000Y0082000D03*
X0219000Y0251000D03*
X0211000Y0271000D03*
X0211000Y0297000D03*
X0211000Y0323000D03*
X0211000Y0349000D03*
X0211000Y0375000D03*
D19*
X0345059Y0262195D03*
X0375059Y0262195D03*
D20*
X0365059Y0262195D03*
X0365059Y0272195D03*
X0375059Y0272195D03*
X0355059Y0272195D03*
X0345059Y0272195D03*
X0355059Y0262195D03*
D21*
X0336528Y0099000D03*
D22*
X0307000Y0099000D03*
D23*
X0313000Y0062000D03*
D24*
X0298000Y0062000D03*
X0283000Y0062000D03*
X0363000Y0052000D03*
X0363000Y0072000D03*
D25*
X0012757Y0012757D02*
X0011654Y0014276D01*
X0011074Y0016061D01*
X0011000Y0017000D01*
X0011000Y0113626D01*
X0023500Y0101126D01*
X0023500Y0098722D01*
X0026222Y0096000D01*
X0023500Y0093278D01*
X0023500Y0088722D01*
X0026722Y0085500D01*
X0031278Y0085500D01*
X0034000Y0088222D01*
X0036722Y0085500D01*
X0039540Y0085500D01*
X0019414Y0065374D01*
X0018626Y0064586D01*
X0018200Y0063557D01*
X0018200Y0048443D01*
X0018626Y0047414D01*
X0022626Y0043414D01*
X0023414Y0042626D01*
X0024443Y0042200D01*
X0043200Y0042200D01*
X0043200Y0033691D01*
X0042708Y0033199D01*
X0042117Y0031772D01*
X0042117Y0030228D01*
X0042708Y0028801D01*
X0043801Y0027708D01*
X0045228Y0027117D01*
X0046772Y0027117D01*
X0048199Y0027708D01*
X0049292Y0028801D01*
X0049883Y0030228D01*
X0049883Y0031772D01*
X0049292Y0033199D01*
X0048800Y0033691D01*
X0048800Y0043840D01*
X0050586Y0045626D01*
X0051374Y0046414D01*
X0051502Y0046724D01*
X0053978Y0049200D01*
X0075940Y0049200D01*
X0076265Y0048415D01*
X0077967Y0046714D01*
X0080190Y0045793D01*
X0082597Y0045793D01*
X0084821Y0046714D01*
X0086523Y0048415D01*
X0086782Y0049043D01*
X0125218Y0049043D01*
X0125477Y0048415D01*
X0127179Y0046714D01*
X0129403Y0045793D01*
X0131810Y0045793D01*
X0134033Y0046714D01*
X0135200Y0047880D01*
X0135200Y0036120D01*
X0134033Y0037286D01*
X0131810Y0038207D01*
X0129403Y0038207D01*
X0127179Y0037286D01*
X0125477Y0035585D01*
X0125218Y0034957D01*
X0086782Y0034957D01*
X0086523Y0035585D01*
X0084821Y0037286D01*
X0082597Y0038207D01*
X0080190Y0038207D01*
X0077967Y0037286D01*
X0076265Y0035585D01*
X0075344Y0033361D01*
X0075344Y0030954D01*
X0076265Y0028730D01*
X0077967Y0027029D01*
X0080190Y0026107D01*
X0082597Y0026107D01*
X0084821Y0027029D01*
X0086523Y0028730D01*
X0086782Y0029357D01*
X0125218Y0029357D01*
X0125477Y0028730D01*
X0127179Y0027029D01*
X0129403Y0026107D01*
X0131810Y0026107D01*
X0134033Y0027029D01*
X0135200Y0028195D01*
X0135200Y0016443D01*
X0135626Y0015414D01*
X0136414Y0014626D01*
X0138626Y0012414D01*
X0139414Y0011626D01*
X0140443Y0011200D01*
X0240557Y0011200D01*
X0241586Y0011626D01*
X0242374Y0012414D01*
X0245586Y0015626D01*
X0246374Y0016414D01*
X0246800Y0017443D01*
X0246800Y0035309D01*
X0247292Y0035801D01*
X0247883Y0037228D01*
X0247883Y0038772D01*
X0247293Y0040196D01*
X0276489Y0011000D01*
X0017000Y0011000D01*
X0016061Y0011074D01*
X0014276Y0011654D01*
X0012757Y0012757D01*
X0012584Y0012996D02*
X0017391Y0012996D01*
X0018101Y0012586D02*
X0020670Y0011898D01*
X0023330Y0011898D01*
X0025899Y0012586D01*
X0028203Y0013916D01*
X0030084Y0015797D01*
X0031414Y0018101D01*
X0032102Y0020670D01*
X0032102Y0023330D01*
X0031414Y0025899D01*
X0030084Y0028203D01*
X0028203Y0030084D01*
X0025899Y0031414D01*
X0023330Y0032102D01*
X0020670Y0032102D01*
X0018101Y0031414D01*
X0015797Y0030084D01*
X0013916Y0028203D01*
X0012586Y0025899D01*
X0011898Y0023330D01*
X0011898Y0020670D01*
X0012586Y0018101D01*
X0013916Y0015797D01*
X0015797Y0013916D01*
X0018101Y0012586D01*
X0014719Y0014994D02*
X0011421Y0014994D01*
X0011001Y0016993D02*
X0013226Y0016993D01*
X0012348Y0018991D02*
X0011000Y0018991D01*
X0011000Y0020990D02*
X0011898Y0020990D01*
X0011898Y0022988D02*
X0011000Y0022988D01*
X0011000Y0024987D02*
X0012342Y0024987D01*
X0013213Y0026985D02*
X0011000Y0026985D01*
X0011000Y0028984D02*
X0014697Y0028984D01*
X0017353Y0030982D02*
X0011000Y0030982D01*
X0011000Y0032981D02*
X0042618Y0032981D01*
X0042117Y0030982D02*
X0026647Y0030982D01*
X0029303Y0028984D02*
X0042633Y0028984D01*
X0046000Y0031000D02*
X0046000Y0045000D01*
X0049000Y0048000D01*
X0049000Y0052000D01*
X0081236Y0052000D01*
X0081394Y0051843D01*
X0130606Y0051843D01*
X0125248Y0048969D02*
X0086752Y0048969D01*
X0085077Y0046970D02*
X0126923Y0046970D01*
X0134290Y0046970D02*
X0135200Y0046970D01*
X0135200Y0044972D02*
X0049931Y0044972D01*
X0048800Y0042973D02*
X0135200Y0042973D01*
X0135200Y0040975D02*
X0048800Y0040975D01*
X0048800Y0038976D02*
X0135200Y0038976D01*
X0135200Y0036978D02*
X0134342Y0036978D01*
X0130606Y0032157D02*
X0081394Y0032157D01*
X0086773Y0034979D02*
X0125227Y0034979D01*
X0126870Y0036978D02*
X0085129Y0036978D01*
X0077658Y0036978D02*
X0048800Y0036978D01*
X0048800Y0034979D02*
X0076014Y0034979D01*
X0075344Y0032981D02*
X0049382Y0032981D01*
X0049883Y0030982D02*
X0075344Y0030982D01*
X0076160Y0028984D02*
X0049367Y0028984D01*
X0043200Y0034979D02*
X0011000Y0034979D01*
X0011000Y0036978D02*
X0043200Y0036978D01*
X0043200Y0038976D02*
X0011000Y0038976D01*
X0011000Y0040975D02*
X0043200Y0040975D01*
X0046000Y0045000D02*
X0025000Y0045000D01*
X0021000Y0049000D01*
X0021000Y0063000D01*
X0049000Y0091000D01*
X0052719Y0086940D02*
X0054200Y0086940D01*
X0054200Y0088422D02*
X0054200Y0064861D01*
X0051361Y0067700D01*
X0049000Y0067700D01*
X0049000Y0062000D01*
X0049000Y0062000D01*
X0049000Y0067700D01*
X0046639Y0067700D01*
X0043859Y0064920D01*
X0041278Y0067500D01*
X0036722Y0067500D01*
X0034000Y0064778D01*
X0031278Y0067500D01*
X0029460Y0067500D01*
X0047460Y0085500D01*
X0051278Y0085500D01*
X0054200Y0088422D01*
X0054200Y0084942D02*
X0046902Y0084942D01*
X0044903Y0082943D02*
X0054200Y0082943D01*
X0054200Y0080945D02*
X0042905Y0080945D01*
X0040906Y0078946D02*
X0054200Y0078946D01*
X0054200Y0076948D02*
X0038908Y0076948D01*
X0036909Y0074949D02*
X0054200Y0074949D01*
X0054200Y0072951D02*
X0034911Y0072951D01*
X0032912Y0070952D02*
X0054200Y0070952D01*
X0054200Y0068954D02*
X0030914Y0068954D01*
X0031823Y0066955D02*
X0036177Y0066955D01*
X0034179Y0064957D02*
X0033821Y0064957D01*
X0041823Y0066955D02*
X0045894Y0066955D01*
X0043896Y0064957D02*
X0043821Y0064957D01*
X0049000Y0064957D02*
X0049000Y0064957D01*
X0049000Y0066955D02*
X0049000Y0066955D01*
X0052106Y0066955D02*
X0054200Y0066955D01*
X0054200Y0064957D02*
X0054104Y0064957D01*
X0057000Y0061000D02*
X0059000Y0059000D01*
X0135000Y0059000D01*
X0138000Y0056000D01*
X0138000Y0017000D01*
X0141000Y0014000D01*
X0240000Y0014000D01*
X0244000Y0018000D01*
X0244000Y0038000D01*
X0241200Y0035309D02*
X0241200Y0019160D01*
X0238840Y0016800D01*
X0142160Y0016800D01*
X0140800Y0018160D01*
X0140800Y0027912D01*
X0141322Y0027390D01*
X0142118Y0026812D01*
X0142995Y0026365D01*
X0143930Y0026061D01*
X0144902Y0025907D01*
X0145213Y0025907D01*
X0145213Y0031976D01*
X0145575Y0031976D01*
X0145575Y0025907D01*
X0145886Y0025907D01*
X0146857Y0026061D01*
X0147793Y0026365D01*
X0148669Y0026812D01*
X0149465Y0027390D01*
X0150161Y0028086D01*
X0150739Y0028882D01*
X0151186Y0029758D01*
X0151490Y0030694D01*
X0151644Y0031666D01*
X0151644Y0031976D01*
X0145575Y0031976D01*
X0145575Y0032339D01*
X0145213Y0032339D01*
X0145213Y0038407D01*
X0144902Y0038407D01*
X0143930Y0038254D01*
X0142995Y0037950D01*
X0142118Y0037503D01*
X0141322Y0036925D01*
X0140800Y0036403D01*
X0140800Y0047880D01*
X0141967Y0046714D01*
X0144190Y0045793D01*
X0146597Y0045793D01*
X0148821Y0046714D01*
X0150523Y0048415D01*
X0150782Y0049043D01*
X0189218Y0049043D01*
X0189477Y0048415D01*
X0191179Y0046714D01*
X0193403Y0045793D01*
X0195810Y0045793D01*
X0198033Y0046714D01*
X0199735Y0048415D01*
X0200003Y0049061D01*
X0238293Y0049196D01*
X0246196Y0041293D01*
X0244772Y0041883D01*
X0243228Y0041883D01*
X0241801Y0041292D01*
X0240708Y0040199D01*
X0240117Y0038772D01*
X0240117Y0037228D01*
X0240708Y0035801D01*
X0241200Y0035309D01*
X0241200Y0034979D02*
X0200183Y0034979D01*
X0200398Y0034557D02*
X0199952Y0035433D01*
X0199374Y0036229D01*
X0198678Y0036925D01*
X0197882Y0037503D01*
X0197005Y0037950D01*
X0196070Y0038254D01*
X0195098Y0038407D01*
X0194787Y0038407D01*
X0194787Y0032339D01*
X0194425Y0032339D01*
X0194425Y0038407D01*
X0194114Y0038407D01*
X0193143Y0038254D01*
X0192207Y0037950D01*
X0191331Y0037503D01*
X0190535Y0036925D01*
X0189839Y0036229D01*
X0189261Y0035433D01*
X0188814Y0034557D01*
X0188510Y0033621D01*
X0188356Y0032649D01*
X0188356Y0032339D01*
X0194425Y0032339D01*
X0194425Y0031976D01*
X0194787Y0031976D01*
X0194787Y0025907D01*
X0195098Y0025907D01*
X0196070Y0026061D01*
X0197005Y0026365D01*
X0197882Y0026812D01*
X0198678Y0027390D01*
X0199374Y0028086D01*
X0199952Y0028882D01*
X0200398Y0029758D01*
X0200702Y0030694D01*
X0200856Y0031666D01*
X0200856Y0031976D01*
X0194787Y0031976D01*
X0194787Y0032339D01*
X0200856Y0032339D01*
X0200856Y0032649D01*
X0200702Y0033621D01*
X0200398Y0034557D01*
X0200804Y0032981D02*
X0241200Y0032981D01*
X0241200Y0030982D02*
X0200748Y0030982D01*
X0200004Y0028984D02*
X0241200Y0028984D01*
X0241200Y0026985D02*
X0198120Y0026985D01*
X0194787Y0026985D02*
X0194425Y0026985D01*
X0194425Y0025907D02*
X0194425Y0031976D01*
X0188356Y0031976D01*
X0188356Y0031666D01*
X0188510Y0030694D01*
X0188814Y0029758D01*
X0189261Y0028882D01*
X0189839Y0028086D01*
X0190535Y0027390D01*
X0191331Y0026812D01*
X0192207Y0026365D01*
X0193143Y0026061D01*
X0194114Y0025907D01*
X0194425Y0025907D01*
X0194425Y0028984D02*
X0194787Y0028984D01*
X0194787Y0030982D02*
X0194425Y0030982D01*
X0194425Y0032981D02*
X0194787Y0032981D01*
X0194787Y0034979D02*
X0194425Y0034979D01*
X0194425Y0036978D02*
X0194787Y0036978D01*
X0198605Y0036978D02*
X0224531Y0036978D01*
X0224309Y0037200D02*
X0224801Y0036708D01*
X0226228Y0036117D01*
X0227772Y0036117D01*
X0229199Y0036708D01*
X0230292Y0037801D01*
X0230883Y0039228D01*
X0230883Y0040772D01*
X0230292Y0042199D01*
X0229199Y0043292D01*
X0227772Y0043883D01*
X0226228Y0043883D01*
X0224801Y0043292D01*
X0224309Y0042800D01*
X0207871Y0042800D01*
X0207292Y0044199D01*
X0206199Y0045292D01*
X0204772Y0045883D01*
X0203228Y0045883D01*
X0201801Y0045292D01*
X0200708Y0044199D01*
X0200117Y0042772D01*
X0200117Y0041228D01*
X0200708Y0039801D01*
X0201801Y0038708D01*
X0203228Y0038117D01*
X0203923Y0038117D01*
X0204414Y0037626D01*
X0205443Y0037200D01*
X0224309Y0037200D01*
X0227000Y0040000D02*
X0206000Y0040000D01*
X0204000Y0042000D01*
X0201481Y0044972D02*
X0140800Y0044972D01*
X0140800Y0046970D02*
X0141710Y0046970D01*
X0140800Y0042973D02*
X0200201Y0042973D01*
X0200222Y0040975D02*
X0140800Y0040975D01*
X0140800Y0038976D02*
X0201533Y0038976D01*
X0207799Y0042973D02*
X0224482Y0042973D01*
X0229518Y0042973D02*
X0244516Y0042973D01*
X0242517Y0044972D02*
X0206519Y0044972D01*
X0199964Y0048969D02*
X0238520Y0048969D01*
X0240519Y0046970D02*
X0198290Y0046970D01*
X0194606Y0051843D02*
X0239449Y0052000D01*
X0278449Y0013000D01*
X0305000Y0013000D01*
X0293398Y0015800D02*
X0279609Y0015800D01*
X0241819Y0053590D01*
X0241817Y0053594D01*
X0241425Y0053983D01*
X0241035Y0054374D01*
X0241030Y0054376D01*
X0241027Y0054379D01*
X0240515Y0054589D01*
X0240006Y0054800D01*
X0240001Y0054800D01*
X0239996Y0054802D01*
X0239442Y0054800D01*
X0238892Y0054800D01*
X0238887Y0054798D01*
X0199987Y0054661D01*
X0199735Y0055270D01*
X0198033Y0056971D01*
X0195810Y0057893D01*
X0193403Y0057893D01*
X0191179Y0056971D01*
X0189477Y0055270D01*
X0189218Y0054643D01*
X0150782Y0054643D01*
X0150523Y0055270D01*
X0148821Y0056971D01*
X0146597Y0057893D01*
X0144190Y0057893D01*
X0141967Y0056971D01*
X0140800Y0055805D01*
X0140800Y0056557D01*
X0140374Y0057586D01*
X0139586Y0058374D01*
X0136586Y0061374D01*
X0135557Y0061800D01*
X0074291Y0061800D01*
X0075292Y0062801D01*
X0075883Y0064228D01*
X0075883Y0065772D01*
X0075292Y0067199D01*
X0074800Y0067691D01*
X0074800Y0079309D01*
X0075292Y0079801D01*
X0075883Y0081228D01*
X0075883Y0082772D01*
X0075292Y0084199D01*
X0074800Y0084691D01*
X0074800Y0106840D01*
X0078160Y0110200D01*
X0128709Y0110200D01*
X0128708Y0110199D01*
X0128117Y0108772D01*
X0128117Y0107228D01*
X0128708Y0105801D01*
X0129272Y0105237D01*
X0127884Y0104663D01*
X0126337Y0103115D01*
X0125500Y0101094D01*
X0125500Y0098906D01*
X0126337Y0096884D01*
X0127884Y0095337D01*
X0128456Y0095101D01*
X0128013Y0094875D01*
X0127287Y0094348D01*
X0126652Y0093713D01*
X0126125Y0092987D01*
X0125718Y0092188D01*
X0125440Y0091335D01*
X0125300Y0090449D01*
X0125300Y0090000D01*
X0131000Y0090000D01*
X0136700Y0090000D01*
X0136700Y0090449D01*
X0136560Y0091335D01*
X0136282Y0092188D01*
X0135875Y0092987D01*
X0135348Y0093713D01*
X0134713Y0094348D01*
X0133987Y0094875D01*
X0133544Y0095101D01*
X0134115Y0095337D01*
X0135663Y0096884D01*
X0136500Y0098906D01*
X0136500Y0101094D01*
X0135663Y0103115D01*
X0134115Y0104663D01*
X0134102Y0104668D01*
X0134199Y0104708D01*
X0135292Y0105801D01*
X0135457Y0106200D01*
X0157840Y0106200D01*
X0182186Y0081854D01*
X0182224Y0081777D01*
X0182578Y0081462D01*
X0182914Y0081126D01*
X0182992Y0081094D01*
X0185117Y0079205D01*
X0185117Y0078728D01*
X0185708Y0077301D01*
X0186801Y0076208D01*
X0188228Y0075617D01*
X0189772Y0075617D01*
X0191199Y0076208D01*
X0192292Y0077301D01*
X0192883Y0078728D01*
X0192883Y0080272D01*
X0192292Y0081699D01*
X0191199Y0082792D01*
X0189772Y0083383D01*
X0188847Y0083383D01*
X0186422Y0085538D01*
X0170760Y0101200D01*
X0182550Y0101200D01*
X0182117Y0100155D01*
X0182117Y0098610D01*
X0182708Y0097183D01*
X0183801Y0096091D01*
X0185228Y0095500D01*
X0185540Y0095500D01*
X0199117Y0081923D01*
X0199117Y0081228D01*
X0199708Y0079801D01*
X0200801Y0078708D01*
X0202228Y0078117D01*
X0203772Y0078117D01*
X0205199Y0078708D01*
X0206292Y0079801D01*
X0206883Y0081228D01*
X0206883Y0082772D01*
X0206292Y0084199D01*
X0205199Y0085292D01*
X0203772Y0085883D01*
X0203077Y0085883D01*
X0189883Y0099077D01*
X0189883Y0100155D01*
X0189450Y0101200D01*
X0240309Y0101200D01*
X0240801Y0100708D01*
X0242228Y0100117D01*
X0243772Y0100117D01*
X0245199Y0100708D01*
X0246292Y0101801D01*
X0246883Y0103228D01*
X0246883Y0104772D01*
X0246292Y0106199D01*
X0245199Y0107292D01*
X0243772Y0107883D01*
X0242228Y0107883D01*
X0240801Y0107292D01*
X0240309Y0106800D01*
X0218291Y0106800D01*
X0218292Y0106801D01*
X0218883Y0108228D01*
X0218883Y0109772D01*
X0218292Y0111199D01*
X0217199Y0112292D01*
X0215822Y0112862D01*
X0218586Y0115626D01*
X0219374Y0116414D01*
X0219800Y0117443D01*
X0219800Y0120370D01*
X0221154Y0121724D01*
X0221900Y0123525D01*
X0221900Y0125475D01*
X0221154Y0127276D01*
X0219776Y0128654D01*
X0217975Y0129400D01*
X0216025Y0129400D01*
X0214224Y0128654D01*
X0212846Y0127276D01*
X0212100Y0125475D01*
X0212100Y0123525D01*
X0212846Y0121724D01*
X0214200Y0120370D01*
X0214200Y0119160D01*
X0210840Y0115800D01*
X0205760Y0115800D01*
X0209374Y0119414D01*
X0209757Y0120338D01*
X0209776Y0120346D01*
X0211154Y0121724D01*
X0211900Y0123525D01*
X0211900Y0125475D01*
X0211154Y0127276D01*
X0209776Y0128654D01*
X0207975Y0129400D01*
X0206025Y0129400D01*
X0204224Y0128654D01*
X0202846Y0127276D01*
X0202100Y0125475D01*
X0202100Y0123525D01*
X0202846Y0121724D01*
X0203305Y0121265D01*
X0201840Y0119800D01*
X0198457Y0119800D01*
X0199776Y0120346D01*
X0201154Y0121724D01*
X0201900Y0123525D01*
X0201900Y0125475D01*
X0201154Y0127276D01*
X0199800Y0128630D01*
X0199800Y0130557D01*
X0199374Y0131586D01*
X0198225Y0132734D01*
X0199292Y0133801D01*
X0199707Y0134803D01*
X0199801Y0134708D01*
X0201228Y0134117D01*
X0202772Y0134117D01*
X0204199Y0134708D01*
X0205292Y0135801D01*
X0205883Y0137228D01*
X0205883Y0138772D01*
X0205292Y0140199D01*
X0204800Y0140691D01*
X0204800Y0180108D01*
X0206025Y0179600D01*
X0207975Y0179600D01*
X0209200Y0180108D01*
X0209200Y0155691D01*
X0208708Y0155199D01*
X0208117Y0153772D01*
X0208117Y0152228D01*
X0208708Y0150801D01*
X0209801Y0149708D01*
X0211228Y0149117D01*
X0212772Y0149117D01*
X0214199Y0149708D01*
X0215292Y0150801D01*
X0215883Y0152228D01*
X0215883Y0153772D01*
X0215292Y0155199D01*
X0214800Y0155691D01*
X0214800Y0180108D01*
X0216025Y0179600D01*
X0217975Y0179600D01*
X0219776Y0180346D01*
X0221154Y0181724D01*
X0221900Y0183525D01*
X0221900Y0185475D01*
X0221154Y0187276D01*
X0219776Y0188654D01*
X0217975Y0189400D01*
X0216025Y0189400D01*
X0214800Y0188892D01*
X0214800Y0190557D01*
X0214374Y0191586D01*
X0207800Y0198160D01*
X0207800Y0207543D01*
X0208199Y0207708D01*
X0209292Y0208801D01*
X0209883Y0210228D01*
X0209883Y0211772D01*
X0209292Y0213199D01*
X0208199Y0214292D01*
X0207696Y0214500D01*
X0208199Y0214708D01*
X0209292Y0215801D01*
X0209883Y0217228D01*
X0209883Y0218772D01*
X0209292Y0220199D01*
X0208800Y0220691D01*
X0208800Y0231309D01*
X0209292Y0231801D01*
X0209883Y0233228D01*
X0209883Y0234772D01*
X0209292Y0236199D01*
X0208199Y0237292D01*
X0207565Y0237554D01*
X0207565Y0265300D01*
X0211000Y0265300D01*
X0214963Y0265300D01*
X0215472Y0265436D01*
X0215928Y0265700D01*
X0216300Y0266072D01*
X0216564Y0266528D01*
X0216700Y0267037D01*
X0216700Y0267522D01*
X0217884Y0266337D01*
X0219074Y0265844D01*
X0226700Y0258219D01*
X0226700Y0246781D01*
X0225219Y0245300D01*
X0222478Y0245300D01*
X0222963Y0245300D01*
X0223472Y0245436D01*
X0223928Y0245700D01*
X0224300Y0246072D01*
X0224564Y0246528D01*
X0224700Y0247037D01*
X0224700Y0251000D01*
X0224700Y0254963D01*
X0224564Y0255472D01*
X0224300Y0255928D01*
X0223928Y0256300D01*
X0223472Y0256564D01*
X0222963Y0256700D01*
X0219000Y0256700D01*
X0219000Y0251000D01*
X0219000Y0251000D01*
X0224700Y0251000D01*
X0219000Y0251000D01*
X0219000Y0251000D01*
X0219000Y0251000D01*
X0213300Y0251000D01*
X0213300Y0254963D01*
X0213436Y0255472D01*
X0213700Y0255928D01*
X0214072Y0256300D01*
X0214528Y0256564D01*
X0215037Y0256700D01*
X0219000Y0256700D01*
X0219000Y0251000D01*
X0213300Y0251000D01*
X0213300Y0247037D01*
X0213436Y0246528D01*
X0213700Y0246072D01*
X0214072Y0245700D01*
X0214528Y0245436D01*
X0215037Y0245300D01*
X0215522Y0245300D01*
X0214337Y0244115D01*
X0213500Y0242094D01*
X0213500Y0239906D01*
X0214337Y0237884D01*
X0215884Y0236337D01*
X0216699Y0236000D01*
X0215884Y0235663D01*
X0214337Y0234115D01*
X0213500Y0232094D01*
X0213500Y0229906D01*
X0214337Y0227884D01*
X0215884Y0226337D01*
X0217906Y0225500D01*
X0220094Y0225500D01*
X0222115Y0226337D01*
X0223663Y0227884D01*
X0224500Y0229906D01*
X0224500Y0232094D01*
X0223663Y0234115D01*
X0222115Y0235663D01*
X0221301Y0236000D01*
X0222115Y0236337D01*
X0222478Y0236700D01*
X0227855Y0236700D01*
X0229436Y0237355D01*
X0233436Y0241355D01*
X0234645Y0242564D01*
X0235300Y0244145D01*
X0235300Y0260855D01*
X0234645Y0262436D01*
X0231581Y0265500D01*
X0232094Y0265500D01*
X0234115Y0266337D01*
X0235663Y0267884D01*
X0236500Y0269906D01*
X0236500Y0272094D01*
X0235663Y0274115D01*
X0234115Y0275663D01*
X0232094Y0276500D01*
X0229906Y0276500D01*
X0227884Y0275663D01*
X0226337Y0274115D01*
X0226000Y0273301D01*
X0225663Y0274115D01*
X0224115Y0275663D01*
X0222094Y0276500D01*
X0219906Y0276500D01*
X0217884Y0275663D01*
X0216700Y0274478D01*
X0216700Y0274963D01*
X0216564Y0275472D01*
X0216300Y0275928D01*
X0215928Y0276300D01*
X0215472Y0276564D01*
X0214963Y0276700D01*
X0211000Y0276700D01*
X0211000Y0271000D01*
X0211000Y0271000D01*
X0211000Y0276700D01*
X0207565Y0276700D01*
X0207565Y0291300D01*
X0211000Y0291300D01*
X0214963Y0291300D01*
X0215472Y0291436D01*
X0215928Y0291700D01*
X0216300Y0292072D01*
X0216564Y0292528D01*
X0216700Y0293037D01*
X0216700Y0293522D01*
X0217884Y0292337D01*
X0219906Y0291500D01*
X0222094Y0291500D01*
X0224115Y0292337D01*
X0225663Y0293884D01*
X0226000Y0294699D01*
X0226337Y0293884D01*
X0227884Y0292337D01*
X0229906Y0291500D01*
X0232094Y0291500D01*
X0234115Y0292337D01*
X0235663Y0293884D01*
X0236500Y0295906D01*
X0236500Y0298094D01*
X0235663Y0300115D01*
X0234115Y0301663D01*
X0232094Y0302500D01*
X0229906Y0302500D01*
X0227884Y0301663D01*
X0226337Y0300115D01*
X0226000Y0299301D01*
X0225663Y0300115D01*
X0225300Y0300478D01*
X0225300Y0319522D01*
X0225663Y0319884D01*
X0226000Y0320699D01*
X0226337Y0319884D01*
X0227884Y0318337D01*
X0229906Y0317500D01*
X0232094Y0317500D01*
X0234115Y0318337D01*
X0235663Y0319884D01*
X0236500Y0321906D01*
X0236500Y0324094D01*
X0235663Y0326115D01*
X0234115Y0327663D01*
X0232094Y0328500D01*
X0229906Y0328500D01*
X0227884Y0327663D01*
X0226337Y0326115D01*
X0226000Y0325301D01*
X0225663Y0326115D01*
X0224115Y0327663D01*
X0222094Y0328500D01*
X0219906Y0328500D01*
X0217884Y0327663D01*
X0216700Y0326478D01*
X0216700Y0326963D01*
X0216564Y0327472D01*
X0216300Y0327928D01*
X0215928Y0328300D01*
X0215472Y0328564D01*
X0214963Y0328700D01*
X0211000Y0328700D01*
X0211000Y0323000D01*
X0211000Y0323000D01*
X0211000Y0317300D01*
X0214963Y0317300D01*
X0215472Y0317436D01*
X0215928Y0317700D01*
X0216300Y0318072D01*
X0216564Y0318528D01*
X0216700Y0319037D01*
X0216700Y0319522D01*
X0216700Y0319522D01*
X0216700Y0300478D01*
X0216700Y0300963D01*
X0216564Y0301472D01*
X0216300Y0301928D01*
X0215928Y0302300D01*
X0215472Y0302564D01*
X0214963Y0302700D01*
X0211000Y0302700D01*
X0211000Y0297000D01*
X0211000Y0297000D01*
X0211000Y0302700D01*
X0207037Y0302700D01*
X0206528Y0302564D01*
X0206072Y0302300D01*
X0205700Y0301928D01*
X0205665Y0301868D01*
X0200982Y0306551D01*
X0200982Y0306551D01*
X0200194Y0307339D01*
X0199165Y0307765D01*
X0184194Y0307765D01*
X0181800Y0310160D01*
X0181800Y0323309D01*
X0182292Y0323801D01*
X0182883Y0325228D01*
X0182883Y0326772D01*
X0182292Y0328199D01*
X0181199Y0329292D01*
X0179772Y0329883D01*
X0178228Y0329883D01*
X0176801Y0329292D01*
X0175708Y0328199D01*
X0175117Y0326772D01*
X0175117Y0325228D01*
X0175708Y0323801D01*
X0176200Y0323309D01*
X0176200Y0309269D01*
X0171917Y0313552D01*
X0171917Y0334440D01*
X0171491Y0335469D01*
X0147883Y0359077D01*
X0147883Y0359772D01*
X0147292Y0361199D01*
X0147291Y0361200D01*
X0172028Y0361200D01*
X0172228Y0361117D01*
X0173772Y0361117D01*
X0175199Y0361708D01*
X0176292Y0362801D01*
X0176883Y0364228D01*
X0176883Y0365772D01*
X0176705Y0366200D01*
X0180756Y0366200D01*
X0182153Y0366779D01*
X0183221Y0367847D01*
X0186221Y0370847D01*
X0186800Y0372244D01*
X0186800Y0373022D01*
X0187663Y0373884D01*
X0188500Y0375906D01*
X0188500Y0378094D01*
X0187663Y0380115D01*
X0186578Y0381200D01*
X0280012Y0381200D01*
X0300281Y0360931D01*
X0302045Y0360200D01*
X0334012Y0360200D01*
X0360200Y0334012D01*
X0360200Y0296555D01*
X0360100Y0296728D01*
X0359728Y0297100D01*
X0359272Y0297364D01*
X0358763Y0297500D01*
X0355000Y0297500D01*
X0355000Y0292000D01*
X0355000Y0292000D01*
X0355000Y0297500D01*
X0351237Y0297500D01*
X0350800Y0297383D01*
X0350800Y0298154D01*
X0349917Y0300285D01*
X0345917Y0304285D01*
X0344285Y0305917D01*
X0342154Y0306800D01*
X0310796Y0306800D01*
X0312502Y0307507D01*
X0313993Y0308998D01*
X0314800Y0310946D01*
X0314800Y0313054D01*
X0313993Y0315002D01*
X0313800Y0315195D01*
X0313800Y0336355D01*
X0313145Y0337936D01*
X0305081Y0346000D01*
X0309645Y0350564D01*
X0310300Y0352145D01*
X0310300Y0353855D01*
X0309645Y0355436D01*
X0308436Y0356645D01*
X0306855Y0357300D01*
X0305145Y0357300D01*
X0303564Y0356645D01*
X0299000Y0352081D01*
X0285645Y0365436D01*
X0284436Y0366645D01*
X0282855Y0367300D01*
X0225300Y0367300D01*
X0225300Y0371522D01*
X0225663Y0371884D01*
X0226000Y0372699D01*
X0226337Y0371884D01*
X0227884Y0370337D01*
X0229906Y0369500D01*
X0232094Y0369500D01*
X0234115Y0370337D01*
X0235663Y0371884D01*
X0236500Y0373906D01*
X0236500Y0376094D01*
X0235663Y0378115D01*
X0234115Y0379663D01*
X0232094Y0380500D01*
X0229906Y0380500D01*
X0227884Y0379663D01*
X0226337Y0378115D01*
X0226000Y0377301D01*
X0225663Y0378115D01*
X0224115Y0379663D01*
X0222094Y0380500D01*
X0219906Y0380500D01*
X0217884Y0379663D01*
X0216700Y0378478D01*
X0216700Y0378963D01*
X0216564Y0379472D01*
X0216300Y0379928D01*
X0215928Y0380300D01*
X0215472Y0380564D01*
X0214963Y0380700D01*
X0211000Y0380700D01*
X0211000Y0375000D01*
X0211000Y0375000D01*
X0211000Y0369300D01*
X0214963Y0369300D01*
X0215472Y0369436D01*
X0215928Y0369700D01*
X0216300Y0370072D01*
X0216564Y0370528D01*
X0216700Y0371037D01*
X0216700Y0371522D01*
X0216700Y0371522D01*
X0216700Y0352478D01*
X0216700Y0352963D01*
X0216564Y0353472D01*
X0216300Y0353928D01*
X0215928Y0354300D01*
X0215472Y0354564D01*
X0214963Y0354700D01*
X0211000Y0354700D01*
X0211000Y0349000D01*
X0211000Y0349000D01*
X0211000Y0349000D01*
X0205300Y0349000D01*
X0205300Y0352963D01*
X0205436Y0353472D01*
X0205700Y0353928D01*
X0206072Y0354300D01*
X0206528Y0354564D01*
X0207037Y0354700D01*
X0211000Y0354700D01*
X0211000Y0349000D01*
X0205300Y0349000D01*
X0205300Y0345037D01*
X0205436Y0344528D01*
X0205700Y0344072D01*
X0205972Y0343800D01*
X0187555Y0343800D01*
X0182558Y0348767D01*
X0182029Y0349296D01*
X0182023Y0349299D01*
X0182019Y0349303D01*
X0181325Y0349588D01*
X0180632Y0349875D01*
X0180626Y0349875D01*
X0180620Y0349877D01*
X0179871Y0349875D01*
X0167946Y0349875D01*
X0167747Y0349957D01*
X0166202Y0349957D01*
X0164775Y0349366D01*
X0163683Y0348274D01*
X0163092Y0346847D01*
X0163092Y0345302D01*
X0163683Y0343875D01*
X0164775Y0342783D01*
X0166202Y0342192D01*
X0167747Y0342192D01*
X0167946Y0342275D01*
X0178309Y0342275D01*
X0182200Y0338407D01*
X0182200Y0336846D01*
X0183083Y0334715D01*
X0183700Y0334098D01*
X0183700Y0321345D01*
X0184355Y0319764D01*
X0185564Y0318555D01*
X0187145Y0317900D01*
X0188855Y0317900D01*
X0190436Y0318555D01*
X0191645Y0319764D01*
X0192300Y0321345D01*
X0192300Y0332200D01*
X0249709Y0332200D01*
X0249708Y0332199D01*
X0249117Y0330772D01*
X0249117Y0329228D01*
X0249708Y0327801D01*
X0250801Y0326708D01*
X0252228Y0326117D01*
X0253772Y0326117D01*
X0253879Y0326161D01*
X0256241Y0323799D01*
X0253849Y0323799D01*
X0250799Y0322536D01*
X0248464Y0320201D01*
X0247201Y0317151D01*
X0247201Y0313849D01*
X0247265Y0313695D01*
X0245883Y0315077D01*
X0245883Y0315772D01*
X0245292Y0317199D01*
X0244199Y0318292D01*
X0242772Y0318883D01*
X0241228Y0318883D01*
X0239801Y0318292D01*
X0238708Y0317199D01*
X0238117Y0315772D01*
X0238117Y0314228D01*
X0238708Y0312801D01*
X0239801Y0311708D01*
X0241228Y0311117D01*
X0241923Y0311117D01*
X0250200Y0302840D01*
X0250200Y0286760D01*
X0245883Y0291077D01*
X0245883Y0291772D01*
X0245292Y0293199D01*
X0244199Y0294292D01*
X0242772Y0294883D01*
X0241228Y0294883D01*
X0239801Y0294292D01*
X0238708Y0293199D01*
X0238117Y0291772D01*
X0238117Y0290228D01*
X0238708Y0288801D01*
X0239801Y0287708D01*
X0241228Y0287117D01*
X0241923Y0287117D01*
X0247200Y0281840D01*
X0247200Y0265760D01*
X0245883Y0267077D01*
X0245883Y0267772D01*
X0245292Y0269199D01*
X0244199Y0270292D01*
X0242772Y0270883D01*
X0241228Y0270883D01*
X0239801Y0270292D01*
X0238708Y0269199D01*
X0238117Y0267772D01*
X0238117Y0266228D01*
X0238708Y0264801D01*
X0239801Y0263708D01*
X0241228Y0263117D01*
X0241923Y0263117D01*
X0242430Y0262610D01*
X0241772Y0262883D01*
X0240228Y0262883D01*
X0238801Y0262292D01*
X0237708Y0261199D01*
X0237117Y0259772D01*
X0237117Y0258228D01*
X0237708Y0256801D01*
X0238200Y0256309D01*
X0238200Y0218691D01*
X0237708Y0218199D01*
X0237117Y0216772D01*
X0237117Y0215228D01*
X0237708Y0213801D01*
X0238200Y0213309D01*
X0238200Y0196589D01*
X0230020Y0188410D01*
X0229776Y0188654D01*
X0227975Y0189400D01*
X0226025Y0189400D01*
X0224224Y0188654D01*
X0222846Y0187276D01*
X0222100Y0185475D01*
X0222100Y0183525D01*
X0222846Y0181724D01*
X0224224Y0180346D01*
X0226025Y0179600D01*
X0227975Y0179600D01*
X0229300Y0180149D01*
X0229300Y0175260D01*
X0228626Y0174586D01*
X0228200Y0173557D01*
X0228200Y0155691D01*
X0227708Y0155199D01*
X0227117Y0153772D01*
X0227117Y0152228D01*
X0227708Y0150801D01*
X0228801Y0149708D01*
X0230228Y0149117D01*
X0231772Y0149117D01*
X0233199Y0149708D01*
X0234292Y0150801D01*
X0234883Y0152228D01*
X0234883Y0153772D01*
X0234292Y0155199D01*
X0233800Y0155691D01*
X0233800Y0171840D01*
X0234474Y0172514D01*
X0234900Y0173543D01*
X0234900Y0180066D01*
X0236025Y0179600D01*
X0237975Y0179600D01*
X0239100Y0180066D01*
X0239100Y0158830D01*
X0237801Y0158292D01*
X0236708Y0157199D01*
X0236117Y0155772D01*
X0236117Y0154228D01*
X0236708Y0152801D01*
X0237801Y0151708D01*
X0239228Y0151117D01*
X0240772Y0151117D01*
X0242199Y0151708D01*
X0243292Y0152801D01*
X0243883Y0154228D01*
X0243883Y0154493D01*
X0244274Y0154884D01*
X0244700Y0155913D01*
X0244700Y0180149D01*
X0245543Y0179800D01*
X0245117Y0178772D01*
X0245117Y0177228D01*
X0245708Y0175801D01*
X0246200Y0175309D01*
X0246200Y0169808D01*
X0245708Y0169317D01*
X0245117Y0167890D01*
X0245117Y0166345D01*
X0245708Y0164918D01*
X0246801Y0163826D01*
X0248228Y0163235D01*
X0249772Y0163235D01*
X0251199Y0163826D01*
X0251941Y0164568D01*
X0252801Y0163708D01*
X0254228Y0163117D01*
X0255772Y0163117D01*
X0257199Y0163708D01*
X0258292Y0164801D01*
X0258317Y0164863D01*
X0258317Y0164277D01*
X0255923Y0161883D01*
X0255228Y0161883D01*
X0253801Y0161292D01*
X0252708Y0160199D01*
X0252117Y0158772D01*
X0252117Y0157228D01*
X0252708Y0155801D01*
X0253801Y0154708D01*
X0255228Y0154117D01*
X0256772Y0154117D01*
X0258199Y0154708D01*
X0259292Y0155801D01*
X0259883Y0157228D01*
X0259883Y0157923D01*
X0262234Y0160275D01*
X0262801Y0159708D01*
X0264228Y0159117D01*
X0265772Y0159117D01*
X0267199Y0159708D01*
X0268292Y0160801D01*
X0268883Y0162228D01*
X0268883Y0162923D01*
X0277200Y0171240D01*
X0277200Y0168691D01*
X0276708Y0168199D01*
X0276117Y0166772D01*
X0276117Y0165228D01*
X0276708Y0163801D01*
X0277801Y0162708D01*
X0279228Y0162117D01*
X0280772Y0162117D01*
X0282199Y0162708D01*
X0283292Y0163801D01*
X0283883Y0165228D01*
X0283883Y0166772D01*
X0283292Y0168199D01*
X0282800Y0168691D01*
X0282800Y0170840D01*
X0285117Y0173158D01*
X0285117Y0172228D01*
X0285708Y0170801D01*
X0286801Y0169708D01*
X0288228Y0169117D01*
X0289772Y0169117D01*
X0291199Y0169708D01*
X0291691Y0170200D01*
X0320557Y0170200D01*
X0321586Y0170626D01*
X0323586Y0172626D01*
X0324374Y0173414D01*
X0324800Y0174443D01*
X0324800Y0230294D01*
X0325228Y0230117D01*
X0326772Y0230117D01*
X0327200Y0230294D01*
X0327200Y0172902D01*
X0282083Y0127785D01*
X0281513Y0126409D01*
X0281154Y0127276D01*
X0279776Y0128654D01*
X0277975Y0129400D01*
X0276025Y0129400D01*
X0274224Y0128654D01*
X0272846Y0127276D01*
X0272100Y0125475D01*
X0272100Y0123525D01*
X0272846Y0121724D01*
X0274224Y0120346D01*
X0276025Y0119600D01*
X0277975Y0119600D01*
X0279776Y0120346D01*
X0281154Y0121724D01*
X0281513Y0122591D01*
X0282083Y0121215D01*
X0283200Y0120098D01*
X0283200Y0108574D01*
X0256883Y0082257D01*
X0256883Y0083772D01*
X0256292Y0085199D01*
X0255199Y0086292D01*
X0253772Y0086883D01*
X0252228Y0086883D01*
X0250821Y0086300D01*
X0225179Y0086300D01*
X0223772Y0086883D01*
X0222842Y0086883D01*
X0223160Y0087200D01*
X0254557Y0087200D01*
X0255586Y0087626D01*
X0256374Y0088414D01*
X0260586Y0092626D01*
X0261374Y0093414D01*
X0261800Y0094443D01*
X0261800Y0112840D01*
X0268586Y0119626D01*
X0268974Y0120014D01*
X0269776Y0120346D01*
X0271154Y0121724D01*
X0271900Y0123525D01*
X0271900Y0125475D01*
X0271154Y0127276D01*
X0269800Y0128630D01*
X0269800Y0147309D01*
X0270292Y0147801D01*
X0270883Y0149228D01*
X0270883Y0150772D01*
X0270292Y0152199D01*
X0269199Y0153292D01*
X0267772Y0153883D01*
X0266228Y0153883D01*
X0264801Y0153292D01*
X0263708Y0152199D01*
X0263117Y0150772D01*
X0263117Y0149228D01*
X0263708Y0147801D01*
X0264200Y0147309D01*
X0264200Y0128630D01*
X0262846Y0127276D01*
X0262100Y0125475D01*
X0262100Y0123525D01*
X0262822Y0121782D01*
X0256626Y0115586D01*
X0256200Y0114557D01*
X0256200Y0096160D01*
X0252840Y0092800D01*
X0221443Y0092800D01*
X0220414Y0092374D01*
X0219626Y0091586D01*
X0196840Y0068800D01*
X0149760Y0068800D01*
X0152374Y0071414D01*
X0152800Y0072443D01*
X0152800Y0084309D01*
X0153292Y0084801D01*
X0153883Y0086228D01*
X0153883Y0087772D01*
X0153292Y0089199D01*
X0152199Y0090292D01*
X0150772Y0090883D01*
X0149228Y0090883D01*
X0147801Y0090292D01*
X0146708Y0089199D01*
X0146117Y0087772D01*
X0146117Y0086228D01*
X0146708Y0084801D01*
X0147200Y0084309D01*
X0147200Y0074160D01*
X0146840Y0073800D01*
X0141443Y0073800D01*
X0140414Y0073374D01*
X0139626Y0072586D01*
X0136626Y0069586D01*
X0136200Y0068557D01*
X0136200Y0063443D01*
X0136626Y0062414D01*
X0137414Y0061626D01*
X0139626Y0059414D01*
X0140414Y0058626D01*
X0141443Y0058200D01*
X0223022Y0058200D01*
X0225722Y0055500D01*
X0230278Y0055500D01*
X0233000Y0058222D01*
X0235722Y0055500D01*
X0240278Y0055500D01*
X0243000Y0058222D01*
X0245722Y0055500D01*
X0250278Y0055500D01*
X0253500Y0058722D01*
X0253500Y0062540D01*
X0259586Y0068626D01*
X0260374Y0069414D01*
X0260800Y0070443D01*
X0260800Y0075426D01*
X0289153Y0103779D01*
X0290221Y0104847D01*
X0290800Y0106244D01*
X0290800Y0120098D01*
X0337917Y0167215D01*
X0338800Y0169346D01*
X0338800Y0240709D01*
X0339801Y0239708D01*
X0341228Y0239117D01*
X0342772Y0239117D01*
X0344199Y0239708D01*
X0344691Y0240200D01*
X0352891Y0240200D01*
X0353920Y0240626D01*
X0371092Y0257799D01*
X0371512Y0257556D01*
X0372021Y0257420D01*
X0375059Y0257420D01*
X0375059Y0262195D01*
X0375059Y0266970D01*
X0374929Y0266970D01*
X0375580Y0267620D01*
X0375969Y0267620D01*
X0377650Y0268317D01*
X0378937Y0269603D01*
X0379200Y0270238D01*
X0379200Y0266432D01*
X0379062Y0266570D01*
X0378606Y0266833D01*
X0378097Y0266970D01*
X0375059Y0266970D01*
X0375059Y0262195D01*
X0375059Y0262195D01*
X0375059Y0262195D01*
X0375059Y0257420D01*
X0378097Y0257420D01*
X0378606Y0257556D01*
X0379062Y0257820D01*
X0379200Y0257958D01*
X0379200Y0163300D01*
X0378145Y0163300D01*
X0376564Y0162645D01*
X0375355Y0161436D01*
X0374700Y0159855D01*
X0374700Y0158145D01*
X0375355Y0156564D01*
X0376564Y0155355D01*
X0378145Y0154700D01*
X0379200Y0154700D01*
X0379200Y0120969D01*
X0379156Y0121135D01*
X0378892Y0121591D01*
X0378520Y0121963D01*
X0378064Y0122226D01*
X0377555Y0122363D01*
X0373142Y0122363D01*
X0373142Y0116213D01*
X0371992Y0116213D01*
X0371992Y0122363D01*
X0367579Y0122363D01*
X0367070Y0122226D01*
X0366614Y0121963D01*
X0366242Y0121591D01*
X0365978Y0121135D01*
X0365842Y0120626D01*
X0365842Y0116213D01*
X0371992Y0116213D01*
X0371992Y0115063D01*
X0365842Y0115063D01*
X0365842Y0111000D01*
X0361560Y0111000D01*
X0341319Y0116783D01*
X0340796Y0117000D01*
X0340560Y0117000D01*
X0340334Y0117065D01*
X0339771Y0117000D01*
X0323204Y0117000D01*
X0321734Y0116391D01*
X0320609Y0115266D01*
X0318609Y0113266D01*
X0318421Y0112811D01*
X0308000Y0112811D01*
X0308000Y0100000D01*
X0306000Y0100000D01*
X0306000Y0112811D01*
X0294926Y0112811D01*
X0294417Y0112675D01*
X0293961Y0112411D01*
X0293589Y0112039D01*
X0293325Y0111583D01*
X0293189Y0111074D01*
X0293189Y0100000D01*
X0306000Y0100000D01*
X0306000Y0098000D01*
X0308000Y0098000D01*
X0308000Y0085189D01*
X0317572Y0085189D01*
X0316183Y0083800D01*
X0301647Y0083800D01*
X0299148Y0082765D01*
X0297235Y0080852D01*
X0292235Y0075852D01*
X0291200Y0073353D01*
X0291200Y0064561D01*
X0290737Y0063445D01*
X0290737Y0060555D01*
X0291843Y0057886D01*
X0293886Y0055843D01*
X0296555Y0054737D01*
X0299445Y0054737D01*
X0302114Y0055843D01*
X0304157Y0057886D01*
X0305263Y0060555D01*
X0305263Y0063445D01*
X0304800Y0064561D01*
X0304800Y0069183D01*
X0305817Y0070200D01*
X0320353Y0070200D01*
X0322852Y0071235D01*
X0332617Y0081000D01*
X0379200Y0081000D01*
X0379200Y0060402D01*
X0370263Y0051465D01*
X0370263Y0053445D01*
X0369157Y0056114D01*
X0367114Y0058157D01*
X0364445Y0059263D01*
X0361555Y0059263D01*
X0358886Y0058157D01*
X0356843Y0056114D01*
X0355737Y0053445D01*
X0355737Y0050555D01*
X0356843Y0047886D01*
X0358886Y0045843D01*
X0361555Y0044737D01*
X0363535Y0044737D01*
X0345598Y0026800D01*
X0298402Y0026800D01*
X0292285Y0032917D01*
X0290154Y0033800D01*
X0287846Y0033800D01*
X0285715Y0032917D01*
X0284083Y0031285D01*
X0283200Y0029154D01*
X0283200Y0026846D01*
X0284083Y0024715D01*
X0291083Y0017715D01*
X0292715Y0016083D01*
X0293398Y0015800D01*
X0291805Y0016993D02*
X0278416Y0016993D01*
X0276418Y0018991D02*
X0289806Y0018991D01*
X0287808Y0020990D02*
X0274419Y0020990D01*
X0272421Y0022988D02*
X0285809Y0022988D01*
X0283970Y0024987D02*
X0270422Y0024987D01*
X0268423Y0026985D02*
X0283200Y0026985D01*
X0283200Y0028984D02*
X0266425Y0028984D01*
X0264426Y0030982D02*
X0283957Y0030982D01*
X0285868Y0032981D02*
X0262428Y0032981D01*
X0260429Y0034979D02*
X0346766Y0034979D01*
X0346148Y0035235D02*
X0348647Y0034200D01*
X0351353Y0034200D01*
X0353852Y0035235D01*
X0355765Y0037148D01*
X0356800Y0039647D01*
X0356800Y0042353D01*
X0355765Y0044852D01*
X0332852Y0067765D01*
X0330353Y0068800D01*
X0319671Y0068800D01*
X0319208Y0069263D01*
X0306792Y0069263D01*
X0305737Y0068208D01*
X0305737Y0055792D01*
X0306792Y0054737D01*
X0319208Y0054737D01*
X0319671Y0055200D01*
X0326183Y0055200D01*
X0346148Y0035235D01*
X0344406Y0036978D02*
X0258431Y0036978D01*
X0256432Y0038976D02*
X0342407Y0038976D01*
X0340409Y0040975D02*
X0254434Y0040975D01*
X0255708Y0042801D02*
X0255117Y0044228D01*
X0255117Y0045772D01*
X0255708Y0047199D01*
X0256200Y0047691D01*
X0256200Y0053557D01*
X0256626Y0054586D01*
X0257414Y0055374D01*
X0257414Y0055374D01*
X0282117Y0080077D01*
X0282117Y0080772D01*
X0282708Y0082199D01*
X0283801Y0083292D01*
X0285228Y0083883D01*
X0286772Y0083883D01*
X0288199Y0083292D01*
X0289292Y0082199D01*
X0289883Y0080772D01*
X0289883Y0079228D01*
X0289292Y0077801D01*
X0288199Y0076708D01*
X0286772Y0076117D01*
X0286077Y0076117D01*
X0261800Y0051840D01*
X0261800Y0047691D01*
X0262292Y0047199D01*
X0262883Y0045772D01*
X0262883Y0044228D01*
X0262292Y0042801D01*
X0261199Y0041708D01*
X0259772Y0041117D01*
X0258228Y0041117D01*
X0256801Y0041708D01*
X0255708Y0042801D01*
X0255637Y0042973D02*
X0252435Y0042973D01*
X0250437Y0044972D02*
X0255117Y0044972D01*
X0255614Y0046970D02*
X0248438Y0046970D01*
X0246440Y0048969D02*
X0256200Y0048969D01*
X0256200Y0050967D02*
X0244441Y0050967D01*
X0242443Y0052966D02*
X0256200Y0052966D01*
X0257004Y0054964D02*
X0199862Y0054964D01*
X0198042Y0056963D02*
X0224259Y0056963D01*
X0228000Y0061000D02*
X0142000Y0061000D01*
X0139000Y0064000D01*
X0139000Y0068000D01*
X0142000Y0071000D01*
X0148000Y0071000D01*
X0150000Y0073000D01*
X0150000Y0087000D01*
X0153883Y0086940D02*
X0177100Y0086940D01*
X0179098Y0084942D02*
X0153350Y0084942D01*
X0152800Y0082943D02*
X0181097Y0082943D01*
X0183160Y0080945D02*
X0152800Y0080945D01*
X0152800Y0078946D02*
X0185117Y0078946D01*
X0186061Y0076948D02*
X0152800Y0076948D01*
X0152800Y0074949D02*
X0202990Y0074949D01*
X0204988Y0076948D02*
X0191939Y0076948D01*
X0192883Y0078946D02*
X0200563Y0078946D01*
X0199234Y0080945D02*
X0192604Y0080945D01*
X0190833Y0082943D02*
X0198097Y0082943D01*
X0196098Y0084942D02*
X0187092Y0084942D01*
X0185019Y0086940D02*
X0194100Y0086940D01*
X0192101Y0088939D02*
X0183021Y0088939D01*
X0181022Y0090937D02*
X0190103Y0090937D01*
X0188104Y0092936D02*
X0179024Y0092936D01*
X0177025Y0094934D02*
X0186106Y0094934D01*
X0182959Y0096933D02*
X0175027Y0096933D01*
X0173028Y0098932D02*
X0182117Y0098932D01*
X0182438Y0100930D02*
X0171030Y0100930D01*
X0171000Y0104000D02*
X0167000Y0108000D01*
X0167000Y0109000D01*
X0171000Y0104000D02*
X0243000Y0104000D01*
X0245565Y0106926D02*
X0256200Y0106926D01*
X0256200Y0108924D02*
X0218883Y0108924D01*
X0218406Y0110923D02*
X0256200Y0110923D01*
X0256200Y0112921D02*
X0215881Y0112921D01*
X0217879Y0114920D02*
X0256350Y0114920D01*
X0257958Y0116918D02*
X0219583Y0116918D01*
X0219800Y0118917D02*
X0259957Y0118917D01*
X0259776Y0120346D02*
X0261154Y0121724D01*
X0261900Y0123525D01*
X0261900Y0125475D01*
X0261154Y0127276D01*
X0259800Y0128630D01*
X0259800Y0134309D01*
X0260292Y0134801D01*
X0260883Y0136228D01*
X0260883Y0137772D01*
X0260292Y0139199D01*
X0259199Y0140292D01*
X0257772Y0140883D01*
X0256228Y0140883D01*
X0254801Y0140292D01*
X0253708Y0139199D01*
X0253117Y0137772D01*
X0253117Y0136228D01*
X0253708Y0134801D01*
X0254200Y0134309D01*
X0254200Y0128630D01*
X0252846Y0127276D01*
X0252100Y0125475D01*
X0252100Y0123525D01*
X0252846Y0121724D01*
X0254224Y0120346D01*
X0256025Y0119600D01*
X0257975Y0119600D01*
X0259776Y0120346D01*
X0260345Y0120915D02*
X0261955Y0120915D01*
X0261647Y0122914D02*
X0262353Y0122914D01*
X0262100Y0124912D02*
X0261900Y0124912D01*
X0261305Y0126911D02*
X0262695Y0126911D01*
X0264200Y0128909D02*
X0259800Y0128909D01*
X0259800Y0130908D02*
X0264200Y0130908D01*
X0264200Y0132906D02*
X0259800Y0132906D01*
X0260335Y0134905D02*
X0264200Y0134905D01*
X0264200Y0136903D02*
X0260883Y0136903D01*
X0260415Y0138902D02*
X0264200Y0138902D01*
X0264200Y0140900D02*
X0250883Y0140900D01*
X0250883Y0140228D02*
X0250292Y0138801D01*
X0249800Y0138309D01*
X0249800Y0128630D01*
X0251154Y0127276D01*
X0251900Y0125475D01*
X0251900Y0123525D01*
X0251154Y0121724D01*
X0249776Y0120346D01*
X0247975Y0119600D01*
X0246025Y0119600D01*
X0244224Y0120346D01*
X0242846Y0121724D01*
X0242100Y0123525D01*
X0242100Y0125475D01*
X0242846Y0127276D01*
X0244200Y0128630D01*
X0244200Y0138309D01*
X0243708Y0138801D01*
X0243117Y0140228D01*
X0243117Y0141772D01*
X0243708Y0143199D01*
X0244801Y0144292D01*
X0246228Y0144883D01*
X0247772Y0144883D01*
X0249199Y0144292D01*
X0250292Y0143199D01*
X0250883Y0141772D01*
X0250883Y0140228D01*
X0250333Y0138902D02*
X0253585Y0138902D01*
X0253117Y0136903D02*
X0249800Y0136903D01*
X0249800Y0134905D02*
X0253665Y0134905D01*
X0254200Y0132906D02*
X0249800Y0132906D01*
X0249800Y0130908D02*
X0254200Y0130908D01*
X0254200Y0128909D02*
X0249800Y0128909D01*
X0251305Y0126911D02*
X0252695Y0126911D01*
X0252100Y0124912D02*
X0251900Y0124912D01*
X0251647Y0122914D02*
X0252353Y0122914D01*
X0253655Y0120915D02*
X0250345Y0120915D01*
X0247000Y0124500D02*
X0247000Y0141000D01*
X0243117Y0140900D02*
X0229800Y0140900D01*
X0229800Y0138902D02*
X0243667Y0138902D01*
X0244200Y0136903D02*
X0239588Y0136903D01*
X0239199Y0137292D02*
X0237772Y0137883D01*
X0236228Y0137883D01*
X0234801Y0137292D01*
X0233708Y0136199D01*
X0233117Y0134772D01*
X0233117Y0133228D01*
X0233708Y0131801D01*
X0234200Y0131309D01*
X0234200Y0128630D01*
X0232846Y0127276D01*
X0232100Y0125475D01*
X0232100Y0123525D01*
X0232846Y0121724D01*
X0234224Y0120346D01*
X0236025Y0119600D01*
X0237975Y0119600D01*
X0239776Y0120346D01*
X0241154Y0121724D01*
X0241900Y0123525D01*
X0241900Y0125475D01*
X0241154Y0127276D01*
X0239800Y0128630D01*
X0239800Y0131309D01*
X0240292Y0131801D01*
X0240883Y0133228D01*
X0240883Y0134772D01*
X0240292Y0136199D01*
X0239199Y0137292D01*
X0240828Y0134905D02*
X0244200Y0134905D01*
X0244200Y0132906D02*
X0240749Y0132906D01*
X0239800Y0130908D02*
X0244200Y0130908D01*
X0244200Y0128909D02*
X0239800Y0128909D01*
X0241305Y0126911D02*
X0242695Y0126911D01*
X0242100Y0124912D02*
X0241900Y0124912D01*
X0241647Y0122914D02*
X0242353Y0122914D01*
X0243655Y0120915D02*
X0240345Y0120915D01*
X0237000Y0124500D02*
X0237000Y0134000D01*
X0234412Y0136903D02*
X0229800Y0136903D01*
X0229800Y0134905D02*
X0233172Y0134905D01*
X0233250Y0132906D02*
X0229800Y0132906D01*
X0229800Y0130908D02*
X0234200Y0130908D01*
X0234200Y0128909D02*
X0229800Y0128909D01*
X0229800Y0128630D02*
X0229800Y0143557D01*
X0229374Y0144586D01*
X0228586Y0145374D01*
X0227883Y0146077D01*
X0227883Y0146772D01*
X0227292Y0148199D01*
X0226199Y0149292D01*
X0224772Y0149883D01*
X0223228Y0149883D01*
X0221801Y0149292D01*
X0220708Y0148199D01*
X0220117Y0146772D01*
X0220117Y0145228D01*
X0220708Y0143801D01*
X0221801Y0142708D01*
X0223228Y0142117D01*
X0223923Y0142117D01*
X0224200Y0141840D01*
X0224200Y0128630D01*
X0222846Y0127276D01*
X0222100Y0125475D01*
X0222100Y0123525D01*
X0222846Y0121724D01*
X0224224Y0120346D01*
X0226025Y0119600D01*
X0227975Y0119600D01*
X0229776Y0120346D01*
X0231154Y0121724D01*
X0231900Y0123525D01*
X0231900Y0125475D01*
X0231154Y0127276D01*
X0229800Y0128630D01*
X0231305Y0126911D02*
X0232695Y0126911D01*
X0232100Y0124912D02*
X0231900Y0124912D01*
X0231647Y0122914D02*
X0232353Y0122914D01*
X0233655Y0120915D02*
X0230345Y0120915D01*
X0227000Y0124500D02*
X0227000Y0143000D01*
X0224000Y0146000D01*
X0226597Y0148894D02*
X0263255Y0148894D01*
X0263167Y0150893D02*
X0234330Y0150893D01*
X0234883Y0152891D02*
X0236671Y0152891D01*
X0236117Y0154890D02*
X0234420Y0154890D01*
X0233800Y0156888D02*
X0236580Y0156888D01*
X0239100Y0158887D02*
X0233800Y0158887D01*
X0233800Y0160885D02*
X0239100Y0160885D01*
X0239100Y0162884D02*
X0233800Y0162884D01*
X0233800Y0164882D02*
X0239100Y0164882D01*
X0239100Y0166881D02*
X0233800Y0166881D01*
X0233800Y0168879D02*
X0239100Y0168879D01*
X0239100Y0170878D02*
X0233800Y0170878D01*
X0234624Y0172876D02*
X0239100Y0172876D01*
X0239100Y0174875D02*
X0234900Y0174875D01*
X0234900Y0176873D02*
X0239100Y0176873D01*
X0239100Y0178872D02*
X0234900Y0178872D01*
X0232100Y0174100D02*
X0231000Y0173000D01*
X0231000Y0153000D01*
X0227117Y0152891D02*
X0215883Y0152891D01*
X0215420Y0154890D02*
X0227580Y0154890D01*
X0228200Y0156888D02*
X0214800Y0156888D01*
X0214800Y0158887D02*
X0228200Y0158887D01*
X0228200Y0160885D02*
X0214800Y0160885D01*
X0214800Y0162884D02*
X0228200Y0162884D01*
X0228200Y0164882D02*
X0214800Y0164882D01*
X0214800Y0166881D02*
X0228200Y0166881D01*
X0228200Y0168879D02*
X0214800Y0168879D01*
X0214800Y0170878D02*
X0228200Y0170878D01*
X0228200Y0172876D02*
X0214800Y0172876D01*
X0214800Y0174875D02*
X0228915Y0174875D01*
X0229300Y0176873D02*
X0214800Y0176873D01*
X0214800Y0178872D02*
X0229300Y0178872D01*
X0232100Y0174100D02*
X0232100Y0186530D01*
X0241000Y0195430D01*
X0241000Y0216000D01*
X0241000Y0259000D01*
X0237117Y0258812D02*
X0235300Y0258812D01*
X0235300Y0256814D02*
X0237703Y0256814D01*
X0238200Y0254815D02*
X0235300Y0254815D01*
X0235300Y0252817D02*
X0238200Y0252817D01*
X0238200Y0250818D02*
X0235300Y0250818D01*
X0235300Y0248820D02*
X0238200Y0248820D01*
X0238200Y0246821D02*
X0235300Y0246821D01*
X0235300Y0244823D02*
X0238200Y0244823D01*
X0238200Y0242824D02*
X0234753Y0242824D01*
X0232907Y0240826D02*
X0238200Y0240826D01*
X0238200Y0238827D02*
X0230908Y0238827D01*
X0228166Y0236829D02*
X0238200Y0236829D01*
X0238200Y0234830D02*
X0222948Y0234830D01*
X0224194Y0232832D02*
X0238200Y0232832D01*
X0238200Y0230833D02*
X0224500Y0230833D01*
X0224056Y0228835D02*
X0238200Y0228835D01*
X0238200Y0226836D02*
X0222614Y0226836D01*
X0215386Y0226836D02*
X0208800Y0226836D01*
X0208800Y0224838D02*
X0238200Y0224838D01*
X0238200Y0222839D02*
X0208800Y0222839D01*
X0208800Y0220841D02*
X0238200Y0220841D01*
X0238200Y0218842D02*
X0209854Y0218842D01*
X0209724Y0216844D02*
X0237147Y0216844D01*
X0237276Y0214845D02*
X0208336Y0214845D01*
X0209438Y0212847D02*
X0238200Y0212847D01*
X0238200Y0210848D02*
X0209883Y0210848D01*
X0209312Y0208850D02*
X0238200Y0208850D01*
X0238200Y0206851D02*
X0207800Y0206851D01*
X0207800Y0204853D02*
X0238200Y0204853D01*
X0238200Y0202854D02*
X0207800Y0202854D01*
X0207800Y0200856D02*
X0238200Y0200856D01*
X0238200Y0198857D02*
X0207800Y0198857D01*
X0209101Y0196859D02*
X0238200Y0196859D01*
X0236471Y0194860D02*
X0211100Y0194860D01*
X0213098Y0192862D02*
X0234472Y0192862D01*
X0232474Y0190863D02*
X0214673Y0190863D01*
X0212000Y0190000D02*
X0205000Y0197000D01*
X0205000Y0210000D01*
X0206000Y0211000D01*
X0206000Y0218000D02*
X0206000Y0234000D01*
X0206000Y0235000D01*
X0204765Y0236235D01*
X0204765Y0298808D01*
X0198608Y0304965D01*
X0183035Y0304965D01*
X0179000Y0309000D01*
X0179000Y0326000D01*
X0176269Y0328760D02*
X0171917Y0328760D01*
X0171917Y0326762D02*
X0175117Y0326762D01*
X0175310Y0324763D02*
X0171917Y0324763D01*
X0171917Y0322765D02*
X0176200Y0322765D01*
X0176200Y0320766D02*
X0171917Y0320766D01*
X0171917Y0318768D02*
X0176200Y0318768D01*
X0176200Y0316769D02*
X0171917Y0316769D01*
X0171917Y0314771D02*
X0176200Y0314771D01*
X0176200Y0312772D02*
X0172697Y0312772D01*
X0174695Y0310774D02*
X0176200Y0310774D01*
X0181800Y0310774D02*
X0216700Y0310774D01*
X0216700Y0312772D02*
X0181800Y0312772D01*
X0181800Y0314771D02*
X0216700Y0314771D01*
X0216700Y0316769D02*
X0181800Y0316769D01*
X0181800Y0318768D02*
X0185351Y0318768D01*
X0183940Y0320766D02*
X0181800Y0320766D01*
X0181800Y0322765D02*
X0183700Y0322765D01*
X0183700Y0324763D02*
X0182690Y0324763D01*
X0182883Y0326762D02*
X0183700Y0326762D01*
X0183700Y0328760D02*
X0181731Y0328760D01*
X0183700Y0330759D02*
X0171917Y0330759D01*
X0171917Y0332757D02*
X0183700Y0332757D01*
X0183066Y0334756D02*
X0171786Y0334756D01*
X0170205Y0336754D02*
X0182238Y0336754D01*
X0181852Y0338753D02*
X0168207Y0338753D01*
X0166208Y0340751D02*
X0179841Y0340751D01*
X0184590Y0346747D02*
X0205300Y0346747D01*
X0205300Y0348745D02*
X0182580Y0348745D01*
X0186601Y0344748D02*
X0205377Y0344748D01*
X0205300Y0350744D02*
X0156216Y0350744D01*
X0158214Y0348745D02*
X0164154Y0348745D01*
X0163092Y0346747D02*
X0160213Y0346747D01*
X0162211Y0344748D02*
X0163321Y0344748D01*
X0164210Y0342750D02*
X0164855Y0342750D01*
X0169117Y0333883D02*
X0144000Y0359000D01*
X0147483Y0360737D02*
X0216700Y0360737D01*
X0216700Y0362735D02*
X0176226Y0362735D01*
X0176883Y0364734D02*
X0216700Y0364734D01*
X0216700Y0366732D02*
X0182040Y0366732D01*
X0184105Y0368731D02*
X0216700Y0368731D01*
X0216700Y0370729D02*
X0216618Y0370729D01*
X0211000Y0370729D02*
X0211000Y0370729D01*
X0211000Y0369300D02*
X0207037Y0369300D01*
X0206528Y0369436D01*
X0206072Y0369700D01*
X0205700Y0370072D01*
X0205436Y0370528D01*
X0205300Y0371037D01*
X0205300Y0375000D01*
X0211000Y0375000D01*
X0211000Y0375000D01*
X0211000Y0375000D01*
X0211000Y0380700D01*
X0207037Y0380700D01*
X0206528Y0380564D01*
X0206072Y0380300D01*
X0205700Y0379928D01*
X0205436Y0379472D01*
X0205300Y0378963D01*
X0205300Y0375000D01*
X0211000Y0375000D01*
X0211000Y0369300D01*
X0211000Y0372728D02*
X0211000Y0372728D01*
X0211000Y0374726D02*
X0211000Y0374726D01*
X0211000Y0376725D02*
X0211000Y0376725D01*
X0211000Y0378723D02*
X0211000Y0378723D01*
X0216700Y0378723D02*
X0216945Y0378723D01*
X0225055Y0378723D02*
X0226945Y0378723D01*
X0227493Y0370729D02*
X0225300Y0370729D01*
X0225300Y0368731D02*
X0292481Y0368731D01*
X0290483Y0370729D02*
X0234507Y0370729D01*
X0236012Y0372728D02*
X0288484Y0372728D01*
X0286486Y0374726D02*
X0236500Y0374726D01*
X0236239Y0376725D02*
X0284487Y0376725D01*
X0282489Y0378723D02*
X0235055Y0378723D01*
X0238502Y0358700D02*
X0225300Y0358700D01*
X0225300Y0352478D01*
X0225663Y0352115D01*
X0226000Y0351301D01*
X0226337Y0352115D01*
X0227884Y0353663D01*
X0229906Y0354500D01*
X0232094Y0354500D01*
X0234115Y0353663D01*
X0235663Y0352115D01*
X0236500Y0350094D01*
X0236500Y0347906D01*
X0235663Y0345884D01*
X0234115Y0344337D01*
X0232818Y0343800D01*
X0273154Y0343800D01*
X0275285Y0342917D01*
X0276917Y0341285D01*
X0284417Y0333785D01*
X0285300Y0331654D01*
X0285300Y0317383D01*
X0285737Y0317500D01*
X0289500Y0317500D01*
X0289500Y0312000D01*
X0299500Y0312000D01*
X0299500Y0312000D01*
X0299500Y0317500D01*
X0303263Y0317500D01*
X0303772Y0317364D01*
X0304228Y0317100D01*
X0304600Y0316728D01*
X0304864Y0316272D01*
X0305000Y0315763D01*
X0305000Y0314986D01*
X0305007Y0315002D01*
X0305200Y0315195D01*
X0305200Y0333719D01*
X0296564Y0342355D01*
X0296564Y0342355D01*
X0295355Y0343564D01*
X0280219Y0358700D01*
X0251260Y0358700D01*
X0257077Y0352883D01*
X0257772Y0352883D01*
X0259199Y0352292D01*
X0260292Y0351199D01*
X0260883Y0349772D01*
X0260883Y0348228D01*
X0260292Y0346801D01*
X0259199Y0345708D01*
X0257772Y0345117D01*
X0256228Y0345117D01*
X0254801Y0345708D01*
X0253708Y0346801D01*
X0253117Y0348228D01*
X0253117Y0348923D01*
X0247840Y0354200D01*
X0244691Y0354200D01*
X0244199Y0353708D01*
X0242772Y0353117D01*
X0241228Y0353117D01*
X0239801Y0353708D01*
X0238708Y0354801D01*
X0238117Y0356228D01*
X0238117Y0357772D01*
X0238502Y0358700D01*
X0238117Y0356739D02*
X0225300Y0356739D01*
X0225300Y0354741D02*
X0238768Y0354741D01*
X0242000Y0357000D02*
X0249000Y0357000D01*
X0257000Y0349000D01*
X0260883Y0348745D02*
X0290173Y0348745D01*
X0288175Y0350744D02*
X0260480Y0350744D01*
X0258111Y0352742D02*
X0286176Y0352742D01*
X0284178Y0354741D02*
X0255219Y0354741D01*
X0253220Y0356739D02*
X0282179Y0356739D01*
X0288346Y0362735D02*
X0298477Y0362735D01*
X0296478Y0364734D02*
X0286348Y0364734D01*
X0284226Y0366732D02*
X0294480Y0366732D01*
X0290345Y0360737D02*
X0300750Y0360737D01*
X0303791Y0356739D02*
X0294342Y0356739D01*
X0296340Y0354741D02*
X0301660Y0354741D01*
X0299661Y0352742D02*
X0298339Y0352742D01*
X0292172Y0346747D02*
X0260238Y0346747D01*
X0253762Y0346747D02*
X0236020Y0346747D01*
X0236500Y0348745D02*
X0253117Y0348745D01*
X0251296Y0350744D02*
X0236231Y0350744D01*
X0235036Y0352742D02*
X0249298Y0352742D01*
X0234527Y0344748D02*
X0294170Y0344748D01*
X0296169Y0342750D02*
X0275453Y0342750D01*
X0277451Y0340751D02*
X0298167Y0340751D01*
X0300166Y0338753D02*
X0279450Y0338753D01*
X0281448Y0336754D02*
X0302165Y0336754D01*
X0304163Y0334756D02*
X0283447Y0334756D01*
X0284843Y0332757D02*
X0305200Y0332757D01*
X0305200Y0330759D02*
X0285300Y0330759D01*
X0285300Y0328760D02*
X0305200Y0328760D01*
X0305200Y0326762D02*
X0285300Y0326762D01*
X0285300Y0324763D02*
X0305200Y0324763D01*
X0305200Y0322765D02*
X0285300Y0322765D01*
X0285300Y0320766D02*
X0305200Y0320766D01*
X0305200Y0318768D02*
X0285300Y0318768D01*
X0289500Y0317500D02*
X0289500Y0312000D01*
X0289500Y0312000D01*
X0289500Y0312000D01*
X0294000Y0312000D01*
X0299500Y0312000D01*
X0299500Y0312000D01*
X0299500Y0317500D01*
X0295737Y0317500D01*
X0295228Y0317364D01*
X0294772Y0317100D01*
X0294500Y0316828D01*
X0294228Y0317100D01*
X0293772Y0317364D01*
X0293263Y0317500D01*
X0289500Y0317500D01*
X0289500Y0316769D02*
X0289500Y0316769D01*
X0289500Y0314771D02*
X0289500Y0314771D01*
X0289500Y0312772D02*
X0289500Y0312772D01*
X0299500Y0312772D02*
X0299500Y0312772D01*
X0299500Y0314771D02*
X0299500Y0314771D01*
X0299500Y0316769D02*
X0299500Y0316769D01*
X0304559Y0316769D02*
X0305200Y0316769D01*
X0313800Y0316769D02*
X0360200Y0316769D01*
X0360200Y0314771D02*
X0314089Y0314771D01*
X0314800Y0312772D02*
X0360200Y0312772D01*
X0360200Y0310774D02*
X0314729Y0310774D01*
X0313771Y0308775D02*
X0360200Y0308775D01*
X0360200Y0306777D02*
X0342210Y0306777D01*
X0345424Y0304778D02*
X0360200Y0304778D01*
X0360200Y0302780D02*
X0347423Y0302780D01*
X0349421Y0300781D02*
X0360200Y0300781D01*
X0360200Y0298783D02*
X0350539Y0298783D01*
X0355000Y0296784D02*
X0355000Y0296784D01*
X0355000Y0294786D02*
X0355000Y0294786D01*
X0355000Y0292787D02*
X0355000Y0292787D01*
X0360044Y0296784D02*
X0360200Y0296784D01*
X0360200Y0318768D02*
X0313800Y0318768D01*
X0313800Y0320766D02*
X0360200Y0320766D01*
X0360200Y0322765D02*
X0313800Y0322765D01*
X0313800Y0324763D02*
X0360200Y0324763D01*
X0360200Y0326762D02*
X0313800Y0326762D01*
X0313800Y0328760D02*
X0320513Y0328760D01*
X0320728Y0328636D02*
X0321237Y0328500D01*
X0325000Y0328500D01*
X0328763Y0328500D01*
X0329272Y0328636D01*
X0329728Y0328900D01*
X0330100Y0329272D01*
X0330364Y0329728D01*
X0330500Y0330237D01*
X0330500Y0334000D01*
X0330500Y0337763D01*
X0330364Y0338272D01*
X0330100Y0338728D01*
X0329728Y0339100D01*
X0329272Y0339364D01*
X0328763Y0339500D01*
X0325000Y0339500D01*
X0325000Y0334000D01*
X0330500Y0334000D01*
X0325000Y0334000D01*
X0325000Y0334000D01*
X0325000Y0334000D01*
X0325000Y0328500D01*
X0325000Y0334000D01*
X0325000Y0334000D01*
X0325000Y0334000D01*
X0319500Y0334000D01*
X0319500Y0337763D01*
X0319636Y0338272D01*
X0319900Y0338728D01*
X0320272Y0339100D01*
X0320728Y0339364D01*
X0321237Y0339500D01*
X0325000Y0339500D01*
X0325000Y0334000D01*
X0319500Y0334000D01*
X0319500Y0330237D01*
X0319636Y0329728D01*
X0319900Y0329272D01*
X0320272Y0328900D01*
X0320728Y0328636D01*
X0319500Y0330759D02*
X0313800Y0330759D01*
X0313800Y0332757D02*
X0319500Y0332757D01*
X0319500Y0334756D02*
X0313800Y0334756D01*
X0313635Y0336754D02*
X0319500Y0336754D01*
X0319924Y0338753D02*
X0312328Y0338753D01*
X0310330Y0340751D02*
X0324813Y0340751D01*
X0324299Y0340964D02*
X0327349Y0339701D01*
X0330651Y0339701D01*
X0333701Y0340964D01*
X0336036Y0343299D01*
X0337299Y0346349D01*
X0337299Y0349651D01*
X0336036Y0352701D01*
X0333701Y0355036D01*
X0330651Y0356299D01*
X0327349Y0356299D01*
X0324299Y0355036D01*
X0321964Y0352701D01*
X0320701Y0349651D01*
X0320701Y0346349D01*
X0321964Y0343299D01*
X0324299Y0340964D01*
X0325000Y0338753D02*
X0325000Y0338753D01*
X0325000Y0336754D02*
X0325000Y0336754D01*
X0325000Y0334756D02*
X0325000Y0334756D01*
X0325000Y0332757D02*
X0325000Y0332757D01*
X0325000Y0330759D02*
X0325000Y0330759D01*
X0325000Y0328760D02*
X0325000Y0328760D01*
X0329487Y0328760D02*
X0360200Y0328760D01*
X0360200Y0330759D02*
X0330500Y0330759D01*
X0330500Y0332757D02*
X0360200Y0332757D01*
X0359456Y0334756D02*
X0330500Y0334756D01*
X0330500Y0336754D02*
X0357457Y0336754D01*
X0355459Y0338753D02*
X0330076Y0338753D01*
X0333187Y0340751D02*
X0353460Y0340751D01*
X0351462Y0342750D02*
X0335487Y0342750D01*
X0336636Y0344748D02*
X0349463Y0344748D01*
X0347465Y0346747D02*
X0337299Y0346747D01*
X0337299Y0348745D02*
X0345466Y0348745D01*
X0343468Y0350744D02*
X0336846Y0350744D01*
X0335994Y0352742D02*
X0341469Y0352742D01*
X0339471Y0354741D02*
X0333996Y0354741D01*
X0337472Y0356739D02*
X0308209Y0356739D01*
X0309933Y0354741D02*
X0324004Y0354741D01*
X0322006Y0352742D02*
X0310300Y0352742D01*
X0309720Y0350744D02*
X0321154Y0350744D01*
X0320701Y0348745D02*
X0307827Y0348745D01*
X0305828Y0346747D02*
X0320701Y0346747D01*
X0321364Y0344748D02*
X0306333Y0344748D01*
X0308331Y0342750D02*
X0322513Y0342750D01*
X0335474Y0358738D02*
X0292343Y0358738D01*
X0280490Y0380722D02*
X0187057Y0380722D01*
X0188239Y0378723D02*
X0205300Y0378723D01*
X0205300Y0376725D02*
X0188500Y0376725D01*
X0188011Y0374726D02*
X0205300Y0374726D01*
X0205300Y0372728D02*
X0186800Y0372728D01*
X0186103Y0370729D02*
X0205382Y0370729D01*
X0216700Y0358738D02*
X0148222Y0358738D01*
X0150220Y0356739D02*
X0216700Y0356739D01*
X0216700Y0354741D02*
X0152219Y0354741D01*
X0154217Y0352742D02*
X0205300Y0352742D01*
X0211000Y0352742D02*
X0211000Y0352742D01*
X0211000Y0350744D02*
X0211000Y0350744D01*
X0216700Y0352478D02*
X0216700Y0352478D01*
X0216700Y0352742D02*
X0216700Y0352742D01*
X0225300Y0352742D02*
X0226964Y0352742D01*
X0211000Y0328700D02*
X0207037Y0328700D01*
X0206528Y0328564D01*
X0206072Y0328300D01*
X0205700Y0327928D01*
X0205436Y0327472D01*
X0205300Y0326963D01*
X0205300Y0323000D01*
X0211000Y0323000D01*
X0211000Y0323000D01*
X0211000Y0323000D01*
X0211000Y0328700D01*
X0211000Y0326762D02*
X0211000Y0326762D01*
X0211000Y0324763D02*
X0211000Y0324763D01*
X0211000Y0323000D02*
X0205300Y0323000D01*
X0205300Y0319037D01*
X0205436Y0318528D01*
X0205700Y0318072D01*
X0206072Y0317700D01*
X0206528Y0317436D01*
X0207037Y0317300D01*
X0211000Y0317300D01*
X0211000Y0323000D01*
X0211000Y0322765D02*
X0211000Y0322765D01*
X0211000Y0320766D02*
X0211000Y0320766D01*
X0211000Y0318768D02*
X0211000Y0318768D01*
X0216628Y0318768D02*
X0216700Y0318768D01*
X0216700Y0326762D02*
X0216984Y0326762D01*
X0225016Y0326762D02*
X0226984Y0326762D01*
X0227454Y0318768D02*
X0225300Y0318768D01*
X0225300Y0316769D02*
X0238530Y0316769D01*
X0238117Y0314771D02*
X0225300Y0314771D01*
X0225300Y0312772D02*
X0238737Y0312772D01*
X0242000Y0315000D02*
X0253000Y0304000D01*
X0253000Y0197000D01*
X0256000Y0194000D01*
X0252100Y0190900D02*
X0252100Y0182470D01*
X0254000Y0180570D01*
X0254000Y0168000D01*
X0255000Y0167000D01*
X0256924Y0162884D02*
X0244700Y0162884D01*
X0244700Y0164882D02*
X0245744Y0164882D01*
X0245117Y0166881D02*
X0244700Y0166881D01*
X0244700Y0168879D02*
X0245527Y0168879D01*
X0246200Y0170878D02*
X0244700Y0170878D01*
X0244700Y0172876D02*
X0246200Y0172876D01*
X0246200Y0174875D02*
X0244700Y0174875D01*
X0244700Y0176873D02*
X0245264Y0176873D01*
X0245159Y0178872D02*
X0244700Y0178872D01*
X0249000Y0178000D02*
X0249000Y0167117D01*
X0244700Y0160885D02*
X0253394Y0160885D01*
X0252165Y0158887D02*
X0244700Y0158887D01*
X0244700Y0156888D02*
X0252258Y0156888D01*
X0253619Y0154890D02*
X0244276Y0154890D01*
X0243329Y0152891D02*
X0264400Y0152891D01*
X0267000Y0150000D02*
X0267000Y0124500D01*
X0267000Y0122000D01*
X0259000Y0114000D01*
X0259000Y0095000D01*
X0254000Y0090000D01*
X0222000Y0090000D01*
X0198000Y0066000D01*
X0145000Y0066000D01*
X0138080Y0060960D02*
X0137000Y0060960D01*
X0136401Y0062958D02*
X0075357Y0062958D01*
X0075883Y0064957D02*
X0136200Y0064957D01*
X0136200Y0066955D02*
X0075393Y0066955D01*
X0074800Y0068954D02*
X0136364Y0068954D01*
X0137993Y0070952D02*
X0074800Y0070952D01*
X0074800Y0072951D02*
X0139991Y0072951D01*
X0147200Y0074949D02*
X0074800Y0074949D01*
X0074800Y0076948D02*
X0085825Y0076948D01*
X0084884Y0077337D02*
X0086906Y0076500D01*
X0089094Y0076500D01*
X0091115Y0077337D01*
X0092663Y0078884D01*
X0092899Y0079456D01*
X0093125Y0079013D01*
X0093652Y0078287D01*
X0094287Y0077652D01*
X0095013Y0077125D01*
X0095812Y0076718D01*
X0096665Y0076440D01*
X0097551Y0076300D01*
X0098000Y0076300D01*
X0098449Y0076300D01*
X0099335Y0076440D01*
X0100188Y0076718D01*
X0100987Y0077125D01*
X0101713Y0077652D01*
X0102348Y0078287D01*
X0102875Y0079013D01*
X0103000Y0079258D01*
X0103125Y0079013D01*
X0103652Y0078287D01*
X0104287Y0077652D01*
X0105013Y0077125D01*
X0105812Y0076718D01*
X0106665Y0076440D01*
X0107551Y0076300D01*
X0108000Y0076300D01*
X0108449Y0076300D01*
X0109335Y0076440D01*
X0110188Y0076718D01*
X0110987Y0077125D01*
X0111713Y0077652D01*
X0112348Y0078287D01*
X0112500Y0078496D01*
X0112500Y0077554D01*
X0113554Y0076500D01*
X0122446Y0076500D01*
X0123500Y0077554D01*
X0123500Y0086446D01*
X0122446Y0087500D01*
X0113554Y0087500D01*
X0112500Y0086446D01*
X0112500Y0085504D01*
X0112348Y0085713D01*
X0111713Y0086348D01*
X0110987Y0086875D01*
X0110188Y0087282D01*
X0109335Y0087560D01*
X0108449Y0087700D01*
X0108000Y0087700D01*
X0108000Y0082000D01*
X0108000Y0082000D01*
X0108000Y0087700D01*
X0107551Y0087700D01*
X0106665Y0087560D01*
X0105812Y0087282D01*
X0105013Y0086875D01*
X0104287Y0086348D01*
X0103652Y0085713D01*
X0103125Y0084987D01*
X0103000Y0084742D01*
X0102875Y0084987D01*
X0102348Y0085713D01*
X0101713Y0086348D01*
X0100987Y0086875D01*
X0100188Y0087282D01*
X0099335Y0087560D01*
X0098449Y0087700D01*
X0098000Y0087700D01*
X0098000Y0082000D01*
X0098000Y0082000D01*
X0103700Y0082000D01*
X0108000Y0082000D01*
X0108000Y0076300D01*
X0108000Y0082000D01*
X0108000Y0082000D01*
X0108000Y0082000D01*
X0098000Y0082000D01*
X0098000Y0082000D01*
X0098000Y0087700D01*
X0097551Y0087700D01*
X0096665Y0087560D01*
X0095812Y0087282D01*
X0095013Y0086875D01*
X0094287Y0086348D01*
X0093652Y0085713D01*
X0093125Y0084987D01*
X0092899Y0084544D01*
X0092663Y0085115D01*
X0091115Y0086663D01*
X0089094Y0087500D01*
X0086906Y0087500D01*
X0084884Y0086663D01*
X0083337Y0085115D01*
X0082500Y0083094D01*
X0082500Y0080906D01*
X0083337Y0078884D01*
X0084884Y0077337D01*
X0083312Y0078946D02*
X0074800Y0078946D01*
X0075766Y0080945D02*
X0082500Y0080945D01*
X0082500Y0082943D02*
X0075812Y0082943D01*
X0074800Y0084942D02*
X0083265Y0084942D01*
X0085555Y0086940D02*
X0074800Y0086940D01*
X0074800Y0088939D02*
X0125397Y0088939D01*
X0125440Y0088665D02*
X0125718Y0087812D01*
X0126125Y0087013D01*
X0126652Y0086287D01*
X0127287Y0085652D01*
X0128013Y0085125D01*
X0128812Y0084718D01*
X0129665Y0084440D01*
X0130551Y0084300D01*
X0131000Y0084300D01*
X0131449Y0084300D01*
X0132335Y0084440D01*
X0133188Y0084718D01*
X0133987Y0085125D01*
X0134713Y0085652D01*
X0135348Y0086287D01*
X0135875Y0087013D01*
X0136282Y0087812D01*
X0136560Y0088665D01*
X0136700Y0089551D01*
X0136700Y0090000D01*
X0131000Y0090000D01*
X0131000Y0090000D01*
X0131000Y0084300D01*
X0131000Y0090000D01*
X0131000Y0090000D01*
X0131000Y0090000D01*
X0125300Y0090000D01*
X0125300Y0089551D01*
X0125440Y0088665D01*
X0126177Y0086940D02*
X0123005Y0086940D01*
X0123500Y0084942D02*
X0128372Y0084942D01*
X0131000Y0084942D02*
X0131000Y0084942D01*
X0131000Y0086940D02*
X0131000Y0086940D01*
X0131000Y0088939D02*
X0131000Y0088939D01*
X0133628Y0084942D02*
X0146650Y0084942D01*
X0146117Y0086940D02*
X0135823Y0086940D01*
X0136603Y0088939D02*
X0146601Y0088939D01*
X0147200Y0082943D02*
X0123500Y0082943D01*
X0123500Y0080945D02*
X0147200Y0080945D01*
X0147200Y0078946D02*
X0123500Y0078946D01*
X0122893Y0076948D02*
X0147200Y0076948D01*
X0152800Y0072951D02*
X0200991Y0072951D01*
X0198993Y0070952D02*
X0151912Y0070952D01*
X0149914Y0068954D02*
X0196994Y0068954D01*
X0205437Y0078946D02*
X0206987Y0078946D01*
X0206766Y0080945D02*
X0208985Y0080945D01*
X0210984Y0082943D02*
X0206812Y0082943D01*
X0205549Y0084942D02*
X0212982Y0084942D01*
X0214981Y0086940D02*
X0202019Y0086940D01*
X0200021Y0088939D02*
X0216979Y0088939D01*
X0218978Y0090937D02*
X0198022Y0090937D01*
X0196024Y0092936D02*
X0252976Y0092936D01*
X0254975Y0094934D02*
X0194025Y0094934D01*
X0192027Y0096933D02*
X0256200Y0096933D01*
X0256200Y0098932D02*
X0190028Y0098932D01*
X0189562Y0100930D02*
X0240579Y0100930D01*
X0245421Y0100930D02*
X0256200Y0100930D01*
X0256200Y0102929D02*
X0246759Y0102929D01*
X0246819Y0104927D02*
X0256200Y0104927D01*
X0261800Y0104927D02*
X0279553Y0104927D01*
X0277555Y0102929D02*
X0261800Y0102929D01*
X0261800Y0100930D02*
X0275556Y0100930D01*
X0273558Y0098932D02*
X0261800Y0098932D01*
X0261800Y0096933D02*
X0271559Y0096933D01*
X0269561Y0094934D02*
X0261800Y0094934D01*
X0260896Y0092936D02*
X0267562Y0092936D01*
X0265563Y0090937D02*
X0258897Y0090937D01*
X0256899Y0088939D02*
X0263565Y0088939D01*
X0261566Y0086940D02*
X0222900Y0086940D01*
X0232000Y0078000D02*
X0258000Y0078000D01*
X0258000Y0071000D01*
X0248000Y0061000D01*
X0253500Y0060960D02*
X0263000Y0060960D01*
X0264999Y0062958D02*
X0253918Y0062958D01*
X0255917Y0064957D02*
X0266997Y0064957D01*
X0268996Y0066955D02*
X0257915Y0066955D01*
X0259586Y0068626D02*
X0259586Y0068626D01*
X0259914Y0068954D02*
X0270994Y0068954D01*
X0272993Y0070952D02*
X0260800Y0070952D01*
X0260800Y0072951D02*
X0274991Y0072951D01*
X0276990Y0074949D02*
X0260800Y0074949D01*
X0262322Y0076948D02*
X0278988Y0076948D01*
X0280987Y0078946D02*
X0264320Y0078946D01*
X0266319Y0080945D02*
X0282189Y0080945D01*
X0283453Y0082943D02*
X0268317Y0082943D01*
X0270316Y0084942D02*
X0317325Y0084942D01*
X0322000Y0085000D02*
X0322000Y0111000D01*
X0324000Y0113000D01*
X0340000Y0113000D01*
X0361000Y0107000D01*
X0378000Y0107000D01*
X0378000Y0085000D01*
X0322000Y0085000D01*
X0322000Y0086940D02*
X0378000Y0086940D01*
X0378000Y0088939D02*
X0322000Y0088939D01*
X0322000Y0090937D02*
X0378000Y0090937D01*
X0378000Y0092936D02*
X0322000Y0092936D01*
X0322000Y0094934D02*
X0378000Y0094934D01*
X0378000Y0096933D02*
X0322000Y0096933D01*
X0322000Y0098932D02*
X0378000Y0098932D01*
X0378000Y0100930D02*
X0322000Y0100930D01*
X0322000Y0102929D02*
X0378000Y0102929D01*
X0378000Y0104927D02*
X0322000Y0104927D01*
X0322000Y0106926D02*
X0378000Y0106926D01*
X0373142Y0116918D02*
X0371992Y0116918D01*
X0371992Y0118917D02*
X0373142Y0118917D01*
X0373142Y0120915D02*
X0371992Y0120915D01*
X0379200Y0122914D02*
X0293616Y0122914D01*
X0295615Y0124912D02*
X0379200Y0124912D01*
X0379200Y0126911D02*
X0297613Y0126911D01*
X0299612Y0128909D02*
X0379200Y0128909D01*
X0379200Y0130908D02*
X0301610Y0130908D01*
X0303609Y0132906D02*
X0379200Y0132906D01*
X0379200Y0134905D02*
X0305607Y0134905D01*
X0307606Y0136903D02*
X0379200Y0136903D01*
X0379200Y0138902D02*
X0309604Y0138902D01*
X0311603Y0140900D02*
X0379200Y0140900D01*
X0379200Y0142899D02*
X0313601Y0142899D01*
X0315600Y0144897D02*
X0379200Y0144897D01*
X0379200Y0146896D02*
X0317598Y0146896D01*
X0319597Y0148894D02*
X0379200Y0148894D01*
X0379200Y0150893D02*
X0321595Y0150893D01*
X0323594Y0152891D02*
X0379200Y0152891D01*
X0377686Y0154890D02*
X0325592Y0154890D01*
X0327591Y0156888D02*
X0375220Y0156888D01*
X0374700Y0158887D02*
X0329589Y0158887D01*
X0331588Y0160885D02*
X0375127Y0160885D01*
X0377140Y0162884D02*
X0333586Y0162884D01*
X0335585Y0164882D02*
X0379200Y0164882D01*
X0379200Y0166881D02*
X0337583Y0166881D01*
X0338607Y0168879D02*
X0379200Y0168879D01*
X0379200Y0170878D02*
X0338800Y0170878D01*
X0338800Y0172876D02*
X0379200Y0172876D01*
X0379200Y0174875D02*
X0338800Y0174875D01*
X0338800Y0176873D02*
X0379200Y0176873D01*
X0379200Y0178872D02*
X0338800Y0178872D01*
X0338800Y0180870D02*
X0379200Y0180870D01*
X0379200Y0182869D02*
X0338800Y0182869D01*
X0338800Y0184868D02*
X0379200Y0184868D01*
X0379200Y0186866D02*
X0338800Y0186866D01*
X0338800Y0188865D02*
X0379200Y0188865D01*
X0379200Y0190863D02*
X0338800Y0190863D01*
X0338800Y0192862D02*
X0379200Y0192862D01*
X0379200Y0194860D02*
X0338800Y0194860D01*
X0338800Y0196859D02*
X0379200Y0196859D01*
X0379200Y0198857D02*
X0338800Y0198857D01*
X0338800Y0200856D02*
X0379200Y0200856D01*
X0379200Y0202854D02*
X0338800Y0202854D01*
X0338800Y0204853D02*
X0379200Y0204853D01*
X0379200Y0206851D02*
X0338800Y0206851D01*
X0338800Y0208850D02*
X0379200Y0208850D01*
X0379200Y0210848D02*
X0338800Y0210848D01*
X0338800Y0212847D02*
X0379200Y0212847D01*
X0379200Y0214845D02*
X0338800Y0214845D01*
X0338800Y0216844D02*
X0379200Y0216844D01*
X0379200Y0218842D02*
X0338800Y0218842D01*
X0338800Y0220841D02*
X0379200Y0220841D01*
X0379200Y0222839D02*
X0338800Y0222839D01*
X0338800Y0224838D02*
X0379200Y0224838D01*
X0379200Y0226836D02*
X0338800Y0226836D01*
X0338800Y0228835D02*
X0379200Y0228835D01*
X0379200Y0230833D02*
X0338800Y0230833D01*
X0338800Y0232832D02*
X0379200Y0232832D01*
X0379200Y0234830D02*
X0338800Y0234830D01*
X0338800Y0236829D02*
X0379200Y0236829D01*
X0379200Y0238827D02*
X0338800Y0238827D01*
X0342000Y0243000D02*
X0352334Y0243000D01*
X0369634Y0260300D01*
X0369634Y0265634D01*
X0375059Y0271059D01*
X0375059Y0272195D01*
X0378139Y0268805D02*
X0379200Y0268805D01*
X0379200Y0266806D02*
X0378652Y0266806D01*
X0375059Y0266806D02*
X0375059Y0266806D01*
X0375059Y0264808D02*
X0375059Y0264808D01*
X0375059Y0262809D02*
X0375059Y0262809D01*
X0375059Y0260811D02*
X0375059Y0260811D01*
X0375059Y0258812D02*
X0375059Y0258812D01*
X0379200Y0256814D02*
X0370108Y0256814D01*
X0368109Y0254815D02*
X0379200Y0254815D01*
X0379200Y0252817D02*
X0366111Y0252817D01*
X0364112Y0250818D02*
X0379200Y0250818D01*
X0379200Y0248820D02*
X0362114Y0248820D01*
X0360115Y0246821D02*
X0379200Y0246821D01*
X0379200Y0244823D02*
X0358117Y0244823D01*
X0356118Y0242824D02*
X0379200Y0242824D01*
X0379200Y0240826D02*
X0354120Y0240826D01*
X0327200Y0251291D02*
X0326199Y0252292D01*
X0324772Y0252883D01*
X0323228Y0252883D01*
X0321801Y0252292D01*
X0320708Y0251199D01*
X0320117Y0249772D01*
X0320117Y0249077D01*
X0316626Y0245586D01*
X0316200Y0244557D01*
X0316200Y0181160D01*
X0315840Y0180800D01*
X0290512Y0180800D01*
X0290890Y0181178D01*
X0291362Y0181827D01*
X0291726Y0182542D01*
X0291974Y0183306D01*
X0292100Y0184099D01*
X0292100Y0184500D01*
X0292100Y0184901D01*
X0291974Y0185694D01*
X0291726Y0186458D01*
X0291362Y0187173D01*
X0290890Y0187822D01*
X0290322Y0188390D01*
X0289673Y0188862D01*
X0288958Y0189226D01*
X0288194Y0189474D01*
X0287401Y0189600D01*
X0287000Y0189600D01*
X0287000Y0184500D01*
X0287000Y0184500D01*
X0292100Y0184500D01*
X0287000Y0184500D01*
X0287000Y0184500D01*
X0287000Y0189600D01*
X0286599Y0189600D01*
X0285806Y0189474D01*
X0285042Y0189226D01*
X0284327Y0188862D01*
X0283864Y0188525D01*
X0283800Y0188589D01*
X0283800Y0249840D01*
X0289586Y0255626D01*
X0296586Y0262626D01*
X0297374Y0263414D01*
X0297800Y0264443D01*
X0297800Y0278557D01*
X0297374Y0279586D01*
X0292374Y0284586D01*
X0291586Y0285374D01*
X0290557Y0285800D01*
X0281443Y0285800D01*
X0280414Y0285374D01*
X0277540Y0282500D01*
X0275722Y0282500D01*
X0273800Y0280578D01*
X0273800Y0283598D01*
X0285402Y0295200D01*
X0320705Y0295200D01*
X0320507Y0295002D01*
X0319700Y0293054D01*
X0319700Y0290946D01*
X0320507Y0288998D01*
X0321998Y0287507D01*
X0323946Y0286700D01*
X0326054Y0286700D01*
X0328002Y0287507D01*
X0329493Y0288998D01*
X0330000Y0290222D01*
X0330507Y0288998D01*
X0331998Y0287507D01*
X0333704Y0286800D01*
X0331846Y0286800D01*
X0329715Y0285917D01*
X0328083Y0284285D01*
X0327200Y0282154D01*
X0327200Y0251291D01*
X0327200Y0252817D02*
X0324931Y0252817D01*
X0323069Y0252817D02*
X0286777Y0252817D01*
X0288775Y0254815D02*
X0327200Y0254815D01*
X0327200Y0256814D02*
X0290774Y0256814D01*
X0292772Y0258812D02*
X0327200Y0258812D01*
X0327200Y0260811D02*
X0294771Y0260811D01*
X0296769Y0262809D02*
X0327200Y0262809D01*
X0327200Y0264808D02*
X0297800Y0264808D01*
X0297800Y0266806D02*
X0327200Y0266806D01*
X0327200Y0268805D02*
X0297800Y0268805D01*
X0297800Y0270803D02*
X0327200Y0270803D01*
X0327200Y0272802D02*
X0297800Y0272802D01*
X0297800Y0274801D02*
X0327200Y0274801D01*
X0327200Y0276799D02*
X0297800Y0276799D01*
X0297700Y0278798D02*
X0327200Y0278798D01*
X0327200Y0280796D02*
X0296164Y0280796D01*
X0294165Y0282795D02*
X0327465Y0282795D01*
X0328591Y0284793D02*
X0292167Y0284793D01*
X0290000Y0283000D02*
X0282000Y0283000D01*
X0278000Y0279000D01*
X0278000Y0277000D01*
X0274018Y0280796D02*
X0273800Y0280796D01*
X0273800Y0282795D02*
X0277835Y0282795D01*
X0279833Y0284793D02*
X0274996Y0284793D01*
X0276994Y0286792D02*
X0323725Y0286792D01*
X0326275Y0286792D02*
X0331826Y0286792D01*
X0330715Y0288790D02*
X0329285Y0288790D01*
X0320715Y0288790D02*
X0278993Y0288790D01*
X0280991Y0290789D02*
X0319765Y0290789D01*
X0319700Y0292787D02*
X0282990Y0292787D01*
X0284988Y0294786D02*
X0320417Y0294786D01*
X0295000Y0278000D02*
X0290000Y0283000D01*
X0295000Y0278000D02*
X0295000Y0265000D01*
X0288000Y0258000D01*
X0281000Y0251000D01*
X0281000Y0187430D01*
X0281900Y0186530D01*
X0281900Y0180100D01*
X0282000Y0180000D01*
X0265000Y0163000D01*
X0268883Y0162884D02*
X0277625Y0162884D01*
X0276260Y0164882D02*
X0270842Y0164882D01*
X0272841Y0166881D02*
X0276162Y0166881D01*
X0277200Y0168879D02*
X0274839Y0168879D01*
X0276838Y0170878D02*
X0277200Y0170878D01*
X0280000Y0172000D02*
X0280000Y0166000D01*
X0283740Y0164882D02*
X0319180Y0164882D01*
X0317181Y0162884D02*
X0282375Y0162884D01*
X0283838Y0166881D02*
X0321178Y0166881D01*
X0323177Y0168879D02*
X0282800Y0168879D01*
X0282838Y0170878D02*
X0285676Y0170878D01*
X0285117Y0172876D02*
X0284836Y0172876D01*
X0289000Y0173000D02*
X0320000Y0173000D01*
X0322000Y0175000D01*
X0322000Y0241000D01*
X0324000Y0243000D01*
X0319000Y0244000D02*
X0324000Y0249000D01*
X0320551Y0250818D02*
X0284778Y0250818D01*
X0283800Y0248820D02*
X0319860Y0248820D01*
X0317862Y0246821D02*
X0283800Y0246821D01*
X0283800Y0244823D02*
X0316310Y0244823D01*
X0316200Y0242824D02*
X0283800Y0242824D01*
X0283800Y0240826D02*
X0316200Y0240826D01*
X0316200Y0238827D02*
X0283800Y0238827D01*
X0283800Y0236829D02*
X0316200Y0236829D01*
X0316200Y0234830D02*
X0283800Y0234830D01*
X0283800Y0232832D02*
X0316200Y0232832D01*
X0316200Y0230833D02*
X0283800Y0230833D01*
X0283800Y0228835D02*
X0316200Y0228835D01*
X0316200Y0226836D02*
X0283800Y0226836D01*
X0283800Y0224838D02*
X0316200Y0224838D01*
X0316200Y0222839D02*
X0283800Y0222839D01*
X0283800Y0220841D02*
X0316200Y0220841D01*
X0316200Y0218842D02*
X0283800Y0218842D01*
X0283800Y0216844D02*
X0316200Y0216844D01*
X0316200Y0214845D02*
X0283800Y0214845D01*
X0283800Y0212847D02*
X0316200Y0212847D01*
X0316200Y0210848D02*
X0283800Y0210848D01*
X0283800Y0208850D02*
X0316200Y0208850D01*
X0316200Y0206851D02*
X0283800Y0206851D01*
X0283800Y0204853D02*
X0316200Y0204853D01*
X0316200Y0202854D02*
X0283800Y0202854D01*
X0283800Y0200856D02*
X0316200Y0200856D01*
X0316200Y0198857D02*
X0283800Y0198857D01*
X0283800Y0196859D02*
X0316200Y0196859D01*
X0316200Y0194860D02*
X0283800Y0194860D01*
X0283800Y0192862D02*
X0316200Y0192862D01*
X0316200Y0190863D02*
X0283800Y0190863D01*
X0283800Y0188865D02*
X0284332Y0188865D01*
X0287000Y0188865D02*
X0287000Y0188865D01*
X0287000Y0186866D02*
X0287000Y0186866D01*
X0287000Y0184868D02*
X0287000Y0184868D01*
X0289668Y0188865D02*
X0316200Y0188865D01*
X0316200Y0186866D02*
X0291518Y0186866D01*
X0292100Y0184868D02*
X0316200Y0184868D01*
X0316200Y0182869D02*
X0291832Y0182869D01*
X0290583Y0180870D02*
X0315911Y0180870D01*
X0317000Y0178000D02*
X0319000Y0180000D01*
X0319000Y0244000D01*
X0324800Y0228835D02*
X0327200Y0228835D01*
X0327200Y0226836D02*
X0324800Y0226836D01*
X0324800Y0224838D02*
X0327200Y0224838D01*
X0327200Y0222839D02*
X0324800Y0222839D01*
X0324800Y0220841D02*
X0327200Y0220841D01*
X0327200Y0218842D02*
X0324800Y0218842D01*
X0324800Y0216844D02*
X0327200Y0216844D01*
X0327200Y0214845D02*
X0324800Y0214845D01*
X0324800Y0212847D02*
X0327200Y0212847D01*
X0327200Y0210848D02*
X0324800Y0210848D01*
X0324800Y0208850D02*
X0327200Y0208850D01*
X0327200Y0206851D02*
X0324800Y0206851D01*
X0324800Y0204853D02*
X0327200Y0204853D01*
X0327200Y0202854D02*
X0324800Y0202854D01*
X0324800Y0200856D02*
X0327200Y0200856D01*
X0327200Y0198857D02*
X0324800Y0198857D01*
X0324800Y0196859D02*
X0327200Y0196859D01*
X0327200Y0194860D02*
X0324800Y0194860D01*
X0324800Y0192862D02*
X0327200Y0192862D01*
X0327200Y0190863D02*
X0324800Y0190863D01*
X0324800Y0188865D02*
X0327200Y0188865D01*
X0327200Y0186866D02*
X0324800Y0186866D01*
X0324800Y0184868D02*
X0327200Y0184868D01*
X0327200Y0182869D02*
X0324800Y0182869D01*
X0324800Y0180870D02*
X0327200Y0180870D01*
X0327200Y0178872D02*
X0324800Y0178872D01*
X0324800Y0176873D02*
X0327200Y0176873D01*
X0327200Y0174875D02*
X0324800Y0174875D01*
X0323836Y0172876D02*
X0327174Y0172876D01*
X0325175Y0170878D02*
X0321838Y0170878D01*
X0317000Y0178000D02*
X0286000Y0178000D01*
X0280000Y0172000D01*
X0272100Y0175591D02*
X0261117Y0164608D01*
X0261117Y0163117D01*
X0256000Y0158000D01*
X0259742Y0156888D02*
X0311186Y0156888D01*
X0309187Y0154890D02*
X0258381Y0154890D01*
X0260847Y0158887D02*
X0313184Y0158887D01*
X0315183Y0160885D02*
X0268327Y0160885D01*
X0269600Y0152891D02*
X0307189Y0152891D01*
X0305190Y0150893D02*
X0270833Y0150893D01*
X0270745Y0148894D02*
X0303192Y0148894D01*
X0301193Y0146896D02*
X0269800Y0146896D01*
X0269800Y0144897D02*
X0299195Y0144897D01*
X0297196Y0142899D02*
X0269800Y0142899D01*
X0269800Y0140900D02*
X0295198Y0140900D01*
X0293199Y0138902D02*
X0269800Y0138902D01*
X0269800Y0136903D02*
X0291201Y0136903D01*
X0289202Y0134905D02*
X0269800Y0134905D01*
X0269800Y0132906D02*
X0287204Y0132906D01*
X0285205Y0130908D02*
X0269800Y0130908D01*
X0269800Y0128909D02*
X0274840Y0128909D01*
X0272695Y0126911D02*
X0271305Y0126911D01*
X0271900Y0124912D02*
X0272100Y0124912D01*
X0272353Y0122914D02*
X0271647Y0122914D01*
X0270345Y0120915D02*
X0273655Y0120915D01*
X0267876Y0118917D02*
X0283200Y0118917D01*
X0283200Y0116918D02*
X0265878Y0116918D01*
X0263879Y0114920D02*
X0283200Y0114920D01*
X0283200Y0112921D02*
X0261881Y0112921D01*
X0261800Y0110923D02*
X0283200Y0110923D01*
X0283200Y0108924D02*
X0261800Y0108924D01*
X0261800Y0106926D02*
X0281552Y0106926D01*
X0286304Y0100930D02*
X0293189Y0100930D01*
X0293189Y0102929D02*
X0288303Y0102929D01*
X0290254Y0104927D02*
X0293189Y0104927D01*
X0293189Y0106926D02*
X0290800Y0106926D01*
X0290800Y0108924D02*
X0293189Y0108924D01*
X0293189Y0110923D02*
X0290800Y0110923D01*
X0290800Y0112921D02*
X0318466Y0112921D01*
X0320263Y0114920D02*
X0290800Y0114920D01*
X0290800Y0116918D02*
X0323007Y0116918D01*
X0323921Y0112921D02*
X0340276Y0112921D01*
X0340993Y0116918D02*
X0365842Y0116918D01*
X0365842Y0114920D02*
X0347842Y0114920D01*
X0347271Y0110923D02*
X0322000Y0110923D01*
X0322000Y0108924D02*
X0354266Y0108924D01*
X0354836Y0112921D02*
X0365842Y0112921D01*
X0365842Y0118917D02*
X0290800Y0118917D01*
X0291618Y0120915D02*
X0365919Y0120915D01*
X0372567Y0095638D02*
X0336567Y0099567D01*
X0332562Y0080945D02*
X0379200Y0080945D01*
X0379200Y0078946D02*
X0365208Y0078946D01*
X0364445Y0079263D02*
X0361555Y0079263D01*
X0358886Y0078157D01*
X0356843Y0076114D01*
X0355737Y0073445D01*
X0355737Y0070555D01*
X0356843Y0067886D01*
X0358886Y0065843D01*
X0361555Y0064737D01*
X0364445Y0064737D01*
X0367114Y0065843D01*
X0369157Y0067886D01*
X0370263Y0070555D01*
X0370263Y0073445D01*
X0369157Y0076114D01*
X0367114Y0078157D01*
X0364445Y0079263D01*
X0360792Y0078946D02*
X0330563Y0078946D01*
X0328565Y0076948D02*
X0357677Y0076948D01*
X0356361Y0074949D02*
X0326566Y0074949D01*
X0324568Y0072951D02*
X0355737Y0072951D01*
X0355737Y0070952D02*
X0322169Y0070952D01*
X0319517Y0068954D02*
X0356401Y0068954D01*
X0357774Y0066955D02*
X0333661Y0066955D01*
X0335660Y0064957D02*
X0361026Y0064957D01*
X0364974Y0064957D02*
X0379200Y0064957D01*
X0379200Y0066955D02*
X0368226Y0066955D01*
X0369599Y0068954D02*
X0379200Y0068954D01*
X0379200Y0070952D02*
X0370263Y0070952D01*
X0370263Y0072951D02*
X0379200Y0072951D01*
X0379200Y0074949D02*
X0369639Y0074949D01*
X0368323Y0076948D02*
X0379200Y0076948D01*
X0379200Y0062958D02*
X0337658Y0062958D01*
X0339657Y0060960D02*
X0379200Y0060960D01*
X0377759Y0058961D02*
X0365172Y0058961D01*
X0368308Y0056963D02*
X0375760Y0056963D01*
X0373762Y0054964D02*
X0369633Y0054964D01*
X0370263Y0052966D02*
X0371763Y0052966D01*
X0360828Y0058961D02*
X0341655Y0058961D01*
X0343654Y0056963D02*
X0357692Y0056963D01*
X0356367Y0054964D02*
X0345652Y0054964D01*
X0347651Y0052966D02*
X0355737Y0052966D01*
X0355737Y0050967D02*
X0349649Y0050967D01*
X0351648Y0048969D02*
X0356395Y0048969D01*
X0357759Y0046970D02*
X0353646Y0046970D01*
X0355645Y0044972D02*
X0360990Y0044972D01*
X0361771Y0042973D02*
X0356543Y0042973D01*
X0356800Y0040975D02*
X0359772Y0040975D01*
X0357774Y0038976D02*
X0356522Y0038976D01*
X0355775Y0036978D02*
X0355594Y0036978D01*
X0353777Y0034979D02*
X0353234Y0034979D01*
X0351778Y0032981D02*
X0292132Y0032981D01*
X0294220Y0030982D02*
X0349780Y0030982D01*
X0347781Y0028984D02*
X0296219Y0028984D01*
X0298217Y0026985D02*
X0345783Y0026985D01*
X0338410Y0042973D02*
X0262363Y0042973D01*
X0262883Y0044972D02*
X0336412Y0044972D01*
X0334413Y0046970D02*
X0262386Y0046970D01*
X0261800Y0048969D02*
X0332415Y0048969D01*
X0330416Y0050967D02*
X0261800Y0050967D01*
X0262926Y0052966D02*
X0328418Y0052966D01*
X0326419Y0054964D02*
X0319435Y0054964D01*
X0306565Y0054964D02*
X0299992Y0054964D01*
X0303234Y0056963D02*
X0305737Y0056963D01*
X0305737Y0058961D02*
X0304602Y0058961D01*
X0305263Y0060960D02*
X0305737Y0060960D01*
X0305737Y0062958D02*
X0305263Y0062958D01*
X0304800Y0064957D02*
X0305737Y0064957D01*
X0305737Y0066955D02*
X0304800Y0066955D01*
X0304800Y0068954D02*
X0306483Y0068954D01*
X0295330Y0078946D02*
X0289766Y0078946D01*
X0289811Y0080945D02*
X0297328Y0080945D01*
X0299579Y0082943D02*
X0288547Y0082943D01*
X0286000Y0080000D02*
X0259000Y0053000D01*
X0259000Y0045000D01*
X0264924Y0054964D02*
X0281008Y0054964D01*
X0281555Y0054737D02*
X0284445Y0054737D01*
X0287114Y0055843D01*
X0289157Y0057886D01*
X0290263Y0060555D01*
X0290263Y0063445D01*
X0289157Y0066114D01*
X0287114Y0068157D01*
X0284445Y0069263D01*
X0281555Y0069263D01*
X0278886Y0068157D01*
X0276843Y0066114D01*
X0275737Y0063445D01*
X0275737Y0060555D01*
X0276843Y0057886D01*
X0278886Y0055843D01*
X0281555Y0054737D01*
X0284992Y0054964D02*
X0296008Y0054964D01*
X0292766Y0056963D02*
X0288234Y0056963D01*
X0289602Y0058961D02*
X0291398Y0058961D01*
X0290737Y0060960D02*
X0290263Y0060960D01*
X0290263Y0062958D02*
X0290737Y0062958D01*
X0291200Y0064957D02*
X0289636Y0064957D01*
X0288316Y0066955D02*
X0291200Y0066955D01*
X0291200Y0068954D02*
X0285190Y0068954D01*
X0280810Y0068954D02*
X0278914Y0068954D01*
X0277684Y0066955D02*
X0276915Y0066955D01*
X0276364Y0064957D02*
X0274917Y0064957D01*
X0275737Y0062958D02*
X0272918Y0062958D01*
X0270920Y0060960D02*
X0275737Y0060960D01*
X0276398Y0058961D02*
X0268921Y0058961D01*
X0266923Y0056963D02*
X0277766Y0056963D01*
X0280912Y0070952D02*
X0291200Y0070952D01*
X0291200Y0072951D02*
X0282911Y0072951D01*
X0284909Y0074949D02*
X0291861Y0074949D01*
X0293331Y0076948D02*
X0288439Y0076948D01*
X0293961Y0085589D02*
X0294417Y0085325D01*
X0294926Y0085189D01*
X0306000Y0085189D01*
X0306000Y0098000D01*
X0293189Y0098000D01*
X0293189Y0086926D01*
X0293325Y0086417D01*
X0293589Y0085961D01*
X0293961Y0085589D01*
X0293189Y0086940D02*
X0272314Y0086940D01*
X0274313Y0088939D02*
X0293189Y0088939D01*
X0293189Y0090937D02*
X0276311Y0090937D01*
X0278310Y0092936D02*
X0293189Y0092936D01*
X0293189Y0094934D02*
X0280309Y0094934D01*
X0282307Y0096933D02*
X0293189Y0096933D01*
X0284306Y0098932D02*
X0306000Y0098932D01*
X0306000Y0100930D02*
X0308000Y0100930D01*
X0308000Y0102929D02*
X0306000Y0102929D01*
X0306000Y0104927D02*
X0308000Y0104927D01*
X0308000Y0106926D02*
X0306000Y0106926D01*
X0306000Y0108924D02*
X0308000Y0108924D01*
X0308000Y0110923D02*
X0306000Y0110923D01*
X0306000Y0096933D02*
X0308000Y0096933D01*
X0308000Y0094934D02*
X0306000Y0094934D01*
X0306000Y0092936D02*
X0308000Y0092936D01*
X0308000Y0090937D02*
X0306000Y0090937D01*
X0306000Y0088939D02*
X0308000Y0088939D01*
X0308000Y0086940D02*
X0306000Y0086940D01*
X0282382Y0120915D02*
X0280345Y0120915D01*
X0281305Y0126911D02*
X0281721Y0126911D01*
X0283207Y0128909D02*
X0279160Y0128909D01*
X0264200Y0142899D02*
X0250416Y0142899D01*
X0243584Y0142899D02*
X0229800Y0142899D01*
X0229062Y0144897D02*
X0264200Y0144897D01*
X0264200Y0146896D02*
X0227832Y0146896D01*
X0227670Y0150893D02*
X0215330Y0150893D01*
X0212000Y0153000D02*
X0212000Y0190000D01*
X0207000Y0190000D02*
X0207000Y0184500D01*
X0202000Y0187000D02*
X0202000Y0138000D01*
X0205748Y0136903D02*
X0224200Y0136903D01*
X0224200Y0134905D02*
X0204396Y0134905D01*
X0205829Y0138902D02*
X0224200Y0138902D01*
X0224200Y0140900D02*
X0204800Y0140900D01*
X0204800Y0142899D02*
X0221610Y0142899D01*
X0220254Y0144897D02*
X0204800Y0144897D01*
X0204800Y0146896D02*
X0220168Y0146896D01*
X0221403Y0148894D02*
X0204800Y0148894D01*
X0204800Y0150893D02*
X0208670Y0150893D01*
X0208117Y0152891D02*
X0204800Y0152891D01*
X0204800Y0154890D02*
X0208580Y0154890D01*
X0209200Y0156888D02*
X0204800Y0156888D01*
X0204800Y0158887D02*
X0209200Y0158887D01*
X0209200Y0160885D02*
X0204800Y0160885D01*
X0204800Y0162884D02*
X0209200Y0162884D01*
X0209200Y0164882D02*
X0204800Y0164882D01*
X0204800Y0166881D02*
X0209200Y0166881D01*
X0209200Y0168879D02*
X0204800Y0168879D01*
X0204800Y0170878D02*
X0209200Y0170878D01*
X0209200Y0172876D02*
X0204800Y0172876D01*
X0204800Y0174875D02*
X0209200Y0174875D01*
X0209200Y0176873D02*
X0204800Y0176873D01*
X0204800Y0178872D02*
X0209200Y0178872D01*
X0202000Y0187000D02*
X0199000Y0190000D01*
X0197000Y0190000D01*
X0193000Y0194000D01*
X0193000Y0288509D01*
X0169117Y0312392D01*
X0169117Y0333883D01*
X0166317Y0328683D02*
X0166317Y0311232D01*
X0190000Y0287549D01*
X0190000Y0266000D01*
X0190000Y0190000D01*
X0192000Y0188000D01*
X0192000Y0142117D01*
X0196000Y0136000D02*
X0196000Y0175000D01*
X0197000Y0176000D01*
X0197000Y0177000D01*
X0187000Y0172083D02*
X0187000Y0184500D01*
X0183000Y0181000D02*
X0183000Y0174000D01*
X0183000Y0172000D01*
X0183000Y0146000D01*
X0179117Y0148608D02*
X0178117Y0147608D01*
X0178117Y0144392D01*
X0190392Y0132117D01*
X0194883Y0132117D01*
X0197000Y0130000D01*
X0197000Y0124500D01*
X0200345Y0120915D02*
X0202955Y0120915D01*
X0202353Y0122914D02*
X0201647Y0122914D01*
X0201900Y0124912D02*
X0202100Y0124912D01*
X0202695Y0126911D02*
X0201305Y0126911D01*
X0199800Y0128909D02*
X0204840Y0128909D01*
X0209160Y0128909D02*
X0214840Y0128909D01*
X0212695Y0126911D02*
X0211305Y0126911D01*
X0211900Y0124912D02*
X0212100Y0124912D01*
X0212353Y0122914D02*
X0211647Y0122914D01*
X0210345Y0120915D02*
X0213655Y0120915D01*
X0213957Y0118917D02*
X0208876Y0118917D01*
X0207000Y0121000D02*
X0203000Y0117000D01*
X0075000Y0117000D01*
X0068000Y0110000D01*
X0064000Y0106000D01*
X0064000Y0070000D01*
X0072000Y0065000D02*
X0072000Y0082000D01*
X0072000Y0108000D01*
X0077000Y0113000D01*
X0212000Y0113000D01*
X0217000Y0118000D01*
X0217000Y0124500D01*
X0220345Y0120915D02*
X0223655Y0120915D01*
X0222353Y0122914D02*
X0221647Y0122914D01*
X0221900Y0124912D02*
X0222100Y0124912D01*
X0222695Y0126911D02*
X0221305Y0126911D01*
X0219160Y0128909D02*
X0224200Y0128909D01*
X0224200Y0130908D02*
X0199655Y0130908D01*
X0198397Y0132906D02*
X0224200Y0132906D01*
X0207000Y0124500D02*
X0207000Y0121000D01*
X0206878Y0116918D02*
X0211958Y0116918D01*
X0215000Y0109000D02*
X0177000Y0109000D01*
X0175543Y0119800D02*
X0168457Y0119800D01*
X0169776Y0120346D01*
X0171154Y0121724D01*
X0171900Y0123525D01*
X0171900Y0125475D01*
X0171154Y0127276D01*
X0169776Y0128654D01*
X0167975Y0129400D01*
X0166025Y0129400D01*
X0164224Y0128654D01*
X0162846Y0127276D01*
X0162100Y0125475D01*
X0162100Y0123525D01*
X0162846Y0121724D01*
X0164224Y0120346D01*
X0165543Y0119800D01*
X0158457Y0119800D01*
X0159776Y0120346D01*
X0161154Y0121724D01*
X0161900Y0123525D01*
X0161900Y0125475D01*
X0161154Y0127276D01*
X0159800Y0128630D01*
X0159800Y0146294D01*
X0160228Y0146117D01*
X0161772Y0146117D01*
X0163199Y0146708D01*
X0164292Y0147801D01*
X0164883Y0149228D01*
X0164883Y0150772D01*
X0164292Y0152199D01*
X0163800Y0152691D01*
X0163800Y0157177D01*
X0164228Y0157000D01*
X0165772Y0157000D01*
X0166083Y0157129D01*
X0166083Y0138560D01*
X0166509Y0137531D01*
X0167297Y0136744D01*
X0173117Y0130923D01*
X0173117Y0130228D01*
X0173708Y0128801D01*
X0174040Y0128469D01*
X0172846Y0127276D01*
X0172100Y0125475D01*
X0172100Y0123525D01*
X0172846Y0121724D01*
X0174224Y0120346D01*
X0175543Y0119800D01*
X0173655Y0120915D02*
X0170345Y0120915D01*
X0171647Y0122914D02*
X0172353Y0122914D01*
X0172100Y0124912D02*
X0171900Y0124912D01*
X0171305Y0126911D02*
X0172695Y0126911D01*
X0173663Y0128909D02*
X0169160Y0128909D01*
X0164840Y0128909D02*
X0159800Y0128909D01*
X0159800Y0130908D02*
X0173117Y0130908D01*
X0171134Y0132906D02*
X0159800Y0132906D01*
X0159800Y0134905D02*
X0169135Y0134905D01*
X0167137Y0136903D02*
X0159800Y0136903D01*
X0159800Y0138902D02*
X0166083Y0138902D01*
X0166083Y0140900D02*
X0159800Y0140900D01*
X0159800Y0142899D02*
X0166083Y0142899D01*
X0166083Y0144897D02*
X0159800Y0144897D01*
X0163387Y0146896D02*
X0166083Y0146896D01*
X0166083Y0148894D02*
X0164745Y0148894D01*
X0164833Y0150893D02*
X0166083Y0150893D01*
X0166083Y0152891D02*
X0163800Y0152891D01*
X0163800Y0154890D02*
X0166083Y0154890D01*
X0166083Y0156888D02*
X0163800Y0156888D01*
X0165000Y0160883D02*
X0165000Y0161000D01*
X0163800Y0162200D01*
X0163800Y0171660D01*
X0157000Y0178460D01*
X0157000Y0184500D01*
X0146500Y0195000D01*
X0136040Y0195000D01*
X0128240Y0202800D01*
X0123200Y0202800D01*
X0121000Y0205000D01*
X0121000Y0210000D01*
X0114000Y0206000D02*
X0114000Y0222000D01*
X0118000Y0226000D01*
X0129000Y0226000D01*
X0131000Y0224000D01*
X0131000Y0220000D01*
X0131000Y0210000D02*
X0131000Y0206000D01*
X0134000Y0203000D01*
X0149000Y0203000D01*
X0167000Y0185000D01*
X0167000Y0184500D01*
X0167000Y0164374D01*
X0168883Y0162491D01*
X0168883Y0139117D01*
X0177000Y0131000D01*
X0187000Y0131000D02*
X0175000Y0143000D01*
X0175000Y0165000D01*
X0171117Y0168883D01*
X0171117Y0172891D01*
X0172100Y0173874D01*
X0172100Y0190000D01*
X0172000Y0190000D01*
X0155000Y0207000D01*
X0155000Y0222000D01*
X0140000Y0237000D01*
X0140000Y0242000D01*
X0142000Y0244000D01*
X0142000Y0263000D01*
X0137000Y0268000D01*
X0137000Y0286000D01*
X0130000Y0293000D01*
X0126000Y0290000D02*
X0126000Y0297000D01*
X0127617Y0298617D01*
X0130000Y0298617D01*
X0126000Y0290000D02*
X0120000Y0284000D01*
X0112000Y0293000D02*
X0112000Y0296000D01*
X0112000Y0299000D01*
X0111000Y0300000D01*
X0111000Y0322000D01*
X0115117Y0326117D01*
X0118608Y0326117D01*
X0121000Y0328509D01*
X0121000Y0333000D01*
X0120000Y0334000D01*
X0120000Y0337000D01*
X0120000Y0338000D01*
X0113000Y0345000D01*
X0094000Y0345000D01*
X0096691Y0347800D02*
X0096199Y0348292D01*
X0094772Y0348883D01*
X0093228Y0348883D01*
X0091801Y0348292D01*
X0090708Y0347199D01*
X0090117Y0345772D01*
X0090117Y0344228D01*
X0090708Y0342801D01*
X0091801Y0341708D01*
X0093228Y0341117D01*
X0094772Y0341117D01*
X0096199Y0341708D01*
X0096691Y0342200D01*
X0111840Y0342200D01*
X0116161Y0337879D01*
X0116117Y0337772D01*
X0116117Y0336228D01*
X0116708Y0334801D01*
X0117200Y0334309D01*
X0117200Y0333883D01*
X0116228Y0333883D01*
X0114801Y0333292D01*
X0114309Y0332800D01*
X0109443Y0332800D01*
X0108414Y0332374D01*
X0107626Y0331586D01*
X0104626Y0328586D01*
X0104200Y0327557D01*
X0104200Y0298443D01*
X0104626Y0297414D01*
X0105200Y0296840D01*
X0105200Y0295160D01*
X0104626Y0294586D01*
X0104200Y0293557D01*
X0104200Y0188630D01*
X0102846Y0187276D01*
X0102100Y0185475D01*
X0102100Y0183525D01*
X0102846Y0181724D01*
X0104224Y0180346D01*
X0105543Y0179800D01*
X0100160Y0179800D01*
X0099800Y0180160D01*
X0099800Y0180370D01*
X0101154Y0181724D01*
X0101900Y0183525D01*
X0101900Y0185475D01*
X0101154Y0187276D01*
X0099776Y0188654D01*
X0097975Y0189400D01*
X0096025Y0189400D01*
X0094224Y0188654D01*
X0092846Y0187276D01*
X0092100Y0185475D01*
X0092100Y0183525D01*
X0092846Y0181724D01*
X0094200Y0180370D01*
X0094200Y0179800D01*
X0088457Y0179800D01*
X0089776Y0180346D01*
X0091154Y0181724D01*
X0091900Y0183525D01*
X0091900Y0185475D01*
X0091154Y0187276D01*
X0089776Y0188654D01*
X0087975Y0189400D01*
X0086025Y0189400D01*
X0084224Y0188654D01*
X0082846Y0187276D01*
X0082100Y0185475D01*
X0082100Y0183525D01*
X0082846Y0181724D01*
X0084224Y0180346D01*
X0085543Y0179800D01*
X0082160Y0179800D01*
X0080695Y0181265D01*
X0081154Y0181724D01*
X0081900Y0183525D01*
X0081900Y0185475D01*
X0081154Y0187276D01*
X0079776Y0188654D01*
X0077975Y0189400D01*
X0076025Y0189400D01*
X0074224Y0188654D01*
X0072846Y0187276D01*
X0072100Y0185475D01*
X0072100Y0183525D01*
X0072846Y0181724D01*
X0074224Y0180346D01*
X0074243Y0180338D01*
X0074626Y0179414D01*
X0075414Y0178626D01*
X0078626Y0175414D01*
X0079414Y0174626D01*
X0080443Y0174200D01*
X0083709Y0174200D01*
X0083708Y0174199D01*
X0083117Y0172772D01*
X0083117Y0171228D01*
X0083708Y0169801D01*
X0084801Y0168708D01*
X0086228Y0168117D01*
X0087772Y0168117D01*
X0089199Y0168708D01*
X0089691Y0169200D01*
X0092840Y0169200D01*
X0095414Y0166626D01*
X0096443Y0166200D01*
X0113543Y0166200D01*
X0113708Y0165801D01*
X0114801Y0164708D01*
X0116228Y0164117D01*
X0117772Y0164117D01*
X0119199Y0164708D01*
X0119200Y0164709D01*
X0119200Y0160871D01*
X0117801Y0160292D01*
X0116708Y0159199D01*
X0116117Y0157772D01*
X0116117Y0156228D01*
X0116708Y0154801D01*
X0117801Y0153708D01*
X0119200Y0153129D01*
X0119200Y0136760D01*
X0118586Y0137374D01*
X0117374Y0138586D01*
X0116586Y0139374D01*
X0115557Y0139800D01*
X0100705Y0139800D01*
X0100883Y0140228D01*
X0100883Y0141772D01*
X0100292Y0143199D01*
X0099199Y0144292D01*
X0097772Y0144883D01*
X0096228Y0144883D01*
X0094801Y0144292D01*
X0094309Y0143800D01*
X0080705Y0143800D01*
X0080883Y0144228D01*
X0080883Y0145772D01*
X0080292Y0147199D01*
X0079199Y0148292D01*
X0077772Y0148883D01*
X0076228Y0148883D01*
X0074801Y0148292D01*
X0074309Y0147800D01*
X0045160Y0147800D01*
X0037500Y0155460D01*
X0037500Y0159278D01*
X0034778Y0162000D01*
X0036978Y0164200D01*
X0040057Y0164200D01*
X0041086Y0164626D01*
X0056060Y0179600D01*
X0057975Y0179600D01*
X0059776Y0180346D01*
X0061154Y0181724D01*
X0061900Y0183525D01*
X0061900Y0185475D01*
X0061154Y0187276D01*
X0059776Y0188654D01*
X0057975Y0189400D01*
X0056025Y0189400D01*
X0054224Y0188654D01*
X0052846Y0187276D01*
X0052100Y0185475D01*
X0052100Y0183560D01*
X0038340Y0169800D01*
X0036978Y0169800D01*
X0034778Y0172000D01*
X0037500Y0174722D01*
X0037500Y0179278D01*
X0036300Y0180478D01*
X0036300Y0180855D01*
X0035645Y0182436D01*
X0017800Y0200281D01*
X0017800Y0215450D01*
X0022299Y0215450D01*
X0025550Y0218701D01*
X0025550Y0223299D01*
X0022299Y0226550D01*
X0017800Y0226550D01*
X0017800Y0236200D01*
X0054756Y0236200D01*
X0056153Y0236779D01*
X0059153Y0239779D01*
X0060221Y0240847D01*
X0060800Y0242244D01*
X0060800Y0260426D01*
X0062000Y0261626D01*
X0062199Y0261708D01*
X0063292Y0262801D01*
X0063883Y0264228D01*
X0063883Y0265772D01*
X0063292Y0267199D01*
X0062199Y0268292D01*
X0060772Y0268883D01*
X0059228Y0268883D01*
X0057801Y0268292D01*
X0056708Y0267199D01*
X0056626Y0267000D01*
X0053779Y0264153D01*
X0053200Y0262756D01*
X0053200Y0244574D01*
X0052426Y0243800D01*
X0041291Y0243800D01*
X0041292Y0243801D01*
X0041883Y0245228D01*
X0041883Y0246772D01*
X0041292Y0248199D01*
X0040199Y0249292D01*
X0038772Y0249883D01*
X0037228Y0249883D01*
X0037028Y0249800D01*
X0036574Y0249800D01*
X0034800Y0251574D01*
X0034800Y0253709D01*
X0035801Y0252708D01*
X0037228Y0252117D01*
X0038772Y0252117D01*
X0040199Y0252708D01*
X0041292Y0253801D01*
X0041374Y0254000D01*
X0060153Y0272779D01*
X0061221Y0273847D01*
X0061800Y0275244D01*
X0061800Y0319826D01*
X0068000Y0326026D01*
X0068199Y0326108D01*
X0069292Y0327201D01*
X0069883Y0328628D01*
X0069883Y0330172D01*
X0069479Y0331147D01*
X0069847Y0330779D01*
X0082626Y0318000D01*
X0082708Y0317801D01*
X0083801Y0316708D01*
X0085228Y0316117D01*
X0086772Y0316117D01*
X0088199Y0316708D01*
X0089292Y0317801D01*
X0089883Y0319228D01*
X0089883Y0320772D01*
X0089292Y0322199D01*
X0088199Y0323292D01*
X0088000Y0323374D01*
X0075800Y0335574D01*
X0075800Y0373022D01*
X0076663Y0373884D01*
X0076899Y0374456D01*
X0077125Y0374013D01*
X0077652Y0373287D01*
X0078287Y0372652D01*
X0079013Y0372125D01*
X0079812Y0371718D01*
X0080665Y0371440D01*
X0081551Y0371300D01*
X0082000Y0371300D01*
X0082449Y0371300D01*
X0083335Y0371440D01*
X0084188Y0371718D01*
X0084987Y0372125D01*
X0085713Y0372652D01*
X0086348Y0373287D01*
X0086875Y0374013D01*
X0087101Y0374456D01*
X0087337Y0373884D01*
X0088884Y0372337D01*
X0090906Y0371500D01*
X0092126Y0371500D01*
X0083847Y0363221D01*
X0082779Y0362153D01*
X0082200Y0360756D01*
X0082200Y0333735D01*
X0082779Y0332338D01*
X0083847Y0331269D01*
X0090083Y0325034D01*
X0090083Y0285340D01*
X0088772Y0285883D01*
X0087228Y0285883D01*
X0085801Y0285292D01*
X0084708Y0284199D01*
X0084117Y0282772D01*
X0084117Y0281228D01*
X0084708Y0279801D01*
X0085200Y0279309D01*
X0085200Y0269871D01*
X0083801Y0269292D01*
X0082708Y0268199D01*
X0082117Y0266772D01*
X0082117Y0265228D01*
X0082708Y0263801D01*
X0083801Y0262708D01*
X0084885Y0262259D01*
X0081779Y0259153D01*
X0081200Y0257756D01*
X0081200Y0247244D01*
X0081779Y0245847D01*
X0084779Y0242847D01*
X0085847Y0241779D01*
X0087244Y0241200D01*
X0089028Y0241200D01*
X0089228Y0241117D01*
X0090772Y0241117D01*
X0092199Y0241708D01*
X0093292Y0242801D01*
X0093883Y0244228D01*
X0093883Y0245772D01*
X0093292Y0247199D01*
X0092199Y0248292D01*
X0090772Y0248883D01*
X0089491Y0248883D01*
X0088800Y0249574D01*
X0088800Y0251294D01*
X0089228Y0251117D01*
X0090772Y0251117D01*
X0092199Y0251708D01*
X0093292Y0252801D01*
X0093374Y0253000D01*
X0101153Y0260779D01*
X0102221Y0261847D01*
X0102800Y0263244D01*
X0102800Y0332356D01*
X0102221Y0333753D01*
X0099374Y0336600D01*
X0099292Y0336799D01*
X0098199Y0337892D01*
X0096772Y0338483D01*
X0095228Y0338483D01*
X0093801Y0337892D01*
X0092708Y0336799D01*
X0092117Y0335372D01*
X0092117Y0333828D01*
X0092174Y0333691D01*
X0089800Y0336065D01*
X0089800Y0358426D01*
X0097574Y0366200D01*
X0100826Y0366200D01*
X0099847Y0365221D01*
X0098779Y0364153D01*
X0098200Y0362756D01*
X0098200Y0352972D01*
X0098117Y0352772D01*
X0098117Y0351228D01*
X0098708Y0349801D01*
X0099801Y0348708D01*
X0101228Y0348117D01*
X0102772Y0348117D01*
X0104199Y0348708D01*
X0105292Y0349801D01*
X0105883Y0351228D01*
X0105883Y0352772D01*
X0105800Y0352972D01*
X0105800Y0356709D01*
X0105801Y0356708D01*
X0107228Y0356117D01*
X0107923Y0356117D01*
X0111414Y0352626D01*
X0112443Y0352200D01*
X0113557Y0352200D01*
X0127709Y0352200D01*
X0126708Y0351199D01*
X0126158Y0349872D01*
X0125217Y0349872D01*
X0123790Y0349281D01*
X0122697Y0348188D01*
X0122106Y0346761D01*
X0122106Y0345217D01*
X0122697Y0343790D01*
X0123094Y0343393D01*
X0122767Y0343258D01*
X0121675Y0342166D01*
X0121124Y0340836D01*
X0114586Y0347374D01*
X0113557Y0347800D01*
X0096691Y0347800D01*
X0095104Y0348745D02*
X0099764Y0348745D01*
X0098318Y0350744D02*
X0089800Y0350744D01*
X0089800Y0352742D02*
X0098117Y0352742D01*
X0098200Y0354741D02*
X0089800Y0354741D01*
X0089800Y0356739D02*
X0098200Y0356739D01*
X0098200Y0358738D02*
X0090112Y0358738D01*
X0092111Y0360737D02*
X0098200Y0360737D01*
X0098200Y0362735D02*
X0094109Y0362735D01*
X0096108Y0364734D02*
X0099360Y0364734D01*
X0108000Y0360000D02*
X0113000Y0355000D01*
X0130000Y0355000D01*
X0160717Y0324283D01*
X0160717Y0308912D01*
X0182000Y0287630D01*
X0182000Y0182000D01*
X0183000Y0181000D01*
X0179117Y0178000D02*
X0179117Y0148608D01*
X0187000Y0131000D02*
X0187000Y0124500D01*
X0163655Y0120915D02*
X0160345Y0120915D01*
X0161647Y0122914D02*
X0162353Y0122914D01*
X0162100Y0124912D02*
X0161900Y0124912D01*
X0161305Y0126911D02*
X0162695Y0126911D01*
X0157000Y0124500D02*
X0157000Y0161000D01*
X0157000Y0167570D01*
X0142100Y0182470D01*
X0142100Y0186900D01*
X0138000Y0191000D01*
X0134000Y0191000D01*
X0126000Y0199000D01*
X0121000Y0199000D01*
X0114000Y0206000D01*
X0111000Y0203000D02*
X0111000Y0292000D01*
X0112000Y0293000D01*
X0112000Y0296000D02*
X0117000Y0296000D01*
X0108000Y0294000D02*
X0108000Y0298000D01*
X0107000Y0299000D01*
X0107000Y0327000D01*
X0110000Y0330000D01*
X0117000Y0330000D01*
X0116753Y0334756D02*
X0101218Y0334756D01*
X0102634Y0332757D02*
X0109340Y0332757D01*
X0106799Y0330759D02*
X0102800Y0330759D01*
X0102800Y0328760D02*
X0104801Y0328760D01*
X0104200Y0326762D02*
X0102800Y0326762D01*
X0102800Y0324763D02*
X0104200Y0324763D01*
X0104200Y0322765D02*
X0102800Y0322765D01*
X0102800Y0320766D02*
X0104200Y0320766D01*
X0104200Y0318768D02*
X0102800Y0318768D01*
X0102800Y0316769D02*
X0104200Y0316769D01*
X0104200Y0314771D02*
X0102800Y0314771D01*
X0102800Y0312772D02*
X0104200Y0312772D01*
X0104200Y0310774D02*
X0102800Y0310774D01*
X0102800Y0308775D02*
X0104200Y0308775D01*
X0104200Y0306777D02*
X0102800Y0306777D01*
X0102800Y0304778D02*
X0104200Y0304778D01*
X0104200Y0302780D02*
X0102800Y0302780D01*
X0102800Y0300781D02*
X0104200Y0300781D01*
X0104200Y0298783D02*
X0102800Y0298783D01*
X0102800Y0296784D02*
X0105200Y0296784D01*
X0104826Y0294786D02*
X0102800Y0294786D01*
X0102800Y0292787D02*
X0104200Y0292787D01*
X0104200Y0290789D02*
X0102800Y0290789D01*
X0102800Y0288790D02*
X0104200Y0288790D01*
X0104200Y0286792D02*
X0102800Y0286792D01*
X0102800Y0284793D02*
X0104200Y0284793D01*
X0104200Y0282795D02*
X0102800Y0282795D01*
X0102800Y0280796D02*
X0104200Y0280796D01*
X0104200Y0278798D02*
X0102800Y0278798D01*
X0102800Y0276799D02*
X0104200Y0276799D01*
X0104200Y0274801D02*
X0102800Y0274801D01*
X0102800Y0272802D02*
X0104200Y0272802D01*
X0104200Y0270803D02*
X0102800Y0270803D01*
X0102800Y0268805D02*
X0104200Y0268805D01*
X0104200Y0266806D02*
X0102800Y0266806D01*
X0102800Y0264808D02*
X0104200Y0264808D01*
X0104200Y0262809D02*
X0102620Y0262809D01*
X0101185Y0260811D02*
X0104200Y0260811D01*
X0104200Y0258812D02*
X0099186Y0258812D01*
X0097188Y0256814D02*
X0104200Y0256814D01*
X0104200Y0254815D02*
X0095189Y0254815D01*
X0093298Y0252817D02*
X0104200Y0252817D01*
X0104200Y0250818D02*
X0088800Y0250818D01*
X0090924Y0248820D02*
X0104200Y0248820D01*
X0104200Y0246821D02*
X0093448Y0246821D01*
X0093883Y0244823D02*
X0104200Y0244823D01*
X0104200Y0242824D02*
X0093301Y0242824D01*
X0104200Y0240826D02*
X0079300Y0240826D01*
X0079300Y0242824D02*
X0084802Y0242824D01*
X0082803Y0244823D02*
X0079300Y0244823D01*
X0079300Y0246821D02*
X0081375Y0246821D01*
X0081200Y0248820D02*
X0079300Y0248820D01*
X0079300Y0250818D02*
X0081200Y0250818D01*
X0081200Y0252817D02*
X0079300Y0252817D01*
X0079300Y0254815D02*
X0081200Y0254815D01*
X0081200Y0256814D02*
X0079300Y0256814D01*
X0079300Y0258812D02*
X0081638Y0258812D01*
X0083437Y0260811D02*
X0079300Y0260811D01*
X0079300Y0261336D02*
X0080199Y0261708D01*
X0081292Y0262801D01*
X0081883Y0264228D01*
X0081883Y0265772D01*
X0081292Y0267199D01*
X0080199Y0268292D01*
X0078772Y0268883D01*
X0077228Y0268883D01*
X0075801Y0268292D01*
X0074708Y0267199D01*
X0074126Y0265793D01*
X0073202Y0264869D01*
X0072700Y0263656D01*
X0072700Y0235300D01*
X0034344Y0235300D01*
X0033131Y0234798D01*
X0032202Y0233869D01*
X0028202Y0229869D01*
X0027700Y0228656D01*
X0027700Y0197179D01*
X0027117Y0195772D01*
X0027117Y0194228D01*
X0027708Y0192801D01*
X0028801Y0191708D01*
X0030228Y0191117D01*
X0031772Y0191117D01*
X0033199Y0191708D01*
X0034292Y0192801D01*
X0034883Y0194228D01*
X0034883Y0195772D01*
X0034300Y0197179D01*
X0034300Y0226633D01*
X0036367Y0228700D01*
X0073821Y0228700D01*
X0075228Y0228117D01*
X0076772Y0228117D01*
X0078199Y0228708D01*
X0079292Y0229801D01*
X0079883Y0231228D01*
X0079883Y0232772D01*
X0079300Y0234179D01*
X0079300Y0261336D01*
X0081295Y0262809D02*
X0083700Y0262809D01*
X0082291Y0264808D02*
X0081883Y0264808D01*
X0082131Y0266806D02*
X0081454Y0266806D01*
X0083314Y0268805D02*
X0078960Y0268805D01*
X0077040Y0268805D02*
X0060960Y0268805D01*
X0059040Y0268805D02*
X0056179Y0268805D01*
X0056432Y0266806D02*
X0054180Y0266806D01*
X0054434Y0264808D02*
X0052182Y0264808D01*
X0053222Y0262809D02*
X0050183Y0262809D01*
X0048185Y0260811D02*
X0053200Y0260811D01*
X0053200Y0258812D02*
X0046186Y0258812D01*
X0044188Y0256814D02*
X0053200Y0256814D01*
X0053200Y0254815D02*
X0042189Y0254815D01*
X0040308Y0252817D02*
X0053200Y0252817D01*
X0053200Y0250818D02*
X0035556Y0250818D01*
X0035692Y0252817D02*
X0034800Y0252817D01*
X0040671Y0248820D02*
X0053200Y0248820D01*
X0053200Y0246821D02*
X0041862Y0246821D01*
X0041715Y0244823D02*
X0053200Y0244823D01*
X0060200Y0240826D02*
X0072700Y0240826D01*
X0072700Y0242824D02*
X0060800Y0242824D01*
X0060800Y0244823D02*
X0072700Y0244823D01*
X0072700Y0246821D02*
X0060800Y0246821D01*
X0060800Y0248820D02*
X0072700Y0248820D01*
X0072700Y0250818D02*
X0060800Y0250818D01*
X0060800Y0252817D02*
X0072700Y0252817D01*
X0072700Y0254815D02*
X0060800Y0254815D01*
X0060800Y0256814D02*
X0072700Y0256814D01*
X0072700Y0258812D02*
X0060800Y0258812D01*
X0061185Y0260811D02*
X0072700Y0260811D01*
X0072700Y0262809D02*
X0063295Y0262809D01*
X0063883Y0264808D02*
X0073177Y0264808D01*
X0074546Y0266806D02*
X0063454Y0266806D01*
X0058177Y0270803D02*
X0085200Y0270803D01*
X0085200Y0272802D02*
X0060176Y0272802D01*
X0061616Y0274801D02*
X0085200Y0274801D01*
X0085200Y0276799D02*
X0061800Y0276799D01*
X0061800Y0278798D02*
X0085200Y0278798D01*
X0084296Y0280796D02*
X0061800Y0280796D01*
X0061800Y0282795D02*
X0084127Y0282795D01*
X0085302Y0284793D02*
X0061800Y0284793D01*
X0061800Y0286792D02*
X0090083Y0286792D01*
X0090083Y0288790D02*
X0061800Y0288790D01*
X0061800Y0290789D02*
X0090083Y0290789D01*
X0090083Y0292787D02*
X0061800Y0292787D01*
X0061800Y0294786D02*
X0090083Y0294786D01*
X0090083Y0296784D02*
X0061800Y0296784D01*
X0061800Y0298783D02*
X0090083Y0298783D01*
X0090083Y0300781D02*
X0061800Y0300781D01*
X0061800Y0302780D02*
X0090083Y0302780D01*
X0090083Y0304778D02*
X0061800Y0304778D01*
X0061800Y0306777D02*
X0090083Y0306777D01*
X0090083Y0308775D02*
X0061800Y0308775D01*
X0061800Y0310774D02*
X0090083Y0310774D01*
X0090083Y0312772D02*
X0061800Y0312772D01*
X0061800Y0314771D02*
X0090083Y0314771D01*
X0090083Y0316769D02*
X0088260Y0316769D01*
X0089692Y0318768D02*
X0090083Y0318768D01*
X0090083Y0320766D02*
X0089883Y0320766D01*
X0090083Y0322765D02*
X0088726Y0322765D01*
X0090083Y0324763D02*
X0086611Y0324763D01*
X0088355Y0326762D02*
X0084612Y0326762D01*
X0086357Y0328760D02*
X0082614Y0328760D01*
X0084358Y0330759D02*
X0080615Y0330759D01*
X0082605Y0332757D02*
X0078617Y0332757D01*
X0076618Y0334756D02*
X0082200Y0334756D01*
X0082200Y0336754D02*
X0075800Y0336754D01*
X0075800Y0338753D02*
X0082200Y0338753D01*
X0082200Y0340751D02*
X0075800Y0340751D01*
X0075800Y0342750D02*
X0082200Y0342750D01*
X0082200Y0344748D02*
X0075800Y0344748D01*
X0075800Y0346747D02*
X0082200Y0346747D01*
X0082200Y0348745D02*
X0075800Y0348745D01*
X0075800Y0350744D02*
X0082200Y0350744D01*
X0082200Y0352742D02*
X0075800Y0352742D01*
X0075800Y0354741D02*
X0082200Y0354741D01*
X0082200Y0356739D02*
X0075800Y0356739D01*
X0075800Y0358738D02*
X0082200Y0358738D01*
X0082200Y0360737D02*
X0075800Y0360737D01*
X0075800Y0362735D02*
X0083361Y0362735D01*
X0085360Y0364734D02*
X0075800Y0364734D01*
X0075800Y0366732D02*
X0087358Y0366732D01*
X0089357Y0368731D02*
X0075800Y0368731D01*
X0075800Y0370729D02*
X0091355Y0370729D01*
X0088494Y0372728D02*
X0085789Y0372728D01*
X0082000Y0372728D02*
X0082000Y0372728D01*
X0082000Y0371300D02*
X0082000Y0377000D01*
X0082000Y0371300D01*
X0082000Y0374726D02*
X0082000Y0374726D01*
X0082000Y0376725D02*
X0082000Y0376725D01*
X0082000Y0377000D02*
X0082000Y0377000D01*
X0078211Y0372728D02*
X0075800Y0372728D01*
X0058200Y0372728D02*
X0050516Y0372728D01*
X0052514Y0374726D02*
X0056989Y0374726D01*
X0057337Y0373884D02*
X0058200Y0373022D01*
X0058200Y0346649D01*
X0055299Y0349550D01*
X0050701Y0349550D01*
X0047450Y0346299D01*
X0047450Y0341701D01*
X0050701Y0338450D01*
X0055299Y0338450D01*
X0058200Y0341351D01*
X0058200Y0337574D01*
X0048779Y0328153D01*
X0048200Y0326756D01*
X0048200Y0281574D01*
X0028847Y0262221D01*
X0027779Y0261153D01*
X0027200Y0259756D01*
X0027200Y0249244D01*
X0027779Y0247847D01*
X0031779Y0243847D01*
X0031826Y0243800D01*
X0017800Y0243800D01*
X0017800Y0312700D01*
X0018522Y0312700D01*
X0019722Y0311500D01*
X0024278Y0311500D01*
X0027000Y0314222D01*
X0029722Y0311500D01*
X0034278Y0311500D01*
X0037500Y0314722D01*
X0037500Y0319278D01*
X0034778Y0322000D01*
X0037500Y0324722D01*
X0037500Y0329278D01*
X0034778Y0332000D01*
X0037500Y0334722D01*
X0037500Y0339278D01*
X0034278Y0342500D01*
X0029722Y0342500D01*
X0027141Y0339920D01*
X0024361Y0342700D01*
X0022000Y0342700D01*
X0022000Y0337000D01*
X0022000Y0337000D01*
X0022000Y0342700D01*
X0020488Y0342700D01*
X0056937Y0379149D01*
X0056500Y0378094D01*
X0056500Y0375906D01*
X0057337Y0373884D01*
X0056500Y0376725D02*
X0054513Y0376725D01*
X0056511Y0378723D02*
X0056761Y0378723D01*
X0058200Y0370729D02*
X0048517Y0370729D01*
X0046519Y0368731D02*
X0058200Y0368731D01*
X0058200Y0366732D02*
X0044520Y0366732D01*
X0042522Y0364734D02*
X0058200Y0364734D01*
X0058200Y0362735D02*
X0040523Y0362735D01*
X0038525Y0360737D02*
X0058200Y0360737D01*
X0058200Y0358738D02*
X0036526Y0358738D01*
X0034528Y0356739D02*
X0058200Y0356739D01*
X0058200Y0354741D02*
X0032529Y0354741D01*
X0030531Y0352742D02*
X0058200Y0352742D01*
X0058200Y0350744D02*
X0028532Y0350744D01*
X0026534Y0348745D02*
X0049897Y0348745D01*
X0047898Y0346747D02*
X0024535Y0346747D01*
X0022537Y0344748D02*
X0047450Y0344748D01*
X0047450Y0342750D02*
X0020538Y0342750D01*
X0022000Y0340751D02*
X0022000Y0340751D01*
X0022000Y0338753D02*
X0022000Y0338753D01*
X0026310Y0340751D02*
X0027973Y0340751D01*
X0036027Y0340751D02*
X0048400Y0340751D01*
X0050398Y0338753D02*
X0037500Y0338753D01*
X0037500Y0336754D02*
X0057380Y0336754D01*
X0058200Y0338753D02*
X0055602Y0338753D01*
X0057600Y0340751D02*
X0058200Y0340751D01*
X0058102Y0346747D02*
X0058200Y0346747D01*
X0058200Y0348745D02*
X0056103Y0348745D01*
X0055382Y0334756D02*
X0037500Y0334756D01*
X0035535Y0332757D02*
X0053383Y0332757D01*
X0051385Y0330759D02*
X0036019Y0330759D01*
X0037500Y0328760D02*
X0049386Y0328760D01*
X0048202Y0326762D02*
X0037500Y0326762D01*
X0037500Y0324763D02*
X0048200Y0324763D01*
X0048200Y0322765D02*
X0035543Y0322765D01*
X0036012Y0320766D02*
X0048200Y0320766D01*
X0048200Y0318768D02*
X0037500Y0318768D01*
X0037500Y0316769D02*
X0048200Y0316769D01*
X0048200Y0314771D02*
X0037500Y0314771D01*
X0035550Y0312772D02*
X0048200Y0312772D01*
X0048200Y0310774D02*
X0017800Y0310774D01*
X0017800Y0308775D02*
X0048200Y0308775D01*
X0048200Y0306777D02*
X0017800Y0306777D01*
X0017800Y0304778D02*
X0048200Y0304778D01*
X0048200Y0302780D02*
X0017800Y0302780D01*
X0017800Y0300781D02*
X0048200Y0300781D01*
X0048200Y0298783D02*
X0017800Y0298783D01*
X0017800Y0296784D02*
X0048200Y0296784D01*
X0048200Y0294786D02*
X0017800Y0294786D01*
X0017800Y0292787D02*
X0048200Y0292787D01*
X0048200Y0290789D02*
X0017800Y0290789D01*
X0017800Y0288790D02*
X0048200Y0288790D01*
X0048200Y0286792D02*
X0017800Y0286792D01*
X0017800Y0284793D02*
X0048200Y0284793D01*
X0048200Y0282795D02*
X0017800Y0282795D01*
X0017800Y0280796D02*
X0047422Y0280796D01*
X0045424Y0278798D02*
X0017800Y0278798D01*
X0017800Y0276799D02*
X0043425Y0276799D01*
X0041427Y0274801D02*
X0017800Y0274801D01*
X0017800Y0272802D02*
X0039428Y0272802D01*
X0037429Y0270803D02*
X0017800Y0270803D01*
X0017800Y0268805D02*
X0035431Y0268805D01*
X0033432Y0266806D02*
X0017800Y0266806D01*
X0017800Y0264808D02*
X0031434Y0264808D01*
X0029435Y0262809D02*
X0017800Y0262809D01*
X0017800Y0260811D02*
X0027637Y0260811D01*
X0027200Y0258812D02*
X0017800Y0258812D01*
X0017800Y0256814D02*
X0027200Y0256814D01*
X0027200Y0254815D02*
X0017800Y0254815D01*
X0017800Y0252817D02*
X0027200Y0252817D01*
X0027200Y0250818D02*
X0017800Y0250818D01*
X0017800Y0248820D02*
X0027376Y0248820D01*
X0028805Y0246821D02*
X0017800Y0246821D01*
X0017800Y0244823D02*
X0030803Y0244823D01*
X0033210Y0234830D02*
X0017800Y0234830D01*
X0017800Y0232832D02*
X0031165Y0232832D01*
X0029166Y0230833D02*
X0017800Y0230833D01*
X0017800Y0228835D02*
X0027774Y0228835D01*
X0027700Y0226836D02*
X0017800Y0226836D01*
X0024011Y0224838D02*
X0027700Y0224838D01*
X0027700Y0222839D02*
X0025550Y0222839D01*
X0025550Y0220841D02*
X0027700Y0220841D01*
X0027700Y0218842D02*
X0025550Y0218842D01*
X0023693Y0216844D02*
X0027700Y0216844D01*
X0027700Y0214845D02*
X0017800Y0214845D01*
X0017800Y0212847D02*
X0027700Y0212847D01*
X0027700Y0210848D02*
X0017800Y0210848D01*
X0017800Y0208850D02*
X0027700Y0208850D01*
X0027700Y0206851D02*
X0017800Y0206851D01*
X0017800Y0204853D02*
X0027700Y0204853D01*
X0027700Y0202854D02*
X0017800Y0202854D01*
X0017800Y0200856D02*
X0027700Y0200856D01*
X0027700Y0198857D02*
X0019224Y0198857D01*
X0021223Y0196859D02*
X0027567Y0196859D01*
X0027117Y0194860D02*
X0023221Y0194860D01*
X0025220Y0192862D02*
X0027683Y0192862D01*
X0027218Y0190863D02*
X0064200Y0190863D01*
X0064200Y0188865D02*
X0059267Y0188865D01*
X0061324Y0186866D02*
X0062676Y0186866D01*
X0062846Y0187276D02*
X0062100Y0185475D01*
X0062100Y0183525D01*
X0062846Y0181724D01*
X0064224Y0180346D01*
X0066025Y0179600D01*
X0067975Y0179600D01*
X0069776Y0180346D01*
X0071154Y0181724D01*
X0071900Y0183525D01*
X0071900Y0185475D01*
X0071154Y0187276D01*
X0069800Y0188630D01*
X0069800Y0202557D01*
X0069374Y0203586D01*
X0065374Y0207586D01*
X0064586Y0208374D01*
X0063557Y0208800D01*
X0041691Y0208800D01*
X0041199Y0209292D01*
X0039772Y0209883D01*
X0038228Y0209883D01*
X0036801Y0209292D01*
X0035708Y0208199D01*
X0035117Y0206772D01*
X0035117Y0205228D01*
X0035708Y0203801D01*
X0036801Y0202708D01*
X0038228Y0202117D01*
X0039772Y0202117D01*
X0041199Y0202708D01*
X0041691Y0203200D01*
X0061840Y0203200D01*
X0064200Y0200840D01*
X0064200Y0188630D01*
X0062846Y0187276D01*
X0062100Y0184868D02*
X0061900Y0184868D01*
X0061628Y0182869D02*
X0062372Y0182869D01*
X0063700Y0180870D02*
X0060300Y0180870D01*
X0057000Y0184500D02*
X0039500Y0167000D01*
X0032000Y0167000D01*
X0035900Y0170878D02*
X0039418Y0170878D01*
X0041417Y0172876D02*
X0035655Y0172876D01*
X0037500Y0174875D02*
X0043415Y0174875D01*
X0045414Y0176873D02*
X0037500Y0176873D01*
X0037500Y0178872D02*
X0047412Y0178872D01*
X0049411Y0180870D02*
X0036294Y0180870D01*
X0035212Y0182869D02*
X0051409Y0182869D01*
X0052100Y0184868D02*
X0033214Y0184868D01*
X0031215Y0186866D02*
X0052676Y0186866D01*
X0054733Y0188865D02*
X0029217Y0188865D01*
X0034317Y0192862D02*
X0064200Y0192862D01*
X0064200Y0194860D02*
X0034883Y0194860D01*
X0034433Y0196859D02*
X0064200Y0196859D01*
X0064200Y0198857D02*
X0034300Y0198857D01*
X0034300Y0200856D02*
X0064185Y0200856D01*
X0062186Y0202854D02*
X0041345Y0202854D01*
X0039000Y0206000D02*
X0063000Y0206000D01*
X0067000Y0202000D01*
X0067000Y0184500D01*
X0070300Y0180870D02*
X0073700Y0180870D01*
X0072372Y0182869D02*
X0071628Y0182869D01*
X0071900Y0184868D02*
X0072100Y0184868D01*
X0072676Y0186866D02*
X0071324Y0186866D01*
X0069800Y0188865D02*
X0074733Y0188865D01*
X0079267Y0188865D02*
X0084733Y0188865D01*
X0082676Y0186866D02*
X0081324Y0186866D01*
X0081900Y0184868D02*
X0082100Y0184868D01*
X0082372Y0182869D02*
X0081628Y0182869D01*
X0081089Y0180870D02*
X0083700Y0180870D01*
X0081000Y0177000D02*
X0077000Y0181000D01*
X0077000Y0184500D01*
X0075168Y0178872D02*
X0055332Y0178872D01*
X0053333Y0176873D02*
X0077167Y0176873D01*
X0078626Y0175414D02*
X0078626Y0175414D01*
X0079165Y0174875D02*
X0051335Y0174875D01*
X0049336Y0172876D02*
X0083160Y0172876D01*
X0083262Y0170878D02*
X0047338Y0170878D01*
X0045339Y0168879D02*
X0084630Y0168879D01*
X0087000Y0172000D02*
X0094000Y0172000D01*
X0097000Y0169000D01*
X0117000Y0169000D01*
X0117000Y0168000D01*
X0114627Y0164882D02*
X0041342Y0164882D01*
X0043341Y0166881D02*
X0095159Y0166881D01*
X0093161Y0168879D02*
X0089370Y0168879D01*
X0094000Y0177000D02*
X0081000Y0177000D01*
X0075414Y0178626D02*
X0075414Y0178626D01*
X0069800Y0190863D02*
X0104200Y0190863D01*
X0104200Y0188865D02*
X0099267Y0188865D01*
X0101324Y0186866D02*
X0102676Y0186866D01*
X0102100Y0184868D02*
X0101900Y0184868D01*
X0101628Y0182869D02*
X0102372Y0182869D01*
X0103700Y0180870D02*
X0100300Y0180870D01*
X0097000Y0179000D02*
X0097000Y0184500D01*
X0093700Y0180870D02*
X0090300Y0180870D01*
X0091628Y0182869D02*
X0092372Y0182869D01*
X0092100Y0184868D02*
X0091900Y0184868D01*
X0091324Y0186866D02*
X0092676Y0186866D01*
X0094733Y0188865D02*
X0089267Y0188865D01*
X0097000Y0179000D02*
X0099000Y0177000D01*
X0122000Y0177000D01*
X0125000Y0174000D01*
X0125000Y0138000D01*
X0132000Y0131000D01*
X0137000Y0133000D02*
X0137000Y0124500D01*
X0140345Y0120915D02*
X0143372Y0120915D01*
X0143110Y0121178D02*
X0143678Y0120610D01*
X0144327Y0120138D01*
X0144991Y0119800D01*
X0138457Y0119800D01*
X0139776Y0120346D01*
X0141154Y0121724D01*
X0141900Y0123525D01*
X0141900Y0125475D01*
X0141218Y0127121D01*
X0141228Y0127117D01*
X0142610Y0127117D01*
X0142274Y0126458D01*
X0142026Y0125694D01*
X0141900Y0124901D01*
X0141900Y0124500D01*
X0147000Y0124500D01*
X0147000Y0124500D01*
X0147000Y0129600D01*
X0147401Y0129600D01*
X0148194Y0129474D01*
X0148958Y0129226D01*
X0149673Y0128862D01*
X0150322Y0128390D01*
X0150890Y0127822D01*
X0151362Y0127173D01*
X0151726Y0126458D01*
X0151974Y0125694D01*
X0152100Y0124901D01*
X0152100Y0124500D01*
X0147000Y0124500D01*
X0147000Y0124500D01*
X0147000Y0129600D01*
X0146599Y0129600D01*
X0145806Y0129474D01*
X0145534Y0129386D01*
X0145883Y0130228D01*
X0145883Y0131772D01*
X0145292Y0133199D01*
X0144800Y0133691D01*
X0144800Y0133709D01*
X0145801Y0132708D01*
X0147228Y0132117D01*
X0148772Y0132117D01*
X0150199Y0132708D01*
X0151292Y0133801D01*
X0151883Y0135228D01*
X0151883Y0136772D01*
X0151292Y0138199D01*
X0150199Y0139292D01*
X0148772Y0139883D01*
X0148077Y0139883D01*
X0139800Y0148160D01*
X0139800Y0180370D01*
X0140020Y0180590D01*
X0154200Y0166411D01*
X0154200Y0128630D01*
X0152846Y0127276D01*
X0152100Y0125475D01*
X0152100Y0123525D01*
X0152846Y0121724D01*
X0154224Y0120346D01*
X0155543Y0119800D01*
X0149009Y0119800D01*
X0149673Y0120138D01*
X0150322Y0120610D01*
X0150890Y0121178D01*
X0151362Y0121827D01*
X0151726Y0122542D01*
X0151974Y0123306D01*
X0152100Y0124099D01*
X0152100Y0124500D01*
X0147000Y0124500D01*
X0147000Y0124500D01*
X0141900Y0124500D01*
X0141900Y0124099D01*
X0142026Y0123306D01*
X0142274Y0122542D01*
X0142638Y0121827D01*
X0143110Y0121178D01*
X0142153Y0122914D02*
X0141647Y0122914D01*
X0141900Y0124912D02*
X0141902Y0124912D01*
X0141305Y0126911D02*
X0142504Y0126911D01*
X0142000Y0131000D02*
X0142000Y0136000D01*
X0134000Y0144000D01*
X0134000Y0153000D01*
X0129000Y0158000D01*
X0129000Y0175000D01*
X0119500Y0184500D01*
X0117000Y0184500D01*
X0107000Y0184500D02*
X0107000Y0293000D01*
X0108000Y0294000D01*
X0088000Y0282000D02*
X0088000Y0268000D01*
X0086000Y0266000D01*
X0079300Y0238827D02*
X0104200Y0238827D01*
X0104200Y0236829D02*
X0079300Y0236829D01*
X0079300Y0234830D02*
X0104200Y0234830D01*
X0104200Y0232832D02*
X0079858Y0232832D01*
X0079719Y0230833D02*
X0104200Y0230833D01*
X0104200Y0228835D02*
X0078326Y0228835D01*
X0072700Y0236829D02*
X0056203Y0236829D01*
X0058201Y0238827D02*
X0072700Y0238827D01*
X0041641Y0208850D02*
X0104200Y0208850D01*
X0104200Y0210848D02*
X0034300Y0210848D01*
X0034300Y0208850D02*
X0036359Y0208850D01*
X0035150Y0206851D02*
X0034300Y0206851D01*
X0034300Y0204853D02*
X0035273Y0204853D01*
X0034300Y0202854D02*
X0036655Y0202854D01*
X0034300Y0212847D02*
X0104200Y0212847D01*
X0104200Y0214845D02*
X0034300Y0214845D01*
X0034300Y0216844D02*
X0104200Y0216844D01*
X0104200Y0218842D02*
X0034300Y0218842D01*
X0034300Y0220841D02*
X0104200Y0220841D01*
X0104200Y0222839D02*
X0034300Y0222839D01*
X0034300Y0224838D02*
X0104200Y0224838D01*
X0104200Y0226836D02*
X0034503Y0226836D01*
X0066109Y0206851D02*
X0104200Y0206851D01*
X0104200Y0204853D02*
X0068107Y0204853D01*
X0069677Y0202854D02*
X0104200Y0202854D01*
X0104200Y0200856D02*
X0069800Y0200856D01*
X0069800Y0198857D02*
X0104200Y0198857D01*
X0104200Y0196859D02*
X0069800Y0196859D01*
X0069800Y0194860D02*
X0104200Y0194860D01*
X0104200Y0192862D02*
X0069800Y0192862D01*
X0094000Y0177000D02*
X0098000Y0173000D01*
X0120000Y0173000D01*
X0122000Y0171000D01*
X0122000Y0157000D01*
X0120000Y0157000D01*
X0122000Y0157000D02*
X0122000Y0131000D01*
X0119200Y0136903D02*
X0119057Y0136903D01*
X0118586Y0137374D02*
X0118586Y0137374D01*
X0119200Y0138902D02*
X0117058Y0138902D01*
X0115000Y0137000D02*
X0032000Y0137000D01*
X0028000Y0131000D02*
X0038000Y0131000D01*
X0040000Y0133000D01*
X0105000Y0133000D01*
X0107000Y0131000D01*
X0107000Y0124500D01*
X0117000Y0124500D02*
X0117000Y0135000D01*
X0115000Y0137000D01*
X0119200Y0140900D02*
X0100883Y0140900D01*
X0100416Y0142899D02*
X0119200Y0142899D01*
X0119200Y0144897D02*
X0080883Y0144897D01*
X0080417Y0146896D02*
X0119200Y0146896D01*
X0119200Y0148894D02*
X0044065Y0148894D01*
X0042067Y0150893D02*
X0119200Y0150893D01*
X0119200Y0152891D02*
X0040068Y0152891D01*
X0038070Y0154890D02*
X0116671Y0154890D01*
X0116117Y0156888D02*
X0037500Y0156888D01*
X0037500Y0158887D02*
X0116579Y0158887D01*
X0119200Y0160885D02*
X0035893Y0160885D01*
X0035662Y0162884D02*
X0119200Y0162884D01*
X0133000Y0162000D02*
X0133000Y0178500D01*
X0127000Y0184500D01*
X0137000Y0184500D02*
X0137000Y0147000D01*
X0148000Y0136000D01*
X0150589Y0138902D02*
X0154200Y0138902D01*
X0154200Y0140900D02*
X0147060Y0140900D01*
X0145061Y0142899D02*
X0154200Y0142899D01*
X0154200Y0144897D02*
X0143063Y0144897D01*
X0141064Y0146896D02*
X0154200Y0146896D01*
X0154200Y0148894D02*
X0139800Y0148894D01*
X0139800Y0150893D02*
X0154200Y0150893D01*
X0154200Y0152891D02*
X0139800Y0152891D01*
X0139800Y0154890D02*
X0154200Y0154890D01*
X0154200Y0156888D02*
X0139800Y0156888D01*
X0139800Y0158887D02*
X0154200Y0158887D01*
X0154200Y0160885D02*
X0139800Y0160885D01*
X0139800Y0162884D02*
X0154200Y0162884D01*
X0154200Y0164882D02*
X0139800Y0164882D01*
X0139800Y0166881D02*
X0153730Y0166881D01*
X0151731Y0168879D02*
X0139800Y0168879D01*
X0139800Y0170878D02*
X0149733Y0170878D01*
X0147734Y0172876D02*
X0139800Y0172876D01*
X0139800Y0174875D02*
X0145736Y0174875D01*
X0143737Y0176873D02*
X0139800Y0176873D01*
X0139800Y0178872D02*
X0141739Y0178872D01*
X0147000Y0184500D02*
X0161000Y0170500D01*
X0161000Y0150000D01*
X0154200Y0136903D02*
X0151828Y0136903D01*
X0151749Y0134905D02*
X0154200Y0134905D01*
X0154200Y0132906D02*
X0150397Y0132906D01*
X0149580Y0128909D02*
X0154200Y0128909D01*
X0154200Y0130908D02*
X0145883Y0130908D01*
X0145603Y0132906D02*
X0145413Y0132906D01*
X0147000Y0128909D02*
X0147000Y0128909D01*
X0147000Y0126911D02*
X0147000Y0126911D01*
X0147000Y0124912D02*
X0147000Y0124912D01*
X0151496Y0126911D02*
X0152695Y0126911D01*
X0152100Y0124912D02*
X0152098Y0124912D01*
X0151847Y0122914D02*
X0152353Y0122914D01*
X0153655Y0120915D02*
X0150628Y0120915D01*
X0159000Y0109000D02*
X0184500Y0083500D01*
X0189000Y0079500D01*
X0175101Y0088939D02*
X0153399Y0088939D01*
X0165109Y0098932D02*
X0136500Y0098932D01*
X0136500Y0100930D02*
X0163110Y0100930D01*
X0161112Y0102929D02*
X0135740Y0102929D01*
X0134418Y0104927D02*
X0159113Y0104927D01*
X0159000Y0109000D02*
X0133000Y0109000D01*
X0132000Y0108000D01*
X0128242Y0106926D02*
X0074885Y0106926D01*
X0074800Y0104927D02*
X0128523Y0104927D01*
X0126260Y0102929D02*
X0074800Y0102929D01*
X0074800Y0100930D02*
X0125500Y0100930D01*
X0125500Y0098932D02*
X0074800Y0098932D01*
X0074800Y0096933D02*
X0126317Y0096933D01*
X0128129Y0094934D02*
X0074800Y0094934D01*
X0074800Y0092936D02*
X0126099Y0092936D01*
X0125377Y0090937D02*
X0074800Y0090937D01*
X0090445Y0086940D02*
X0095141Y0086940D01*
X0093102Y0084942D02*
X0092735Y0084942D01*
X0092688Y0078946D02*
X0093173Y0078946D01*
X0095360Y0076948D02*
X0090175Y0076948D01*
X0098000Y0076948D02*
X0098000Y0076948D01*
X0098000Y0076300D02*
X0098000Y0082000D01*
X0098000Y0082000D01*
X0098000Y0076300D01*
X0098000Y0078946D02*
X0098000Y0078946D01*
X0098000Y0080945D02*
X0098000Y0080945D01*
X0098000Y0082943D02*
X0098000Y0082943D01*
X0098000Y0084942D02*
X0098000Y0084942D01*
X0098000Y0086940D02*
X0098000Y0086940D01*
X0100859Y0086940D02*
X0105141Y0086940D01*
X0103102Y0084942D02*
X0102898Y0084942D01*
X0108000Y0084942D02*
X0108000Y0084942D01*
X0108000Y0086940D02*
X0108000Y0086940D01*
X0110859Y0086940D02*
X0112995Y0086940D01*
X0108000Y0082943D02*
X0108000Y0082943D01*
X0108000Y0080945D02*
X0108000Y0080945D01*
X0108000Y0078946D02*
X0108000Y0078946D01*
X0108000Y0076948D02*
X0108000Y0076948D01*
X0110640Y0076948D02*
X0113107Y0076948D01*
X0105360Y0076948D02*
X0100640Y0076948D01*
X0102827Y0078946D02*
X0103173Y0078946D01*
X0128180Y0108924D02*
X0076884Y0108924D01*
X0087000Y0124500D02*
X0087000Y0128000D01*
X0085000Y0130000D01*
X0042000Y0130000D01*
X0033000Y0121000D01*
X0026000Y0121000D01*
X0022300Y0117000D02*
X0016300Y0123000D01*
X0016300Y0155800D01*
X0017500Y0157000D01*
X0022000Y0157000D01*
X0032000Y0157000D02*
X0044000Y0145000D01*
X0077000Y0145000D01*
X0097000Y0141000D02*
X0043000Y0141000D01*
X0037000Y0147000D01*
X0032000Y0147000D01*
X0022000Y0137000D02*
X0028000Y0131000D01*
X0036875Y0120915D02*
X0053655Y0120915D01*
X0054200Y0120370D02*
X0054200Y0103861D01*
X0051361Y0106700D01*
X0049000Y0106700D01*
X0049000Y0101000D01*
X0049000Y0101000D01*
X0049000Y0106700D01*
X0046639Y0106700D01*
X0043859Y0103920D01*
X0041278Y0106500D01*
X0036722Y0106500D01*
X0034000Y0103778D01*
X0031278Y0106500D01*
X0028874Y0106500D01*
X0020772Y0114602D01*
X0021743Y0114200D01*
X0046309Y0114200D01*
X0046801Y0113708D01*
X0048228Y0113117D01*
X0049772Y0113117D01*
X0051199Y0113708D01*
X0052292Y0114801D01*
X0052883Y0116228D01*
X0052883Y0117772D01*
X0052292Y0119199D01*
X0051199Y0120292D01*
X0049772Y0120883D01*
X0048228Y0120883D01*
X0046801Y0120292D01*
X0046309Y0119800D01*
X0035760Y0119800D01*
X0043160Y0127200D01*
X0052815Y0127200D01*
X0052100Y0125475D01*
X0052100Y0123525D01*
X0052846Y0121724D01*
X0054200Y0120370D01*
X0054200Y0118917D02*
X0052409Y0118917D01*
X0052883Y0116918D02*
X0054200Y0116918D01*
X0054200Y0114920D02*
X0052341Y0114920D01*
X0054200Y0112921D02*
X0022453Y0112921D01*
X0024451Y0110923D02*
X0054200Y0110923D01*
X0054200Y0108924D02*
X0026450Y0108924D01*
X0028448Y0106926D02*
X0054200Y0106926D01*
X0054200Y0104927D02*
X0053134Y0104927D01*
X0049000Y0104927D02*
X0049000Y0104927D01*
X0049000Y0102929D02*
X0049000Y0102929D01*
X0044866Y0104927D02*
X0042851Y0104927D01*
X0035149Y0104927D02*
X0032851Y0104927D01*
X0025289Y0096933D02*
X0011000Y0096933D01*
X0011000Y0094934D02*
X0025156Y0094934D01*
X0023500Y0092936D02*
X0011000Y0092936D01*
X0011000Y0090937D02*
X0023500Y0090937D01*
X0023500Y0088939D02*
X0011000Y0088939D01*
X0011000Y0086940D02*
X0025281Y0086940D01*
X0032719Y0086940D02*
X0035281Y0086940D01*
X0038982Y0084942D02*
X0011000Y0084942D01*
X0011000Y0082943D02*
X0036984Y0082943D01*
X0034985Y0080945D02*
X0011000Y0080945D01*
X0011000Y0078946D02*
X0032987Y0078946D01*
X0030988Y0076948D02*
X0011000Y0076948D01*
X0011000Y0074949D02*
X0028990Y0074949D01*
X0026991Y0072951D02*
X0011000Y0072951D01*
X0011000Y0070952D02*
X0024993Y0070952D01*
X0022994Y0068954D02*
X0011000Y0068954D01*
X0011000Y0066955D02*
X0020996Y0066955D01*
X0018997Y0064957D02*
X0011000Y0064957D01*
X0011000Y0062958D02*
X0018200Y0062958D01*
X0018200Y0060960D02*
X0011000Y0060960D01*
X0011000Y0058961D02*
X0018200Y0058961D01*
X0018200Y0056963D02*
X0011000Y0056963D01*
X0011000Y0054964D02*
X0018200Y0054964D01*
X0018200Y0052966D02*
X0011000Y0052966D01*
X0011000Y0050967D02*
X0018200Y0050967D01*
X0018200Y0048969D02*
X0011000Y0048969D01*
X0011000Y0046970D02*
X0019070Y0046970D01*
X0021068Y0044972D02*
X0011000Y0044972D01*
X0011000Y0042973D02*
X0023067Y0042973D01*
X0030787Y0026985D02*
X0078071Y0026985D01*
X0084716Y0026985D02*
X0127284Y0026985D01*
X0125372Y0028984D02*
X0086628Y0028984D01*
X0077710Y0046970D02*
X0051748Y0046970D01*
X0053747Y0048969D02*
X0076036Y0048969D01*
X0057000Y0061000D02*
X0057000Y0124500D01*
X0052695Y0126911D02*
X0042870Y0126911D01*
X0040872Y0124912D02*
X0052100Y0124912D01*
X0052353Y0122914D02*
X0038873Y0122914D01*
X0049000Y0117000D02*
X0022300Y0117000D01*
X0015702Y0108924D02*
X0011000Y0108924D01*
X0011000Y0106926D02*
X0017700Y0106926D01*
X0019699Y0104927D02*
X0011000Y0104927D01*
X0011000Y0102929D02*
X0021697Y0102929D01*
X0023500Y0100930D02*
X0011000Y0100930D01*
X0011000Y0098932D02*
X0023500Y0098932D01*
X0013703Y0110923D02*
X0011000Y0110923D01*
X0011000Y0112921D02*
X0011705Y0112921D01*
X0049000Y0062958D02*
X0049000Y0062958D01*
X0031658Y0024987D02*
X0135200Y0024987D01*
X0135200Y0026985D02*
X0133929Y0026985D01*
X0135200Y0022988D02*
X0032102Y0022988D01*
X0032102Y0020990D02*
X0135200Y0020990D01*
X0135200Y0018991D02*
X0031652Y0018991D01*
X0030774Y0016993D02*
X0135200Y0016993D01*
X0136046Y0014994D02*
X0029281Y0014994D01*
X0026609Y0012996D02*
X0138045Y0012996D01*
X0141967Y0016993D02*
X0239033Y0016993D01*
X0241031Y0018991D02*
X0140800Y0018991D01*
X0140800Y0020990D02*
X0241200Y0020990D01*
X0241200Y0022988D02*
X0140800Y0022988D01*
X0140800Y0024987D02*
X0241200Y0024987D01*
X0246800Y0024987D02*
X0262502Y0024987D01*
X0260504Y0026985D02*
X0246800Y0026985D01*
X0246800Y0028984D02*
X0258505Y0028984D01*
X0256507Y0030982D02*
X0246800Y0030982D01*
X0246800Y0032981D02*
X0254508Y0032981D01*
X0252510Y0034979D02*
X0246800Y0034979D01*
X0247779Y0036978D02*
X0250511Y0036978D01*
X0248513Y0038976D02*
X0247798Y0038976D01*
X0241484Y0040975D02*
X0230799Y0040975D01*
X0230778Y0038976D02*
X0240202Y0038976D01*
X0240221Y0036978D02*
X0229469Y0036978D01*
X0231741Y0056963D02*
X0234259Y0056963D01*
X0241741Y0056963D02*
X0244259Y0056963D01*
X0251741Y0056963D02*
X0259003Y0056963D01*
X0261002Y0058961D02*
X0253500Y0058961D01*
X0232000Y0078000D02*
X0228000Y0074000D01*
X0228000Y0071000D01*
X0203000Y0082000D02*
X0186000Y0099000D01*
X0186000Y0099383D01*
X0173103Y0090937D02*
X0136623Y0090937D01*
X0135901Y0092936D02*
X0171104Y0092936D01*
X0169106Y0094934D02*
X0133871Y0094934D01*
X0135683Y0096933D02*
X0167107Y0096933D01*
X0137000Y0133000D02*
X0129000Y0141000D01*
X0129000Y0152000D01*
X0125000Y0194000D02*
X0120000Y0194000D01*
X0111000Y0203000D01*
X0145000Y0237000D02*
X0145000Y0240000D01*
X0145000Y0237000D02*
X0158000Y0224000D01*
X0158000Y0208509D01*
X0164392Y0202117D01*
X0168883Y0202117D01*
X0170000Y0201000D01*
X0166000Y0206000D02*
X0161000Y0211000D01*
X0161000Y0225000D01*
X0152000Y0234000D01*
X0152000Y0237000D01*
X0150232Y0241317D02*
X0145000Y0246549D01*
X0145000Y0292000D01*
X0145000Y0315000D01*
X0136957Y0323043D01*
X0130000Y0323043D01*
X0144500Y0319500D02*
X0124967Y0339033D01*
X0124967Y0339967D01*
X0122259Y0342750D02*
X0119210Y0342750D01*
X0117211Y0344748D02*
X0122300Y0344748D01*
X0122106Y0346747D02*
X0115213Y0346747D01*
X0111298Y0352742D02*
X0105883Y0352742D01*
X0105800Y0354741D02*
X0109299Y0354741D01*
X0105682Y0350744D02*
X0126520Y0350744D01*
X0123255Y0348745D02*
X0104236Y0348745D01*
X0092896Y0348745D02*
X0089800Y0348745D01*
X0089800Y0346747D02*
X0090521Y0346747D01*
X0090117Y0344748D02*
X0089800Y0344748D01*
X0089800Y0342750D02*
X0090759Y0342750D01*
X0089800Y0340751D02*
X0113289Y0340751D01*
X0115287Y0338753D02*
X0089800Y0338753D01*
X0089800Y0336754D02*
X0092690Y0336754D01*
X0092117Y0334756D02*
X0091109Y0334756D01*
X0099310Y0336754D02*
X0116117Y0336754D01*
X0125989Y0344435D02*
X0128849Y0341575D01*
X0128849Y0340151D01*
X0151000Y0318000D01*
X0151000Y0299000D01*
X0151000Y0250000D01*
X0153000Y0248000D01*
X0156509Y0250000D02*
X0163000Y0250000D01*
X0166000Y0247000D01*
X0166000Y0246000D01*
X0166000Y0240509D01*
X0166000Y0223000D01*
X0170000Y0212000D02*
X0170000Y0262000D01*
X0168000Y0264000D01*
X0166000Y0267491D02*
X0164117Y0265608D01*
X0164117Y0255117D01*
X0163000Y0254000D01*
X0158000Y0254000D01*
X0154117Y0252392D02*
X0156509Y0250000D01*
X0154117Y0252392D02*
X0154117Y0320383D01*
X0145000Y0329500D01*
X0144500Y0319500D02*
X0148000Y0316000D01*
X0148000Y0247509D01*
X0151392Y0244117D01*
X0157883Y0244117D01*
X0158000Y0244000D01*
X0154683Y0241317D02*
X0157000Y0239000D01*
X0157000Y0235000D01*
X0154683Y0241317D02*
X0150232Y0241317D01*
X0137500Y0259500D02*
X0137500Y0261500D01*
X0132000Y0267000D01*
X0132000Y0279000D01*
X0131000Y0280000D01*
X0131000Y0286000D01*
X0130500Y0286000D01*
X0157917Y0293083D02*
X0166000Y0285000D01*
X0166000Y0267491D01*
X0178000Y0284000D02*
X0178000Y0194000D01*
X0177000Y0193000D01*
X0177000Y0184500D02*
X0175000Y0182500D01*
X0175000Y0180500D01*
X0175000Y0173000D01*
X0175000Y0171000D01*
X0175000Y0171283D01*
X0187000Y0172000D02*
X0187000Y0172083D01*
X0187000Y0172000D01*
X0207000Y0190000D02*
X0201000Y0196000D01*
X0201000Y0196500D01*
X0201000Y0295883D01*
X0200883Y0296000D01*
X0197000Y0301083D02*
X0197000Y0209000D01*
X0197000Y0196000D01*
X0186000Y0195000D02*
X0186000Y0287589D01*
X0163517Y0310072D01*
X0163517Y0326483D01*
X0135883Y0354117D01*
X0135392Y0354117D01*
X0131509Y0358000D01*
X0116000Y0358000D01*
X0115000Y0359000D01*
X0125989Y0345989D02*
X0125989Y0344435D01*
X0130000Y0349000D02*
X0132000Y0349000D01*
X0135917Y0345083D01*
X0135917Y0345000D01*
X0157917Y0323000D01*
X0157917Y0293083D01*
X0172000Y0290000D02*
X0178000Y0284000D01*
X0200757Y0306777D02*
X0216700Y0306777D01*
X0216700Y0308775D02*
X0183185Y0308775D01*
X0190649Y0318768D02*
X0205372Y0318768D01*
X0205300Y0320766D02*
X0192060Y0320766D01*
X0192300Y0322765D02*
X0205300Y0322765D01*
X0205300Y0324763D02*
X0192300Y0324763D01*
X0192300Y0326762D02*
X0205300Y0326762D01*
X0192300Y0328760D02*
X0249311Y0328760D01*
X0249117Y0330759D02*
X0192300Y0330759D01*
X0188000Y0338000D02*
X0187000Y0338000D01*
X0166317Y0328683D02*
X0136000Y0359000D01*
X0083740Y0316769D02*
X0061800Y0316769D01*
X0061800Y0318768D02*
X0081858Y0318768D01*
X0079860Y0320766D02*
X0062740Y0320766D01*
X0064739Y0322765D02*
X0077861Y0322765D01*
X0075863Y0324763D02*
X0066737Y0324763D01*
X0068853Y0326762D02*
X0073864Y0326762D01*
X0071866Y0328760D02*
X0069883Y0328760D01*
X0069867Y0330759D02*
X0069640Y0330759D01*
X0028450Y0312772D02*
X0025550Y0312772D01*
X0202755Y0304778D02*
X0216700Y0304778D01*
X0216700Y0302780D02*
X0204754Y0302780D01*
X0211000Y0300781D02*
X0211000Y0300781D01*
X0211000Y0298783D02*
X0211000Y0298783D01*
X0211000Y0297000D02*
X0211000Y0291300D01*
X0211000Y0297000D01*
X0211000Y0297000D01*
X0211000Y0296784D02*
X0211000Y0296784D01*
X0211000Y0294786D02*
X0211000Y0294786D01*
X0211000Y0292787D02*
X0211000Y0292787D01*
X0207565Y0290789D02*
X0238117Y0290789D01*
X0238538Y0292787D02*
X0234565Y0292787D01*
X0236036Y0294786D02*
X0240993Y0294786D01*
X0243007Y0294786D02*
X0250200Y0294786D01*
X0250200Y0296784D02*
X0236500Y0296784D01*
X0236215Y0298783D02*
X0250200Y0298783D01*
X0250200Y0300781D02*
X0234997Y0300781D01*
X0227003Y0300781D02*
X0225300Y0300781D01*
X0225300Y0302780D02*
X0250200Y0302780D01*
X0248262Y0304778D02*
X0225300Y0304778D01*
X0225300Y0306777D02*
X0246263Y0306777D01*
X0244265Y0308775D02*
X0225300Y0308775D01*
X0225300Y0310774D02*
X0242266Y0310774D01*
X0246189Y0314771D02*
X0247201Y0314771D01*
X0247201Y0316769D02*
X0245470Y0316769D01*
X0247871Y0318768D02*
X0243050Y0318768D01*
X0240950Y0318768D02*
X0234546Y0318768D01*
X0236028Y0320766D02*
X0249029Y0320766D01*
X0251352Y0322765D02*
X0236500Y0322765D01*
X0236223Y0324763D02*
X0255277Y0324763D01*
X0250747Y0326762D02*
X0235016Y0326762D01*
X0253000Y0330000D02*
X0254000Y0330000D01*
X0264000Y0320000D01*
X0264000Y0305000D01*
X0256000Y0297000D01*
X0256000Y0234000D01*
X0256200Y0233800D01*
X0256200Y0232840D01*
X0259000Y0230040D01*
X0259000Y0198040D01*
X0262000Y0195040D01*
X0262000Y0171000D01*
X0261509Y0171000D01*
X0260626Y0170117D01*
X0272100Y0175591D02*
X0272100Y0186530D01*
X0278000Y0192430D01*
X0278000Y0267000D01*
X0274412Y0262809D02*
X0271870Y0262809D01*
X0273141Y0264080D02*
X0275200Y0262022D01*
X0275200Y0193589D01*
X0270514Y0188903D01*
X0270020Y0188410D01*
X0269776Y0188654D01*
X0267975Y0189400D01*
X0266025Y0189400D01*
X0264800Y0188892D01*
X0264800Y0191709D01*
X0264801Y0191708D01*
X0266228Y0191117D01*
X0267772Y0191117D01*
X0269199Y0191708D01*
X0270292Y0192801D01*
X0270883Y0194228D01*
X0270883Y0195772D01*
X0270292Y0197199D01*
X0269199Y0198292D01*
X0267772Y0198883D01*
X0266228Y0198883D01*
X0266121Y0198839D01*
X0264800Y0200160D01*
X0264800Y0231557D01*
X0264374Y0232586D01*
X0263586Y0233374D01*
X0261800Y0235160D01*
X0261800Y0290840D01*
X0264077Y0293117D01*
X0264772Y0293117D01*
X0266199Y0293708D01*
X0267292Y0294801D01*
X0267883Y0296228D01*
X0267883Y0297772D01*
X0267292Y0299199D01*
X0266199Y0300292D01*
X0264772Y0300883D01*
X0263842Y0300883D01*
X0266374Y0303414D01*
X0266800Y0304443D01*
X0266800Y0307382D01*
X0268446Y0306700D01*
X0270554Y0306700D01*
X0272502Y0307507D01*
X0273700Y0308705D01*
X0273700Y0303346D01*
X0274583Y0301215D01*
X0274798Y0301000D01*
X0263083Y0289285D01*
X0262200Y0287154D01*
X0262200Y0275846D01*
X0262500Y0275122D01*
X0262500Y0274722D01*
X0262783Y0274439D01*
X0263083Y0273715D01*
X0264715Y0272083D01*
X0264932Y0271993D01*
X0262300Y0269361D01*
X0262300Y0267000D01*
X0268000Y0267000D01*
X0268000Y0261300D01*
X0270361Y0261300D01*
X0273141Y0264080D01*
X0275200Y0260811D02*
X0261800Y0260811D01*
X0261800Y0262809D02*
X0264130Y0262809D01*
X0265639Y0261300D02*
X0268000Y0261300D01*
X0268000Y0267000D01*
X0268000Y0267000D01*
X0268000Y0267000D01*
X0262300Y0267000D01*
X0262300Y0264639D01*
X0265639Y0261300D01*
X0268000Y0262809D02*
X0268000Y0262809D01*
X0268000Y0264808D02*
X0268000Y0264808D01*
X0268000Y0266806D02*
X0268000Y0266806D01*
X0263742Y0270803D02*
X0261800Y0270803D01*
X0261800Y0268805D02*
X0262300Y0268805D01*
X0262300Y0266806D02*
X0261800Y0266806D01*
X0261800Y0264808D02*
X0262300Y0264808D01*
X0261800Y0258812D02*
X0275200Y0258812D01*
X0275200Y0256814D02*
X0261800Y0256814D01*
X0261800Y0254815D02*
X0275200Y0254815D01*
X0275200Y0252817D02*
X0261800Y0252817D01*
X0261800Y0250818D02*
X0275200Y0250818D01*
X0275200Y0248820D02*
X0261800Y0248820D01*
X0261800Y0246821D02*
X0275200Y0246821D01*
X0275200Y0244823D02*
X0261800Y0244823D01*
X0261800Y0242824D02*
X0275200Y0242824D01*
X0275200Y0240826D02*
X0261800Y0240826D01*
X0261800Y0238827D02*
X0275200Y0238827D01*
X0275200Y0236829D02*
X0261800Y0236829D01*
X0262129Y0234830D02*
X0275200Y0234830D01*
X0275200Y0232832D02*
X0264128Y0232832D01*
X0264800Y0230833D02*
X0275200Y0230833D01*
X0275200Y0228835D02*
X0264800Y0228835D01*
X0264800Y0226836D02*
X0275200Y0226836D01*
X0275200Y0224838D02*
X0264800Y0224838D01*
X0264800Y0222839D02*
X0275200Y0222839D01*
X0275200Y0220841D02*
X0264800Y0220841D01*
X0264800Y0218842D02*
X0275200Y0218842D01*
X0275200Y0216844D02*
X0264800Y0216844D01*
X0264800Y0214845D02*
X0275200Y0214845D01*
X0275200Y0212847D02*
X0264800Y0212847D01*
X0264800Y0210848D02*
X0275200Y0210848D01*
X0275200Y0208850D02*
X0264800Y0208850D01*
X0264800Y0206851D02*
X0275200Y0206851D01*
X0275200Y0204853D02*
X0264800Y0204853D01*
X0264800Y0202854D02*
X0275200Y0202854D01*
X0275200Y0200856D02*
X0264800Y0200856D01*
X0266103Y0198857D02*
X0266166Y0198857D01*
X0267834Y0198857D02*
X0275200Y0198857D01*
X0275200Y0196859D02*
X0270433Y0196859D01*
X0270883Y0194860D02*
X0275200Y0194860D01*
X0274472Y0192862D02*
X0270317Y0192862D01*
X0272474Y0190863D02*
X0264800Y0190863D01*
X0266000Y0195000D02*
X0267000Y0195000D01*
X0266000Y0195000D02*
X0262000Y0199000D01*
X0262000Y0231000D01*
X0259000Y0234000D01*
X0259000Y0292000D01*
X0264000Y0297000D01*
X0267883Y0296784D02*
X0270582Y0296784D01*
X0272580Y0298783D02*
X0267464Y0298783D01*
X0265017Y0300781D02*
X0274579Y0300781D01*
X0273935Y0302780D02*
X0265739Y0302780D01*
X0266800Y0304778D02*
X0273700Y0304778D01*
X0273700Y0306777D02*
X0270739Y0306777D01*
X0268261Y0306777D02*
X0266800Y0306777D01*
X0267277Y0294786D02*
X0268583Y0294786D01*
X0266585Y0292787D02*
X0263747Y0292787D01*
X0264586Y0290789D02*
X0261800Y0290789D01*
X0261800Y0288790D02*
X0262878Y0288790D01*
X0262200Y0286792D02*
X0261800Y0286792D01*
X0261800Y0284793D02*
X0262200Y0284793D01*
X0262200Y0282795D02*
X0261800Y0282795D01*
X0261800Y0280796D02*
X0262200Y0280796D01*
X0262200Y0278798D02*
X0261800Y0278798D01*
X0261800Y0276799D02*
X0262200Y0276799D01*
X0262500Y0274801D02*
X0261800Y0274801D01*
X0261800Y0272802D02*
X0263996Y0272802D01*
X0247200Y0272802D02*
X0236207Y0272802D01*
X0236500Y0270803D02*
X0241037Y0270803D01*
X0242963Y0270803D02*
X0247200Y0270803D01*
X0247200Y0268805D02*
X0245455Y0268805D01*
X0246153Y0266806D02*
X0247200Y0266806D01*
X0247000Y0262000D02*
X0247000Y0193000D01*
X0241900Y0187900D01*
X0241900Y0156470D01*
X0241000Y0155570D01*
X0240000Y0155000D01*
X0257000Y0137000D02*
X0257000Y0124500D01*
X0240435Y0106926D02*
X0218343Y0106926D01*
X0256398Y0084942D02*
X0259568Y0084942D01*
X0257569Y0082943D02*
X0256883Y0082943D01*
X0194606Y0051843D02*
X0145394Y0051843D01*
X0148829Y0056963D02*
X0191171Y0056963D01*
X0189351Y0054964D02*
X0150649Y0054964D01*
X0150752Y0048969D02*
X0189248Y0048969D01*
X0190923Y0046970D02*
X0149077Y0046970D01*
X0146857Y0038254D02*
X0145886Y0038407D01*
X0145575Y0038407D01*
X0145575Y0032339D01*
X0151644Y0032339D01*
X0151644Y0032649D01*
X0151490Y0033621D01*
X0151186Y0034557D01*
X0150739Y0035433D01*
X0150161Y0036229D01*
X0149465Y0036925D01*
X0148669Y0037503D01*
X0147793Y0037950D01*
X0146857Y0038254D01*
X0145575Y0036978D02*
X0145213Y0036978D01*
X0145213Y0034979D02*
X0145575Y0034979D01*
X0145575Y0032981D02*
X0145213Y0032981D01*
X0145213Y0030982D02*
X0145575Y0030982D01*
X0145575Y0028984D02*
X0145213Y0028984D01*
X0145213Y0026985D02*
X0145575Y0026985D01*
X0148908Y0026985D02*
X0191092Y0026985D01*
X0189209Y0028984D02*
X0150791Y0028984D01*
X0151535Y0030982D02*
X0188465Y0030982D01*
X0188409Y0032981D02*
X0151591Y0032981D01*
X0150971Y0034979D02*
X0189029Y0034979D01*
X0190608Y0036978D02*
X0149392Y0036978D01*
X0141395Y0036978D02*
X0140800Y0036978D01*
X0140800Y0026985D02*
X0141880Y0026985D01*
X0141958Y0056963D02*
X0140632Y0056963D01*
X0140079Y0058961D02*
X0138998Y0058961D01*
X0242955Y0012996D02*
X0274493Y0012996D01*
X0272495Y0014994D02*
X0244954Y0014994D01*
X0246613Y0016993D02*
X0270496Y0016993D01*
X0268498Y0018991D02*
X0246800Y0018991D01*
X0246800Y0020990D02*
X0266499Y0020990D01*
X0264501Y0022988D02*
X0246800Y0022988D01*
X0223700Y0180870D02*
X0220300Y0180870D01*
X0221628Y0182869D02*
X0222372Y0182869D01*
X0222100Y0184868D02*
X0221900Y0184868D01*
X0221324Y0186866D02*
X0222676Y0186866D01*
X0224733Y0188865D02*
X0219267Y0188865D01*
X0229267Y0188865D02*
X0230475Y0188865D01*
X0250000Y0193000D02*
X0250000Y0283000D01*
X0242000Y0291000D01*
X0245462Y0292787D02*
X0250200Y0292787D01*
X0250200Y0290789D02*
X0246171Y0290789D01*
X0248170Y0288790D02*
X0250200Y0288790D01*
X0250168Y0286792D02*
X0250200Y0286792D01*
X0246246Y0282795D02*
X0207565Y0282795D01*
X0207565Y0284793D02*
X0244247Y0284793D01*
X0242249Y0286792D02*
X0207565Y0286792D01*
X0207565Y0288790D02*
X0238719Y0288790D01*
X0247200Y0280796D02*
X0207565Y0280796D01*
X0207565Y0278798D02*
X0247200Y0278798D01*
X0247200Y0276799D02*
X0207565Y0276799D01*
X0211000Y0274801D02*
X0211000Y0274801D01*
X0211000Y0272802D02*
X0211000Y0272802D01*
X0211000Y0271000D02*
X0211000Y0265300D01*
X0211000Y0271000D01*
X0211000Y0271000D01*
X0211000Y0270803D02*
X0211000Y0270803D01*
X0211000Y0268805D02*
X0211000Y0268805D01*
X0211000Y0266806D02*
X0211000Y0266806D01*
X0207565Y0264808D02*
X0220111Y0264808D01*
X0222109Y0262809D02*
X0207565Y0262809D01*
X0207565Y0260811D02*
X0224108Y0260811D01*
X0226106Y0258812D02*
X0207565Y0258812D01*
X0207565Y0256814D02*
X0226700Y0256814D01*
X0226700Y0254815D02*
X0224700Y0254815D01*
X0224700Y0252817D02*
X0226700Y0252817D01*
X0226700Y0250818D02*
X0224700Y0250818D01*
X0224700Y0248820D02*
X0226700Y0248820D01*
X0226700Y0246821D02*
X0224642Y0246821D01*
X0222478Y0245300D02*
X0222478Y0245300D01*
X0215045Y0244823D02*
X0207565Y0244823D01*
X0207565Y0246821D02*
X0213358Y0246821D01*
X0213300Y0248820D02*
X0207565Y0248820D01*
X0207565Y0250818D02*
X0213300Y0250818D01*
X0213300Y0252817D02*
X0207565Y0252817D01*
X0207565Y0254815D02*
X0213300Y0254815D01*
X0219000Y0254815D02*
X0219000Y0254815D01*
X0219000Y0252817D02*
X0219000Y0252817D01*
X0213803Y0242824D02*
X0207565Y0242824D01*
X0207565Y0240826D02*
X0213500Y0240826D01*
X0213947Y0238827D02*
X0207565Y0238827D01*
X0208662Y0236829D02*
X0215393Y0236829D01*
X0215052Y0234830D02*
X0209859Y0234830D01*
X0209719Y0232832D02*
X0213806Y0232832D01*
X0213500Y0230833D02*
X0208800Y0230833D01*
X0208800Y0228835D02*
X0213944Y0228835D01*
X0235300Y0260811D02*
X0237548Y0260811D01*
X0240051Y0262809D02*
X0234272Y0262809D01*
X0232273Y0264808D02*
X0238705Y0264808D01*
X0238117Y0266806D02*
X0234585Y0266806D01*
X0236044Y0268805D02*
X0238545Y0268805D01*
X0242000Y0267000D02*
X0247000Y0262000D01*
X0242231Y0262809D02*
X0241949Y0262809D01*
X0247200Y0274801D02*
X0234978Y0274801D01*
X0227022Y0274801D02*
X0224978Y0274801D01*
X0217022Y0274801D02*
X0216700Y0274801D01*
X0216638Y0266806D02*
X0217415Y0266806D01*
X0217435Y0292787D02*
X0216633Y0292787D01*
X0216700Y0300478D02*
X0216700Y0300478D01*
X0216700Y0300781D02*
X0216700Y0300781D01*
X0224565Y0292787D02*
X0227435Y0292787D01*
X0250000Y0193000D02*
X0252100Y0190900D01*
X0269267Y0188865D02*
X0270475Y0188865D01*
X0345059Y0272195D02*
X0355059Y0272195D01*
X0365059Y0272195D01*
D26*
X0342000Y0235500D03*
X0287000Y0248500D03*
X0300000Y0292500D03*
X0285000Y0345500D03*
X0296000Y0359500D03*
X0198000Y0315000D03*
X0174000Y0314000D03*
X0175000Y0334000D03*
X0165000Y0354000D03*
X0104000Y0296000D03*
X0082000Y0279000D03*
X0081500Y0269000D03*
X0085000Y0238000D03*
X0085000Y0227000D03*
X0102000Y0232000D03*
X0066000Y0168000D03*
X0058000Y0160000D03*
X0048000Y0124000D03*
X0030000Y0112000D03*
X0014000Y0106000D03*
X0019000Y0075500D03*
X0074000Y0044000D03*
X0077000Y0089000D03*
X0133000Y0042000D03*
X0131000Y0017000D03*
X0184000Y0056500D03*
X0211000Y0056500D03*
X0193000Y0085000D03*
X0204000Y0093000D03*
X0222000Y0109000D03*
X0254000Y0112000D03*
X0266000Y0112000D03*
X0278000Y0117000D03*
X0272000Y0076000D03*
X0272000Y0055000D03*
X0253000Y0013000D03*
X0144000Y0104500D03*
X0163000Y0131000D03*
X0163000Y0140500D03*
X0116000Y0144000D03*
X0109000Y0163000D03*
X0022000Y0249000D03*
X0075000Y0302000D03*
X0075000Y0315000D03*
X0080000Y0340000D03*
X0080000Y0350000D03*
X0095000Y0352000D03*
X0212000Y0224000D03*
X0230000Y0222000D03*
X0227000Y0193000D03*
X0222000Y0176000D03*
X0273000Y0195500D03*
X0309000Y0164000D03*
X0237000Y0264000D03*
D27*
X0323000Y0383000D03*
X0087000Y0209000D03*
X0020000Y0221000D03*
X0053000Y0344000D03*
X0326000Y0141000D03*
X0066000Y0015000D03*
D28*
X0289000Y0028000D03*
X0333000Y0281000D03*
D29*
X0333000Y0234000D01*
X0333000Y0170500D01*
X0287000Y0124500D01*
X0289000Y0028000D02*
X0296000Y0021000D01*
X0348000Y0021000D01*
X0385000Y0058000D01*
X0385000Y0159000D01*
X0385000Y0275966D01*
X0379000Y0281966D01*
X0350034Y0281966D01*
X0345000Y0287000D01*
X0345000Y0292000D01*
X0345000Y0297000D01*
X0341000Y0301000D01*
X0283000Y0301000D01*
X0268000Y0286000D01*
X0268000Y0277000D01*
X0283000Y0301000D02*
X0279500Y0304500D01*
X0279500Y0312000D01*
X0279500Y0330500D01*
X0272000Y0338000D01*
X0188000Y0338000D01*
D30*
X0179000Y0326000D03*
X0188000Y0322200D03*
X0197000Y0301083D03*
X0200883Y0296000D03*
X0172000Y0290000D03*
X0168000Y0264000D03*
X0158000Y0254000D03*
X0153000Y0248000D03*
X0158000Y0244000D03*
X0157000Y0235000D03*
X0152000Y0237000D03*
X0145000Y0240000D03*
X0137500Y0259500D03*
X0126000Y0260000D03*
X0116000Y0274000D03*
X0120000Y0284000D03*
X0130500Y0286000D03*
X0130000Y0293000D03*
X0130000Y0298617D03*
X0124000Y0303000D03*
X0117000Y0296000D03*
X0130000Y0323043D03*
X0145000Y0329500D03*
X0125989Y0345989D03*
X0130000Y0349000D03*
X0124967Y0339967D03*
X0120000Y0337000D03*
X0117000Y0330000D03*
X0096000Y0334600D03*
X0094000Y0345000D03*
X0102000Y0352000D03*
X0108000Y0360000D03*
X0115000Y0359000D03*
X0136000Y0359000D03*
X0144000Y0359000D03*
X0166974Y0346075D03*
X0173000Y0365000D03*
X0242000Y0357000D03*
X0257000Y0349000D03*
X0253000Y0330000D03*
X0242000Y0315000D03*
X0242000Y0291000D03*
X0264000Y0297000D03*
X0242000Y0267000D03*
X0241000Y0259000D03*
X0206000Y0234000D03*
X0206000Y0218000D03*
X0206000Y0211000D03*
X0197000Y0196000D03*
X0186000Y0195000D03*
X0177000Y0193000D03*
X0170000Y0201000D03*
X0166000Y0206000D03*
X0170000Y0212000D03*
X0166000Y0223000D03*
X0122000Y0238000D03*
X0090000Y0245000D03*
X0090000Y0255000D03*
X0086000Y0266000D03*
X0078000Y0265000D03*
X0088000Y0282000D03*
X0060000Y0265000D03*
X0038000Y0256000D03*
X0038000Y0246000D03*
X0076000Y0232000D03*
X0039000Y0206000D03*
X0031000Y0195000D03*
X0077000Y0145000D03*
X0097000Y0141000D03*
X0120000Y0157000D03*
X0129000Y0152000D03*
X0133000Y0162000D03*
X0117000Y0168000D03*
X0125000Y0194000D03*
X0087000Y0172000D03*
X0122000Y0131000D03*
X0132000Y0131000D03*
X0142000Y0131000D03*
X0148000Y0136000D03*
X0161000Y0150000D03*
X0165000Y0160883D03*
X0175000Y0171283D03*
X0179117Y0178000D03*
X0187000Y0172083D03*
X0197000Y0177000D03*
X0212000Y0153000D03*
X0224000Y0146000D03*
X0231000Y0153000D03*
X0240000Y0155000D03*
X0249000Y0167117D03*
X0255000Y0167000D03*
X0260626Y0170117D03*
X0265000Y0163000D03*
X0256000Y0158000D03*
X0267000Y0150000D03*
X0257000Y0137000D03*
X0247000Y0141000D03*
X0237000Y0134000D03*
X0215000Y0109000D03*
X0223000Y0083000D03*
X0203000Y0082000D03*
X0189000Y0079500D03*
X0186000Y0099383D03*
X0177000Y0109000D03*
X0167000Y0109000D03*
X0150000Y0087000D03*
X0132000Y0108000D03*
X0145000Y0066000D03*
X0204000Y0042000D03*
X0227000Y0040000D03*
X0244000Y0038000D03*
X0259000Y0045000D03*
X0286000Y0080000D03*
X0253000Y0083000D03*
X0243000Y0104000D03*
X0202000Y0138000D03*
X0196000Y0136000D03*
X0192000Y0142117D03*
X0183000Y0146000D03*
X0177000Y0131000D03*
X0249000Y0178000D03*
X0256000Y0194000D03*
X0267000Y0195000D03*
X0289000Y0173000D03*
X0280000Y0166000D03*
X0241000Y0216000D03*
X0326000Y0234000D03*
X0324000Y0243000D03*
X0324000Y0249000D03*
X0342000Y0243000D03*
X0379000Y0159000D03*
X0305000Y0013000D03*
X0072000Y0065000D03*
X0064000Y0070000D03*
X0072000Y0082000D03*
X0068000Y0110000D03*
X0049000Y0117000D03*
X0026000Y0121000D03*
X0046000Y0031000D03*
X0086000Y0320000D03*
X0066000Y0329400D03*
X0306000Y0353000D03*
D31*
X0326000Y0234000D02*
X0333000Y0234000D01*
X0253000Y0083000D02*
X0223000Y0083000D01*
X0144000Y0210000D02*
X0141000Y0210000D01*
X0144000Y0210000D02*
X0148000Y0214000D01*
X0148000Y0223000D01*
X0141000Y0230000D01*
X0118000Y0230000D01*
X0115000Y0233000D01*
X0115000Y0273000D01*
X0116000Y0274000D01*
X0115000Y0275000D01*
X0115000Y0286509D01*
X0121883Y0293392D01*
X0121883Y0300883D01*
X0124000Y0303000D01*
X0126000Y0260000D02*
X0126000Y0242000D01*
X0122000Y0238000D01*
X0078000Y0265000D02*
X0076000Y0263000D01*
X0076000Y0232000D01*
X0035000Y0232000D01*
X0031000Y0228000D01*
X0031000Y0195000D01*
D32*
X0013000Y0199000D02*
X0012000Y0198000D01*
X0012000Y0118000D01*
X0029000Y0101000D01*
X0013000Y0240000D02*
X0054000Y0240000D01*
X0057000Y0243000D01*
X0057000Y0262000D01*
X0060000Y0265000D01*
X0058000Y0276000D02*
X0058000Y0321400D01*
X0066000Y0329400D01*
X0072000Y0334000D02*
X0072000Y0377000D01*
X0062000Y0377000D02*
X0062000Y0336000D01*
X0052000Y0326000D01*
X0052000Y0280000D01*
X0031000Y0259000D01*
X0031000Y0250000D01*
X0035000Y0246000D01*
X0038000Y0246000D01*
X0038000Y0256000D02*
X0058000Y0276000D01*
X0085000Y0257000D02*
X0093883Y0265883D01*
X0093883Y0326608D01*
X0086000Y0334491D01*
X0086000Y0360000D01*
X0096000Y0370000D01*
X0180000Y0370000D01*
X0183000Y0373000D01*
X0183000Y0377000D01*
X0173000Y0365000D02*
X0105000Y0365000D01*
X0102000Y0362000D01*
X0102000Y0352000D01*
X0096000Y0334600D02*
X0099000Y0331600D01*
X0099000Y0330000D01*
X0099000Y0264000D01*
X0090000Y0255000D01*
X0085000Y0257000D02*
X0085000Y0248000D01*
X0088000Y0245000D01*
X0090000Y0245000D01*
X0086000Y0320000D02*
X0072000Y0334000D01*
X0166974Y0346075D02*
X0179876Y0346075D01*
X0188000Y0338000D01*
X0287000Y0124500D02*
X0287000Y0107000D01*
X0258000Y0078000D01*
D33*
X0379000Y0159000D02*
X0385000Y0159000D01*
X0231000Y0245000D02*
X0231000Y0260000D01*
X0221000Y0270000D01*
X0221000Y0271000D01*
X0231000Y0245000D02*
X0227000Y0241000D01*
X0219000Y0241000D01*
X0221000Y0297000D02*
X0221000Y0323000D01*
X0221000Y0349000D02*
X0221000Y0364000D01*
X0222000Y0363000D01*
X0282000Y0363000D01*
X0299000Y0346000D01*
X0306000Y0353000D01*
X0299000Y0346000D02*
X0309500Y0335500D01*
X0309500Y0312000D01*
X0221000Y0364000D02*
X0221000Y0375000D01*
X0188000Y0338000D02*
X0188000Y0322200D01*
X0093000Y0386000D02*
X0092000Y0385000D01*
X0022000Y0317000D02*
X0013000Y0317000D01*
X0019000Y0317000D02*
X0022000Y0317000D01*
X0020000Y0221000D02*
X0013000Y0221000D01*
X0013000Y0199000D02*
X0032000Y0180000D01*
X0032000Y0177000D01*
D34*
X0013000Y0199000D02*
X0013000Y0221000D01*
X0013000Y0240000D01*
X0013000Y0317000D01*
X0013000Y0342000D01*
X0057000Y0386000D01*
X0093000Y0386000D01*
X0153000Y0386000D01*
X0153000Y0377000D01*
X0153000Y0386000D02*
X0282000Y0386000D01*
X0303000Y0365000D01*
X0336000Y0365000D01*
X0365000Y0336000D01*
X0365000Y0292000D01*
X0092000Y0377000D02*
X0092000Y0385000D01*
D35*
X0336528Y0099000D02*
X0331000Y0093472D01*
X0331000Y0089000D01*
X0319000Y0077000D01*
X0303000Y0077000D01*
X0298000Y0072000D01*
X0298000Y0062000D01*
X0313000Y0062000D02*
X0329000Y0062000D01*
X0350000Y0041000D01*
D36*
X0350000Y0041000D03*
M02*
