G75*
%MOIN*%
%OFA0B0*%
%FSLAX24Y24*%
%IPPOS*%
%LPD*%
%AMOC8*
5,1,8,0,0,1.08239X$1,22.5*
%
%ADD10C,0.1340*%
%ADD11OC8,0.0600*%
%ADD12C,0.0674*%
%ADD13C,0.0680*%
%ADD14OC8,0.0680*%
%ADD15OC8,0.0674*%
%ADD16OC8,0.0710*%
%ADD17C,0.0710*%
%ADD18C,0.0476*%
%ADD19R,0.0476X0.0476*%
D10*
X001950Y009750D03*
X007950Y001380D03*
X016150Y001380D03*
X016150Y026770D03*
X007950Y026770D03*
X002450Y026770D03*
D11*
X004450Y026380D03*
X004450Y025380D03*
X004450Y023380D03*
X004450Y022380D03*
X004450Y020380D03*
X004450Y019380D03*
X004450Y017380D03*
X004450Y016380D03*
X004450Y014380D03*
X004450Y013380D03*
X004450Y011380D03*
X004450Y010380D03*
X004450Y008380D03*
X004450Y007380D03*
X004450Y005380D03*
X004450Y004380D03*
X004450Y002380D03*
X004450Y001380D03*
D12*
X015150Y011380D03*
X015150Y012380D03*
X015150Y013380D03*
X015150Y014380D03*
X015150Y015380D03*
X016150Y015380D03*
X016150Y014380D03*
X016150Y013380D03*
X016150Y012380D03*
X016150Y011380D03*
D13*
X001450Y023880D03*
D14*
X001450Y022880D03*
X001450Y021880D03*
X002450Y021880D03*
X002450Y022880D03*
X002450Y023880D03*
D15*
X008450Y023880D03*
X008450Y024880D03*
X008450Y021880D03*
X008450Y020880D03*
X008450Y018880D03*
X008450Y017880D03*
X008450Y015880D03*
X008450Y014880D03*
X008450Y012880D03*
X008450Y011880D03*
X008450Y009880D03*
X008450Y008880D03*
X008450Y006880D03*
X008450Y005880D03*
X008450Y003880D03*
X008450Y002880D03*
D16*
X002650Y002880D03*
X001550Y018080D03*
D17*
X001650Y002880D03*
X002550Y018080D03*
D18*
X001450Y015130D03*
X001950Y015005D03*
X003200Y013380D03*
X003325Y012130D03*
X003325Y008630D03*
X001200Y008005D03*
X008225Y007955D03*
X008125Y010955D03*
X008450Y004955D03*
X013325Y008505D03*
X013950Y009130D03*
X014700Y007380D03*
X011550Y019105D03*
X014075Y019380D03*
X010800Y023455D03*
X011825Y024505D03*
D19*
X009950Y026580D03*
X007650Y024380D03*
X007550Y021480D03*
X007550Y018480D03*
X007550Y015480D03*
X007550Y012380D03*
X007650Y009380D03*
X007650Y006380D03*
X011250Y007280D03*
X011250Y004580D03*
X012750Y002180D03*
X011450Y010080D03*
X011350Y019880D03*
X016450Y025180D03*
X017150Y023680D03*
M02*
