G75*
%MOIN*%
%OFA0B0*%
%FSLAX24Y24*%
%IPPOS*%
%LPD*%
%AMOC8*
5,1,8,0,0,1.08239X$1,22.5*
%
%ADD10C,0.0160*%
%ADD11C,0.0060*%
%ADD12C,0.0030*%
%ADD13C,0.0040*%
%ADD14C,0.0100*%
%ADD15C,0.0050*%
%ADD16C,0.0080*%
D10*
X004180Y001180D02*
X007680Y001180D01*
X007680Y027180D01*
X004180Y027180D01*
X004180Y001180D01*
D11*
X004580Y002180D02*
X004582Y002227D01*
X004588Y002275D01*
X004597Y002321D01*
X004610Y002367D01*
X004626Y002411D01*
X004647Y002455D01*
X004670Y002496D01*
X004696Y002535D01*
X004726Y002572D01*
X004759Y002607D01*
X004794Y002639D01*
X004831Y002668D01*
X005780Y002180D02*
X005778Y002135D01*
X005773Y002089D01*
X005765Y002045D01*
X005753Y002001D01*
X005737Y001958D01*
X005719Y001916D01*
X005697Y001876D01*
X005673Y001838D01*
X005646Y001802D01*
X005616Y001767D01*
X005583Y001736D01*
X005548Y001706D01*
X005780Y002180D02*
X005778Y002225D01*
X005773Y002271D01*
X005765Y002315D01*
X005753Y002359D01*
X005737Y002402D01*
X005719Y002444D01*
X005697Y002484D01*
X005673Y002522D01*
X005646Y002558D01*
X005616Y002593D01*
X005583Y002624D01*
X005548Y002654D01*
X004580Y002180D02*
X004582Y002134D01*
X004587Y002088D01*
X004596Y002042D01*
X004608Y001997D01*
X004624Y001954D01*
X004643Y001912D01*
X004666Y001871D01*
X004691Y001832D01*
X004719Y001796D01*
X004750Y001761D01*
X004784Y001729D01*
X004820Y001700D01*
X002880Y004538D02*
X002880Y005822D01*
X002880Y004538D02*
X002837Y004494D01*
X002792Y004454D01*
X002744Y004416D01*
X002694Y004381D01*
X002642Y004350D01*
X002588Y004322D01*
X002532Y004298D01*
X002475Y004277D01*
X002417Y004260D01*
X002357Y004247D01*
X002297Y004237D01*
X002237Y004232D01*
X002176Y004230D01*
X002115Y004232D01*
X002054Y004238D01*
X001994Y004248D01*
X001935Y004262D01*
X001877Y004280D01*
X001820Y004301D01*
X001764Y004326D01*
X001711Y004354D01*
X001659Y004386D01*
X001609Y004421D01*
X001561Y004459D01*
X001517Y004500D01*
X001474Y004544D01*
X001435Y004590D01*
X001399Y004639D01*
X001366Y004690D01*
X001336Y004744D01*
X001310Y004798D01*
X001310Y005562D02*
X001336Y005616D01*
X001366Y005670D01*
X001399Y005721D01*
X001435Y005770D01*
X001474Y005816D01*
X001517Y005860D01*
X001561Y005901D01*
X001609Y005939D01*
X001659Y005974D01*
X001711Y006006D01*
X001764Y006034D01*
X001820Y006059D01*
X001877Y006080D01*
X001935Y006098D01*
X001994Y006112D01*
X002054Y006122D01*
X002115Y006128D01*
X002176Y006130D01*
X002237Y006128D01*
X002297Y006123D01*
X002357Y006113D01*
X002417Y006100D01*
X002475Y006083D01*
X002532Y006062D01*
X002588Y006038D01*
X002642Y006010D01*
X002694Y005979D01*
X002744Y005944D01*
X002792Y005906D01*
X002837Y005866D01*
X002880Y005822D01*
X005548Y004706D02*
X005583Y004736D01*
X005616Y004767D01*
X005646Y004802D01*
X005673Y004838D01*
X005697Y004876D01*
X005719Y004916D01*
X005737Y004958D01*
X005753Y005001D01*
X005765Y005045D01*
X005773Y005089D01*
X005778Y005135D01*
X005780Y005180D01*
X004820Y004700D02*
X004784Y004729D01*
X004750Y004761D01*
X004719Y004796D01*
X004691Y004832D01*
X004666Y004871D01*
X004643Y004912D01*
X004624Y004954D01*
X004608Y004997D01*
X004596Y005042D01*
X004587Y005088D01*
X004582Y005134D01*
X004580Y005180D01*
X005548Y005654D02*
X005583Y005624D01*
X005616Y005593D01*
X005646Y005558D01*
X005673Y005522D01*
X005697Y005484D01*
X005719Y005444D01*
X005737Y005402D01*
X005753Y005359D01*
X005765Y005315D01*
X005773Y005271D01*
X005778Y005225D01*
X005780Y005180D01*
X004831Y005668D02*
X004794Y005639D01*
X004759Y005607D01*
X004726Y005572D01*
X004696Y005535D01*
X004670Y005496D01*
X004647Y005455D01*
X004626Y005411D01*
X004610Y005367D01*
X004597Y005321D01*
X004588Y005275D01*
X004582Y005227D01*
X004580Y005180D01*
X004580Y008180D02*
X004582Y008227D01*
X004588Y008275D01*
X004597Y008321D01*
X004610Y008367D01*
X004626Y008411D01*
X004647Y008455D01*
X004670Y008496D01*
X004696Y008535D01*
X004726Y008572D01*
X004759Y008607D01*
X004794Y008639D01*
X004831Y008668D01*
X005780Y008180D02*
X005778Y008135D01*
X005773Y008089D01*
X005765Y008045D01*
X005753Y008001D01*
X005737Y007958D01*
X005719Y007916D01*
X005697Y007876D01*
X005673Y007838D01*
X005646Y007802D01*
X005616Y007767D01*
X005583Y007736D01*
X005548Y007706D01*
X005780Y008180D02*
X005778Y008225D01*
X005773Y008271D01*
X005765Y008315D01*
X005753Y008359D01*
X005737Y008402D01*
X005719Y008444D01*
X005697Y008484D01*
X005673Y008522D01*
X005646Y008558D01*
X005616Y008593D01*
X005583Y008624D01*
X005548Y008654D01*
X004580Y008180D02*
X004582Y008134D01*
X004587Y008088D01*
X004596Y008042D01*
X004608Y007997D01*
X004624Y007954D01*
X004643Y007912D01*
X004666Y007871D01*
X004691Y007832D01*
X004719Y007796D01*
X004750Y007761D01*
X004784Y007729D01*
X004820Y007700D01*
X004580Y011180D02*
X004582Y011227D01*
X004588Y011275D01*
X004597Y011321D01*
X004610Y011367D01*
X004626Y011411D01*
X004647Y011455D01*
X004670Y011496D01*
X004696Y011535D01*
X004726Y011572D01*
X004759Y011607D01*
X004794Y011639D01*
X004831Y011668D01*
X005780Y011180D02*
X005778Y011135D01*
X005773Y011089D01*
X005765Y011045D01*
X005753Y011001D01*
X005737Y010958D01*
X005719Y010916D01*
X005697Y010876D01*
X005673Y010838D01*
X005646Y010802D01*
X005616Y010767D01*
X005583Y010736D01*
X005548Y010706D01*
X005780Y011180D02*
X005778Y011225D01*
X005773Y011271D01*
X005765Y011315D01*
X005753Y011359D01*
X005737Y011402D01*
X005719Y011444D01*
X005697Y011484D01*
X005673Y011522D01*
X005646Y011558D01*
X005616Y011593D01*
X005583Y011624D01*
X005548Y011654D01*
X004580Y011180D02*
X004582Y011134D01*
X004587Y011088D01*
X004596Y011042D01*
X004608Y010997D01*
X004624Y010954D01*
X004643Y010912D01*
X004666Y010871D01*
X004691Y010832D01*
X004719Y010796D01*
X004750Y010761D01*
X004784Y010729D01*
X004820Y010700D01*
X002880Y011538D02*
X002880Y012822D01*
X002880Y011538D02*
X002837Y011494D01*
X002792Y011454D01*
X002744Y011416D01*
X002694Y011381D01*
X002642Y011350D01*
X002588Y011322D01*
X002532Y011298D01*
X002475Y011277D01*
X002417Y011260D01*
X002357Y011247D01*
X002297Y011237D01*
X002237Y011232D01*
X002176Y011230D01*
X002115Y011232D01*
X002054Y011238D01*
X001994Y011248D01*
X001935Y011262D01*
X001877Y011280D01*
X001820Y011301D01*
X001764Y011326D01*
X001711Y011354D01*
X001659Y011386D01*
X001609Y011421D01*
X001561Y011459D01*
X001517Y011500D01*
X001474Y011544D01*
X001435Y011590D01*
X001399Y011639D01*
X001366Y011690D01*
X001336Y011744D01*
X001310Y011798D01*
X001310Y012562D02*
X001336Y012616D01*
X001366Y012670D01*
X001399Y012721D01*
X001435Y012770D01*
X001474Y012816D01*
X001517Y012860D01*
X001561Y012901D01*
X001609Y012939D01*
X001659Y012974D01*
X001711Y013006D01*
X001764Y013034D01*
X001820Y013059D01*
X001877Y013080D01*
X001935Y013098D01*
X001994Y013112D01*
X002054Y013122D01*
X002115Y013128D01*
X002176Y013130D01*
X002237Y013128D01*
X002297Y013123D01*
X002357Y013113D01*
X002417Y013100D01*
X002475Y013083D01*
X002532Y013062D01*
X002588Y013038D01*
X002642Y013010D01*
X002694Y012979D01*
X002744Y012944D01*
X002792Y012906D01*
X002837Y012866D01*
X002880Y012822D01*
X004580Y014180D02*
X004582Y014227D01*
X004588Y014275D01*
X004597Y014321D01*
X004610Y014367D01*
X004626Y014411D01*
X004647Y014455D01*
X004670Y014496D01*
X004696Y014535D01*
X004726Y014572D01*
X004759Y014607D01*
X004794Y014639D01*
X004831Y014668D01*
X005780Y014180D02*
X005778Y014135D01*
X005773Y014089D01*
X005765Y014045D01*
X005753Y014001D01*
X005737Y013958D01*
X005719Y013916D01*
X005697Y013876D01*
X005673Y013838D01*
X005646Y013802D01*
X005616Y013767D01*
X005583Y013736D01*
X005548Y013706D01*
X005780Y014180D02*
X005778Y014225D01*
X005773Y014271D01*
X005765Y014315D01*
X005753Y014359D01*
X005737Y014402D01*
X005719Y014444D01*
X005697Y014484D01*
X005673Y014522D01*
X005646Y014558D01*
X005616Y014593D01*
X005583Y014624D01*
X005548Y014654D01*
X004580Y014180D02*
X004582Y014134D01*
X004587Y014088D01*
X004596Y014042D01*
X004608Y013997D01*
X004624Y013954D01*
X004643Y013912D01*
X004666Y013871D01*
X004691Y013832D01*
X004719Y013796D01*
X004750Y013761D01*
X004784Y013729D01*
X004820Y013700D01*
X002880Y015538D02*
X002880Y016822D01*
X002880Y015538D02*
X002837Y015494D01*
X002792Y015454D01*
X002744Y015416D01*
X002694Y015381D01*
X002642Y015350D01*
X002588Y015322D01*
X002532Y015298D01*
X002475Y015277D01*
X002417Y015260D01*
X002357Y015247D01*
X002297Y015237D01*
X002237Y015232D01*
X002176Y015230D01*
X002115Y015232D01*
X002054Y015238D01*
X001994Y015248D01*
X001935Y015262D01*
X001877Y015280D01*
X001820Y015301D01*
X001764Y015326D01*
X001711Y015354D01*
X001659Y015386D01*
X001609Y015421D01*
X001561Y015459D01*
X001517Y015500D01*
X001474Y015544D01*
X001435Y015590D01*
X001399Y015639D01*
X001366Y015690D01*
X001336Y015744D01*
X001310Y015798D01*
X001310Y016562D02*
X001336Y016616D01*
X001366Y016670D01*
X001399Y016721D01*
X001435Y016770D01*
X001474Y016816D01*
X001517Y016860D01*
X001561Y016901D01*
X001609Y016939D01*
X001659Y016974D01*
X001711Y017006D01*
X001764Y017034D01*
X001820Y017059D01*
X001877Y017080D01*
X001935Y017098D01*
X001994Y017112D01*
X002054Y017122D01*
X002115Y017128D01*
X002176Y017130D01*
X002237Y017128D01*
X002297Y017123D01*
X002357Y017113D01*
X002417Y017100D01*
X002475Y017083D01*
X002532Y017062D01*
X002588Y017038D01*
X002642Y017010D01*
X002694Y016979D01*
X002744Y016944D01*
X002792Y016906D01*
X002837Y016866D01*
X002880Y016822D01*
X005548Y017654D02*
X005583Y017624D01*
X005616Y017593D01*
X005646Y017558D01*
X005673Y017522D01*
X005697Y017484D01*
X005719Y017444D01*
X005737Y017402D01*
X005753Y017359D01*
X005765Y017315D01*
X005773Y017271D01*
X005778Y017225D01*
X005780Y017180D01*
X004820Y016700D02*
X004784Y016729D01*
X004750Y016761D01*
X004719Y016796D01*
X004691Y016832D01*
X004666Y016871D01*
X004643Y016912D01*
X004624Y016954D01*
X004608Y016997D01*
X004596Y017042D01*
X004587Y017088D01*
X004582Y017134D01*
X004580Y017180D01*
X005548Y016706D02*
X005583Y016736D01*
X005616Y016767D01*
X005646Y016802D01*
X005673Y016838D01*
X005697Y016876D01*
X005719Y016916D01*
X005737Y016958D01*
X005753Y017001D01*
X005765Y017045D01*
X005773Y017089D01*
X005778Y017135D01*
X005780Y017180D01*
X004831Y017668D02*
X004794Y017639D01*
X004759Y017607D01*
X004726Y017572D01*
X004696Y017535D01*
X004670Y017496D01*
X004647Y017455D01*
X004626Y017411D01*
X004610Y017367D01*
X004597Y017321D01*
X004588Y017275D01*
X004582Y017227D01*
X004580Y017180D01*
X004580Y020180D02*
X004582Y020227D01*
X004588Y020275D01*
X004597Y020321D01*
X004610Y020367D01*
X004626Y020411D01*
X004647Y020455D01*
X004670Y020496D01*
X004696Y020535D01*
X004726Y020572D01*
X004759Y020607D01*
X004794Y020639D01*
X004831Y020668D01*
X005780Y020180D02*
X005778Y020135D01*
X005773Y020089D01*
X005765Y020045D01*
X005753Y020001D01*
X005737Y019958D01*
X005719Y019916D01*
X005697Y019876D01*
X005673Y019838D01*
X005646Y019802D01*
X005616Y019767D01*
X005583Y019736D01*
X005548Y019706D01*
X005780Y020180D02*
X005778Y020225D01*
X005773Y020271D01*
X005765Y020315D01*
X005753Y020359D01*
X005737Y020402D01*
X005719Y020444D01*
X005697Y020484D01*
X005673Y020522D01*
X005646Y020558D01*
X005616Y020593D01*
X005583Y020624D01*
X005548Y020654D01*
X004580Y020180D02*
X004582Y020134D01*
X004587Y020088D01*
X004596Y020042D01*
X004608Y019997D01*
X004624Y019954D01*
X004643Y019912D01*
X004666Y019871D01*
X004691Y019832D01*
X004719Y019796D01*
X004750Y019761D01*
X004784Y019729D01*
X004820Y019700D01*
X003430Y021680D02*
X001930Y021680D01*
X001680Y021930D01*
X001680Y022430D01*
X001930Y022680D01*
X001680Y022930D01*
X001680Y023430D01*
X001930Y023680D01*
X001680Y023930D01*
X001680Y024430D01*
X001930Y024680D01*
X003430Y024680D01*
X003680Y024430D01*
X003680Y023930D01*
X003430Y023680D01*
X003680Y023430D01*
X003680Y022930D01*
X003430Y022680D01*
X003680Y022430D01*
X003680Y021930D01*
X003430Y021680D01*
X004580Y023180D02*
X004582Y023227D01*
X004588Y023275D01*
X004597Y023321D01*
X004610Y023367D01*
X004626Y023411D01*
X004647Y023455D01*
X004670Y023496D01*
X004696Y023535D01*
X004726Y023572D01*
X004759Y023607D01*
X004794Y023639D01*
X004831Y023668D01*
X005780Y023180D02*
X005778Y023135D01*
X005773Y023089D01*
X005765Y023045D01*
X005753Y023001D01*
X005737Y022958D01*
X005719Y022916D01*
X005697Y022876D01*
X005673Y022838D01*
X005646Y022802D01*
X005616Y022767D01*
X005583Y022736D01*
X005548Y022706D01*
X005780Y023180D02*
X005778Y023225D01*
X005773Y023271D01*
X005765Y023315D01*
X005753Y023359D01*
X005737Y023402D01*
X005719Y023444D01*
X005697Y023484D01*
X005673Y023522D01*
X005646Y023558D01*
X005616Y023593D01*
X005583Y023624D01*
X005548Y023654D01*
X004580Y023180D02*
X004582Y023134D01*
X004587Y023088D01*
X004596Y023042D01*
X004608Y022997D01*
X004624Y022954D01*
X004643Y022912D01*
X004666Y022871D01*
X004691Y022832D01*
X004719Y022796D01*
X004750Y022761D01*
X004784Y022729D01*
X004820Y022700D01*
X004057Y025310D02*
X004271Y025524D01*
X004271Y025951D01*
X003844Y025951D02*
X003844Y025524D01*
X004057Y025310D01*
X003626Y025310D02*
X003199Y025310D01*
X003626Y025737D01*
X003626Y025844D01*
X003519Y025951D01*
X003306Y025951D01*
X003199Y025844D01*
X002768Y025951D02*
X002768Y025310D01*
X002555Y025310D02*
X002982Y025310D01*
X002555Y025737D02*
X002768Y025951D01*
X002337Y025630D02*
X001910Y025630D01*
X002124Y025417D02*
X002124Y025844D01*
X005548Y026654D02*
X005583Y026624D01*
X005616Y026593D01*
X005646Y026558D01*
X005673Y026522D01*
X005697Y026484D01*
X005719Y026444D01*
X005737Y026402D01*
X005753Y026359D01*
X005765Y026315D01*
X005773Y026271D01*
X005778Y026225D01*
X005780Y026180D01*
X004820Y025700D02*
X004784Y025729D01*
X004750Y025761D01*
X004719Y025796D01*
X004691Y025832D01*
X004666Y025871D01*
X004643Y025912D01*
X004624Y025954D01*
X004608Y025997D01*
X004596Y026042D01*
X004587Y026088D01*
X004582Y026134D01*
X004580Y026180D01*
X005548Y025706D02*
X005583Y025736D01*
X005616Y025767D01*
X005646Y025802D01*
X005673Y025838D01*
X005697Y025876D01*
X005719Y025916D01*
X005737Y025958D01*
X005753Y026001D01*
X005765Y026045D01*
X005773Y026089D01*
X005778Y026135D01*
X005780Y026180D01*
X004831Y026668D02*
X004794Y026639D01*
X004759Y026607D01*
X004726Y026572D01*
X004696Y026535D01*
X004670Y026496D01*
X004647Y026455D01*
X004626Y026411D01*
X004610Y026367D01*
X004597Y026321D01*
X004588Y026275D01*
X004582Y026227D01*
X004580Y026180D01*
X012038Y025380D02*
X013322Y025380D01*
X012038Y025380D02*
X011994Y025337D01*
X011954Y025292D01*
X011916Y025244D01*
X011881Y025194D01*
X011850Y025142D01*
X011822Y025088D01*
X011798Y025032D01*
X011777Y024975D01*
X011760Y024917D01*
X011747Y024857D01*
X011737Y024797D01*
X011732Y024737D01*
X011730Y024676D01*
X011732Y024615D01*
X011738Y024554D01*
X011748Y024494D01*
X011762Y024435D01*
X011780Y024377D01*
X011801Y024320D01*
X011826Y024264D01*
X011854Y024211D01*
X011886Y024159D01*
X011921Y024109D01*
X011959Y024061D01*
X012000Y024017D01*
X012044Y023974D01*
X012090Y023935D01*
X012139Y023899D01*
X012190Y023866D01*
X012244Y023836D01*
X012298Y023810D01*
X013062Y023810D02*
X013116Y023836D01*
X013170Y023866D01*
X013221Y023899D01*
X013270Y023935D01*
X013316Y023974D01*
X013360Y024017D01*
X013401Y024061D01*
X013439Y024109D01*
X013474Y024159D01*
X013506Y024211D01*
X013534Y024264D01*
X013559Y024320D01*
X013580Y024377D01*
X013598Y024435D01*
X013612Y024494D01*
X013622Y024554D01*
X013628Y024615D01*
X013630Y024676D01*
X013628Y024737D01*
X013623Y024797D01*
X013613Y024857D01*
X013600Y024917D01*
X013583Y024975D01*
X013562Y025032D01*
X013538Y025088D01*
X013510Y025142D01*
X013479Y025194D01*
X013444Y025244D01*
X013406Y025292D01*
X013366Y025337D01*
X013322Y025380D01*
X013322Y022380D02*
X012038Y022380D01*
X013322Y022380D02*
X013366Y022337D01*
X013406Y022292D01*
X013444Y022244D01*
X013479Y022194D01*
X013510Y022142D01*
X013538Y022088D01*
X013562Y022032D01*
X013583Y021975D01*
X013600Y021917D01*
X013613Y021857D01*
X013623Y021797D01*
X013628Y021737D01*
X013630Y021676D01*
X013628Y021615D01*
X013622Y021554D01*
X013612Y021494D01*
X013598Y021435D01*
X013580Y021377D01*
X013559Y021320D01*
X013534Y021264D01*
X013506Y021211D01*
X013474Y021159D01*
X013439Y021109D01*
X013401Y021061D01*
X013360Y021017D01*
X013316Y020974D01*
X013270Y020935D01*
X013221Y020899D01*
X013170Y020866D01*
X013116Y020836D01*
X013062Y020810D01*
X012298Y020810D02*
X012244Y020836D01*
X012190Y020866D01*
X012139Y020899D01*
X012090Y020935D01*
X012044Y020974D01*
X012000Y021017D01*
X011959Y021061D01*
X011921Y021109D01*
X011886Y021159D01*
X011854Y021211D01*
X011826Y021264D01*
X011801Y021320D01*
X011780Y021377D01*
X011762Y021435D01*
X011748Y021494D01*
X011738Y021554D01*
X011732Y021615D01*
X011730Y021676D01*
X011732Y021737D01*
X011737Y021797D01*
X011747Y021857D01*
X011760Y021917D01*
X011777Y021975D01*
X011798Y022032D01*
X011822Y022088D01*
X011850Y022142D01*
X011881Y022194D01*
X011916Y022244D01*
X011954Y022292D01*
X011994Y022337D01*
X012038Y022380D01*
X012038Y019380D02*
X013322Y019380D01*
X012038Y019380D02*
X011994Y019337D01*
X011954Y019292D01*
X011916Y019244D01*
X011881Y019194D01*
X011850Y019142D01*
X011822Y019088D01*
X011798Y019032D01*
X011777Y018975D01*
X011760Y018917D01*
X011747Y018857D01*
X011737Y018797D01*
X011732Y018737D01*
X011730Y018676D01*
X011732Y018615D01*
X011738Y018554D01*
X011748Y018494D01*
X011762Y018435D01*
X011780Y018377D01*
X011801Y018320D01*
X011826Y018264D01*
X011854Y018211D01*
X011886Y018159D01*
X011921Y018109D01*
X011959Y018061D01*
X012000Y018017D01*
X012044Y017974D01*
X012090Y017935D01*
X012139Y017899D01*
X012190Y017866D01*
X012244Y017836D01*
X012298Y017810D01*
X013062Y017810D02*
X013116Y017836D01*
X013170Y017866D01*
X013221Y017899D01*
X013270Y017935D01*
X013316Y017974D01*
X013360Y018017D01*
X013401Y018061D01*
X013439Y018109D01*
X013474Y018159D01*
X013506Y018211D01*
X013534Y018264D01*
X013559Y018320D01*
X013580Y018377D01*
X013598Y018435D01*
X013612Y018494D01*
X013622Y018554D01*
X013628Y018615D01*
X013630Y018676D01*
X013628Y018737D01*
X013623Y018797D01*
X013613Y018857D01*
X013600Y018917D01*
X013583Y018975D01*
X013562Y019032D01*
X013538Y019088D01*
X013510Y019142D01*
X013479Y019194D01*
X013444Y019244D01*
X013406Y019292D01*
X013366Y019337D01*
X013322Y019380D01*
X013322Y016380D02*
X012038Y016380D01*
X013322Y016380D02*
X013366Y016337D01*
X013406Y016292D01*
X013444Y016244D01*
X013479Y016194D01*
X013510Y016142D01*
X013538Y016088D01*
X013562Y016032D01*
X013583Y015975D01*
X013600Y015917D01*
X013613Y015857D01*
X013623Y015797D01*
X013628Y015737D01*
X013630Y015676D01*
X013628Y015615D01*
X013622Y015554D01*
X013612Y015494D01*
X013598Y015435D01*
X013580Y015377D01*
X013559Y015320D01*
X013534Y015264D01*
X013506Y015211D01*
X013474Y015159D01*
X013439Y015109D01*
X013401Y015061D01*
X013360Y015017D01*
X013316Y014974D01*
X013270Y014935D01*
X013221Y014899D01*
X013170Y014866D01*
X013116Y014836D01*
X013062Y014810D01*
X012298Y014810D02*
X012244Y014836D01*
X012190Y014866D01*
X012139Y014899D01*
X012090Y014935D01*
X012044Y014974D01*
X012000Y015017D01*
X011959Y015061D01*
X011921Y015109D01*
X011886Y015159D01*
X011854Y015211D01*
X011826Y015264D01*
X011801Y015320D01*
X011780Y015377D01*
X011762Y015435D01*
X011748Y015494D01*
X011738Y015554D01*
X011732Y015615D01*
X011730Y015676D01*
X011732Y015737D01*
X011737Y015797D01*
X011747Y015857D01*
X011760Y015917D01*
X011777Y015975D01*
X011798Y016032D01*
X011822Y016088D01*
X011850Y016142D01*
X011881Y016194D01*
X011916Y016244D01*
X011954Y016292D01*
X011994Y016337D01*
X012038Y016380D01*
X012038Y013380D02*
X013322Y013380D01*
X012038Y013380D02*
X011994Y013337D01*
X011954Y013292D01*
X011916Y013244D01*
X011881Y013194D01*
X011850Y013142D01*
X011822Y013088D01*
X011798Y013032D01*
X011777Y012975D01*
X011760Y012917D01*
X011747Y012857D01*
X011737Y012797D01*
X011732Y012737D01*
X011730Y012676D01*
X011732Y012615D01*
X011738Y012554D01*
X011748Y012494D01*
X011762Y012435D01*
X011780Y012377D01*
X011801Y012320D01*
X011826Y012264D01*
X011854Y012211D01*
X011886Y012159D01*
X011921Y012109D01*
X011959Y012061D01*
X012000Y012017D01*
X012044Y011974D01*
X012090Y011935D01*
X012139Y011899D01*
X012190Y011866D01*
X012244Y011836D01*
X012298Y011810D01*
X013062Y011810D02*
X013116Y011836D01*
X013170Y011866D01*
X013221Y011899D01*
X013270Y011935D01*
X013316Y011974D01*
X013360Y012017D01*
X013401Y012061D01*
X013439Y012109D01*
X013474Y012159D01*
X013506Y012211D01*
X013534Y012264D01*
X013559Y012320D01*
X013580Y012377D01*
X013598Y012435D01*
X013612Y012494D01*
X013622Y012554D01*
X013628Y012615D01*
X013630Y012676D01*
X013628Y012737D01*
X013623Y012797D01*
X013613Y012857D01*
X013600Y012917D01*
X013583Y012975D01*
X013562Y013032D01*
X013538Y013088D01*
X013510Y013142D01*
X013479Y013194D01*
X013444Y013244D01*
X013406Y013292D01*
X013366Y013337D01*
X013322Y013380D01*
X013322Y010380D02*
X012038Y010380D01*
X013322Y010380D02*
X013366Y010337D01*
X013406Y010292D01*
X013444Y010244D01*
X013479Y010194D01*
X013510Y010142D01*
X013538Y010088D01*
X013562Y010032D01*
X013583Y009975D01*
X013600Y009917D01*
X013613Y009857D01*
X013623Y009797D01*
X013628Y009737D01*
X013630Y009676D01*
X013628Y009615D01*
X013622Y009554D01*
X013612Y009494D01*
X013598Y009435D01*
X013580Y009377D01*
X013559Y009320D01*
X013534Y009264D01*
X013506Y009211D01*
X013474Y009159D01*
X013439Y009109D01*
X013401Y009061D01*
X013360Y009017D01*
X013316Y008974D01*
X013270Y008935D01*
X013221Y008899D01*
X013170Y008866D01*
X013116Y008836D01*
X013062Y008810D01*
X012298Y008810D02*
X012244Y008836D01*
X012190Y008866D01*
X012139Y008899D01*
X012090Y008935D01*
X012044Y008974D01*
X012000Y009017D01*
X011959Y009061D01*
X011921Y009109D01*
X011886Y009159D01*
X011854Y009211D01*
X011826Y009264D01*
X011801Y009320D01*
X011780Y009377D01*
X011762Y009435D01*
X011748Y009494D01*
X011738Y009554D01*
X011732Y009615D01*
X011730Y009676D01*
X011732Y009737D01*
X011737Y009797D01*
X011747Y009857D01*
X011760Y009917D01*
X011777Y009975D01*
X011798Y010032D01*
X011822Y010088D01*
X011850Y010142D01*
X011881Y010194D01*
X011916Y010244D01*
X011954Y010292D01*
X011994Y010337D01*
X012038Y010380D01*
X012038Y007380D02*
X013322Y007380D01*
X012038Y007380D02*
X011994Y007337D01*
X011954Y007292D01*
X011916Y007244D01*
X011881Y007194D01*
X011850Y007142D01*
X011822Y007088D01*
X011798Y007032D01*
X011777Y006975D01*
X011760Y006917D01*
X011747Y006857D01*
X011737Y006797D01*
X011732Y006737D01*
X011730Y006676D01*
X011732Y006615D01*
X011738Y006554D01*
X011748Y006494D01*
X011762Y006435D01*
X011780Y006377D01*
X011801Y006320D01*
X011826Y006264D01*
X011854Y006211D01*
X011886Y006159D01*
X011921Y006109D01*
X011959Y006061D01*
X012000Y006017D01*
X012044Y005974D01*
X012090Y005935D01*
X012139Y005899D01*
X012190Y005866D01*
X012244Y005836D01*
X012298Y005810D01*
X013062Y005810D02*
X013116Y005836D01*
X013170Y005866D01*
X013221Y005899D01*
X013270Y005935D01*
X013316Y005974D01*
X013360Y006017D01*
X013401Y006061D01*
X013439Y006109D01*
X013474Y006159D01*
X013506Y006211D01*
X013534Y006264D01*
X013559Y006320D01*
X013580Y006377D01*
X013598Y006435D01*
X013612Y006494D01*
X013622Y006554D01*
X013628Y006615D01*
X013630Y006676D01*
X013628Y006737D01*
X013623Y006797D01*
X013613Y006857D01*
X013600Y006917D01*
X013583Y006975D01*
X013562Y007032D01*
X013538Y007088D01*
X013510Y007142D01*
X013479Y007194D01*
X013444Y007244D01*
X013406Y007292D01*
X013366Y007337D01*
X013322Y007380D01*
X013322Y004380D02*
X012038Y004380D01*
X013322Y004380D02*
X013366Y004337D01*
X013406Y004292D01*
X013444Y004244D01*
X013479Y004194D01*
X013510Y004142D01*
X013538Y004088D01*
X013562Y004032D01*
X013583Y003975D01*
X013600Y003917D01*
X013613Y003857D01*
X013623Y003797D01*
X013628Y003737D01*
X013630Y003676D01*
X013628Y003615D01*
X013622Y003554D01*
X013612Y003494D01*
X013598Y003435D01*
X013580Y003377D01*
X013559Y003320D01*
X013534Y003264D01*
X013506Y003211D01*
X013474Y003159D01*
X013439Y003109D01*
X013401Y003061D01*
X013360Y003017D01*
X013316Y002974D01*
X013270Y002935D01*
X013221Y002899D01*
X013170Y002866D01*
X013116Y002836D01*
X013062Y002810D01*
X012298Y002810D02*
X012244Y002836D01*
X012190Y002866D01*
X012139Y002899D01*
X012090Y002935D01*
X012044Y002974D01*
X012000Y003017D01*
X011959Y003061D01*
X011921Y003109D01*
X011886Y003159D01*
X011854Y003211D01*
X011826Y003264D01*
X011801Y003320D01*
X011780Y003377D01*
X011762Y003435D01*
X011748Y003494D01*
X011738Y003554D01*
X011732Y003615D01*
X011730Y003676D01*
X011732Y003737D01*
X011737Y003797D01*
X011747Y003857D01*
X011760Y003917D01*
X011777Y003975D01*
X011798Y004032D01*
X011822Y004088D01*
X011850Y004142D01*
X011881Y004194D01*
X011916Y004244D01*
X011954Y004292D01*
X011994Y004337D01*
X012038Y004380D01*
X022410Y015610D02*
X022837Y015610D01*
X022624Y015610D02*
X022624Y016251D01*
X022410Y016037D01*
X023117Y017910D02*
X023330Y017910D01*
X023437Y018017D01*
X023437Y018230D01*
X023224Y018230D01*
X023437Y018444D02*
X023330Y018551D01*
X023117Y018551D01*
X023010Y018444D01*
X023010Y018017D01*
X023117Y017910D01*
X023655Y017910D02*
X023655Y018551D01*
X024082Y017910D01*
X024082Y018551D01*
X024299Y018551D02*
X024619Y018551D01*
X024726Y018444D01*
X024726Y018017D01*
X024619Y017910D01*
X024299Y017910D01*
X024299Y018551D01*
X025110Y018230D02*
X025537Y018230D01*
X025755Y018230D02*
X025755Y018551D01*
X026182Y018551D01*
X026399Y018551D02*
X026399Y018124D01*
X026613Y017910D01*
X026826Y018124D01*
X026826Y018551D01*
X026182Y018230D02*
X026182Y018017D01*
X026075Y017910D01*
X025861Y017910D01*
X025755Y018017D01*
X025755Y018230D02*
X025968Y018337D01*
X026075Y018337D01*
X026182Y018230D01*
X025324Y018444D02*
X025324Y018017D01*
X025419Y024110D02*
X025206Y024110D01*
X025099Y024217D01*
X025099Y024751D01*
X024882Y024751D02*
X024455Y024751D01*
X024668Y024751D02*
X024668Y024110D01*
X024237Y024217D02*
X024237Y024644D01*
X024130Y024751D01*
X023810Y024751D01*
X023810Y024110D01*
X024130Y024110D01*
X024237Y024217D01*
X025419Y024110D02*
X025526Y024217D01*
X025526Y024751D01*
X023523Y009361D02*
X023523Y009254D01*
X023736Y009041D01*
X023523Y009041D02*
X023950Y009041D01*
X023843Y008823D02*
X023630Y008823D01*
X023523Y008716D01*
X023523Y008503D01*
X023630Y008396D01*
X023843Y008396D01*
X023950Y008503D01*
X023950Y008716D01*
X023843Y008823D01*
X023843Y008179D02*
X023736Y008072D01*
X023736Y007858D01*
X023630Y007752D01*
X023523Y007858D01*
X023523Y008179D01*
X023843Y008179D02*
X023950Y008072D01*
X023950Y007752D01*
X023950Y007534D02*
X023630Y007534D01*
X023523Y007427D01*
X023523Y007107D01*
X023950Y007107D01*
X023736Y006889D02*
X023630Y006889D01*
X023523Y006783D01*
X023523Y006569D01*
X023630Y006462D01*
X023843Y006462D01*
X023950Y006569D01*
X023950Y006783D01*
X023736Y006889D02*
X023736Y006462D01*
X023843Y006245D02*
X023736Y006138D01*
X023736Y005925D01*
X023630Y005818D01*
X023523Y005925D01*
X023523Y006245D01*
X023843Y006245D02*
X023950Y006138D01*
X023950Y005818D01*
X024523Y005703D02*
X024950Y005490D01*
X024523Y005276D01*
X024630Y005059D02*
X024736Y005059D01*
X024736Y004632D01*
X024630Y004632D02*
X024523Y004739D01*
X024523Y004952D01*
X024630Y005059D01*
X024950Y004952D02*
X024950Y004739D01*
X024843Y004632D01*
X024630Y004632D01*
X024523Y004415D02*
X024523Y004308D01*
X024736Y004095D01*
X024523Y004095D02*
X024950Y004095D01*
X023950Y003884D02*
X023523Y003884D01*
X023523Y004205D01*
X023630Y004311D01*
X023950Y004311D01*
X023843Y004529D02*
X023630Y004529D01*
X023523Y004636D01*
X023523Y004849D01*
X023630Y004956D01*
X023736Y004956D01*
X023736Y004529D01*
X023843Y004529D02*
X023950Y004636D01*
X023950Y004849D01*
X023950Y003668D02*
X023950Y003455D01*
X023950Y003561D02*
X023523Y003561D01*
X023523Y003455D01*
X023309Y003561D02*
X023203Y003561D01*
X023950Y003237D02*
X023950Y002810D01*
X023309Y002810D01*
X024523Y006565D02*
X024309Y006779D01*
X024523Y006992D01*
X024950Y006992D01*
X024630Y006992D02*
X024630Y006565D01*
X024523Y006565D02*
X024950Y006565D01*
D12*
X001465Y024895D02*
X001465Y025142D01*
X001465Y025263D02*
X001465Y025510D01*
X001465Y025632D02*
X001465Y025817D01*
X001403Y025879D01*
X001156Y025879D01*
X001095Y025817D01*
X001095Y025632D01*
X001465Y025632D01*
X001280Y025387D02*
X001280Y025263D01*
X001095Y025263D02*
X001465Y025263D01*
X001465Y024895D02*
X001095Y024895D01*
X001095Y025263D02*
X001095Y025510D01*
X001280Y026000D02*
X001280Y026247D01*
X001218Y026368D02*
X001218Y026553D01*
X001280Y026615D01*
X001403Y026615D01*
X001465Y026553D01*
X001465Y026368D01*
X001095Y026368D01*
X001095Y026737D02*
X001095Y026798D01*
X001465Y026798D01*
X001465Y026737D02*
X001465Y026860D01*
X001465Y026982D02*
X001465Y027106D01*
X001465Y027044D02*
X001218Y027044D01*
X001218Y026982D01*
X001095Y027044D02*
X001033Y027044D01*
X001218Y027228D02*
X001218Y027413D01*
X001280Y027475D01*
X001465Y027475D01*
X001465Y027596D02*
X001095Y027596D01*
X001218Y027781D02*
X001342Y027596D01*
X001465Y027781D01*
X001465Y027228D02*
X001218Y027228D01*
D13*
X001777Y003700D02*
X001930Y003700D01*
X002007Y003777D01*
X002160Y003777D02*
X002237Y003700D01*
X002391Y003700D01*
X002467Y003777D01*
X002467Y003853D01*
X002391Y003930D01*
X002314Y003930D01*
X002391Y003930D02*
X002467Y004007D01*
X002467Y004084D01*
X002391Y004160D01*
X002237Y004160D01*
X002160Y004084D01*
X002007Y004084D02*
X001930Y004160D01*
X001777Y004160D01*
X001700Y004084D01*
X001700Y003777D01*
X001777Y003700D01*
X002621Y003777D02*
X002698Y003700D01*
X002851Y003700D01*
X002928Y003777D01*
X002928Y003930D01*
X002851Y004007D01*
X002774Y004007D01*
X002621Y003930D01*
X002621Y004160D01*
X002928Y004160D01*
X003026Y004650D02*
X002950Y004727D01*
X002950Y004880D01*
X003026Y004957D01*
X003333Y004957D01*
X003410Y004880D01*
X003410Y004727D01*
X003333Y004650D01*
X003026Y004650D01*
X003257Y004803D02*
X003410Y004957D01*
X003410Y005110D02*
X003410Y005417D01*
X003410Y005264D02*
X002950Y005264D01*
X003103Y005110D01*
X003103Y005571D02*
X003026Y005571D01*
X002950Y005648D01*
X002950Y005801D01*
X003026Y005878D01*
X003333Y005878D01*
X003410Y005801D01*
X003410Y005648D01*
X003333Y005571D01*
X003180Y005648D02*
X003180Y005878D01*
X003180Y005648D02*
X003103Y005571D01*
X003150Y007050D02*
X003150Y007280D01*
X003226Y007357D01*
X003380Y007357D01*
X003457Y007280D01*
X003457Y007050D01*
X003610Y007050D02*
X003150Y007050D01*
X003457Y007203D02*
X003610Y007357D01*
X003533Y007510D02*
X003610Y007587D01*
X003610Y007741D01*
X003533Y007817D01*
X003457Y007817D01*
X003380Y007741D01*
X003380Y007664D01*
X003380Y007741D02*
X003303Y007817D01*
X003226Y007817D01*
X003150Y007741D01*
X003150Y007587D01*
X003226Y007510D01*
X003380Y007971D02*
X003380Y008278D01*
X003610Y008201D02*
X003150Y008201D01*
X003380Y007971D01*
X001310Y007620D02*
X001310Y007466D01*
X001233Y007390D01*
X001080Y007390D02*
X001003Y007543D01*
X001003Y007620D01*
X001080Y007697D01*
X001233Y007697D01*
X001310Y007620D01*
X001080Y007390D02*
X000850Y007390D01*
X000850Y007697D01*
X000926Y007236D02*
X001003Y007236D01*
X001080Y007159D01*
X001157Y007236D01*
X001233Y007236D01*
X001310Y007159D01*
X001310Y007006D01*
X001233Y006929D01*
X001310Y006776D02*
X001157Y006622D01*
X001157Y006699D02*
X001157Y006469D01*
X001310Y006469D02*
X000850Y006469D01*
X000850Y006699D01*
X000926Y006776D01*
X001080Y006776D01*
X001157Y006699D01*
X000926Y006929D02*
X000850Y007006D01*
X000850Y007159D01*
X000926Y007236D01*
X001080Y007159D02*
X001080Y007083D01*
X006200Y007950D02*
X006507Y008410D01*
X006660Y008410D02*
X006967Y008410D01*
X006967Y008334D01*
X006660Y008027D01*
X006660Y007950D01*
X006507Y007950D02*
X006200Y008410D01*
X006200Y010950D02*
X006507Y011410D01*
X006660Y011180D02*
X006891Y011180D01*
X006967Y011103D01*
X006967Y011027D01*
X006891Y010950D01*
X006737Y010950D01*
X006660Y011027D01*
X006660Y011180D01*
X006814Y011334D01*
X006967Y011410D01*
X006507Y010950D02*
X006200Y011410D01*
X006200Y013950D02*
X006507Y014410D01*
X006660Y014410D02*
X006660Y014180D01*
X006814Y014257D01*
X006891Y014257D01*
X006967Y014180D01*
X006967Y014027D01*
X006891Y013950D01*
X006737Y013950D01*
X006660Y014027D01*
X006507Y013950D02*
X006200Y014410D01*
X006660Y014410D02*
X006967Y014410D01*
X006891Y016950D02*
X006891Y017410D01*
X006660Y017180D01*
X006967Y017180D01*
X006507Y016950D02*
X006200Y017410D01*
X006507Y017410D02*
X006200Y016950D01*
X003410Y016871D02*
X003333Y016871D01*
X003026Y017178D01*
X002950Y017178D01*
X002950Y016871D01*
X002950Y016564D02*
X003410Y016564D01*
X003410Y016717D02*
X003410Y016410D01*
X003410Y016257D02*
X003257Y016103D01*
X003410Y016027D02*
X003333Y015950D01*
X003026Y015950D01*
X002950Y016027D01*
X002950Y016180D01*
X003026Y016257D01*
X003333Y016257D01*
X003410Y016180D01*
X003410Y016027D01*
X003433Y015778D02*
X003510Y015701D01*
X003510Y015548D01*
X003433Y015471D01*
X003433Y015317D02*
X003510Y015241D01*
X003510Y015087D01*
X003433Y015010D01*
X003510Y014857D02*
X003357Y014703D01*
X003357Y014780D02*
X003357Y014550D01*
X003510Y014550D02*
X003050Y014550D01*
X003050Y014780D01*
X003126Y014857D01*
X003280Y014857D01*
X003357Y014780D01*
X003126Y015010D02*
X003050Y015087D01*
X003050Y015241D01*
X003126Y015317D01*
X003203Y015317D01*
X003280Y015241D01*
X003357Y015317D01*
X003433Y015317D01*
X003280Y015241D02*
X003280Y015164D01*
X003126Y015471D02*
X003050Y015548D01*
X003050Y015701D01*
X003126Y015778D01*
X003203Y015778D01*
X003280Y015701D01*
X003357Y015778D01*
X003433Y015778D01*
X003280Y015701D02*
X003280Y015624D01*
X003103Y016410D02*
X002950Y016564D01*
X001970Y018200D02*
X001816Y018200D01*
X001740Y018277D01*
X001740Y018430D01*
X001970Y018430D01*
X002047Y018353D01*
X002047Y018277D01*
X001970Y018200D01*
X001740Y018430D02*
X001893Y018584D01*
X002047Y018660D01*
X001586Y018584D02*
X001586Y018507D01*
X001509Y018430D01*
X001586Y018353D01*
X001586Y018277D01*
X001509Y018200D01*
X001356Y018200D01*
X001279Y018277D01*
X001126Y018277D02*
X001049Y018200D01*
X000896Y018200D01*
X000819Y018277D01*
X000819Y018584D01*
X000896Y018660D01*
X001049Y018660D01*
X001126Y018584D01*
X001279Y018584D02*
X001356Y018660D01*
X001509Y018660D01*
X001586Y018584D01*
X001509Y018430D02*
X001433Y018430D01*
X001133Y015697D02*
X001057Y015697D01*
X000980Y015620D01*
X000980Y015390D01*
X001133Y015390D01*
X001210Y015466D01*
X001210Y015620D01*
X001133Y015697D01*
X000826Y015543D02*
X000980Y015390D01*
X001057Y015236D02*
X001133Y015236D01*
X001210Y015159D01*
X001210Y015006D01*
X001133Y014929D01*
X001210Y014776D02*
X001057Y014622D01*
X001057Y014699D02*
X001057Y014469D01*
X001210Y014469D02*
X000750Y014469D01*
X000750Y014699D01*
X000826Y014776D01*
X000980Y014776D01*
X001057Y014699D01*
X000826Y014929D02*
X000750Y015006D01*
X000750Y015159D01*
X000826Y015236D01*
X000903Y015236D01*
X000980Y015159D01*
X001057Y015236D01*
X000980Y015159D02*
X000980Y015083D01*
X000826Y015543D02*
X000750Y015697D01*
X006200Y019950D02*
X006507Y020410D01*
X006660Y020334D02*
X006737Y020410D01*
X006891Y020410D01*
X006967Y020334D01*
X006967Y020257D01*
X006891Y020180D01*
X006967Y020103D01*
X006967Y020027D01*
X006891Y019950D01*
X006737Y019950D01*
X006660Y020027D01*
X006507Y019950D02*
X006200Y020410D01*
X006814Y020180D02*
X006891Y020180D01*
X006967Y022950D02*
X006660Y022950D01*
X006967Y023257D01*
X006967Y023334D01*
X006891Y023410D01*
X006737Y023410D01*
X006660Y023334D01*
X006507Y023410D02*
X006200Y022950D01*
X006507Y022950D02*
X006200Y023410D01*
X006200Y025950D02*
X006507Y026410D01*
X006660Y026257D02*
X006814Y026410D01*
X006814Y025950D01*
X006967Y025950D02*
X006660Y025950D01*
X006507Y025950D02*
X006200Y026410D01*
X010350Y025224D02*
X010503Y025071D01*
X010580Y024917D02*
X010733Y024917D01*
X010810Y024841D01*
X010810Y024687D01*
X010733Y024610D01*
X010580Y024610D02*
X010503Y024764D01*
X010503Y024841D01*
X010580Y024917D01*
X010350Y024917D02*
X010350Y024610D01*
X010580Y024610D01*
X010580Y024457D02*
X010657Y024380D01*
X010657Y024150D01*
X010810Y024150D02*
X010350Y024150D01*
X010350Y024380D01*
X010426Y024457D01*
X010580Y024457D01*
X010657Y024303D02*
X010810Y024457D01*
X010810Y025071D02*
X010810Y025378D01*
X010810Y025224D02*
X010350Y025224D01*
X012479Y023484D02*
X012479Y023177D01*
X012556Y023100D01*
X012709Y023100D01*
X012786Y023177D01*
X012940Y023100D02*
X013247Y023100D01*
X013093Y023100D02*
X013093Y023560D01*
X012940Y023407D01*
X012786Y023484D02*
X012709Y023560D01*
X012556Y023560D01*
X012479Y023484D01*
X012706Y022910D02*
X012859Y022910D01*
X012936Y022834D01*
X012936Y022527D01*
X012859Y022450D01*
X012706Y022450D01*
X012629Y022527D01*
X012629Y022834D01*
X012706Y022910D01*
X012783Y022603D02*
X012936Y022450D01*
X013090Y022527D02*
X013166Y022450D01*
X013320Y022450D01*
X013397Y022527D01*
X013397Y022603D01*
X013320Y022680D01*
X013243Y022680D01*
X013320Y022680D02*
X013397Y022757D01*
X013397Y022834D01*
X013320Y022910D01*
X013166Y022910D01*
X013090Y022834D01*
X015450Y022800D02*
X015450Y023260D01*
X015680Y023260D01*
X015757Y023184D01*
X015757Y023030D01*
X015680Y022953D01*
X015450Y022953D01*
X015603Y022953D02*
X015757Y022800D01*
X015910Y022877D02*
X015910Y022953D01*
X015987Y023030D01*
X016141Y023030D01*
X016217Y022953D01*
X016217Y022877D01*
X016141Y022800D01*
X015987Y022800D01*
X015910Y022877D01*
X015987Y023030D02*
X015910Y023107D01*
X015910Y023184D01*
X015987Y023260D01*
X016141Y023260D01*
X016217Y023184D01*
X016217Y023107D01*
X016141Y023030D01*
X016217Y023450D02*
X015910Y023450D01*
X015757Y023450D02*
X015603Y023603D01*
X015680Y023603D02*
X015450Y023603D01*
X015450Y023450D02*
X015450Y023910D01*
X015680Y023910D01*
X015757Y023834D01*
X015757Y023680D01*
X015680Y023603D01*
X015910Y023757D02*
X016064Y023910D01*
X016064Y023450D01*
X015883Y024200D02*
X015576Y024200D01*
X015500Y024277D01*
X015500Y024430D01*
X015576Y024507D01*
X015576Y024660D02*
X015500Y024737D01*
X015500Y024891D01*
X015576Y024967D01*
X015653Y024967D01*
X015960Y024660D01*
X015960Y024967D01*
X015883Y024507D02*
X015960Y024430D01*
X015960Y024277D01*
X015883Y024200D01*
X016950Y023910D02*
X016950Y023450D01*
X016950Y023603D02*
X017180Y023603D01*
X017257Y023680D01*
X017257Y023834D01*
X017180Y023910D01*
X016950Y023910D01*
X017103Y023603D02*
X017257Y023450D01*
X017410Y023450D02*
X017717Y023757D01*
X017717Y023834D01*
X017641Y023910D01*
X017487Y023910D01*
X017410Y023834D01*
X017410Y023450D02*
X017717Y023450D01*
X017564Y023260D02*
X017410Y023107D01*
X017257Y023184D02*
X017257Y022877D01*
X017180Y022800D01*
X017027Y022800D01*
X016950Y022877D01*
X016950Y023184D01*
X017027Y023260D01*
X017180Y023260D01*
X017257Y023184D01*
X017103Y022953D02*
X017257Y022800D01*
X017410Y022800D02*
X017717Y022800D01*
X017564Y022800D02*
X017564Y023260D01*
X018129Y022510D02*
X018359Y022510D01*
X018436Y022434D01*
X018436Y022280D01*
X018359Y022203D01*
X018129Y022203D01*
X018129Y022050D02*
X018129Y022510D01*
X018283Y022203D02*
X018436Y022050D01*
X018590Y022050D02*
X018590Y022127D01*
X018897Y022434D01*
X018897Y022510D01*
X018590Y022510D01*
X019279Y022384D02*
X019279Y022077D01*
X019356Y022000D01*
X019509Y022000D01*
X019586Y022077D01*
X019740Y022077D02*
X019740Y022000D01*
X019740Y022077D02*
X020047Y022384D01*
X020047Y022460D01*
X019740Y022460D01*
X019586Y022384D02*
X019509Y022460D01*
X019356Y022460D01*
X019279Y022384D01*
X017717Y021060D02*
X017564Y020984D01*
X017410Y020830D01*
X017641Y020830D01*
X017717Y020753D01*
X017717Y020677D01*
X017641Y020600D01*
X017487Y020600D01*
X017410Y020677D01*
X017410Y020830D01*
X017257Y020830D02*
X017180Y020753D01*
X016950Y020753D01*
X016950Y020600D02*
X016950Y021060D01*
X017180Y021060D01*
X017257Y020984D01*
X017257Y020830D01*
X017103Y020753D02*
X017257Y020600D01*
X017180Y020410D02*
X017257Y020334D01*
X017257Y020027D01*
X017180Y019950D01*
X017027Y019950D01*
X016950Y020027D01*
X016950Y020334D01*
X017027Y020410D01*
X017180Y020410D01*
X017410Y020410D02*
X017410Y020180D01*
X017564Y020257D01*
X017641Y020257D01*
X017717Y020180D01*
X017717Y020027D01*
X017641Y019950D01*
X017487Y019950D01*
X017410Y020027D01*
X017257Y019950D02*
X017103Y020103D01*
X017410Y020410D02*
X017717Y020410D01*
X018069Y019510D02*
X018299Y019510D01*
X018376Y019434D01*
X018376Y019280D01*
X018299Y019203D01*
X018069Y019203D01*
X018069Y019050D02*
X018069Y019510D01*
X018222Y019203D02*
X018376Y019050D01*
X018529Y019050D02*
X018836Y019050D01*
X018683Y019050D02*
X018683Y019510D01*
X018529Y019357D01*
X018990Y019357D02*
X019143Y019510D01*
X019143Y019050D01*
X018990Y019050D02*
X019297Y019050D01*
X019396Y019400D02*
X019549Y019400D01*
X019626Y019477D01*
X019779Y019400D02*
X020086Y019400D01*
X019933Y019400D02*
X019933Y019860D01*
X019779Y019707D01*
X019626Y019784D02*
X019549Y019860D01*
X019396Y019860D01*
X019319Y019784D01*
X019319Y019477D01*
X019396Y019400D01*
X020240Y019400D02*
X020547Y019400D01*
X020393Y019400D02*
X020393Y019860D01*
X020240Y019707D01*
X021700Y018851D02*
X021700Y018698D01*
X021776Y018621D01*
X021700Y018851D02*
X021776Y018928D01*
X021853Y018928D01*
X022160Y018621D01*
X022160Y018928D01*
X022160Y018467D02*
X022160Y018160D01*
X022160Y018314D02*
X021700Y018314D01*
X021853Y018160D01*
X021776Y018007D02*
X021700Y017930D01*
X021700Y017777D01*
X021776Y017700D01*
X022083Y017700D01*
X022160Y017777D01*
X022160Y017930D01*
X022083Y018007D01*
X022083Y016428D02*
X022007Y016428D01*
X021930Y016351D01*
X021930Y016121D01*
X022083Y016121D01*
X022160Y016198D01*
X022160Y016351D01*
X022083Y016428D01*
X021776Y016274D02*
X021930Y016121D01*
X021776Y016274D02*
X021700Y016428D01*
X021700Y015814D02*
X022160Y015814D01*
X022160Y015967D02*
X022160Y015660D01*
X022083Y015507D02*
X022160Y015430D01*
X022160Y015277D01*
X022083Y015200D01*
X021776Y015200D01*
X021700Y015277D01*
X021700Y015430D01*
X021776Y015507D01*
X021853Y015660D02*
X021700Y015814D01*
X020547Y016777D02*
X020470Y016700D01*
X020316Y016700D01*
X020240Y016777D01*
X020240Y016930D02*
X020393Y017007D01*
X020470Y017007D01*
X020547Y016930D01*
X020547Y016777D01*
X020240Y016930D02*
X020240Y017160D01*
X020547Y017160D01*
X019933Y017160D02*
X019933Y016700D01*
X020086Y016700D02*
X019779Y016700D01*
X019626Y016777D02*
X019549Y016700D01*
X019396Y016700D01*
X019319Y016777D01*
X019319Y017084D01*
X019396Y017160D01*
X019549Y017160D01*
X019626Y017084D01*
X019779Y017007D02*
X019933Y017160D01*
X018997Y017010D02*
X018690Y017010D01*
X018690Y016780D01*
X018843Y016857D01*
X018920Y016857D01*
X018997Y016780D01*
X018997Y016627D01*
X018920Y016550D01*
X018766Y016550D01*
X018690Y016627D01*
X018536Y016550D02*
X018229Y016550D01*
X018076Y016550D02*
X017922Y016703D01*
X017999Y016703D02*
X017769Y016703D01*
X017769Y016550D02*
X017769Y017010D01*
X017999Y017010D01*
X018076Y016934D01*
X018076Y016780D01*
X017999Y016703D01*
X018229Y016857D02*
X018383Y017010D01*
X018383Y016550D01*
X017717Y017334D02*
X017410Y017027D01*
X017410Y016950D01*
X017257Y016950D02*
X017103Y017103D01*
X017027Y016950D02*
X016950Y017027D01*
X016950Y017334D01*
X017027Y017410D01*
X017180Y017410D01*
X017257Y017334D01*
X017257Y017027D01*
X017180Y016950D01*
X017027Y016950D01*
X016678Y017027D02*
X016678Y017103D01*
X016601Y017180D01*
X016371Y017180D01*
X016371Y017027D01*
X016448Y016950D01*
X016601Y016950D01*
X016678Y017027D01*
X016524Y017334D02*
X016371Y017180D01*
X016524Y017334D02*
X016678Y017410D01*
X016850Y017750D02*
X016850Y018210D01*
X017080Y018210D01*
X017157Y018134D01*
X017157Y017980D01*
X017080Y017903D01*
X016850Y017903D01*
X017003Y017903D02*
X017157Y017750D01*
X017310Y017750D02*
X017617Y017750D01*
X017464Y017750D02*
X017464Y018210D01*
X017310Y018057D01*
X017771Y018134D02*
X017771Y017827D01*
X018078Y018134D01*
X018078Y017827D01*
X018001Y017750D01*
X017848Y017750D01*
X017771Y017827D01*
X017771Y018134D02*
X017848Y018210D01*
X018001Y018210D01*
X018078Y018134D01*
X017717Y017410D02*
X017410Y017410D01*
X017717Y017410D02*
X017717Y017334D01*
X016217Y017677D02*
X016217Y017984D01*
X016141Y018060D01*
X015987Y018060D01*
X015910Y017984D01*
X015910Y017907D01*
X015987Y017830D01*
X016217Y017830D01*
X016217Y017677D02*
X016141Y017600D01*
X015987Y017600D01*
X015910Y017677D01*
X015757Y017600D02*
X015603Y017753D01*
X015680Y017753D02*
X015450Y017753D01*
X015450Y017600D02*
X015450Y018060D01*
X015680Y018060D01*
X015757Y017984D01*
X015757Y017830D01*
X015680Y017753D01*
X015680Y017410D02*
X015450Y017410D01*
X015450Y016950D01*
X015450Y017103D02*
X015680Y017103D01*
X015757Y017180D01*
X015757Y017334D01*
X015680Y017410D01*
X015910Y017257D02*
X016064Y017410D01*
X016064Y016950D01*
X016217Y016950D02*
X015910Y016950D01*
X015757Y016950D02*
X015603Y017103D01*
X015730Y016428D02*
X015730Y016121D01*
X015500Y016351D01*
X015960Y016351D01*
X015960Y015967D02*
X015960Y015660D01*
X015960Y015814D02*
X015500Y015814D01*
X015653Y015660D01*
X015576Y015507D02*
X015500Y015430D01*
X015500Y015277D01*
X015576Y015200D01*
X015883Y015200D01*
X015960Y015277D01*
X015960Y015430D01*
X015883Y015507D01*
X015964Y015110D02*
X015964Y014650D01*
X016117Y014650D02*
X015810Y014650D01*
X015657Y014650D02*
X015503Y014803D01*
X015580Y014803D02*
X015350Y014803D01*
X015350Y014650D02*
X015350Y015110D01*
X015580Y015110D01*
X015657Y015034D01*
X015657Y014880D01*
X015580Y014803D01*
X015810Y014957D02*
X015964Y015110D01*
X016271Y015034D02*
X016348Y015110D01*
X016501Y015110D01*
X016578Y015034D01*
X016578Y014957D01*
X016501Y014880D01*
X016578Y014803D01*
X016578Y014727D01*
X016501Y014650D01*
X016348Y014650D01*
X016271Y014727D01*
X016424Y014880D02*
X016501Y014880D01*
X016487Y014410D02*
X016410Y014334D01*
X016410Y014257D01*
X016487Y014180D01*
X016717Y014180D01*
X016717Y014027D02*
X016717Y014334D01*
X016641Y014410D01*
X016487Y014410D01*
X016257Y014334D02*
X016257Y014027D01*
X016180Y013950D01*
X016027Y013950D01*
X015950Y014027D01*
X015950Y014334D01*
X016027Y014410D01*
X016180Y014410D01*
X016257Y014334D01*
X016103Y014103D02*
X016257Y013950D01*
X016410Y014027D02*
X016487Y013950D01*
X016641Y013950D01*
X016717Y014027D01*
X017569Y014110D02*
X017569Y013650D01*
X017569Y013803D02*
X017799Y013803D01*
X017876Y013880D01*
X017876Y014034D01*
X017799Y014110D01*
X017569Y014110D01*
X017650Y014250D02*
X017650Y014710D01*
X017880Y014710D01*
X017957Y014634D01*
X017957Y014480D01*
X017880Y014403D01*
X017650Y014403D01*
X017803Y014403D02*
X017957Y014250D01*
X018110Y014250D02*
X018417Y014250D01*
X018264Y014250D02*
X018264Y014710D01*
X018110Y014557D01*
X018571Y014480D02*
X018878Y014480D01*
X018801Y014250D02*
X018801Y014710D01*
X018571Y014480D01*
X018566Y014110D02*
X018490Y014034D01*
X018490Y013957D01*
X018566Y013880D01*
X018797Y013880D01*
X018797Y013727D02*
X018797Y014034D01*
X018720Y014110D01*
X018566Y014110D01*
X018183Y014110D02*
X018183Y013650D01*
X018336Y013650D02*
X018029Y013650D01*
X017876Y013650D02*
X017722Y013803D01*
X018029Y013957D02*
X018183Y014110D01*
X018490Y013727D02*
X018566Y013650D01*
X018720Y013650D01*
X018797Y013727D01*
X019819Y013577D02*
X019896Y013500D01*
X020049Y013500D01*
X020126Y013577D01*
X020279Y013500D02*
X020586Y013500D01*
X020433Y013500D02*
X020433Y013960D01*
X020279Y013807D01*
X020126Y013884D02*
X020049Y013960D01*
X019896Y013960D01*
X019819Y013884D01*
X019819Y013577D01*
X020740Y013577D02*
X020816Y013500D01*
X020970Y013500D01*
X021047Y013577D01*
X021047Y013884D01*
X020970Y013960D01*
X020816Y013960D01*
X020740Y013884D01*
X020740Y013807D01*
X020816Y013730D01*
X021047Y013730D01*
X021600Y013351D02*
X021600Y013198D01*
X021676Y013121D01*
X021983Y013121D01*
X021676Y013428D01*
X021983Y013428D01*
X022060Y013351D01*
X022060Y013198D01*
X021983Y013121D01*
X022060Y012967D02*
X022060Y012660D01*
X021753Y012967D01*
X021676Y012967D01*
X021600Y012891D01*
X021600Y012737D01*
X021676Y012660D01*
X021676Y012507D02*
X021600Y012430D01*
X021600Y012277D01*
X021676Y012200D01*
X021983Y012200D01*
X022060Y012277D01*
X022060Y012430D01*
X021983Y012507D01*
X021600Y013351D02*
X021676Y013428D01*
X019778Y011634D02*
X019778Y011557D01*
X019701Y011480D01*
X019548Y011480D01*
X019471Y011557D01*
X019471Y011634D01*
X019548Y011710D01*
X019701Y011710D01*
X019778Y011634D01*
X019701Y011480D02*
X019778Y011403D01*
X019778Y011327D01*
X019701Y011250D01*
X019548Y011250D01*
X019471Y011327D01*
X019471Y011403D01*
X019548Y011480D01*
X019317Y011250D02*
X019010Y011250D01*
X019006Y011110D02*
X018929Y011034D01*
X019006Y011110D02*
X019159Y011110D01*
X019236Y011034D01*
X019236Y010957D01*
X018929Y010650D01*
X019236Y010650D01*
X019390Y010727D02*
X019466Y010650D01*
X019620Y010650D01*
X019697Y010727D01*
X019697Y010803D01*
X019620Y010880D01*
X019543Y010880D01*
X019620Y010880D02*
X019697Y010957D01*
X019697Y011034D01*
X019620Y011110D01*
X019466Y011110D01*
X019390Y011034D01*
X019164Y011250D02*
X019164Y011710D01*
X019010Y011557D01*
X018857Y011634D02*
X018857Y011480D01*
X018780Y011403D01*
X018550Y011403D01*
X018550Y011250D02*
X018550Y011710D01*
X018780Y011710D01*
X018857Y011634D01*
X018703Y011403D02*
X018857Y011250D01*
X018699Y011110D02*
X018776Y011034D01*
X018776Y010880D01*
X018699Y010803D01*
X018469Y010803D01*
X018469Y010650D02*
X018469Y011110D01*
X018699Y011110D01*
X018622Y010803D02*
X018776Y010650D01*
X018278Y010750D02*
X017971Y010750D01*
X018124Y010750D02*
X018124Y011210D01*
X017971Y011057D01*
X017817Y010750D02*
X017510Y010750D01*
X017357Y010750D02*
X017203Y010903D01*
X017127Y010750D02*
X017050Y010827D01*
X017050Y011134D01*
X017127Y011210D01*
X017280Y011210D01*
X017357Y011134D01*
X017357Y010827D01*
X017280Y010750D01*
X017127Y010750D01*
X017510Y011057D02*
X017664Y011210D01*
X017664Y010750D01*
X016578Y011230D02*
X016271Y011230D01*
X016501Y011460D01*
X016501Y011000D01*
X016117Y011000D02*
X015810Y011000D01*
X016117Y011307D01*
X016117Y011384D01*
X016041Y011460D01*
X015887Y011460D01*
X015810Y011384D01*
X015657Y011384D02*
X015657Y011230D01*
X015580Y011153D01*
X015350Y011153D01*
X015350Y011000D02*
X015350Y011460D01*
X015580Y011460D01*
X015657Y011384D01*
X015503Y011153D02*
X015657Y011000D01*
X015553Y010628D02*
X015476Y010628D01*
X015400Y010551D01*
X015400Y010398D01*
X015476Y010321D01*
X015476Y010167D02*
X015400Y010091D01*
X015400Y009937D01*
X015476Y009860D01*
X015476Y009707D02*
X015400Y009630D01*
X015400Y009477D01*
X015476Y009400D01*
X015783Y009400D01*
X015860Y009477D01*
X015860Y009630D01*
X015783Y009707D01*
X015860Y009860D02*
X015553Y010167D01*
X015476Y010167D01*
X015860Y010167D02*
X015860Y009860D01*
X015860Y010321D02*
X015553Y010628D01*
X015860Y010628D02*
X015860Y010321D01*
X015887Y009210D02*
X015810Y009134D01*
X015887Y009210D02*
X016041Y009210D01*
X016117Y009134D01*
X016117Y009057D01*
X015810Y008750D01*
X016117Y008750D01*
X016271Y008750D02*
X016578Y008750D01*
X016424Y008750D02*
X016424Y009210D01*
X016271Y009057D01*
X016280Y008510D02*
X016127Y008510D01*
X016050Y008434D01*
X016050Y008127D01*
X016127Y008050D01*
X016280Y008050D01*
X016357Y008127D01*
X016357Y008434D01*
X016280Y008510D01*
X016510Y008357D02*
X016664Y008510D01*
X016664Y008050D01*
X016817Y008050D02*
X016510Y008050D01*
X016357Y008050D02*
X016203Y008203D01*
X016971Y008127D02*
X017048Y008050D01*
X017201Y008050D01*
X017278Y008127D01*
X017278Y008203D01*
X017201Y008280D01*
X017124Y008280D01*
X017201Y008280D02*
X017278Y008357D01*
X017278Y008434D01*
X017201Y008510D01*
X017048Y008510D01*
X016971Y008434D01*
X016850Y008750D02*
X016850Y009210D01*
X017080Y009210D01*
X017157Y009134D01*
X017157Y008980D01*
X017080Y008903D01*
X016850Y008903D01*
X017003Y008903D02*
X017157Y008750D01*
X017310Y008750D02*
X017617Y009057D01*
X017617Y009134D01*
X017541Y009210D01*
X017387Y009210D01*
X017310Y009134D01*
X017310Y008750D02*
X017617Y008750D01*
X017771Y008750D02*
X018078Y009057D01*
X018078Y009134D01*
X018001Y009210D01*
X017848Y009210D01*
X017771Y009134D01*
X017771Y008750D02*
X018078Y008750D01*
X018106Y008260D02*
X018029Y008184D01*
X018106Y008260D02*
X018259Y008260D01*
X018336Y008184D01*
X018336Y008107D01*
X018029Y007800D01*
X018336Y007800D01*
X018490Y007800D02*
X018490Y007877D01*
X018797Y008184D01*
X018797Y008260D01*
X018490Y008260D01*
X017876Y008184D02*
X017876Y008030D01*
X017799Y007953D01*
X017569Y007953D01*
X017569Y007800D02*
X017569Y008260D01*
X017799Y008260D01*
X017876Y008184D01*
X017722Y007953D02*
X017876Y007800D01*
X019619Y007884D02*
X019619Y007577D01*
X019696Y007500D01*
X019849Y007500D01*
X019926Y007577D01*
X020079Y007500D02*
X020386Y007807D01*
X020386Y007884D01*
X020309Y007960D01*
X020156Y007960D01*
X020079Y007884D01*
X019926Y007884D02*
X019849Y007960D01*
X019696Y007960D01*
X019619Y007884D01*
X020079Y007500D02*
X020386Y007500D01*
X020540Y007500D02*
X020540Y007577D01*
X020847Y007884D01*
X020847Y007960D01*
X020540Y007960D01*
X021700Y007251D02*
X021700Y007098D01*
X021776Y007021D01*
X021853Y007021D01*
X021930Y007098D01*
X021930Y007251D01*
X022007Y007328D01*
X022083Y007328D01*
X022160Y007251D01*
X022160Y007098D01*
X022083Y007021D01*
X022007Y007021D01*
X021930Y007098D01*
X021930Y007251D02*
X021853Y007328D01*
X021776Y007328D01*
X021700Y007251D01*
X021776Y006867D02*
X021700Y006791D01*
X021700Y006637D01*
X021776Y006560D01*
X021776Y006407D02*
X021700Y006330D01*
X021700Y006177D01*
X021776Y006100D01*
X022083Y006100D01*
X022160Y006177D01*
X022160Y006330D01*
X022083Y006407D01*
X022160Y006560D02*
X021853Y006867D01*
X021776Y006867D01*
X022160Y006867D02*
X022160Y006560D01*
X021460Y005228D02*
X021460Y004921D01*
X021153Y005228D01*
X021076Y005228D01*
X021000Y005151D01*
X021000Y004998D01*
X021076Y004921D01*
X021076Y004767D02*
X021153Y004767D01*
X021230Y004691D01*
X021307Y004767D01*
X021383Y004767D01*
X021460Y004691D01*
X021460Y004537D01*
X021383Y004460D01*
X021383Y004307D02*
X021460Y004230D01*
X021460Y004077D01*
X021383Y004000D01*
X021076Y004000D01*
X021000Y004077D01*
X021000Y004230D01*
X021076Y004307D01*
X021076Y004460D02*
X021000Y004537D01*
X021000Y004691D01*
X021076Y004767D01*
X021230Y004691D02*
X021230Y004614D01*
X020160Y004691D02*
X020160Y004537D01*
X020083Y004460D01*
X020083Y004307D02*
X020160Y004230D01*
X020160Y004077D01*
X020083Y004000D01*
X019776Y004000D01*
X019700Y004077D01*
X019700Y004230D01*
X019776Y004307D01*
X019776Y004460D02*
X019700Y004537D01*
X019700Y004691D01*
X019776Y004767D01*
X019853Y004767D01*
X019930Y004691D01*
X020007Y004767D01*
X020083Y004767D01*
X020160Y004691D01*
X020160Y004921D02*
X020160Y005228D01*
X020160Y005074D02*
X019700Y005074D01*
X019853Y004921D01*
X019930Y004691D02*
X019930Y004614D01*
X019243Y004510D02*
X019243Y004050D01*
X019090Y004050D02*
X019397Y004050D01*
X019090Y004357D02*
X019243Y004510D01*
X018936Y004434D02*
X018936Y004357D01*
X018859Y004280D01*
X018936Y004203D01*
X018936Y004127D01*
X018859Y004050D01*
X018706Y004050D01*
X018629Y004127D01*
X018476Y004050D02*
X018322Y004203D01*
X018399Y004203D02*
X018169Y004203D01*
X018169Y004050D02*
X018169Y004510D01*
X018399Y004510D01*
X018476Y004434D01*
X018476Y004280D01*
X018399Y004203D01*
X018629Y004434D02*
X018706Y004510D01*
X018859Y004510D01*
X018936Y004434D01*
X018859Y004280D02*
X018783Y004280D01*
X018710Y005350D02*
X019017Y005657D01*
X019017Y005734D01*
X018941Y005810D01*
X018787Y005810D01*
X018710Y005734D01*
X018557Y005734D02*
X018480Y005810D01*
X018250Y005810D01*
X018250Y005350D01*
X018250Y005503D02*
X018480Y005503D01*
X018557Y005580D01*
X018557Y005734D01*
X018403Y005503D02*
X018557Y005350D01*
X018710Y005350D02*
X019017Y005350D01*
X019171Y005427D02*
X019248Y005350D01*
X019401Y005350D01*
X019478Y005427D01*
X019478Y005503D01*
X019401Y005580D01*
X019171Y005580D01*
X019171Y005427D01*
X019171Y005580D02*
X019324Y005734D01*
X019478Y005810D01*
X017278Y005510D02*
X016971Y005510D01*
X016971Y005280D01*
X017124Y005357D01*
X017201Y005357D01*
X017278Y005280D01*
X017278Y005127D01*
X017201Y005050D01*
X017048Y005050D01*
X016971Y005127D01*
X016817Y005050D02*
X016510Y005050D01*
X016357Y005050D02*
X016203Y005203D01*
X016127Y005050D02*
X016050Y005127D01*
X016050Y005434D01*
X016127Y005510D01*
X016280Y005510D01*
X016357Y005434D01*
X016357Y005127D01*
X016280Y005050D01*
X016127Y005050D01*
X016510Y005357D02*
X016664Y005510D01*
X016664Y005050D01*
X016501Y005550D02*
X016348Y005550D01*
X016271Y005627D01*
X016271Y005780D02*
X016424Y005857D01*
X016501Y005857D01*
X016578Y005780D01*
X016578Y005627D01*
X016501Y005550D01*
X016271Y005780D02*
X016271Y006010D01*
X016578Y006010D01*
X016117Y005934D02*
X016041Y006010D01*
X015887Y006010D01*
X015810Y005934D01*
X015657Y005934D02*
X015657Y005780D01*
X015580Y005703D01*
X015350Y005703D01*
X015350Y005550D02*
X015350Y006010D01*
X015580Y006010D01*
X015657Y005934D01*
X015503Y005703D02*
X015657Y005550D01*
X015810Y005550D02*
X016117Y005857D01*
X016117Y005934D01*
X016117Y005550D02*
X015810Y005550D01*
X015783Y006200D02*
X015476Y006200D01*
X015400Y006277D01*
X015400Y006430D01*
X015476Y006507D01*
X015476Y006660D02*
X015400Y006737D01*
X015400Y006891D01*
X015476Y006967D01*
X015553Y006967D01*
X015860Y006660D01*
X015860Y006967D01*
X015783Y007121D02*
X015860Y007198D01*
X015860Y007351D01*
X015783Y007428D01*
X015707Y007428D01*
X015630Y007351D01*
X015630Y007121D01*
X015783Y007121D01*
X015630Y007121D02*
X015476Y007274D01*
X015400Y007428D01*
X015783Y006507D02*
X015860Y006430D01*
X015860Y006277D01*
X015783Y006200D01*
X013978Y005334D02*
X013901Y005410D01*
X013748Y005410D01*
X013671Y005334D01*
X013517Y005334D02*
X013517Y005257D01*
X013441Y005180D01*
X013517Y005103D01*
X013517Y005027D01*
X013441Y004950D01*
X013287Y004950D01*
X013210Y005027D01*
X013057Y004950D02*
X012903Y005103D01*
X012980Y005103D02*
X012750Y005103D01*
X012750Y004950D02*
X012750Y005410D01*
X012980Y005410D01*
X013057Y005334D01*
X013057Y005180D01*
X012980Y005103D01*
X013210Y005334D02*
X013287Y005410D01*
X013441Y005410D01*
X013517Y005334D01*
X013441Y005180D02*
X013364Y005180D01*
X013671Y004950D02*
X013978Y005257D01*
X013978Y005334D01*
X013978Y004950D02*
X013671Y004950D01*
X015400Y003284D02*
X015400Y002977D01*
X015477Y002900D01*
X015630Y002900D01*
X015707Y002977D01*
X015860Y002977D02*
X015937Y002900D01*
X016091Y002900D01*
X016167Y002977D01*
X016167Y003053D01*
X016091Y003130D01*
X016014Y003130D01*
X016091Y003130D02*
X016167Y003207D01*
X016167Y003284D01*
X016091Y003360D01*
X015937Y003360D01*
X015860Y003284D01*
X015707Y003284D02*
X015630Y003360D01*
X015477Y003360D01*
X015400Y003284D01*
X016321Y003284D02*
X016321Y002977D01*
X016628Y003284D01*
X016628Y002977D01*
X016551Y002900D01*
X016398Y002900D01*
X016321Y002977D01*
X016321Y003284D02*
X016398Y003360D01*
X016551Y003360D01*
X016628Y003284D01*
X017650Y002310D02*
X017880Y002310D01*
X017957Y002234D01*
X017957Y002080D01*
X017880Y002003D01*
X017650Y002003D01*
X017650Y001850D02*
X017650Y002310D01*
X017803Y002003D02*
X017957Y001850D01*
X018110Y001927D02*
X018187Y001850D01*
X018341Y001850D01*
X018417Y001927D01*
X018417Y002003D01*
X018341Y002080D01*
X018264Y002080D01*
X018341Y002080D02*
X018417Y002157D01*
X018417Y002234D01*
X018341Y002310D01*
X018187Y002310D01*
X018110Y002234D01*
X018571Y002234D02*
X018571Y001927D01*
X018878Y002234D01*
X018878Y001927D01*
X018801Y001850D01*
X018648Y001850D01*
X018571Y001927D01*
X018571Y002234D02*
X018648Y002310D01*
X018801Y002310D01*
X018878Y002234D01*
X018891Y001160D02*
X018967Y001084D01*
X018967Y001007D01*
X018891Y000930D01*
X018967Y000853D01*
X018967Y000777D01*
X018891Y000700D01*
X018737Y000700D01*
X018660Y000777D01*
X018507Y000777D02*
X018430Y000700D01*
X018277Y000700D01*
X018200Y000777D01*
X018200Y001084D01*
X018277Y001160D01*
X018430Y001160D01*
X018507Y001084D01*
X018660Y001084D02*
X018737Y001160D01*
X018891Y001160D01*
X018891Y000930D02*
X018814Y000930D01*
X019121Y000777D02*
X019198Y000700D01*
X019351Y000700D01*
X019428Y000777D01*
X019428Y000853D01*
X019351Y000930D01*
X019274Y000930D01*
X019351Y000930D02*
X019428Y001007D01*
X019428Y001084D01*
X019351Y001160D01*
X019198Y001160D01*
X019121Y001084D01*
X015478Y001827D02*
X015478Y002134D01*
X015401Y002210D01*
X015248Y002210D01*
X015171Y002134D01*
X015171Y002057D01*
X015248Y001980D01*
X015478Y001980D01*
X015478Y001827D02*
X015401Y001750D01*
X015248Y001750D01*
X015171Y001827D01*
X015017Y001750D02*
X014710Y001750D01*
X015017Y002057D01*
X015017Y002134D01*
X014941Y002210D01*
X014787Y002210D01*
X014710Y002134D01*
X014557Y002134D02*
X014557Y001980D01*
X014480Y001903D01*
X014250Y001903D01*
X014250Y001750D02*
X014250Y002210D01*
X014480Y002210D01*
X014557Y002134D01*
X014403Y001903D02*
X014557Y001750D01*
X013797Y002127D02*
X013797Y002203D01*
X013720Y002280D01*
X013490Y002280D01*
X013490Y002127D01*
X013566Y002050D01*
X013720Y002050D01*
X013797Y002127D01*
X013643Y002434D02*
X013490Y002280D01*
X013643Y002434D02*
X013797Y002510D01*
X013183Y002510D02*
X013183Y002050D01*
X013336Y002050D02*
X013029Y002050D01*
X012876Y002050D02*
X012722Y002203D01*
X012646Y002050D02*
X012569Y002127D01*
X012569Y002434D01*
X012646Y002510D01*
X012799Y002510D01*
X012876Y002434D01*
X012876Y002127D01*
X012799Y002050D01*
X012646Y002050D01*
X013029Y002357D02*
X013183Y002510D01*
X012047Y001584D02*
X012047Y001277D01*
X011970Y001200D01*
X011816Y001200D01*
X011740Y001277D01*
X011816Y001430D02*
X012047Y001430D01*
X012047Y001584D02*
X011970Y001660D01*
X011816Y001660D01*
X011740Y001584D01*
X011740Y001507D01*
X011816Y001430D01*
X011586Y001507D02*
X011586Y001584D01*
X011509Y001660D01*
X011356Y001660D01*
X011279Y001584D01*
X011126Y001584D02*
X011049Y001660D01*
X010896Y001660D01*
X010819Y001584D01*
X010819Y001277D01*
X010896Y001200D01*
X011049Y001200D01*
X011126Y001277D01*
X011279Y001200D02*
X011586Y001507D01*
X011586Y001200D02*
X011279Y001200D01*
X010810Y003150D02*
X010350Y003150D01*
X010350Y003380D01*
X010426Y003457D01*
X010580Y003457D01*
X010657Y003380D01*
X010657Y003150D01*
X010657Y003303D02*
X010810Y003457D01*
X010733Y003610D02*
X010810Y003687D01*
X010810Y003841D01*
X010733Y003917D01*
X010580Y003917D01*
X010503Y003841D01*
X010503Y003764D01*
X010580Y003610D01*
X010350Y003610D01*
X010350Y003917D01*
X010580Y004071D02*
X010580Y004301D01*
X010657Y004378D01*
X010733Y004378D01*
X010810Y004301D01*
X010810Y004148D01*
X010733Y004071D01*
X010580Y004071D01*
X010426Y004224D01*
X010350Y004378D01*
X009470Y005200D02*
X009547Y005277D01*
X009547Y005430D01*
X009470Y005507D01*
X009393Y005507D01*
X009240Y005430D01*
X009240Y005660D01*
X009547Y005660D01*
X009470Y005200D02*
X009316Y005200D01*
X009240Y005277D01*
X009086Y005200D02*
X008779Y005200D01*
X009086Y005507D01*
X009086Y005584D01*
X009009Y005660D01*
X008856Y005660D01*
X008779Y005584D01*
X008626Y005584D02*
X008549Y005660D01*
X008396Y005660D01*
X008319Y005584D01*
X008319Y005277D01*
X008396Y005200D01*
X008549Y005200D01*
X008626Y005277D01*
X006967Y005257D02*
X006891Y005180D01*
X006737Y005180D01*
X006660Y005257D01*
X006660Y005334D01*
X006737Y005410D01*
X006891Y005410D01*
X006967Y005334D01*
X006967Y005257D01*
X006891Y005180D02*
X006967Y005103D01*
X006967Y005027D01*
X006891Y004950D01*
X006737Y004950D01*
X006660Y005027D01*
X006660Y005103D01*
X006737Y005180D01*
X006507Y004950D02*
X006200Y005410D01*
X006507Y005410D02*
X006200Y004950D01*
X010350Y005950D02*
X010350Y006180D01*
X010426Y006257D01*
X010580Y006257D01*
X010657Y006180D01*
X010657Y005950D01*
X010810Y005950D02*
X010350Y005950D01*
X010657Y006103D02*
X010810Y006257D01*
X010733Y006410D02*
X010810Y006487D01*
X010810Y006641D01*
X010733Y006717D01*
X010580Y006717D01*
X010503Y006641D01*
X010503Y006564D01*
X010580Y006410D01*
X010350Y006410D01*
X010350Y006717D01*
X010426Y006871D02*
X010350Y006948D01*
X010350Y007101D01*
X010426Y007178D01*
X010503Y007178D01*
X010580Y007101D01*
X010657Y007178D01*
X010733Y007178D01*
X010810Y007101D01*
X010810Y006948D01*
X010733Y006871D01*
X010580Y007024D02*
X010580Y007101D01*
X010819Y007377D02*
X010896Y007300D01*
X011049Y007300D01*
X011126Y007377D01*
X011279Y007300D02*
X011586Y007607D01*
X011586Y007684D01*
X011509Y007760D01*
X011356Y007760D01*
X011279Y007684D01*
X011126Y007684D02*
X011049Y007760D01*
X010896Y007760D01*
X010819Y007684D01*
X010819Y007377D01*
X011279Y007300D02*
X011586Y007300D01*
X011740Y007300D02*
X012047Y007300D01*
X011893Y007300D02*
X011893Y007760D01*
X011740Y007607D01*
X012269Y007734D02*
X012269Y007427D01*
X012346Y007350D01*
X012499Y007350D01*
X012576Y007427D01*
X012576Y007734D01*
X012499Y007810D01*
X012346Y007810D01*
X012269Y007734D01*
X012422Y007503D02*
X012576Y007350D01*
X012729Y007350D02*
X013036Y007350D01*
X012883Y007350D02*
X012883Y007810D01*
X012729Y007657D01*
X013190Y007580D02*
X013497Y007580D01*
X013550Y007687D02*
X013626Y007610D01*
X013550Y007687D02*
X013550Y007841D01*
X013626Y007917D01*
X013703Y007917D01*
X014010Y007610D01*
X014010Y007917D01*
X013933Y008071D02*
X013857Y008071D01*
X013780Y008148D01*
X013780Y008301D01*
X013857Y008378D01*
X013933Y008378D01*
X014010Y008301D01*
X014010Y008148D01*
X013933Y008071D01*
X013780Y008148D02*
X013703Y008071D01*
X013626Y008071D01*
X013550Y008148D01*
X013550Y008301D01*
X013626Y008378D01*
X013703Y008378D01*
X013780Y008301D01*
X013420Y007810D02*
X013190Y007580D01*
X013420Y007350D02*
X013420Y007810D01*
X013626Y007457D02*
X013780Y007457D01*
X013857Y007380D01*
X013857Y007150D01*
X014010Y007150D02*
X013550Y007150D01*
X013550Y007380D01*
X013626Y007457D01*
X013857Y007303D02*
X014010Y007457D01*
X015350Y008750D02*
X015350Y009210D01*
X015580Y009210D01*
X015657Y009134D01*
X015657Y008980D01*
X015580Y008903D01*
X015350Y008903D01*
X015503Y008903D02*
X015657Y008750D01*
X013721Y011050D02*
X013721Y011127D01*
X014028Y011434D01*
X014028Y011510D01*
X013721Y011510D01*
X013414Y011510D02*
X013414Y011050D01*
X013567Y011050D02*
X013260Y011050D01*
X013107Y011050D02*
X012953Y011203D01*
X013030Y011203D02*
X012800Y011203D01*
X012800Y011050D02*
X012800Y011510D01*
X013030Y011510D01*
X013107Y011434D01*
X013107Y011280D01*
X013030Y011203D01*
X013260Y011357D02*
X013414Y011510D01*
X012047Y010760D02*
X012047Y010684D01*
X011740Y010377D01*
X011740Y010300D01*
X011586Y010300D02*
X011279Y010300D01*
X011433Y010300D02*
X011433Y010760D01*
X011279Y010607D01*
X011126Y010684D02*
X011049Y010760D01*
X010896Y010760D01*
X010819Y010684D01*
X010819Y010377D01*
X010896Y010300D01*
X011049Y010300D01*
X011126Y010377D01*
X010810Y010101D02*
X010810Y009948D01*
X010733Y009871D01*
X010657Y009871D01*
X010580Y009948D01*
X010580Y010101D01*
X010503Y010178D01*
X010426Y010178D01*
X010350Y010101D01*
X010350Y009948D01*
X010426Y009871D01*
X010503Y009871D01*
X010580Y009948D01*
X010580Y010101D02*
X010657Y010178D01*
X010733Y010178D01*
X010810Y010101D01*
X010733Y009717D02*
X010580Y009717D01*
X010503Y009641D01*
X010503Y009564D01*
X010580Y009410D01*
X010350Y009410D01*
X010350Y009717D01*
X010733Y009717D02*
X010810Y009641D01*
X010810Y009487D01*
X010733Y009410D01*
X010810Y009257D02*
X010657Y009103D01*
X010657Y009180D02*
X010657Y008950D01*
X010810Y008950D02*
X010350Y008950D01*
X010350Y009180D01*
X010426Y009257D01*
X010580Y009257D01*
X010657Y009180D01*
X011740Y010760D02*
X012047Y010760D01*
X010810Y012150D02*
X010350Y012150D01*
X010350Y012380D01*
X010426Y012457D01*
X010580Y012457D01*
X010657Y012380D01*
X010657Y012150D01*
X010657Y012303D02*
X010810Y012457D01*
X010733Y012610D02*
X010810Y012687D01*
X010810Y012841D01*
X010733Y012917D01*
X010580Y012917D01*
X010503Y012841D01*
X010503Y012764D01*
X010580Y012610D01*
X010350Y012610D01*
X010350Y012917D01*
X010350Y013071D02*
X010350Y013378D01*
X010426Y013378D01*
X010733Y013071D01*
X010810Y013071D01*
X010896Y013300D02*
X010819Y013377D01*
X010819Y013684D01*
X010896Y013760D01*
X011049Y013760D01*
X011126Y013684D01*
X011279Y013607D02*
X011433Y013760D01*
X011433Y013300D01*
X011586Y013300D02*
X011279Y013300D01*
X011126Y013377D02*
X011049Y013300D01*
X010896Y013300D01*
X011740Y013377D02*
X011816Y013300D01*
X011970Y013300D01*
X012047Y013377D01*
X012047Y013453D01*
X011970Y013530D01*
X011893Y013530D01*
X011970Y013530D02*
X012047Y013607D01*
X012047Y013684D01*
X011970Y013760D01*
X011816Y013760D01*
X011740Y013684D01*
X012800Y013950D02*
X012800Y014410D01*
X013030Y014410D01*
X013107Y014334D01*
X013107Y014180D01*
X013030Y014103D01*
X012800Y014103D01*
X012953Y014103D02*
X013107Y013950D01*
X013260Y013950D02*
X013567Y014257D01*
X013567Y014334D01*
X013491Y014410D01*
X013337Y014410D01*
X013260Y014334D01*
X013260Y013950D02*
X013567Y013950D01*
X013721Y014027D02*
X013721Y014334D01*
X013798Y014410D01*
X013951Y014410D01*
X014028Y014334D01*
X013721Y014027D01*
X013798Y013950D01*
X013951Y013950D01*
X014028Y014027D01*
X014028Y014334D01*
X015500Y013351D02*
X015500Y013198D01*
X015576Y013121D01*
X015653Y013121D01*
X015730Y013198D01*
X015730Y013351D01*
X015807Y013428D01*
X015883Y013428D01*
X015960Y013351D01*
X015960Y013198D01*
X015883Y013121D01*
X015807Y013121D01*
X015730Y013198D01*
X015730Y013351D02*
X015653Y013428D01*
X015576Y013428D01*
X015500Y013351D01*
X015500Y012814D02*
X015960Y012814D01*
X015960Y012967D02*
X015960Y012660D01*
X015883Y012507D02*
X015960Y012430D01*
X015960Y012277D01*
X015883Y012200D01*
X015576Y012200D01*
X015500Y012277D01*
X015500Y012430D01*
X015576Y012507D01*
X015653Y012660D02*
X015500Y012814D01*
X013420Y016550D02*
X013266Y016550D01*
X013190Y016627D01*
X013190Y016703D01*
X013266Y016780D01*
X013420Y016780D01*
X013497Y016703D01*
X013497Y016627D01*
X013420Y016550D01*
X013420Y016780D02*
X013497Y016857D01*
X013497Y016934D01*
X013420Y017010D01*
X013266Y017010D01*
X013190Y016934D01*
X013190Y016857D01*
X013266Y016780D01*
X013036Y016627D02*
X012959Y016550D01*
X012806Y016550D01*
X012729Y016627D01*
X012729Y016934D01*
X012806Y017010D01*
X012959Y017010D01*
X013036Y016934D01*
X013036Y016627D01*
X013036Y016550D02*
X012883Y016703D01*
X011847Y016684D02*
X011847Y016377D01*
X011770Y016300D01*
X011616Y016300D01*
X011540Y016377D01*
X011386Y016377D02*
X011309Y016300D01*
X011156Y016300D01*
X011079Y016377D01*
X011079Y016684D01*
X011156Y016760D01*
X011309Y016760D01*
X011386Y016684D01*
X011540Y016684D02*
X011616Y016760D01*
X011770Y016760D01*
X011847Y016684D01*
X011847Y016530D02*
X011616Y016530D01*
X011540Y016607D01*
X011540Y016684D01*
X010810Y016301D02*
X010810Y016148D01*
X010733Y016071D01*
X010580Y016071D02*
X010503Y016224D01*
X010503Y016301D01*
X010580Y016378D01*
X010733Y016378D01*
X010810Y016301D01*
X010580Y016071D02*
X010350Y016071D01*
X010350Y016378D01*
X010350Y015917D02*
X010350Y015610D01*
X010580Y015610D01*
X010503Y015764D01*
X010503Y015841D01*
X010580Y015917D01*
X010733Y015917D01*
X010810Y015841D01*
X010810Y015687D01*
X010733Y015610D01*
X010810Y015457D02*
X010657Y015303D01*
X010657Y015380D02*
X010657Y015150D01*
X010810Y015150D02*
X010350Y015150D01*
X010350Y015380D01*
X010426Y015457D01*
X010580Y015457D01*
X010657Y015380D01*
X010657Y018150D02*
X010657Y018380D01*
X010580Y018457D01*
X010426Y018457D01*
X010350Y018380D01*
X010350Y018150D01*
X010810Y018150D01*
X010657Y018303D02*
X010810Y018457D01*
X010733Y018610D02*
X010810Y018687D01*
X010810Y018841D01*
X010733Y018917D01*
X010580Y018917D01*
X010503Y018841D01*
X010503Y018764D01*
X010580Y018610D01*
X010350Y018610D01*
X010350Y018917D01*
X010580Y019071D02*
X010580Y019378D01*
X010810Y019301D02*
X010350Y019301D01*
X010580Y019071D01*
X012479Y020077D02*
X012556Y020000D01*
X012709Y020000D01*
X012786Y020077D01*
X012940Y020077D02*
X013016Y020000D01*
X013170Y020000D01*
X013247Y020077D01*
X013247Y020230D01*
X013170Y020307D01*
X013093Y020307D01*
X012940Y020230D01*
X012940Y020460D01*
X013247Y020460D01*
X012786Y020384D02*
X012709Y020460D01*
X012556Y020460D01*
X012479Y020384D01*
X012479Y020077D01*
X012729Y019834D02*
X012806Y019910D01*
X012959Y019910D01*
X013036Y019834D01*
X013036Y019527D01*
X012959Y019450D01*
X012806Y019450D01*
X012729Y019527D01*
X012729Y019834D01*
X012883Y019603D02*
X013036Y019450D01*
X013190Y019527D02*
X013190Y019680D01*
X013420Y019680D01*
X013497Y019603D01*
X013497Y019527D01*
X013420Y019450D01*
X013266Y019450D01*
X013190Y019527D01*
X013190Y019680D02*
X013343Y019834D01*
X013497Y019910D01*
X015450Y019950D02*
X015450Y020410D01*
X015680Y020410D01*
X015757Y020334D01*
X015757Y020180D01*
X015680Y020103D01*
X015450Y020103D01*
X015603Y020103D02*
X015757Y019950D01*
X015910Y019950D02*
X016217Y019950D01*
X016064Y019950D02*
X016064Y020410D01*
X015910Y020257D01*
X015987Y020600D02*
X015910Y020677D01*
X015987Y020600D02*
X016141Y020600D01*
X016217Y020677D01*
X016217Y020830D01*
X016141Y020907D01*
X016064Y020907D01*
X015910Y020830D01*
X015910Y021060D01*
X016217Y021060D01*
X015960Y021277D02*
X015960Y021430D01*
X015883Y021507D01*
X015883Y021660D02*
X015730Y021660D01*
X015730Y021891D01*
X015807Y021967D01*
X015883Y021967D01*
X015960Y021891D01*
X015960Y021737D01*
X015883Y021660D01*
X015730Y021660D02*
X015576Y021814D01*
X015500Y021967D01*
X015576Y021507D02*
X015500Y021430D01*
X015500Y021277D01*
X015576Y021200D01*
X015883Y021200D01*
X015960Y021277D01*
X015680Y021060D02*
X015757Y020984D01*
X015757Y020830D01*
X015680Y020753D01*
X015450Y020753D01*
X015450Y020600D02*
X015450Y021060D01*
X015680Y021060D01*
X015603Y020753D02*
X015757Y020600D01*
X016371Y020334D02*
X016448Y020410D01*
X016601Y020410D01*
X016678Y020334D01*
X016678Y020257D01*
X016371Y019950D01*
X016678Y019950D01*
X015960Y019351D02*
X015960Y019198D01*
X015883Y019121D01*
X015576Y019428D01*
X015883Y019428D01*
X015960Y019351D01*
X015883Y019121D02*
X015576Y019121D01*
X015500Y019198D01*
X015500Y019351D01*
X015576Y019428D01*
X015960Y018967D02*
X015960Y018660D01*
X015960Y018814D02*
X015500Y018814D01*
X015653Y018660D01*
X015576Y018507D02*
X015500Y018430D01*
X015500Y018277D01*
X015576Y018200D01*
X015883Y018200D01*
X015960Y018277D01*
X015960Y018430D01*
X015883Y018507D01*
X021700Y020777D02*
X021776Y020700D01*
X022083Y020700D01*
X022160Y020777D01*
X022160Y020930D01*
X022083Y021007D01*
X022083Y021160D02*
X022007Y021160D01*
X021930Y021237D01*
X021930Y021391D01*
X022007Y021467D01*
X022083Y021467D01*
X022160Y021391D01*
X022160Y021237D01*
X022083Y021160D01*
X021930Y021237D02*
X021853Y021160D01*
X021776Y021160D01*
X021700Y021237D01*
X021700Y021391D01*
X021776Y021467D01*
X021853Y021467D01*
X021930Y021391D01*
X021776Y021007D02*
X021700Y020930D01*
X021700Y020777D01*
X021776Y022700D02*
X021700Y022777D01*
X021700Y022930D01*
X021776Y023007D01*
X021930Y023160D02*
X021930Y023467D01*
X022160Y023391D02*
X021700Y023391D01*
X021930Y023160D01*
X022083Y023007D02*
X022160Y022930D01*
X022160Y022777D01*
X022083Y022700D01*
X021776Y022700D01*
X020470Y024700D02*
X020316Y024700D01*
X020240Y024777D01*
X020086Y024777D02*
X020009Y024700D01*
X019856Y024700D01*
X019779Y024777D01*
X019779Y025084D01*
X019856Y025160D01*
X020009Y025160D01*
X020086Y025084D01*
X020240Y025084D02*
X020316Y025160D01*
X020470Y025160D01*
X020547Y025084D01*
X020547Y025007D01*
X020470Y024930D01*
X020547Y024853D01*
X020547Y024777D01*
X020470Y024700D01*
X020470Y024930D02*
X020393Y024930D01*
X019397Y025077D02*
X019320Y025000D01*
X019166Y025000D01*
X019090Y025077D01*
X018936Y025000D02*
X018783Y025153D01*
X018859Y025153D02*
X018629Y025153D01*
X018629Y025000D02*
X018629Y025460D01*
X018859Y025460D01*
X018936Y025384D01*
X018936Y025230D01*
X018859Y025153D01*
X019090Y025384D02*
X019166Y025460D01*
X019320Y025460D01*
X019397Y025384D01*
X019397Y025307D01*
X019320Y025230D01*
X019397Y025153D01*
X019397Y025077D01*
X019320Y025230D02*
X019243Y025230D01*
X019277Y026700D02*
X019200Y026777D01*
X019200Y027084D01*
X019277Y027160D01*
X019430Y027160D01*
X019507Y027084D01*
X019660Y027084D02*
X019737Y027160D01*
X019891Y027160D01*
X019967Y027084D01*
X019967Y027007D01*
X019891Y026930D01*
X019967Y026853D01*
X019967Y026777D01*
X019891Y026700D01*
X019737Y026700D01*
X019660Y026777D01*
X019507Y026777D02*
X019430Y026700D01*
X019277Y026700D01*
X019814Y026930D02*
X019891Y026930D01*
X020121Y026930D02*
X020428Y026930D01*
X020351Y026700D02*
X020351Y027160D01*
X020121Y026930D01*
X016717Y025834D02*
X016641Y025910D01*
X016487Y025910D01*
X016410Y025834D01*
X016257Y025834D02*
X016257Y025527D01*
X016180Y025450D01*
X016027Y025450D01*
X015950Y025527D01*
X015950Y025834D01*
X016027Y025910D01*
X016180Y025910D01*
X016257Y025834D01*
X016103Y025603D02*
X016257Y025450D01*
X016410Y025450D02*
X016717Y025757D01*
X016717Y025834D01*
X016717Y025450D02*
X016410Y025450D01*
X015117Y026280D02*
X014810Y026280D01*
X015041Y026510D01*
X015041Y026050D01*
X014657Y026050D02*
X014503Y026203D01*
X014580Y026203D02*
X014350Y026203D01*
X014350Y026050D02*
X014350Y026510D01*
X014580Y026510D01*
X014657Y026434D01*
X014657Y026280D01*
X014580Y026203D01*
X026500Y017470D02*
X026500Y017240D01*
X026960Y017240D01*
X026807Y017240D02*
X026807Y017470D01*
X026730Y017547D01*
X026576Y017547D01*
X026500Y017470D01*
X026807Y017393D02*
X026960Y017547D01*
X026883Y017086D02*
X026576Y017086D01*
X026500Y017009D01*
X026500Y016856D01*
X026576Y016779D01*
X026883Y016779D01*
X026960Y016856D01*
X026960Y017009D01*
X026883Y017086D01*
X026883Y016626D02*
X026960Y016549D01*
X026960Y016396D01*
X026883Y016319D01*
X026730Y016396D02*
X026730Y016549D01*
X026807Y016626D01*
X026883Y016626D01*
X026730Y016396D02*
X026653Y016319D01*
X026576Y016319D01*
X026500Y016396D01*
X026500Y016549D01*
X026576Y016626D01*
X026500Y016165D02*
X026960Y016165D01*
X026500Y015858D01*
X026960Y015858D01*
X026960Y015705D02*
X026960Y015398D01*
X026500Y015398D01*
X026500Y015705D01*
X026730Y015551D02*
X026730Y015398D01*
X026807Y015245D02*
X026730Y015168D01*
X026730Y015014D01*
X026653Y014938D01*
X026576Y014938D01*
X026500Y015014D01*
X026500Y015168D01*
X026576Y015245D01*
X026807Y015245D02*
X026883Y015245D01*
X026960Y015168D01*
X026960Y015014D01*
X026883Y014938D01*
X022060Y010070D02*
X021600Y010070D01*
X021830Y009840D01*
X021830Y010147D01*
X021753Y009686D02*
X021676Y009686D01*
X021600Y009609D01*
X021600Y009456D01*
X021676Y009379D01*
X021676Y009226D02*
X021600Y009149D01*
X021600Y008996D01*
X021676Y008919D01*
X021983Y008919D01*
X022060Y008996D01*
X022060Y009149D01*
X021983Y009226D01*
X022060Y009379D02*
X021753Y009686D01*
X022060Y009686D02*
X022060Y009379D01*
X021070Y010500D02*
X020916Y010500D01*
X020840Y010577D01*
X020686Y010500D02*
X020379Y010500D01*
X020686Y010807D01*
X020686Y010884D01*
X020609Y010960D01*
X020456Y010960D01*
X020379Y010884D01*
X020226Y010884D02*
X020149Y010960D01*
X019996Y010960D01*
X019919Y010884D01*
X019919Y010577D01*
X019996Y010500D01*
X020149Y010500D01*
X020226Y010577D01*
X020840Y010884D02*
X020916Y010960D01*
X021070Y010960D01*
X021147Y010884D01*
X021147Y010807D01*
X021070Y010730D01*
X021147Y010653D01*
X021147Y010577D01*
X021070Y010500D01*
X021070Y010730D02*
X020993Y010730D01*
D14*
X005980Y011180D02*
X005978Y011124D01*
X005972Y011068D01*
X005962Y011013D01*
X005949Y010959D01*
X005931Y010905D01*
X005910Y010853D01*
X005886Y010803D01*
X005857Y010754D01*
X005826Y010708D01*
X005791Y010664D01*
X005754Y010622D01*
X005713Y010584D01*
X005670Y010548D01*
X005625Y010515D01*
X005577Y010485D01*
X004380Y011180D02*
X004382Y011234D01*
X004387Y011287D01*
X004396Y011341D01*
X004409Y011393D01*
X004425Y011444D01*
X004445Y011495D01*
X004467Y011544D01*
X004493Y011591D01*
X004523Y011636D01*
X004555Y011679D01*
X004590Y011720D01*
X004628Y011759D01*
X004668Y011795D01*
X004380Y011180D02*
X004382Y011126D01*
X004387Y011072D01*
X004396Y011019D01*
X004409Y010966D01*
X004425Y010915D01*
X004445Y010865D01*
X004468Y010816D01*
X004494Y010768D01*
X004523Y010723D01*
X004556Y010680D01*
X004591Y010639D01*
X004629Y010600D01*
X004669Y010564D01*
X004712Y010531D01*
X004757Y010501D01*
X004804Y010474D01*
X005980Y011180D02*
X005978Y011233D01*
X005973Y011287D01*
X005964Y011339D01*
X005952Y011391D01*
X005936Y011442D01*
X005917Y011492D01*
X005894Y011541D01*
X005868Y011588D01*
X005840Y011633D01*
X005808Y011676D01*
X005774Y011716D01*
X005736Y011755D01*
X005697Y011791D01*
X005577Y013485D02*
X005625Y013515D01*
X005670Y013548D01*
X005713Y013584D01*
X005754Y013622D01*
X005791Y013664D01*
X005826Y013708D01*
X005857Y013754D01*
X005886Y013803D01*
X005910Y013853D01*
X005931Y013905D01*
X005949Y013959D01*
X005962Y014013D01*
X005972Y014068D01*
X005978Y014124D01*
X005980Y014180D01*
X004804Y013474D02*
X004757Y013501D01*
X004712Y013531D01*
X004669Y013564D01*
X004629Y013600D01*
X004591Y013639D01*
X004556Y013680D01*
X004523Y013723D01*
X004494Y013768D01*
X004468Y013816D01*
X004445Y013865D01*
X004425Y013915D01*
X004409Y013966D01*
X004396Y014019D01*
X004387Y014072D01*
X004382Y014126D01*
X004380Y014180D01*
X005697Y014791D02*
X005736Y014755D01*
X005774Y014716D01*
X005808Y014676D01*
X005840Y014633D01*
X005868Y014588D01*
X005894Y014541D01*
X005917Y014492D01*
X005936Y014442D01*
X005952Y014391D01*
X005964Y014339D01*
X005973Y014287D01*
X005978Y014233D01*
X005980Y014180D01*
X004668Y014795D02*
X004628Y014759D01*
X004590Y014720D01*
X004555Y014679D01*
X004523Y014636D01*
X004493Y014591D01*
X004467Y014544D01*
X004445Y014495D01*
X004425Y014444D01*
X004409Y014393D01*
X004396Y014341D01*
X004387Y014287D01*
X004382Y014234D01*
X004380Y014180D01*
X005577Y016485D02*
X005625Y016515D01*
X005670Y016548D01*
X005713Y016584D01*
X005754Y016622D01*
X005791Y016664D01*
X005826Y016708D01*
X005857Y016754D01*
X005886Y016803D01*
X005910Y016853D01*
X005931Y016905D01*
X005949Y016959D01*
X005962Y017013D01*
X005972Y017068D01*
X005978Y017124D01*
X005980Y017180D01*
X004804Y016474D02*
X004757Y016501D01*
X004712Y016531D01*
X004669Y016564D01*
X004629Y016600D01*
X004591Y016639D01*
X004556Y016680D01*
X004523Y016723D01*
X004494Y016768D01*
X004468Y016816D01*
X004445Y016865D01*
X004425Y016915D01*
X004409Y016966D01*
X004396Y017019D01*
X004387Y017072D01*
X004382Y017126D01*
X004380Y017180D01*
X005697Y017791D02*
X005736Y017755D01*
X005774Y017716D01*
X005808Y017676D01*
X005840Y017633D01*
X005868Y017588D01*
X005894Y017541D01*
X005917Y017492D01*
X005936Y017442D01*
X005952Y017391D01*
X005964Y017339D01*
X005973Y017287D01*
X005978Y017233D01*
X005980Y017180D01*
X004668Y017795D02*
X004628Y017759D01*
X004590Y017720D01*
X004555Y017679D01*
X004523Y017636D01*
X004493Y017591D01*
X004467Y017544D01*
X004445Y017495D01*
X004425Y017444D01*
X004409Y017393D01*
X004396Y017341D01*
X004387Y017287D01*
X004382Y017234D01*
X004380Y017180D01*
X005577Y019485D02*
X005625Y019515D01*
X005670Y019548D01*
X005713Y019584D01*
X005754Y019622D01*
X005791Y019664D01*
X005826Y019708D01*
X005857Y019754D01*
X005886Y019803D01*
X005910Y019853D01*
X005931Y019905D01*
X005949Y019959D01*
X005962Y020013D01*
X005972Y020068D01*
X005978Y020124D01*
X005980Y020180D01*
X004804Y019474D02*
X004757Y019501D01*
X004712Y019531D01*
X004669Y019564D01*
X004629Y019600D01*
X004591Y019639D01*
X004556Y019680D01*
X004523Y019723D01*
X004494Y019768D01*
X004468Y019816D01*
X004445Y019865D01*
X004425Y019915D01*
X004409Y019966D01*
X004396Y020019D01*
X004387Y020072D01*
X004382Y020126D01*
X004380Y020180D01*
X005697Y020791D02*
X005736Y020755D01*
X005774Y020716D01*
X005808Y020676D01*
X005840Y020633D01*
X005868Y020588D01*
X005894Y020541D01*
X005917Y020492D01*
X005936Y020442D01*
X005952Y020391D01*
X005964Y020339D01*
X005973Y020287D01*
X005978Y020233D01*
X005980Y020180D01*
X004668Y020795D02*
X004628Y020759D01*
X004590Y020720D01*
X004555Y020679D01*
X004523Y020636D01*
X004493Y020591D01*
X004467Y020544D01*
X004445Y020495D01*
X004425Y020444D01*
X004409Y020393D01*
X004396Y020341D01*
X004387Y020287D01*
X004382Y020234D01*
X004380Y020180D01*
X005577Y022485D02*
X005625Y022515D01*
X005670Y022548D01*
X005713Y022584D01*
X005754Y022622D01*
X005791Y022664D01*
X005826Y022708D01*
X005857Y022754D01*
X005886Y022803D01*
X005910Y022853D01*
X005931Y022905D01*
X005949Y022959D01*
X005962Y023013D01*
X005972Y023068D01*
X005978Y023124D01*
X005980Y023180D01*
X004804Y022474D02*
X004757Y022501D01*
X004712Y022531D01*
X004669Y022564D01*
X004629Y022600D01*
X004591Y022639D01*
X004556Y022680D01*
X004523Y022723D01*
X004494Y022768D01*
X004468Y022816D01*
X004445Y022865D01*
X004425Y022915D01*
X004409Y022966D01*
X004396Y023019D01*
X004387Y023072D01*
X004382Y023126D01*
X004380Y023180D01*
X005697Y023791D02*
X005736Y023755D01*
X005774Y023716D01*
X005808Y023676D01*
X005840Y023633D01*
X005868Y023588D01*
X005894Y023541D01*
X005917Y023492D01*
X005936Y023442D01*
X005952Y023391D01*
X005964Y023339D01*
X005973Y023287D01*
X005978Y023233D01*
X005980Y023180D01*
X004668Y023795D02*
X004628Y023759D01*
X004590Y023720D01*
X004555Y023679D01*
X004523Y023636D01*
X004493Y023591D01*
X004467Y023544D01*
X004445Y023495D01*
X004425Y023444D01*
X004409Y023393D01*
X004396Y023341D01*
X004387Y023287D01*
X004382Y023234D01*
X004380Y023180D01*
X005577Y025485D02*
X005625Y025515D01*
X005670Y025548D01*
X005713Y025584D01*
X005754Y025622D01*
X005791Y025664D01*
X005826Y025708D01*
X005857Y025754D01*
X005886Y025803D01*
X005910Y025853D01*
X005931Y025905D01*
X005949Y025959D01*
X005962Y026013D01*
X005972Y026068D01*
X005978Y026124D01*
X005980Y026180D01*
X004804Y025474D02*
X004757Y025501D01*
X004712Y025531D01*
X004669Y025564D01*
X004629Y025600D01*
X004591Y025639D01*
X004556Y025680D01*
X004523Y025723D01*
X004494Y025768D01*
X004468Y025816D01*
X004445Y025865D01*
X004425Y025915D01*
X004409Y025966D01*
X004396Y026019D01*
X004387Y026072D01*
X004382Y026126D01*
X004380Y026180D01*
X005697Y026791D02*
X005736Y026755D01*
X005774Y026716D01*
X005808Y026676D01*
X005840Y026633D01*
X005868Y026588D01*
X005894Y026541D01*
X005917Y026492D01*
X005936Y026442D01*
X005952Y026391D01*
X005964Y026339D01*
X005973Y026287D01*
X005978Y026233D01*
X005980Y026180D01*
X004668Y026795D02*
X004628Y026759D01*
X004590Y026720D01*
X004555Y026679D01*
X004523Y026636D01*
X004493Y026591D01*
X004467Y026544D01*
X004445Y026495D01*
X004425Y026444D01*
X004409Y026393D01*
X004396Y026341D01*
X004387Y026287D01*
X004382Y026234D01*
X004380Y026180D01*
X004380Y008180D02*
X004382Y008126D01*
X004387Y008072D01*
X004396Y008019D01*
X004409Y007966D01*
X004425Y007915D01*
X004445Y007865D01*
X004468Y007816D01*
X004494Y007768D01*
X004523Y007723D01*
X004556Y007680D01*
X004591Y007639D01*
X004629Y007600D01*
X004669Y007564D01*
X004712Y007531D01*
X004757Y007501D01*
X004804Y007474D01*
X005577Y007485D02*
X005625Y007515D01*
X005670Y007548D01*
X005713Y007584D01*
X005754Y007622D01*
X005791Y007664D01*
X005826Y007708D01*
X005857Y007754D01*
X005886Y007803D01*
X005910Y007853D01*
X005931Y007905D01*
X005949Y007959D01*
X005962Y008013D01*
X005972Y008068D01*
X005978Y008124D01*
X005980Y008180D01*
X005978Y008233D01*
X005973Y008287D01*
X005964Y008339D01*
X005952Y008391D01*
X005936Y008442D01*
X005917Y008492D01*
X005894Y008541D01*
X005868Y008588D01*
X005840Y008633D01*
X005808Y008676D01*
X005774Y008716D01*
X005736Y008755D01*
X005697Y008791D01*
X004668Y008795D02*
X004628Y008759D01*
X004590Y008720D01*
X004555Y008679D01*
X004523Y008636D01*
X004493Y008591D01*
X004467Y008544D01*
X004445Y008495D01*
X004425Y008444D01*
X004409Y008393D01*
X004396Y008341D01*
X004387Y008287D01*
X004382Y008234D01*
X004380Y008180D01*
X004380Y005180D02*
X004382Y005126D01*
X004387Y005072D01*
X004396Y005019D01*
X004409Y004966D01*
X004425Y004915D01*
X004445Y004865D01*
X004468Y004816D01*
X004494Y004768D01*
X004523Y004723D01*
X004556Y004680D01*
X004591Y004639D01*
X004629Y004600D01*
X004669Y004564D01*
X004712Y004531D01*
X004757Y004501D01*
X004804Y004474D01*
X005577Y004485D02*
X005625Y004515D01*
X005670Y004548D01*
X005713Y004584D01*
X005754Y004622D01*
X005791Y004664D01*
X005826Y004708D01*
X005857Y004754D01*
X005886Y004803D01*
X005910Y004853D01*
X005931Y004905D01*
X005949Y004959D01*
X005962Y005013D01*
X005972Y005068D01*
X005978Y005124D01*
X005980Y005180D01*
X005978Y005233D01*
X005973Y005287D01*
X005964Y005339D01*
X005952Y005391D01*
X005936Y005442D01*
X005917Y005492D01*
X005894Y005541D01*
X005868Y005588D01*
X005840Y005633D01*
X005808Y005676D01*
X005774Y005716D01*
X005736Y005755D01*
X005697Y005791D01*
X004668Y005795D02*
X004628Y005759D01*
X004590Y005720D01*
X004555Y005679D01*
X004523Y005636D01*
X004493Y005591D01*
X004467Y005544D01*
X004445Y005495D01*
X004425Y005444D01*
X004409Y005393D01*
X004396Y005341D01*
X004387Y005287D01*
X004382Y005234D01*
X004380Y005180D01*
X004380Y002180D02*
X004382Y002126D01*
X004387Y002072D01*
X004396Y002019D01*
X004409Y001966D01*
X004425Y001915D01*
X004445Y001865D01*
X004468Y001816D01*
X004494Y001768D01*
X004523Y001723D01*
X004556Y001680D01*
X004591Y001639D01*
X004629Y001600D01*
X004669Y001564D01*
X004712Y001531D01*
X004757Y001501D01*
X004804Y001474D01*
X005577Y001485D02*
X005625Y001515D01*
X005670Y001548D01*
X005713Y001584D01*
X005754Y001622D01*
X005791Y001664D01*
X005826Y001708D01*
X005857Y001754D01*
X005886Y001803D01*
X005910Y001853D01*
X005931Y001905D01*
X005949Y001959D01*
X005962Y002013D01*
X005972Y002068D01*
X005978Y002124D01*
X005980Y002180D01*
X005978Y002233D01*
X005973Y002287D01*
X005964Y002339D01*
X005952Y002391D01*
X005936Y002442D01*
X005917Y002492D01*
X005894Y002541D01*
X005868Y002588D01*
X005840Y002633D01*
X005808Y002676D01*
X005774Y002716D01*
X005736Y002755D01*
X005697Y002791D01*
X004668Y002795D02*
X004628Y002759D01*
X004590Y002720D01*
X004555Y002679D01*
X004523Y002636D01*
X004493Y002591D01*
X004467Y002544D01*
X004445Y002495D01*
X004425Y002444D01*
X004409Y002393D01*
X004396Y002341D01*
X004387Y002287D01*
X004382Y002234D01*
X004380Y002180D01*
D15*
X004455Y003255D02*
X004905Y003255D01*
X004905Y003555D01*
X004830Y003715D02*
X004905Y003790D01*
X004905Y003941D01*
X004830Y004016D01*
X004530Y004016D01*
X004455Y003941D01*
X004455Y003790D01*
X004530Y003715D01*
X004605Y003715D01*
X004680Y003790D01*
X004680Y004016D01*
X006193Y004035D02*
X006803Y004035D01*
X006803Y003832D02*
X006803Y004239D01*
X006396Y003832D02*
X006193Y004035D01*
X005005Y006155D02*
X004555Y006155D01*
X005005Y006155D02*
X005005Y006455D01*
X004930Y006615D02*
X004855Y006615D01*
X004780Y006690D01*
X004780Y006841D01*
X004855Y006916D01*
X004930Y006916D01*
X005005Y006841D01*
X005005Y006690D01*
X004930Y006615D01*
X004780Y006690D02*
X004705Y006615D01*
X004630Y006615D01*
X004555Y006690D01*
X004555Y006841D01*
X004630Y006916D01*
X004705Y006916D01*
X004780Y006841D01*
X006193Y007035D02*
X006396Y006832D01*
X006193Y007035D02*
X006803Y007035D01*
X006803Y006832D02*
X006803Y007239D01*
X004905Y009255D02*
X004905Y009555D01*
X004905Y009715D02*
X004830Y009715D01*
X004530Y010016D01*
X004455Y010016D01*
X004455Y009715D01*
X004455Y009255D02*
X004905Y009255D01*
X006193Y010035D02*
X006803Y010035D01*
X006803Y009832D02*
X006803Y010239D01*
X006396Y009832D02*
X006193Y010035D01*
X004905Y012255D02*
X004455Y012255D01*
X004905Y012255D02*
X004905Y012555D01*
X004830Y012715D02*
X004680Y012715D01*
X004680Y012941D01*
X004755Y013016D01*
X004830Y013016D01*
X004905Y012941D01*
X004905Y012790D01*
X004830Y012715D01*
X004680Y012715D02*
X004530Y012866D01*
X004455Y013016D01*
X003455Y012951D02*
X003380Y012876D01*
X003305Y012876D01*
X003230Y012951D01*
X003230Y013101D01*
X003305Y013176D01*
X003380Y013176D01*
X003455Y013101D01*
X003455Y012951D01*
X003230Y012951D02*
X003155Y012876D01*
X003080Y012876D01*
X003005Y012951D01*
X003005Y013101D01*
X003080Y013176D01*
X003155Y013176D01*
X003230Y013101D01*
X003455Y012716D02*
X003455Y012415D01*
X003455Y012566D02*
X003005Y012566D01*
X003155Y012415D01*
X003080Y012255D02*
X003005Y012180D01*
X003005Y012030D01*
X003080Y011955D01*
X003380Y011955D01*
X003455Y012030D01*
X003455Y012180D01*
X003380Y012255D01*
X003080Y012255D01*
X003305Y012105D02*
X003455Y012255D01*
X006193Y013035D02*
X006396Y012832D01*
X006193Y013035D02*
X006803Y013035D01*
X006803Y012832D02*
X006803Y013239D01*
X005005Y015155D02*
X005005Y015455D01*
X004930Y015615D02*
X005005Y015690D01*
X005005Y015841D01*
X004930Y015916D01*
X004780Y015916D01*
X004705Y015841D01*
X004705Y015766D01*
X004780Y015615D01*
X004555Y015615D01*
X004555Y015916D01*
X004555Y015155D02*
X005005Y015155D01*
X006193Y016035D02*
X006396Y015832D01*
X006193Y016035D02*
X006803Y016035D01*
X006803Y015832D02*
X006803Y016239D01*
X005005Y018155D02*
X005005Y018455D01*
X004780Y018615D02*
X004780Y018916D01*
X005005Y018841D02*
X004555Y018841D01*
X004780Y018615D01*
X004555Y018155D02*
X005005Y018155D01*
X006193Y019035D02*
X006803Y019035D01*
X006803Y018832D02*
X006803Y019239D01*
X006396Y018832D02*
X006193Y019035D01*
X005005Y021155D02*
X004555Y021155D01*
X005005Y021155D02*
X005005Y021455D01*
X004930Y021615D02*
X005005Y021690D01*
X005005Y021841D01*
X004930Y021916D01*
X004855Y021916D01*
X004780Y021841D01*
X004780Y021766D01*
X004780Y021841D02*
X004705Y021916D01*
X004630Y021916D01*
X004555Y021841D01*
X004555Y021690D01*
X004630Y021615D01*
X003405Y021370D02*
X003405Y021220D01*
X003330Y021145D01*
X003180Y021145D01*
X003180Y021370D01*
X003255Y021445D01*
X003330Y021445D01*
X003405Y021370D01*
X003180Y021145D02*
X003030Y021295D01*
X002955Y021445D01*
X003930Y023324D02*
X004005Y023324D01*
X004080Y023399D01*
X004080Y023549D01*
X004155Y023624D01*
X004230Y023624D01*
X004305Y023549D01*
X004305Y023399D01*
X004230Y023324D01*
X003930Y023324D02*
X003855Y023399D01*
X003855Y023549D01*
X003930Y023624D01*
X003855Y023784D02*
X004155Y023784D01*
X004305Y023934D01*
X004155Y024084D01*
X003855Y024084D01*
X004005Y024245D02*
X003855Y024395D01*
X004305Y024395D01*
X004305Y024245D02*
X004305Y024545D01*
X004555Y024690D02*
X004555Y024841D01*
X004630Y024916D01*
X004705Y024916D01*
X005005Y024615D01*
X005005Y024916D01*
X004630Y024615D02*
X004555Y024690D01*
X005005Y024455D02*
X005005Y024155D01*
X004555Y024155D01*
X006193Y025035D02*
X006803Y025035D01*
X006803Y024832D02*
X006803Y025239D01*
X006396Y024832D02*
X006193Y025035D01*
X005005Y027155D02*
X004555Y027155D01*
X005005Y027155D02*
X005005Y027455D01*
X005005Y027615D02*
X005005Y027916D01*
X005005Y027766D02*
X004555Y027766D01*
X004705Y027615D01*
X001505Y024295D02*
X001505Y023995D01*
X001505Y024145D02*
X001055Y024145D01*
X001205Y023995D01*
X006193Y022035D02*
X006396Y021832D01*
X006193Y022035D02*
X006803Y022035D01*
X006803Y021832D02*
X006803Y022239D01*
X012134Y025680D02*
X012209Y025605D01*
X012359Y025605D01*
X012434Y025680D01*
X012434Y025980D01*
X012359Y026055D01*
X012209Y026055D01*
X012134Y025980D01*
X012134Y025680D01*
X012284Y025755D02*
X012434Y025605D01*
X012595Y025830D02*
X012895Y025830D01*
X012820Y025605D02*
X012820Y026055D01*
X012595Y025830D01*
X012749Y013855D02*
X012899Y013855D01*
X012974Y013780D01*
X012974Y013480D01*
X012899Y013405D01*
X012749Y013405D01*
X012674Y013480D01*
X012674Y013780D01*
X012749Y013855D01*
X012824Y013555D02*
X012974Y013405D01*
X013134Y013405D02*
X013434Y013405D01*
X013284Y013405D02*
X013284Y013855D01*
X013134Y013705D01*
X013595Y013780D02*
X013595Y013480D01*
X013895Y013780D01*
X013895Y013480D01*
X013820Y013405D01*
X013670Y013405D01*
X013595Y013480D01*
X013595Y013780D02*
X013670Y013855D01*
X013820Y013855D01*
X013895Y013780D01*
X013720Y010955D02*
X013570Y010955D01*
X013495Y010880D01*
X013720Y010955D02*
X013795Y010880D01*
X013795Y010805D01*
X013495Y010505D01*
X013795Y010505D01*
X013334Y010505D02*
X013034Y010505D01*
X013184Y010505D02*
X013184Y010955D01*
X013034Y010805D01*
X012874Y010880D02*
X012874Y010580D01*
X012799Y010505D01*
X012649Y010505D01*
X012574Y010580D01*
X012574Y010880D01*
X012649Y010955D01*
X012799Y010955D01*
X012874Y010880D01*
X012724Y010655D02*
X012874Y010505D01*
D16*
X009138Y010731D02*
X009138Y008629D01*
X005874Y008629D01*
X005874Y010731D01*
X009138Y010731D01*
X009138Y011629D02*
X009138Y013731D01*
X005874Y013731D01*
X005874Y011629D01*
X009138Y011629D01*
X009138Y014629D02*
X009138Y016731D01*
X005874Y016731D01*
X005874Y014629D01*
X009138Y014629D01*
X009138Y017629D02*
X005874Y017629D01*
X005874Y019731D01*
X009138Y019731D01*
X009138Y017629D01*
X009138Y020629D02*
X009138Y022731D01*
X005874Y022731D01*
X005874Y020629D01*
X009138Y020629D01*
X009138Y023629D02*
X009138Y025731D01*
X005874Y025731D01*
X005874Y023629D01*
X009138Y023629D01*
X023026Y017617D02*
X023026Y014421D01*
X023026Y012939D01*
X023637Y012939D01*
X023637Y014421D01*
X023026Y014421D01*
X023391Y014421D02*
X023391Y017174D01*
X025969Y017174D01*
X025969Y010186D01*
X023391Y010186D01*
X023391Y012939D01*
X023026Y012939D02*
X023026Y011924D01*
X023145Y011924D01*
X023145Y011342D01*
X023026Y011342D01*
X023026Y009743D01*
X026334Y009743D01*
X026334Y017617D01*
X023026Y017617D01*
X009138Y007731D02*
X009138Y005629D01*
X005874Y005629D01*
X005874Y007731D01*
X009138Y007731D01*
X009138Y004731D02*
X005874Y004731D01*
X005874Y002629D01*
X009138Y002629D01*
X009138Y004731D01*
M02*
