%TF.GenerationSoftware,KiCad,Pcbnew,7.0.7-7.0.7~ubuntu22.04.1*%
%TF.CreationDate,2023-09-24T13:34:39+02:00*%
%TF.ProjectId,Regbot,52656762-6f74-42e6-9b69-6361645f7063,v5.0*%
%TF.SameCoordinates,Original*%
%TF.FileFunction,Plated,1,2,PTH,Drill*%
%TF.FilePolarity,Positive*%
%FSLAX46Y46*%
G04 Gerber Fmt 4.6, Leading zero omitted, Abs format (unit mm)*
G04 Created by KiCad (PCBNEW 7.0.7-7.0.7~ubuntu22.04.1) date 2023-09-24 13:34:39*
%MOMM*%
%LPD*%
G01*
G04 APERTURE LIST*
%TA.AperFunction,ViaDrill*%
%ADD10C,0.400000*%
%TD*%
%TA.AperFunction,ViaDrill*%
%ADD11C,0.700000*%
%TD*%
%TA.AperFunction,ComponentDrill*%
%ADD12C,0.750000*%
%TD*%
%TA.AperFunction,ComponentDrill*%
%ADD13C,0.800000*%
%TD*%
%TA.AperFunction,ComponentDrill*%
%ADD14C,0.920000*%
%TD*%
%TA.AperFunction,ComponentDrill*%
%ADD15C,1.000000*%
%TD*%
%TA.AperFunction,ComponentDrill*%
%ADD16C,1.016000*%
%TD*%
%TA.AperFunction,ComponentDrill*%
%ADD17C,1.100000*%
%TD*%
%TA.AperFunction,ComponentDrill*%
%ADD18C,1.850000*%
%TD*%
%TA.AperFunction,ComponentDrill*%
%ADD19C,2.330000*%
%TD*%
%TA.AperFunction,ComponentDrill*%
%ADD20C,4.499990*%
%TD*%
G04 APERTURE END LIST*
D10*
X104140000Y-99060000D03*
X104753706Y-116658675D03*
X106680000Y-99060000D03*
X107498080Y-117961896D03*
X110122406Y-99165418D03*
X111760000Y-58420000D03*
X111760000Y-60960000D03*
X112767672Y-99142009D03*
X114103480Y-104682403D03*
X114225404Y-100794377D03*
X114523268Y-115726253D03*
X114799629Y-119156386D03*
X117694910Y-145188354D03*
X118912710Y-97163747D03*
X120570706Y-119774135D03*
X120813478Y-95839092D03*
X121920000Y-111760000D03*
X124460000Y-129540000D03*
X124893150Y-115540852D03*
X127000000Y-89169589D03*
X127333426Y-96853426D03*
X127699500Y-90487977D03*
X129235621Y-99995097D03*
X129674375Y-113011409D03*
X130767455Y-123649766D03*
X131261431Y-138306986D03*
X132480478Y-100312712D03*
X133787960Y-129643543D03*
X134112587Y-108638164D03*
X134782061Y-126614255D03*
X136697020Y-99023893D03*
X136699778Y-100187210D03*
X136992743Y-123886469D03*
X137173668Y-92720799D03*
X137226230Y-110492224D03*
X138527960Y-95930267D03*
X139700000Y-104140000D03*
X140025712Y-100322135D03*
X142207891Y-95419166D03*
X142240000Y-139700000D03*
X142240000Y-144780000D03*
X142278659Y-92643491D03*
X142888571Y-124850331D03*
X143773165Y-91822201D03*
X144049433Y-90529672D03*
X144310438Y-124426265D03*
X147320000Y-58420000D03*
X147320000Y-60960000D03*
X147320000Y-144780000D03*
X147684714Y-94761602D03*
X149177342Y-94852613D03*
X149817475Y-133368352D03*
X150587223Y-126799501D03*
X151375240Y-91160154D03*
X152243645Y-97284211D03*
X154088999Y-95668999D03*
X154147224Y-143661391D03*
X154940000Y-58420000D03*
X154940000Y-60960000D03*
X155183143Y-94453284D03*
X156003750Y-96459214D03*
X157480000Y-144780000D03*
X158402701Y-134119744D03*
X158488199Y-96576672D03*
X160020000Y-111760000D03*
X160020000Y-127000000D03*
X160441110Y-91809104D03*
X160850196Y-149894580D03*
X164378684Y-130815890D03*
X165100000Y-137160000D03*
X166750136Y-135887550D03*
X170174100Y-144584600D03*
X170180000Y-111760000D03*
X170180000Y-121920000D03*
X172732278Y-106586438D03*
X175260000Y-106680000D03*
X176375589Y-104231178D03*
X181295677Y-121993420D03*
X185420000Y-139700000D03*
X186557203Y-104231178D03*
X187960000Y-121920000D03*
X190500000Y-66040000D03*
X190500000Y-111760000D03*
X191269332Y-107298009D03*
X193040000Y-66040000D03*
X195580000Y-101600000D03*
D11*
X103253760Y-89401745D03*
X104492444Y-90287639D03*
X115081212Y-102083710D03*
X115562203Y-87825951D03*
X115624921Y-89237110D03*
X120811648Y-100437102D03*
X129573731Y-95116996D03*
X130639487Y-93979500D03*
X146418660Y-93129609D03*
X186626500Y-147320000D03*
D12*
%TO.C,J5*%
X103194929Y-96020960D03*
X105194929Y-96020960D03*
X107194929Y-96020960D03*
X109194929Y-96020960D03*
%TO.C,J6*%
X117142000Y-127804000D03*
%TO.C,J3*%
X117142000Y-134662000D03*
%TO.C,J6*%
X119142000Y-127804000D03*
%TO.C,J3*%
X119142000Y-134662000D03*
%TO.C,J6*%
X121142000Y-127804000D03*
%TO.C,J3*%
X121142000Y-134662000D03*
%TO.C,J6*%
X123142000Y-127804000D03*
%TO.C,J3*%
X123142000Y-134662000D03*
%TO.C,J4*%
X130998719Y-126865013D03*
X130998719Y-128865013D03*
X130998719Y-130865013D03*
X130998719Y-132865013D03*
X130998719Y-134865013D03*
%TO.C,J1*%
X150230982Y-69623706D03*
%TO.C,J8*%
X151158828Y-78885885D03*
%TO.C,J15*%
X151702000Y-141224000D03*
%TO.C,J1*%
X152230982Y-69623706D03*
%TO.C,J8*%
X153158828Y-78885885D03*
%TO.C,J15*%
X153702000Y-141224000D03*
%TO.C,J7*%
X154236574Y-84829785D03*
%TO.C,J8*%
X155158828Y-78885885D03*
%TO.C,J15*%
X155702000Y-141224000D03*
%TO.C,J7*%
X156236574Y-84829785D03*
%TO.C,J8*%
X157158828Y-78885885D03*
%TO.C,J7*%
X158236574Y-84829785D03*
X160236574Y-84829785D03*
%TO.C,J16*%
X161100000Y-141224000D03*
%TO.C,J2*%
X161891586Y-96582090D03*
%TO.C,J16*%
X163100000Y-141224000D03*
%TO.C,J2*%
X163891586Y-96582090D03*
%TO.C,J16*%
X165100000Y-141224000D03*
D13*
%TO.C,L2*%
X118726791Y-99432731D03*
X123806791Y-99432731D03*
%TO.C,L1*%
X146136738Y-89425188D03*
X151216738Y-89425188D03*
D14*
%TO.C,J12*%
X165672946Y-80580453D03*
X165672946Y-83080453D03*
X165672946Y-85080453D03*
X165672946Y-87580453D03*
D15*
%TO.C,J10*%
X104666376Y-129215004D03*
X104666376Y-131755004D03*
X104666376Y-134295004D03*
X107206376Y-129215004D03*
X107206376Y-131755004D03*
X107206376Y-134295004D03*
%TO.C,J9*%
X125379151Y-77672566D03*
X125379151Y-80212566D03*
X125379151Y-82752566D03*
X125379151Y-85292566D03*
X125379151Y-87832566D03*
X125379151Y-90372566D03*
%TO.C,J13*%
X135121037Y-77725186D03*
X135121037Y-80265186D03*
X135121037Y-82805186D03*
X135121037Y-85345186D03*
X135121037Y-87885186D03*
X135121037Y-90425186D03*
%TO.C,U9*%
X139700000Y-127000000D03*
X139700000Y-129540000D03*
X139700000Y-132080000D03*
X139700000Y-134620000D03*
%TO.C,J14*%
X175289069Y-97464677D03*
X175289069Y-100004677D03*
%TO.C,J11*%
X177486357Y-86457326D03*
X177486357Y-88997326D03*
%TO.C,J14*%
X177829069Y-97464677D03*
X177829069Y-100004677D03*
%TO.C,J11*%
X180026357Y-86457326D03*
X180026357Y-88997326D03*
%TO.C,J14*%
X180369069Y-97464677D03*
X180369069Y-100004677D03*
%TO.C,J11*%
X182566357Y-86457326D03*
X182566357Y-88997326D03*
%TO.C,J14*%
X182909069Y-97464677D03*
X182909069Y-100004677D03*
X185449069Y-97464677D03*
X185449069Y-100004677D03*
%TO.C,JP1*%
X193040000Y-76200000D03*
X193040000Y-78740000D03*
D16*
%TO.C,SERVO4*%
X101150083Y-68488425D03*
%TO.C,SERVO3*%
X101150083Y-74445616D03*
%TO.C,SERVO2*%
X101150083Y-80402807D03*
%TO.C,SERVO1*%
X101150083Y-86360000D03*
%TO.C,SERVO4*%
X103690083Y-68488425D03*
%TO.C,SERVO3*%
X103690083Y-74445616D03*
%TO.C,SERVO2*%
X103690083Y-80402807D03*
%TO.C,SERVO1*%
X103690083Y-86360000D03*
%TO.C,SERVO4*%
X106230083Y-68488425D03*
%TO.C,SERVO3*%
X106230083Y-74445616D03*
%TO.C,SERVO2*%
X106230083Y-80402807D03*
%TO.C,SERVO1*%
X106230083Y-86360000D03*
D17*
%TO.C,U1*%
X101600000Y-106680000D03*
X101600000Y-121920000D03*
X104140000Y-106680000D03*
X104140000Y-121920000D03*
X106680000Y-106680000D03*
X106680000Y-121920000D03*
X109220000Y-106680000D03*
X109220000Y-121920000D03*
X111760000Y-106680000D03*
X111760000Y-121920000D03*
X114300000Y-106680000D03*
X114300000Y-121920000D03*
X116840000Y-106680000D03*
X116840000Y-121920000D03*
X119380000Y-106680000D03*
X119380000Y-121920000D03*
X121920000Y-106680000D03*
X121920000Y-121920000D03*
X124460000Y-106680000D03*
X124460000Y-121920000D03*
X127000000Y-106680000D03*
X127000000Y-121920000D03*
X129540000Y-106680000D03*
X129540000Y-121920000D03*
X132080000Y-106680000D03*
X132080000Y-121920000D03*
X134620000Y-106680000D03*
X134620000Y-121920000D03*
X137160000Y-106680000D03*
X137160000Y-121920000D03*
X139700000Y-106680000D03*
X139700000Y-121920000D03*
X142240000Y-106680000D03*
X142240000Y-121920000D03*
X143560800Y-109730800D03*
X144780000Y-106680000D03*
X144780000Y-121920000D03*
X146100800Y-109730800D03*
X147320000Y-106680000D03*
X147320000Y-121920000D03*
X148640800Y-109730800D03*
X149860000Y-106680000D03*
X149860000Y-121920000D03*
X151180800Y-109730800D03*
X152400000Y-106680000D03*
X152400000Y-121920000D03*
X153720800Y-109730800D03*
X154940000Y-106680000D03*
X154940000Y-121920000D03*
X157480000Y-106680000D03*
X157480000Y-121920000D03*
X160020000Y-106680000D03*
X160020000Y-121920000D03*
D18*
%TO.C,SWITCH1*%
X169710100Y-139928600D03*
X173520100Y-139928600D03*
X177330100Y-139928600D03*
X190030100Y-137388600D03*
X190030100Y-142468600D03*
D19*
%TO.C,J12*%
X168672946Y-77510453D03*
X168672946Y-90650453D03*
D20*
%TO.C,POWER1*%
X183794400Y-129540000D03*
X191294409Y-129540000D03*
M02*
