M48
INCH,TZ
T1C0.0118
T2C0.0157
T3C0.0177
T4C0.0295
T5C0.0354
T6C0.0362
T7C0.0394
T8C0.0400
T9C0.0433
T10C0.0472
T11C0.0591
T12C0.0728
T13C0.0917
T14C0.1772
%
G90
G05
T1
X45460Y-26273
X45500Y-29400
X45750Y-29200
X47050Y-26350
X50697Y-26340
X52556Y-26240
X53292Y-33408
X53650Y-33400
T2
X40500Y-29100
X40500Y-38000
X40700Y-40900
X41000Y-26350
X41068Y-37518
X41300Y-45050
X41450Y-40900
X41500Y-29100
X41500Y-33600
X41500Y-35900
X41550Y-26950
X41825Y-38650
X42100Y-39050
X43100Y-29100
X43150Y-38300
X43200Y-26450
X43200Y-27550
X43350Y-31200
X43400Y-35900
X43526Y-26046
X43550Y-50100
X43550Y-50900
X43600Y-28750
X43800Y-28100
X43880Y-25760
X43944Y-50900
X44450Y-27200
X44450Y-27900
X44634Y-40874
X44641Y-41341
X44650Y-51350
X44850Y-27550
X45200Y-50700
X45300Y-38850
X45350Y-27550
X45450Y-31750
X45714Y-35614
X45850Y-27550
X46039Y-35289
X46050Y-38850
X46250Y-27200
X46250Y-27900
X46700Y-34400
X46900Y-28200
X46900Y-29350
X47400Y-40880
X47450Y-32300
X47559Y-29872
X47900Y-28850
X47960Y-52080
X48100Y-27300
X48200Y-45360
X48300Y-26200
X48434Y-38806
X48600Y-55600
X48600Y-56600
X48714Y-39086
X48750Y-25300
X48865Y-40079
X49204Y-28104
X49221Y-37999
X49300Y-29350
X49400Y-26200
X49439Y-39339
X49504Y-38281
X49600Y-25350
X49600Y-55600
X49600Y-56600
X49644Y-40238
X49759Y-39019
X49800Y-38540
X49970Y-31250
X49990Y-39890
X50000Y-25500
X50040Y-36620
X50050Y-25955
X50050Y-26950
X50150Y-29350
X50380Y-39640
X50400Y-25616
X50400Y-26750
X50518Y-29070
X50583Y-28663
X50800Y-22400
X50800Y-23300
X50950Y-27200
X50950Y-28150
X50950Y-48890
X51150Y-42959
X51320Y-31220
X51419Y-48884
X51494Y-46814
X51600Y-27200
X51600Y-27900
X52000Y-27550
X52000Y-47150
X52040Y-43100
X52040Y-45480
X52500Y-27550
X52700Y-48520
X52799Y-50651
X52950Y-32350
X53000Y-27550
X53015Y-51016
X53261Y-47361
X53316Y-43255
X53357Y-51210
X53400Y-27200
X53400Y-27900
X53650Y-42959
X53686Y-49814
X53750Y-29600
X53750Y-30150
X53750Y-31100
X53750Y-32100
X53750Y-32600
X53769Y-51231
X53821Y-41459
X54044Y-42959
X54050Y-28300
X54280Y-26120
X54633Y-38983
X54666Y-31130
X54671Y-42479
X54753Y-50390
X54780Y-28380
X54871Y-35569
X55150Y-38941
X55211Y-35909
X55300Y-24850
X55400Y-26120
X55500Y-55700
X55500Y-56500
X55579Y-35279
X55700Y-45100
X55857Y-35000
X56300Y-24250
X56320Y-27560
X56466Y-33260
X56721Y-35901
X56881Y-31016
X56900Y-50050
X56900Y-52500
X57486Y-39170
X57550Y-31350
X57700Y-52200
X58000Y-39170
X58024Y-37664
X58826Y-31100
X59050Y-56300
X59050Y-57050
X59139Y-34747
X59300Y-49100
X59434Y-30166
X59575Y-30875
X60000Y-49800
X60620Y-37780
X60650Y-41750
X60880Y-30546
X61200Y-57300
X61273Y-30539
X61516Y-29424
X61670Y-30536
X62039Y-54111
X62118Y-30561
X62166Y-55800
X62414Y-54486
X62700Y-49700
X62840Y-30020
X62950Y-55050
X63000Y-37750
X63026Y-53874
X63040Y-34360
X63050Y-56700
X63400Y-30067
X63400Y-30933
X63400Y-50400
X63450Y-59800
X63600Y-49700
X63600Y-54400
X63900Y-30067
X63900Y-30933
X63900Y-41484
X63950Y-59250
X64200Y-52870
X64300Y-37750
X64450Y-34700
X64534Y-52500
X64650Y-30000
X64650Y-30950
X64900Y-50950
X65025Y-46113
X65400Y-50750
X65400Y-51450
X65400Y-52850
X65400Y-53550
X65400Y-54700
X65400Y-45738
X65725Y-45413
X65900Y-55250
X66025Y-45063
X66340Y-46125
X66350Y-31350
X66350Y-34950
X66612Y-45753
X66981Y-45419
X67296Y-45081
X67350Y-31350
X67600Y-52100
X67784Y-34360
X67800Y-48480
X67900Y-32000
X68420Y-50470
X68640Y-48260
X68650Y-50150
X68650Y-58400
X68736Y-45536
X68800Y-42850
X69150Y-50700
X70200Y-44150
X70236Y-28736
X70350Y-29750
X71100Y-54300
X71100Y-55900
X71616Y-30416
X71650Y-31750
X71689Y-29991
X72284Y-30416
X72300Y-44600
X72300Y-54850
X72350Y-31750
X72350Y-53700
X73300Y-43600
X76300Y-48600
X76300Y-53200
X77300Y-54100
T3
X60350Y-57800
X60350Y-57800
X63150Y-47200
X66850Y-37150
X73700Y-36850
T4
X46119Y-50317
X46119Y-53017
X46906Y-50317
X46906Y-53017
X47694Y-50317
X47694Y-53017
X48481Y-50317
X48481Y-53017
X57925Y-27617
X58713Y-27617
X58719Y-24917
X59500Y-27617
X59506Y-24917
X59725Y-55600
X60287Y-27617
X60294Y-24917
X60513Y-55600
X61075Y-27617
X61081Y-24917
X61300Y-55600
X61500Y-32420
X62287Y-32420
X63425Y-55600
X64213Y-55600
X64700Y-32417
X65000Y-55600
X65487Y-32417
X68606Y-31717
X69394Y-31717
X74600Y-31700
X75387Y-31700
T5
X51445Y-50000
X51445Y-51000
X51445Y-52000
X51445Y-53000
T6
X64184Y-25920
X65168Y-25920
X65956Y-25920
X66940Y-25920
T7
X50600Y-30700
X51100Y-39800
X64600Y-39800
X67415Y-58490
X73515Y-57190
X77000Y-48650
T8
X41500Y-30800
X41500Y-31800
X41500Y-32800
X41700Y-50900
X41700Y-51900
X41700Y-52900
X42700Y-50900
X42700Y-51900
X42700Y-52900
X44100Y-30800
X44100Y-31800
X44100Y-32800
X44715Y-23590
X45715Y-23590
X46700Y-30800
X46700Y-31800
X46700Y-32800
X46715Y-23590
X47715Y-23590
X48715Y-23590
X49300Y-30800
X49300Y-31800
X49300Y-32800
X49715Y-23590
X51815Y-23590
X51900Y-30800
X51900Y-31800
X51900Y-32800
X52815Y-23590
X53815Y-23590
X54815Y-23590
X55815Y-23590
X56815Y-23590
X69000Y-34500
X69000Y-35500
X69000Y-38500
X69000Y-39500
X70000Y-34500
X70000Y-35500
X70000Y-38500
X70000Y-39500
X71000Y-34500
X71000Y-35500
X71000Y-38500
X71000Y-39500
X72000Y-38500
X72000Y-39500
X73000Y-38500
X73000Y-39500
T9
X40150Y-42000
X40150Y-48000
X41150Y-42000
X41150Y-48000
X42150Y-42000
X42150Y-48000
X43150Y-42000
X43150Y-48000
X44150Y-42000
X44150Y-48000
X45150Y-42000
X45150Y-48000
X46150Y-42000
X46150Y-48000
X47150Y-42000
X47150Y-48000
X48150Y-42000
X48150Y-48000
X49150Y-42000
X49150Y-48000
X50150Y-42000
X50150Y-48000
X51150Y-42000
X51150Y-48000
X52150Y-42000
X52150Y-48000
X53150Y-42000
X53150Y-48000
X54150Y-42000
X54150Y-48000
X55150Y-42000
X55150Y-48000
X56150Y-42000
X56150Y-48000
X56670Y-43201
X57150Y-42000
X57150Y-48000
X57670Y-43201
X58150Y-42000
X58150Y-48000
X58670Y-43201
X59150Y-42000
X59150Y-48000
X59670Y-43201
X60150Y-42000
X60150Y-48000
X60670Y-43201
X61150Y-42000
X61150Y-48000
X62150Y-42000
X62150Y-48000
X63150Y-42000
X63150Y-48000
T10
X46654Y-56106
X46654Y-58074
X51576Y-56106
X51576Y-58074
X53054Y-56106
X53054Y-58074
X57976Y-56106
X57976Y-58074
T11
X70017Y-25585
X71002Y-24247
X71986Y-24916
X72970Y-25782
X73600Y-24050
T12
X66815Y-55090
X68315Y-55090
X69815Y-55090
X74815Y-54090
X74815Y-56090
T13
X62975Y-24739
X68149Y-24739
T14
X72360Y-51000
X75313Y-51000
T0
M30
