G75*
%MOIN*%
%OFA0B0*%
%FSLAX25Y25*%
%IPPOS*%
%LPD*%
%AMOC8*
5,1,8,0,0,1.08239X$1,22.5*
%
%ADD10OC8,0.05600*%
%ADD11C,0.06337*%
%ADD12OC8,0.06337*%
%ADD13C,0.04165*%
%ADD14C,0.02000*%
%ADD15C,0.01600*%
%ADD16OC8,0.04165*%
%ADD17C,0.08000*%
%ADD18C,0.06000*%
D10*
X0044197Y0051343D03*
X0044197Y0061343D03*
X0044197Y0100556D03*
X0044197Y0110556D03*
X0044197Y0149768D03*
X0044197Y0159768D03*
X0044197Y0198981D03*
X0044197Y0208981D03*
X0044197Y0248193D03*
X0044197Y0258193D03*
X0044197Y0297406D03*
X0044197Y0307406D03*
X0044197Y0346619D03*
X0044197Y0356619D03*
X0044197Y0395831D03*
X0044197Y0405831D03*
X0044197Y0445044D03*
X0044197Y0455044D03*
D11*
X0023197Y0276414D03*
X0023197Y0266414D03*
X0023197Y0256414D03*
X0013197Y0256414D03*
X0013197Y0266414D03*
X0013197Y0276414D03*
X0149197Y0191414D03*
X0149197Y0181414D03*
X0149197Y0171414D03*
X0149197Y0161414D03*
X0149197Y0151414D03*
X0159197Y0151414D03*
X0159197Y0161414D03*
X0159197Y0171414D03*
X0159197Y0181414D03*
X0159197Y0191414D03*
D12*
X0084197Y0184375D03*
X0084197Y0174375D03*
X0084197Y0135162D03*
X0084197Y0125162D03*
X0084197Y0085949D03*
X0084197Y0075949D03*
X0084197Y0223587D03*
X0084197Y0233587D03*
X0084197Y0272800D03*
X0084197Y0282800D03*
X0084197Y0322012D03*
X0084197Y0332012D03*
X0084197Y0371225D03*
X0084197Y0381225D03*
X0084197Y0420437D03*
X0084197Y0430437D03*
D13*
X0124197Y0446414D03*
X0144197Y0395414D03*
X0143197Y0386414D03*
X0156197Y0432414D03*
X0137197Y0334414D03*
X0136197Y0303414D03*
X0119197Y0312414D03*
X0119198Y0292414D03*
X0114197Y0241414D03*
X0104197Y0226414D03*
X0119197Y0186414D03*
X0098197Y0170414D03*
X0120197Y0091414D03*
X0111197Y0073414D03*
X0140409Y0123201D03*
X0167197Y0164414D03*
X0172197Y0176414D03*
X0174197Y0183414D03*
X0174697Y0219414D03*
X0160197Y0298414D03*
X0164197Y0303414D03*
X0021197Y0324414D03*
X0012197Y0414414D03*
X0013197Y0213414D03*
X0017197Y0168414D03*
X0013197Y0110414D03*
D14*
X0038197Y0113414D02*
X0038197Y0104414D01*
X0042055Y0100556D01*
X0044197Y0100556D01*
X0051197Y0107414D02*
X0048055Y0110556D01*
X0044197Y0110556D01*
X0038197Y0113414D02*
X0051197Y0126414D01*
X0051197Y0156414D01*
X0047843Y0159768D01*
X0044197Y0159768D01*
X0044197Y0198981D02*
X0045764Y0198981D01*
X0051197Y0204414D01*
X0051197Y0233414D01*
X0039197Y0245414D01*
X0039197Y0255414D01*
X0041976Y0258193D01*
X0044197Y0258193D01*
X0044197Y0248193D02*
X0048976Y0248193D01*
X0051197Y0250414D01*
X0051197Y0303414D01*
X0047205Y0307406D01*
X0044197Y0307406D01*
X0044197Y0346619D02*
X0047402Y0346619D01*
X0051197Y0350414D01*
X0051197Y0380414D01*
X0037197Y0394414D01*
X0037197Y0401414D01*
X0041614Y0405831D01*
X0044197Y0405831D01*
X0051197Y0402831D02*
X0044197Y0395831D01*
X0051197Y0402831D02*
X0051197Y0453414D01*
X0049567Y0455044D01*
X0044197Y0455044D01*
X0084197Y0420437D02*
X0098220Y0420437D01*
X0119173Y0420437D01*
X0144197Y0395414D01*
X0143197Y0386414D02*
X0153197Y0386414D01*
X0171197Y0368414D01*
X0171197Y0222414D01*
X0170197Y0221414D01*
X0170197Y0217414D01*
X0173197Y0214414D01*
X0173197Y0184414D01*
X0174197Y0183414D01*
X0170197Y0178414D02*
X0172197Y0176414D01*
X0170197Y0178414D02*
X0170197Y0213414D01*
X0167197Y0216414D01*
X0167197Y0300414D01*
X0164197Y0303414D01*
X0161197Y0298414D02*
X0163197Y0296414D01*
X0163197Y0215414D01*
X0167197Y0211414D01*
X0167197Y0164414D01*
X0167197Y0163414D01*
X0161255Y0166445D02*
X0164197Y0169387D01*
X0164197Y0206414D01*
X0160197Y0210414D01*
X0141197Y0210414D01*
X0131197Y0200414D01*
X0109197Y0200414D01*
X0104197Y0205414D01*
X0104197Y0226414D01*
X0114197Y0241414D02*
X0071197Y0241414D01*
X0071197Y0291414D02*
X0072197Y0292414D01*
X0119198Y0292414D01*
X0128197Y0303414D02*
X0119197Y0312414D01*
X0124795Y0322012D02*
X0084197Y0322012D01*
X0046992Y0346619D02*
X0044197Y0346619D01*
X0098220Y0420437D02*
X0124197Y0446414D01*
X0156197Y0432414D02*
X0175197Y0413414D01*
X0175197Y0219414D01*
X0174697Y0219414D01*
X0161255Y0166445D02*
X0154228Y0166445D01*
X0149197Y0161414D01*
X0154197Y0156414D02*
X0159197Y0161414D01*
X0154197Y0156414D02*
X0109197Y0156414D01*
X0098197Y0167414D01*
X0098197Y0170414D01*
X0119197Y0186414D02*
X0119197Y0193414D01*
X0149197Y0130414D02*
X0141984Y0123201D01*
X0140409Y0123201D01*
X0149197Y0130414D02*
X0149197Y0151414D01*
X0159197Y0151414D02*
X0159197Y0088414D01*
X0153197Y0082414D01*
X0120197Y0082414D01*
X0111197Y0073414D01*
X0120197Y0091414D02*
X0120197Y0095414D01*
X0117197Y0098414D01*
X0071197Y0098414D01*
X0051197Y0107414D02*
X0051197Y0054414D01*
X0048197Y0051414D01*
X0044268Y0051414D01*
X0044197Y0051343D01*
X0128197Y0303414D02*
X0136197Y0303414D01*
X0124795Y0322012D02*
X0137197Y0334414D01*
X0160197Y0298414D02*
X0161197Y0298414D01*
D15*
X0005196Y0043411D02*
X0005195Y0043411D01*
X0005194Y0043412D01*
X0005194Y0043413D01*
X0005194Y0043414D01*
X0005194Y0462973D01*
X0005194Y0462974D01*
X0005194Y0462975D01*
X0005195Y0462976D01*
X0005196Y0462976D01*
X0005197Y0462976D01*
X0053197Y0462976D01*
X0053197Y0455091D01*
X0051040Y0457248D01*
X0050084Y0457644D01*
X0047819Y0457644D01*
X0046019Y0459444D01*
X0042374Y0459444D01*
X0039797Y0456866D01*
X0039797Y0453221D01*
X0042374Y0450644D01*
X0046019Y0450644D01*
X0047819Y0452444D01*
X0048490Y0452444D01*
X0048597Y0452337D01*
X0048597Y0403908D01*
X0044920Y0400231D01*
X0042374Y0400231D01*
X0039797Y0397654D01*
X0039797Y0395491D01*
X0039797Y0400337D01*
X0041633Y0402173D01*
X0042374Y0401431D01*
X0046019Y0401431D01*
X0048597Y0404009D01*
X0048597Y0407654D01*
X0046019Y0410231D01*
X0042374Y0410231D01*
X0040205Y0408062D01*
X0040141Y0408035D01*
X0035724Y0403618D01*
X0034993Y0402887D01*
X0034597Y0401931D01*
X0034597Y0393897D01*
X0034993Y0392941D01*
X0048597Y0379337D01*
X0048597Y0351491D01*
X0047072Y0349966D01*
X0046019Y0351019D01*
X0042374Y0351019D01*
X0039797Y0348441D01*
X0039797Y0344796D01*
X0042374Y0342219D01*
X0046019Y0342219D01*
X0047819Y0344019D01*
X0047919Y0344019D01*
X0048874Y0344414D01*
X0053197Y0348737D01*
X0053197Y0305091D01*
X0052670Y0305618D01*
X0048677Y0309610D01*
X0047888Y0309937D01*
X0046019Y0311806D01*
X0042374Y0311806D01*
X0039797Y0309229D01*
X0039797Y0305583D01*
X0042374Y0303006D01*
X0046019Y0303006D01*
X0046974Y0303960D01*
X0048597Y0302337D01*
X0048597Y0251491D01*
X0047899Y0250793D01*
X0047819Y0250793D01*
X0046019Y0252593D01*
X0042374Y0252593D01*
X0041797Y0252016D01*
X0041797Y0254337D01*
X0041814Y0254354D01*
X0042374Y0253793D01*
X0046019Y0253793D01*
X0048597Y0256371D01*
X0048597Y0260016D01*
X0046019Y0262593D01*
X0042374Y0262593D01*
X0039797Y0260016D01*
X0039797Y0259691D01*
X0036993Y0256887D01*
X0036597Y0255931D01*
X0036597Y0244897D01*
X0036993Y0243941D01*
X0037724Y0243210D01*
X0048597Y0232337D01*
X0048597Y0205491D01*
X0046253Y0203147D01*
X0046019Y0203381D01*
X0042374Y0203381D01*
X0039797Y0200803D01*
X0039797Y0197158D01*
X0042374Y0194581D01*
X0046019Y0194581D01*
X0048597Y0197158D01*
X0048597Y0198137D01*
X0052670Y0202210D01*
X0053197Y0202737D01*
X0053197Y0158091D01*
X0049315Y0161972D01*
X0048360Y0162368D01*
X0047819Y0162368D01*
X0046019Y0164168D01*
X0042374Y0164168D01*
X0039797Y0161591D01*
X0039797Y0157946D01*
X0042374Y0155368D01*
X0046019Y0155368D01*
X0047292Y0156641D01*
X0048597Y0155337D01*
X0048597Y0127491D01*
X0035993Y0114887D01*
X0035597Y0113931D01*
X0035597Y0103897D01*
X0035993Y0102941D01*
X0036724Y0102210D01*
X0039797Y0099137D01*
X0039797Y0098733D01*
X0042374Y0096156D01*
X0046019Y0096156D01*
X0048597Y0098733D01*
X0048597Y0102378D01*
X0046019Y0104956D01*
X0042374Y0104956D01*
X0041853Y0104434D01*
X0040797Y0105491D01*
X0040797Y0107733D01*
X0042374Y0106156D01*
X0046019Y0106156D01*
X0047399Y0107535D01*
X0048597Y0106337D01*
X0048597Y0055491D01*
X0047434Y0054328D01*
X0046019Y0055743D01*
X0042374Y0055743D01*
X0039797Y0053166D01*
X0039797Y0049520D01*
X0042374Y0046943D01*
X0046019Y0046943D01*
X0047890Y0048814D01*
X0048714Y0048814D01*
X0049670Y0049210D01*
X0050401Y0049941D01*
X0050401Y0049941D01*
X0052670Y0052210D01*
X0053197Y0052737D01*
X0053197Y0043411D01*
X0005197Y0043411D01*
X0005196Y0043411D01*
X0005194Y0044209D02*
X0053197Y0044209D01*
X0053197Y0045808D02*
X0005194Y0045808D01*
X0005194Y0047406D02*
X0013406Y0047406D01*
X0014228Y0046932D02*
X0016796Y0046244D01*
X0019456Y0046244D01*
X0022024Y0046932D01*
X0024327Y0048262D01*
X0026207Y0050142D01*
X0027537Y0052445D01*
X0028225Y0055013D01*
X0028225Y0057673D01*
X0027537Y0060241D01*
X0026207Y0062544D01*
X0024327Y0064424D01*
X0022024Y0065754D01*
X0019456Y0066442D01*
X0016796Y0066442D01*
X0014228Y0065754D01*
X0011925Y0064424D01*
X0010045Y0062544D01*
X0008715Y0060241D01*
X0008027Y0057673D01*
X0008027Y0055013D01*
X0008715Y0052445D01*
X0010045Y0050142D01*
X0011925Y0048262D01*
X0014228Y0046932D01*
X0011182Y0049005D02*
X0005194Y0049005D01*
X0005194Y0050603D02*
X0009778Y0050603D01*
X0008855Y0052202D02*
X0005194Y0052202D01*
X0005194Y0053800D02*
X0008352Y0053800D01*
X0008027Y0055399D02*
X0005194Y0055399D01*
X0005194Y0056998D02*
X0008027Y0056998D01*
X0008274Y0058596D02*
X0005194Y0058596D01*
X0005194Y0060195D02*
X0008703Y0060195D01*
X0009611Y0061793D02*
X0005194Y0061793D01*
X0005194Y0063392D02*
X0010892Y0063392D01*
X0012905Y0064990D02*
X0005194Y0064990D01*
X0005194Y0066589D02*
X0048597Y0066589D01*
X0048597Y0068187D02*
X0005194Y0068187D01*
X0005194Y0069786D02*
X0048597Y0069786D01*
X0048597Y0071384D02*
X0005194Y0071384D01*
X0005194Y0072983D02*
X0048597Y0072983D01*
X0048597Y0074581D02*
X0005194Y0074581D01*
X0005194Y0076180D02*
X0048597Y0076180D01*
X0048597Y0077778D02*
X0005194Y0077778D01*
X0005194Y0079377D02*
X0048597Y0079377D01*
X0048597Y0080975D02*
X0005194Y0080975D01*
X0005194Y0082574D02*
X0048597Y0082574D01*
X0048597Y0084172D02*
X0005194Y0084172D01*
X0005194Y0085771D02*
X0048597Y0085771D01*
X0048597Y0087369D02*
X0005194Y0087369D01*
X0005194Y0088968D02*
X0048597Y0088968D01*
X0048597Y0090566D02*
X0005194Y0090566D01*
X0005194Y0092165D02*
X0048597Y0092165D01*
X0048597Y0093763D02*
X0005194Y0093763D01*
X0005194Y0095362D02*
X0048597Y0095362D01*
X0048597Y0096960D02*
X0046824Y0096960D01*
X0048423Y0098559D02*
X0048597Y0098559D01*
X0048597Y0100157D02*
X0048597Y0100157D01*
X0048597Y0101756D02*
X0048597Y0101756D01*
X0048597Y0103354D02*
X0047621Y0103354D01*
X0048597Y0104953D02*
X0046022Y0104953D01*
X0046415Y0106551D02*
X0048382Y0106551D01*
X0042372Y0104953D02*
X0041335Y0104953D01*
X0040797Y0106551D02*
X0041979Y0106551D01*
X0038776Y0100157D02*
X0005194Y0100157D01*
X0005194Y0098559D02*
X0039971Y0098559D01*
X0041570Y0096960D02*
X0005194Y0096960D01*
X0005194Y0101756D02*
X0037178Y0101756D01*
X0035822Y0103354D02*
X0005194Y0103354D01*
X0005194Y0104953D02*
X0035597Y0104953D01*
X0035597Y0106551D02*
X0005194Y0106551D01*
X0005194Y0108150D02*
X0035597Y0108150D01*
X0035597Y0109748D02*
X0005194Y0109748D01*
X0005194Y0111347D02*
X0035597Y0111347D01*
X0035597Y0112945D02*
X0005194Y0112945D01*
X0005194Y0114544D02*
X0035851Y0114544D01*
X0037248Y0116142D02*
X0005194Y0116142D01*
X0005194Y0117741D02*
X0038847Y0117741D01*
X0040445Y0119339D02*
X0005194Y0119339D01*
X0005194Y0120938D02*
X0013904Y0120938D01*
X0014228Y0120751D02*
X0016796Y0120063D01*
X0019456Y0120063D01*
X0022024Y0120751D01*
X0024327Y0122081D01*
X0026207Y0123961D01*
X0027537Y0126264D01*
X0028225Y0128832D01*
X0028225Y0131491D01*
X0027537Y0134060D01*
X0026207Y0136363D01*
X0024327Y0138243D01*
X0022024Y0139573D01*
X0019456Y0140261D01*
X0016796Y0140261D01*
X0014228Y0139573D01*
X0011925Y0138243D01*
X0010045Y0136363D01*
X0008715Y0134060D01*
X0008027Y0131491D01*
X0008027Y0128832D01*
X0008715Y0126264D01*
X0010045Y0123961D01*
X0011925Y0122081D01*
X0014228Y0120751D01*
X0011469Y0122536D02*
X0005194Y0122536D01*
X0005194Y0124135D02*
X0009944Y0124135D01*
X0009021Y0125733D02*
X0005194Y0125733D01*
X0005194Y0127332D02*
X0008429Y0127332D01*
X0008027Y0128931D02*
X0005194Y0128931D01*
X0005194Y0130529D02*
X0008027Y0130529D01*
X0008197Y0132128D02*
X0005194Y0132128D01*
X0005194Y0133726D02*
X0008626Y0133726D01*
X0009445Y0135325D02*
X0005194Y0135325D01*
X0005194Y0136923D02*
X0010605Y0136923D01*
X0012407Y0138522D02*
X0005194Y0138522D01*
X0005194Y0140120D02*
X0016270Y0140120D01*
X0019982Y0140120D02*
X0048597Y0140120D01*
X0048597Y0138522D02*
X0023845Y0138522D01*
X0025647Y0136923D02*
X0048597Y0136923D01*
X0048597Y0135325D02*
X0026807Y0135325D01*
X0027626Y0133726D02*
X0048597Y0133726D01*
X0048597Y0132128D02*
X0028055Y0132128D01*
X0028225Y0130529D02*
X0048597Y0130529D01*
X0048597Y0128931D02*
X0028225Y0128931D01*
X0027823Y0127332D02*
X0048438Y0127332D01*
X0046840Y0125733D02*
X0027231Y0125733D01*
X0026308Y0124135D02*
X0045241Y0124135D01*
X0043642Y0122536D02*
X0024783Y0122536D01*
X0022348Y0120938D02*
X0042044Y0120938D01*
X0048597Y0141719D02*
X0005194Y0141719D01*
X0005194Y0143317D02*
X0048597Y0143317D01*
X0048597Y0144916D02*
X0005194Y0144916D01*
X0005194Y0146514D02*
X0041228Y0146514D01*
X0042374Y0145368D02*
X0039797Y0147946D01*
X0039797Y0151591D01*
X0042374Y0154168D01*
X0046019Y0154168D01*
X0048597Y0151591D01*
X0048597Y0147946D01*
X0046019Y0145368D01*
X0042374Y0145368D01*
X0039797Y0148113D02*
X0005194Y0148113D01*
X0005194Y0149711D02*
X0039797Y0149711D01*
X0039797Y0151310D02*
X0005194Y0151310D01*
X0005194Y0152908D02*
X0041114Y0152908D01*
X0041637Y0156105D02*
X0005194Y0156105D01*
X0005194Y0154507D02*
X0048597Y0154507D01*
X0048597Y0152908D02*
X0047279Y0152908D01*
X0048597Y0151310D02*
X0048597Y0151310D01*
X0048597Y0149711D02*
X0048597Y0149711D01*
X0048597Y0148113D02*
X0048597Y0148113D01*
X0048597Y0146514D02*
X0047165Y0146514D01*
X0046756Y0156105D02*
X0047829Y0156105D01*
X0050387Y0160901D02*
X0053197Y0160901D01*
X0053197Y0162499D02*
X0047688Y0162499D01*
X0046090Y0164098D02*
X0053197Y0164098D01*
X0053197Y0165696D02*
X0005194Y0165696D01*
X0005194Y0164098D02*
X0042304Y0164098D01*
X0040705Y0162499D02*
X0005194Y0162499D01*
X0005194Y0160901D02*
X0039797Y0160901D01*
X0039797Y0159302D02*
X0005194Y0159302D01*
X0005194Y0157704D02*
X0040039Y0157704D01*
X0051985Y0159302D02*
X0053197Y0159302D01*
X0053197Y0167295D02*
X0005194Y0167295D01*
X0005194Y0168893D02*
X0053197Y0168893D01*
X0053197Y0170492D02*
X0005194Y0170492D01*
X0005194Y0172090D02*
X0053197Y0172090D01*
X0053197Y0173689D02*
X0005194Y0173689D01*
X0005194Y0175287D02*
X0053197Y0175287D01*
X0053197Y0176886D02*
X0005194Y0176886D01*
X0005194Y0178484D02*
X0053197Y0178484D01*
X0053197Y0180083D02*
X0005194Y0180083D01*
X0005194Y0181681D02*
X0053197Y0181681D01*
X0053197Y0183280D02*
X0005194Y0183280D01*
X0005194Y0184878D02*
X0053197Y0184878D01*
X0053197Y0186477D02*
X0005194Y0186477D01*
X0005194Y0188075D02*
X0053197Y0188075D01*
X0053197Y0189674D02*
X0005194Y0189674D01*
X0005194Y0191272D02*
X0053197Y0191272D01*
X0053197Y0192871D02*
X0005194Y0192871D01*
X0005194Y0194469D02*
X0053197Y0194469D01*
X0053197Y0196068D02*
X0047507Y0196068D01*
X0048597Y0197666D02*
X0053197Y0197666D01*
X0053197Y0199265D02*
X0049725Y0199265D01*
X0051323Y0200864D02*
X0053197Y0200864D01*
X0053197Y0202462D02*
X0052922Y0202462D01*
X0048597Y0205659D02*
X0047098Y0205659D01*
X0046019Y0204581D02*
X0048597Y0207158D01*
X0048597Y0210803D01*
X0046019Y0213381D01*
X0042374Y0213381D01*
X0039797Y0210803D01*
X0039797Y0207158D01*
X0042374Y0204581D01*
X0046019Y0204581D01*
X0047167Y0204061D02*
X0005194Y0204061D01*
X0005194Y0205659D02*
X0041296Y0205659D01*
X0039797Y0207258D02*
X0005194Y0207258D01*
X0005194Y0208856D02*
X0039797Y0208856D01*
X0039797Y0210455D02*
X0005194Y0210455D01*
X0005194Y0212053D02*
X0041047Y0212053D01*
X0041456Y0202462D02*
X0005194Y0202462D01*
X0005194Y0200864D02*
X0039857Y0200864D01*
X0039797Y0199265D02*
X0005194Y0199265D01*
X0005194Y0197666D02*
X0039797Y0197666D01*
X0040887Y0196068D02*
X0005194Y0196068D01*
X0005194Y0213652D02*
X0048597Y0213652D01*
X0048597Y0215250D02*
X0005194Y0215250D01*
X0005194Y0216849D02*
X0048597Y0216849D01*
X0048597Y0218447D02*
X0005194Y0218447D01*
X0005194Y0220046D02*
X0048597Y0220046D01*
X0048597Y0221644D02*
X0005194Y0221644D01*
X0005194Y0223243D02*
X0048597Y0223243D01*
X0048597Y0224841D02*
X0005194Y0224841D01*
X0005194Y0226440D02*
X0048597Y0226440D01*
X0048597Y0228038D02*
X0005194Y0228038D01*
X0005194Y0229637D02*
X0048597Y0229637D01*
X0048597Y0231235D02*
X0005194Y0231235D01*
X0005194Y0232834D02*
X0048100Y0232834D01*
X0046502Y0234432D02*
X0005194Y0234432D01*
X0005194Y0236031D02*
X0044903Y0236031D01*
X0043304Y0237629D02*
X0005194Y0237629D01*
X0005194Y0239228D02*
X0041706Y0239228D01*
X0040107Y0240826D02*
X0005194Y0240826D01*
X0005194Y0242425D02*
X0038509Y0242425D01*
X0036959Y0244023D02*
X0005194Y0244023D01*
X0005194Y0245622D02*
X0036597Y0245622D01*
X0036597Y0247220D02*
X0005194Y0247220D01*
X0005194Y0248819D02*
X0036597Y0248819D01*
X0036597Y0250417D02*
X0005194Y0250417D01*
X0005194Y0252016D02*
X0011354Y0252016D01*
X0010496Y0252371D02*
X0012248Y0251645D01*
X0014145Y0251645D01*
X0015898Y0252371D01*
X0017239Y0253713D01*
X0017965Y0255465D01*
X0017965Y0257362D01*
X0017239Y0259115D01*
X0015898Y0260456D01*
X0014145Y0261182D01*
X0012248Y0261182D01*
X0010496Y0260456D01*
X0009154Y0259115D01*
X0008428Y0257362D01*
X0008428Y0255465D01*
X0009154Y0253713D01*
X0010496Y0252371D01*
X0009253Y0253614D02*
X0005194Y0253614D01*
X0005194Y0255213D02*
X0008533Y0255213D01*
X0008428Y0256811D02*
X0005194Y0256811D01*
X0005194Y0258410D02*
X0008862Y0258410D01*
X0010048Y0260008D02*
X0005194Y0260008D01*
X0005194Y0261607D02*
X0041388Y0261607D01*
X0039797Y0260008D02*
X0026346Y0260008D01*
X0025898Y0260456D02*
X0024145Y0261182D01*
X0022248Y0261182D01*
X0020496Y0260456D01*
X0019154Y0259115D01*
X0018428Y0257362D01*
X0018428Y0255465D01*
X0019154Y0253713D01*
X0020496Y0252371D01*
X0022248Y0251645D01*
X0024145Y0251645D01*
X0025898Y0252371D01*
X0027239Y0253713D01*
X0027965Y0255465D01*
X0027965Y0257362D01*
X0027239Y0259115D01*
X0025898Y0260456D01*
X0025898Y0262371D02*
X0024145Y0261645D01*
X0022248Y0261645D01*
X0020496Y0262371D01*
X0019154Y0263713D01*
X0018428Y0265465D01*
X0018428Y0267362D01*
X0019154Y0269115D01*
X0020496Y0270456D01*
X0022248Y0271182D01*
X0024145Y0271182D01*
X0025898Y0270456D01*
X0027239Y0269115D01*
X0027965Y0267362D01*
X0027965Y0265465D01*
X0027239Y0263713D01*
X0025898Y0262371D01*
X0026732Y0263205D02*
X0048597Y0263205D01*
X0048597Y0261607D02*
X0047006Y0261607D01*
X0048597Y0260008D02*
X0048597Y0260008D01*
X0048597Y0258410D02*
X0048597Y0258410D01*
X0048597Y0256811D02*
X0048597Y0256811D01*
X0048597Y0255213D02*
X0047439Y0255213D01*
X0048597Y0253614D02*
X0041797Y0253614D01*
X0046597Y0252016D02*
X0048597Y0252016D01*
X0048597Y0264804D02*
X0027691Y0264804D01*
X0027965Y0266402D02*
X0048597Y0266402D01*
X0048597Y0268001D02*
X0027701Y0268001D01*
X0026755Y0269600D02*
X0048597Y0269600D01*
X0048597Y0271198D02*
X0005194Y0271198D01*
X0005194Y0269600D02*
X0009639Y0269600D01*
X0009154Y0269115D02*
X0008428Y0267362D01*
X0008428Y0265465D01*
X0009154Y0263713D01*
X0010496Y0262371D01*
X0012248Y0261645D01*
X0014145Y0261645D01*
X0015898Y0262371D01*
X0017239Y0263713D01*
X0017965Y0265465D01*
X0017965Y0267362D01*
X0017239Y0269115D01*
X0015898Y0270456D01*
X0014145Y0271182D01*
X0012248Y0271182D01*
X0010496Y0270456D01*
X0009154Y0269115D01*
X0008693Y0268001D02*
X0005194Y0268001D01*
X0005194Y0266402D02*
X0008428Y0266402D01*
X0008702Y0264804D02*
X0005194Y0264804D01*
X0005194Y0263205D02*
X0009662Y0263205D01*
X0012033Y0271568D02*
X0012806Y0271445D01*
X0013013Y0271445D01*
X0013013Y0276230D01*
X0013381Y0276230D01*
X0013381Y0276598D01*
X0018165Y0276598D01*
X0018165Y0276805D01*
X0018043Y0277577D01*
X0017801Y0278321D01*
X0017446Y0279018D01*
X0016987Y0279651D01*
X0016434Y0280204D01*
X0015801Y0280663D01*
X0015104Y0281018D01*
X0014360Y0281260D01*
X0013588Y0281382D01*
X0013381Y0281382D01*
X0013381Y0276598D01*
X0013013Y0276598D01*
X0013013Y0281382D01*
X0012806Y0281382D01*
X0012033Y0281260D01*
X0011290Y0281018D01*
X0010593Y0280663D01*
X0009960Y0280204D01*
X0009407Y0279651D01*
X0008947Y0279018D01*
X0008592Y0278321D01*
X0008351Y0277577D01*
X0008228Y0276805D01*
X0008228Y0276598D01*
X0013013Y0276598D01*
X0013013Y0276230D01*
X0008228Y0276230D01*
X0008228Y0276023D01*
X0008351Y0275250D01*
X0008592Y0274507D01*
X0008947Y0273810D01*
X0009407Y0273177D01*
X0009960Y0272624D01*
X0010593Y0272164D01*
X0011290Y0271809D01*
X0012033Y0271568D01*
X0013381Y0271445D02*
X0013381Y0276230D01*
X0018165Y0276230D01*
X0018165Y0276023D01*
X0018043Y0275250D01*
X0017801Y0274507D01*
X0017446Y0273810D01*
X0016987Y0273177D01*
X0016434Y0272624D01*
X0015801Y0272164D01*
X0015104Y0271809D01*
X0014360Y0271568D01*
X0013588Y0271445D01*
X0013381Y0271445D01*
X0013381Y0272797D02*
X0013013Y0272797D01*
X0013013Y0274395D02*
X0013381Y0274395D01*
X0013381Y0275994D02*
X0013013Y0275994D01*
X0013013Y0277592D02*
X0013381Y0277592D01*
X0013381Y0279191D02*
X0013013Y0279191D01*
X0013013Y0280789D02*
X0013381Y0280789D01*
X0015554Y0280789D02*
X0021299Y0280789D01*
X0020496Y0280456D02*
X0019154Y0279115D01*
X0018428Y0277362D01*
X0018428Y0275465D01*
X0019154Y0273713D01*
X0020496Y0272371D01*
X0022248Y0271645D01*
X0024145Y0271645D01*
X0025898Y0272371D01*
X0027239Y0273713D01*
X0027965Y0275465D01*
X0027965Y0277362D01*
X0027239Y0279115D01*
X0025898Y0280456D01*
X0024145Y0281182D01*
X0022248Y0281182D01*
X0020496Y0280456D01*
X0019230Y0279191D02*
X0017321Y0279191D01*
X0018038Y0277592D02*
X0018523Y0277592D01*
X0018428Y0275994D02*
X0018161Y0275994D01*
X0017744Y0274395D02*
X0018872Y0274395D01*
X0020071Y0272797D02*
X0016606Y0272797D01*
X0016755Y0269600D02*
X0019639Y0269600D01*
X0018693Y0268001D02*
X0017701Y0268001D01*
X0017965Y0266402D02*
X0018428Y0266402D01*
X0018702Y0264804D02*
X0017691Y0264804D01*
X0016732Y0263205D02*
X0019662Y0263205D01*
X0020048Y0260008D02*
X0016346Y0260008D01*
X0017531Y0258410D02*
X0018862Y0258410D01*
X0018428Y0256811D02*
X0017965Y0256811D01*
X0017861Y0255213D02*
X0018533Y0255213D01*
X0019253Y0253614D02*
X0017141Y0253614D01*
X0015040Y0252016D02*
X0021354Y0252016D01*
X0025040Y0252016D02*
X0036597Y0252016D01*
X0036597Y0253614D02*
X0027141Y0253614D01*
X0027861Y0255213D02*
X0036597Y0255213D01*
X0036962Y0256811D02*
X0027965Y0256811D01*
X0027531Y0258410D02*
X0038516Y0258410D01*
X0048597Y0272797D02*
X0026323Y0272797D01*
X0027522Y0274395D02*
X0048597Y0274395D01*
X0048597Y0275994D02*
X0027965Y0275994D01*
X0027870Y0277592D02*
X0048597Y0277592D01*
X0048597Y0279191D02*
X0027164Y0279191D01*
X0025095Y0280789D02*
X0048597Y0280789D01*
X0048597Y0282388D02*
X0005194Y0282388D01*
X0005194Y0283986D02*
X0048597Y0283986D01*
X0048597Y0285585D02*
X0005194Y0285585D01*
X0005194Y0287183D02*
X0048597Y0287183D01*
X0048597Y0288782D02*
X0005194Y0288782D01*
X0005194Y0290380D02*
X0048597Y0290380D01*
X0048597Y0291979D02*
X0005194Y0291979D01*
X0005194Y0293577D02*
X0041803Y0293577D01*
X0042374Y0293006D02*
X0046019Y0293006D01*
X0048597Y0295583D01*
X0048597Y0299229D01*
X0046019Y0301806D01*
X0042374Y0301806D01*
X0039797Y0299229D01*
X0039797Y0295583D01*
X0042374Y0293006D01*
X0040205Y0295176D02*
X0005194Y0295176D01*
X0005194Y0296774D02*
X0039797Y0296774D01*
X0039797Y0298373D02*
X0005194Y0298373D01*
X0005194Y0299971D02*
X0040540Y0299971D01*
X0042138Y0301570D02*
X0005194Y0301570D01*
X0005194Y0303168D02*
X0042212Y0303168D01*
X0040614Y0304767D02*
X0005194Y0304767D01*
X0005194Y0306365D02*
X0039797Y0306365D01*
X0039797Y0307964D02*
X0005194Y0307964D01*
X0005194Y0309562D02*
X0040131Y0309562D01*
X0041729Y0311161D02*
X0005194Y0311161D01*
X0005194Y0312759D02*
X0053197Y0312759D01*
X0053197Y0311161D02*
X0046665Y0311161D01*
X0048725Y0309562D02*
X0053197Y0309562D01*
X0053197Y0307964D02*
X0050324Y0307964D01*
X0051922Y0306365D02*
X0053197Y0306365D01*
X0053197Y0314358D02*
X0005194Y0314358D01*
X0005194Y0315956D02*
X0053197Y0315956D01*
X0053197Y0317555D02*
X0005194Y0317555D01*
X0005194Y0319153D02*
X0053197Y0319153D01*
X0053197Y0320752D02*
X0005194Y0320752D01*
X0005194Y0322350D02*
X0053197Y0322350D01*
X0053197Y0323949D02*
X0005194Y0323949D01*
X0005194Y0325547D02*
X0053197Y0325547D01*
X0053197Y0327146D02*
X0005194Y0327146D01*
X0005194Y0328744D02*
X0053197Y0328744D01*
X0053197Y0330343D02*
X0005194Y0330343D01*
X0005194Y0331941D02*
X0053197Y0331941D01*
X0053197Y0333540D02*
X0005194Y0333540D01*
X0005194Y0335138D02*
X0053197Y0335138D01*
X0053197Y0336737D02*
X0005194Y0336737D01*
X0005194Y0338335D02*
X0053197Y0338335D01*
X0053197Y0339934D02*
X0005194Y0339934D01*
X0005194Y0341533D02*
X0053197Y0341533D01*
X0053197Y0343131D02*
X0046932Y0343131D01*
X0049189Y0344730D02*
X0053197Y0344730D01*
X0053197Y0346328D02*
X0050788Y0346328D01*
X0052386Y0347927D02*
X0053197Y0347927D01*
X0048230Y0351124D02*
X0005194Y0351124D01*
X0005194Y0352722D02*
X0041871Y0352722D01*
X0042374Y0352219D02*
X0046019Y0352219D01*
X0048597Y0354796D01*
X0048597Y0358441D01*
X0046019Y0361019D01*
X0042374Y0361019D01*
X0039797Y0358441D01*
X0039797Y0354796D01*
X0042374Y0352219D01*
X0040272Y0354321D02*
X0005194Y0354321D01*
X0005194Y0355919D02*
X0039797Y0355919D01*
X0039797Y0357518D02*
X0005194Y0357518D01*
X0005194Y0359116D02*
X0040472Y0359116D01*
X0042070Y0360715D02*
X0005194Y0360715D01*
X0005194Y0362313D02*
X0048597Y0362313D01*
X0048597Y0360715D02*
X0046323Y0360715D01*
X0047922Y0359116D02*
X0048597Y0359116D01*
X0048597Y0357518D02*
X0048597Y0357518D01*
X0048597Y0355919D02*
X0048597Y0355919D01*
X0048597Y0354321D02*
X0048121Y0354321D01*
X0048597Y0352722D02*
X0046523Y0352722D01*
X0048597Y0363912D02*
X0005194Y0363912D01*
X0005194Y0365510D02*
X0048597Y0365510D01*
X0048597Y0367109D02*
X0022535Y0367109D01*
X0022024Y0366814D02*
X0024327Y0368144D01*
X0026207Y0370024D01*
X0027537Y0372327D01*
X0028225Y0374895D01*
X0028225Y0377554D01*
X0027537Y0380123D01*
X0026207Y0382426D01*
X0024327Y0384306D01*
X0022024Y0385636D01*
X0019456Y0386324D01*
X0016796Y0386324D01*
X0014228Y0385636D01*
X0011925Y0384306D01*
X0010045Y0382426D01*
X0008715Y0380123D01*
X0008027Y0377554D01*
X0008027Y0374895D01*
X0008715Y0372327D01*
X0010045Y0370024D01*
X0011925Y0368144D01*
X0014228Y0366814D01*
X0016796Y0366126D01*
X0019456Y0366126D01*
X0022024Y0366814D01*
X0024891Y0368707D02*
X0048597Y0368707D01*
X0048597Y0370306D02*
X0026370Y0370306D01*
X0027293Y0371904D02*
X0048597Y0371904D01*
X0048597Y0373503D02*
X0027852Y0373503D01*
X0028225Y0375101D02*
X0048597Y0375101D01*
X0048597Y0376700D02*
X0028225Y0376700D01*
X0028026Y0378298D02*
X0048597Y0378298D01*
X0048037Y0379897D02*
X0027598Y0379897D01*
X0026745Y0381495D02*
X0046438Y0381495D01*
X0044840Y0383094D02*
X0025540Y0383094D01*
X0023658Y0384692D02*
X0043241Y0384692D01*
X0041643Y0386291D02*
X0019580Y0386291D01*
X0016672Y0386291D02*
X0005194Y0386291D01*
X0005194Y0387889D02*
X0040044Y0387889D01*
X0038446Y0389488D02*
X0005194Y0389488D01*
X0005194Y0391086D02*
X0036847Y0391086D01*
X0035249Y0392685D02*
X0005194Y0392685D01*
X0005194Y0394283D02*
X0034597Y0394283D01*
X0034597Y0395882D02*
X0005194Y0395882D01*
X0005194Y0397480D02*
X0034597Y0397480D01*
X0034597Y0399079D02*
X0005194Y0399079D01*
X0005194Y0400677D02*
X0034597Y0400677D01*
X0034740Y0402276D02*
X0005194Y0402276D01*
X0005194Y0403874D02*
X0035980Y0403874D01*
X0037579Y0405473D02*
X0005194Y0405473D01*
X0005194Y0407071D02*
X0039178Y0407071D01*
X0040813Y0408670D02*
X0005194Y0408670D01*
X0005194Y0410269D02*
X0048597Y0410269D01*
X0048597Y0411867D02*
X0005194Y0411867D01*
X0005194Y0413466D02*
X0048597Y0413466D01*
X0048597Y0415064D02*
X0005194Y0415064D01*
X0005194Y0416663D02*
X0048597Y0416663D01*
X0048597Y0418261D02*
X0005194Y0418261D01*
X0005194Y0419860D02*
X0048597Y0419860D01*
X0048597Y0421458D02*
X0005194Y0421458D01*
X0005194Y0423057D02*
X0048597Y0423057D01*
X0048597Y0424655D02*
X0005194Y0424655D01*
X0005194Y0426254D02*
X0048597Y0426254D01*
X0048597Y0427852D02*
X0005194Y0427852D01*
X0005194Y0429451D02*
X0048597Y0429451D01*
X0048597Y0431049D02*
X0005194Y0431049D01*
X0005194Y0432648D02*
X0048597Y0432648D01*
X0048597Y0434246D02*
X0005194Y0434246D01*
X0005194Y0435845D02*
X0048597Y0435845D01*
X0048597Y0437443D02*
X0005194Y0437443D01*
X0005194Y0439042D02*
X0048597Y0439042D01*
X0048597Y0440640D02*
X0023218Y0440640D01*
X0022252Y0440083D02*
X0024690Y0441490D01*
X0026680Y0443480D01*
X0028087Y0445918D01*
X0028816Y0448636D01*
X0028816Y0451451D01*
X0028087Y0454170D01*
X0026680Y0456607D01*
X0024690Y0458598D01*
X0022252Y0460005D01*
X0019533Y0460734D01*
X0016719Y0460734D01*
X0014000Y0460005D01*
X0011562Y0458598D01*
X0009572Y0456607D01*
X0008165Y0454170D01*
X0007436Y0451451D01*
X0007436Y0448636D01*
X0008165Y0445918D01*
X0009572Y0443480D01*
X0011562Y0441490D01*
X0014000Y0440083D01*
X0016719Y0439354D01*
X0019533Y0439354D01*
X0022252Y0440083D01*
X0025439Y0442239D02*
X0040779Y0442239D01*
X0039797Y0443221D02*
X0039797Y0446866D01*
X0042374Y0449444D01*
X0046019Y0449444D01*
X0048597Y0446866D01*
X0048597Y0443221D01*
X0046019Y0440644D01*
X0042374Y0440644D01*
X0039797Y0443221D01*
X0039797Y0443837D02*
X0026886Y0443837D01*
X0027809Y0445436D02*
X0039797Y0445436D01*
X0039965Y0447034D02*
X0028386Y0447034D01*
X0028815Y0448633D02*
X0041563Y0448633D01*
X0041188Y0451830D02*
X0028714Y0451830D01*
X0028816Y0450231D02*
X0048597Y0450231D01*
X0048597Y0448633D02*
X0046830Y0448633D01*
X0048429Y0447034D02*
X0048597Y0447034D01*
X0048597Y0445436D02*
X0048597Y0445436D01*
X0048597Y0443837D02*
X0048597Y0443837D01*
X0048597Y0442239D02*
X0047614Y0442239D01*
X0047205Y0451830D02*
X0048597Y0451830D01*
X0047239Y0458224D02*
X0053197Y0458224D01*
X0053197Y0459822D02*
X0022569Y0459822D01*
X0025064Y0458224D02*
X0041154Y0458224D01*
X0039797Y0456625D02*
X0026662Y0456625D01*
X0027592Y0455027D02*
X0039797Y0455027D01*
X0039797Y0453428D02*
X0028286Y0453428D01*
X0013683Y0459822D02*
X0005194Y0459822D01*
X0005194Y0458224D02*
X0011188Y0458224D01*
X0009590Y0456625D02*
X0005194Y0456625D01*
X0005194Y0455027D02*
X0008659Y0455027D01*
X0007966Y0453428D02*
X0005194Y0453428D01*
X0005194Y0451830D02*
X0007538Y0451830D01*
X0007436Y0450231D02*
X0005194Y0450231D01*
X0005194Y0448633D02*
X0007437Y0448633D01*
X0007866Y0447034D02*
X0005194Y0447034D01*
X0005194Y0445436D02*
X0008443Y0445436D01*
X0009366Y0443837D02*
X0005194Y0443837D01*
X0005194Y0442239D02*
X0010813Y0442239D01*
X0013034Y0440640D02*
X0005194Y0440640D01*
X0005194Y0461421D02*
X0053197Y0461421D01*
X0053197Y0456625D02*
X0051662Y0456625D01*
X0067197Y0456625D02*
X0155567Y0456625D01*
X0155186Y0456245D02*
X0153857Y0453942D01*
X0153169Y0451373D01*
X0153169Y0448714D01*
X0153857Y0446146D01*
X0155186Y0443843D01*
X0157067Y0441962D01*
X0159370Y0440633D01*
X0161938Y0439945D01*
X0164597Y0439945D01*
X0167166Y0440633D01*
X0169469Y0441962D01*
X0171349Y0443843D01*
X0172679Y0446146D01*
X0173367Y0448714D01*
X0173367Y0451373D01*
X0172679Y0453942D01*
X0171349Y0456245D01*
X0169469Y0458125D01*
X0167166Y0459455D01*
X0164597Y0460143D01*
X0161938Y0460143D01*
X0159370Y0459455D01*
X0157067Y0458125D01*
X0155186Y0456245D01*
X0154483Y0455027D02*
X0067197Y0455027D01*
X0067197Y0453428D02*
X0153719Y0453428D01*
X0153291Y0451830D02*
X0067197Y0451830D01*
X0067197Y0450231D02*
X0153169Y0450231D01*
X0153190Y0448633D02*
X0127186Y0448633D01*
X0127319Y0448500D02*
X0126283Y0449536D01*
X0124929Y0450097D01*
X0123464Y0450097D01*
X0122111Y0449536D01*
X0121075Y0448500D01*
X0120514Y0447146D01*
X0120514Y0446408D01*
X0097144Y0423037D01*
X0089181Y0423037D01*
X0088944Y0423610D01*
X0087369Y0425185D01*
X0086180Y0425677D01*
X0088965Y0428462D01*
X0088965Y0432413D01*
X0086172Y0435206D01*
X0082222Y0435206D01*
X0079428Y0432413D01*
X0079428Y0428462D01*
X0081853Y0426037D01*
X0077107Y0426037D01*
X0075048Y0425185D01*
X0067197Y0417333D01*
X0067197Y0462976D01*
X0176197Y0462976D01*
X0176197Y0462976D01*
X0176199Y0462976D01*
X0176199Y0462975D01*
X0176200Y0462974D01*
X0176200Y0462973D01*
X0176200Y0416088D01*
X0159880Y0432408D01*
X0159880Y0433146D01*
X0159319Y0434500D01*
X0158283Y0435536D01*
X0156929Y0436097D01*
X0155464Y0436097D01*
X0154111Y0435536D01*
X0153075Y0434500D01*
X0152514Y0433146D01*
X0152514Y0431681D01*
X0153075Y0430328D01*
X0154111Y0429292D01*
X0155464Y0428731D01*
X0156203Y0428731D01*
X0172597Y0412337D01*
X0172597Y0370691D01*
X0155401Y0387887D01*
X0154670Y0388618D01*
X0153714Y0389014D01*
X0145805Y0389014D01*
X0145283Y0389536D01*
X0143929Y0390097D01*
X0142464Y0390097D01*
X0141111Y0389536D01*
X0140075Y0388500D01*
X0139514Y0387146D01*
X0139514Y0385681D01*
X0140075Y0384328D01*
X0141111Y0383292D01*
X0142464Y0382731D01*
X0143929Y0382731D01*
X0145283Y0383292D01*
X0145805Y0383814D01*
X0152120Y0383814D01*
X0168597Y0367337D01*
X0168597Y0302691D01*
X0167880Y0303408D01*
X0167880Y0304146D01*
X0167319Y0305500D01*
X0166283Y0306536D01*
X0164929Y0307097D01*
X0163464Y0307097D01*
X0162111Y0306536D01*
X0161075Y0305500D01*
X0160514Y0304146D01*
X0160514Y0302681D01*
X0160756Y0302097D01*
X0159464Y0302097D01*
X0158111Y0301536D01*
X0157075Y0300500D01*
X0156514Y0299146D01*
X0156514Y0297681D01*
X0157075Y0296328D01*
X0158111Y0295292D01*
X0159464Y0294731D01*
X0160597Y0294731D01*
X0160597Y0214897D01*
X0160993Y0213941D01*
X0161724Y0213210D01*
X0164597Y0210337D01*
X0164597Y0209691D01*
X0162401Y0211887D01*
X0161670Y0212618D01*
X0160714Y0213014D01*
X0140680Y0213014D01*
X0139724Y0212618D01*
X0130120Y0203014D01*
X0110274Y0203014D01*
X0106797Y0206491D01*
X0106797Y0223806D01*
X0107319Y0224328D01*
X0107880Y0225681D01*
X0107880Y0227146D01*
X0107319Y0228500D01*
X0106283Y0229536D01*
X0104929Y0230097D01*
X0103464Y0230097D01*
X0102111Y0229536D01*
X0101075Y0228500D01*
X0100514Y0227146D01*
X0100514Y0225681D01*
X0101075Y0224328D01*
X0101597Y0223806D01*
X0101597Y0204897D01*
X0101993Y0203941D01*
X0106920Y0199014D01*
X0076797Y0199014D01*
X0076797Y0218814D01*
X0084939Y0218814D01*
X0084950Y0218819D01*
X0086172Y0218819D01*
X0088965Y0221612D01*
X0088965Y0225562D01*
X0086172Y0228356D01*
X0082222Y0228356D01*
X0081880Y0228014D01*
X0076797Y0228014D01*
X0076797Y0238814D01*
X0111589Y0238814D01*
X0112111Y0238292D01*
X0113464Y0237731D01*
X0114929Y0237731D01*
X0116283Y0238292D01*
X0117319Y0239328D01*
X0117880Y0240681D01*
X0117880Y0242146D01*
X0117319Y0243500D01*
X0116283Y0244536D01*
X0114929Y0245097D01*
X0113464Y0245097D01*
X0112111Y0244536D01*
X0111589Y0244014D01*
X0076797Y0244014D01*
X0076797Y0267200D01*
X0085311Y0267200D01*
X0087369Y0268052D01*
X0088944Y0269628D01*
X0089797Y0271686D01*
X0089797Y0273914D01*
X0088944Y0275972D01*
X0087369Y0277547D01*
X0086180Y0278040D01*
X0088965Y0280825D01*
X0088965Y0284775D01*
X0086172Y0287568D01*
X0082222Y0287568D01*
X0079428Y0284775D01*
X0079428Y0280825D01*
X0081853Y0278400D01*
X0076797Y0278400D01*
X0076797Y0289814D01*
X0116590Y0289814D01*
X0117112Y0289292D01*
X0118465Y0288731D01*
X0119930Y0288731D01*
X0121284Y0289292D01*
X0122320Y0290328D01*
X0122880Y0291681D01*
X0122880Y0293146D01*
X0122320Y0294500D01*
X0121284Y0295536D01*
X0119930Y0296097D01*
X0118465Y0296097D01*
X0117112Y0295536D01*
X0116590Y0295014D01*
X0076797Y0295014D01*
X0076797Y0316412D01*
X0085311Y0316412D01*
X0087369Y0317265D01*
X0088944Y0318840D01*
X0089181Y0319412D01*
X0125312Y0319412D01*
X0126268Y0319808D01*
X0126999Y0320540D01*
X0137191Y0330731D01*
X0137929Y0330731D01*
X0139283Y0331292D01*
X0140319Y0332328D01*
X0140880Y0333681D01*
X0140880Y0335146D01*
X0140319Y0336500D01*
X0139283Y0337536D01*
X0137929Y0338097D01*
X0136464Y0338097D01*
X0135111Y0337536D01*
X0134075Y0336500D01*
X0133514Y0335146D01*
X0133514Y0334408D01*
X0123718Y0324612D01*
X0089181Y0324612D01*
X0088944Y0325184D01*
X0087369Y0326760D01*
X0086180Y0327252D01*
X0088965Y0330037D01*
X0088965Y0333987D01*
X0086172Y0336781D01*
X0082222Y0336781D01*
X0079428Y0333987D01*
X0079428Y0330037D01*
X0081853Y0327612D01*
X0076797Y0327612D01*
X0076797Y0365625D01*
X0085311Y0365625D01*
X0087369Y0366477D01*
X0088944Y0368053D01*
X0089797Y0370111D01*
X0089797Y0372339D01*
X0088944Y0374397D01*
X0087369Y0375972D01*
X0086180Y0376465D01*
X0088965Y0379250D01*
X0088965Y0383200D01*
X0086172Y0385993D01*
X0082222Y0385993D01*
X0079428Y0383200D01*
X0079428Y0379250D01*
X0081853Y0376825D01*
X0076797Y0376825D01*
X0076797Y0411094D01*
X0080540Y0414837D01*
X0085311Y0414837D01*
X0087369Y0415690D01*
X0088944Y0417265D01*
X0089181Y0417837D01*
X0118096Y0417837D01*
X0140514Y0395420D01*
X0140514Y0394681D01*
X0141075Y0393328D01*
X0142111Y0392292D01*
X0143464Y0391731D01*
X0144929Y0391731D01*
X0146283Y0392292D01*
X0147319Y0393328D01*
X0147880Y0394681D01*
X0147880Y0396146D01*
X0147319Y0397500D01*
X0146283Y0398536D01*
X0144929Y0399097D01*
X0144191Y0399097D01*
X0121377Y0421910D01*
X0120646Y0422642D01*
X0119690Y0423037D01*
X0104497Y0423037D01*
X0124191Y0442731D01*
X0124929Y0442731D01*
X0126283Y0443292D01*
X0127319Y0444328D01*
X0127880Y0445681D01*
X0127880Y0447146D01*
X0127319Y0448500D01*
X0127880Y0447034D02*
X0153619Y0447034D01*
X0154267Y0445436D02*
X0127778Y0445436D01*
X0126828Y0443837D02*
X0155192Y0443837D01*
X0156790Y0442239D02*
X0123699Y0442239D01*
X0122100Y0440640D02*
X0159357Y0440640D01*
X0157537Y0435845D02*
X0176200Y0435845D01*
X0176200Y0437443D02*
X0118903Y0437443D01*
X0117305Y0435845D02*
X0154856Y0435845D01*
X0152970Y0434246D02*
X0115706Y0434246D01*
X0114108Y0432648D02*
X0152514Y0432648D01*
X0152776Y0431049D02*
X0112509Y0431049D01*
X0110911Y0429451D02*
X0153952Y0429451D01*
X0157082Y0427852D02*
X0109312Y0427852D01*
X0107714Y0426254D02*
X0158680Y0426254D01*
X0160279Y0424655D02*
X0106115Y0424655D01*
X0104516Y0423057D02*
X0161877Y0423057D01*
X0163476Y0421458D02*
X0121830Y0421458D01*
X0123428Y0419860D02*
X0165074Y0419860D01*
X0166673Y0418261D02*
X0125027Y0418261D01*
X0126625Y0416663D02*
X0168271Y0416663D01*
X0169870Y0415064D02*
X0128224Y0415064D01*
X0129822Y0413466D02*
X0171468Y0413466D01*
X0172597Y0411867D02*
X0131421Y0411867D01*
X0133019Y0410269D02*
X0172597Y0410269D01*
X0172597Y0408670D02*
X0134618Y0408670D01*
X0136216Y0407071D02*
X0172597Y0407071D01*
X0172597Y0405473D02*
X0137815Y0405473D01*
X0139413Y0403874D02*
X0172597Y0403874D01*
X0172597Y0402276D02*
X0141012Y0402276D01*
X0142610Y0400677D02*
X0172597Y0400677D01*
X0172597Y0399079D02*
X0144972Y0399079D01*
X0147327Y0397480D02*
X0172597Y0397480D01*
X0172597Y0395882D02*
X0147880Y0395882D01*
X0147715Y0394283D02*
X0172597Y0394283D01*
X0172597Y0392685D02*
X0146676Y0392685D01*
X0145331Y0389488D02*
X0172597Y0389488D01*
X0172597Y0391086D02*
X0076797Y0391086D01*
X0076797Y0389488D02*
X0141063Y0389488D01*
X0139822Y0387889D02*
X0076797Y0387889D01*
X0076797Y0386291D02*
X0104806Y0386291D01*
X0104930Y0386324D02*
X0102362Y0385636D01*
X0100059Y0384306D01*
X0098178Y0382426D01*
X0096849Y0380123D01*
X0096161Y0377554D01*
X0096161Y0374895D01*
X0096849Y0372327D01*
X0098178Y0370024D01*
X0100059Y0368144D01*
X0102362Y0366814D01*
X0104930Y0366126D01*
X0107589Y0366126D01*
X0110158Y0366814D01*
X0112461Y0368144D01*
X0114341Y0370024D01*
X0115671Y0372327D01*
X0116359Y0374895D01*
X0116359Y0377554D01*
X0115671Y0380123D01*
X0114341Y0382426D01*
X0112461Y0384306D01*
X0110158Y0385636D01*
X0107589Y0386324D01*
X0104930Y0386324D01*
X0107714Y0386291D02*
X0139514Y0386291D01*
X0139924Y0384692D02*
X0111792Y0384692D01*
X0113673Y0383094D02*
X0141589Y0383094D01*
X0144805Y0383094D02*
X0152840Y0383094D01*
X0154438Y0381495D02*
X0114879Y0381495D01*
X0115731Y0379897D02*
X0156037Y0379897D01*
X0157635Y0378298D02*
X0116160Y0378298D01*
X0116359Y0376700D02*
X0159234Y0376700D01*
X0160833Y0375101D02*
X0116359Y0375101D01*
X0115986Y0373503D02*
X0162431Y0373503D01*
X0164030Y0371904D02*
X0115427Y0371904D01*
X0114504Y0370306D02*
X0165628Y0370306D01*
X0167227Y0368707D02*
X0113025Y0368707D01*
X0110669Y0367109D02*
X0168597Y0367109D01*
X0168597Y0365510D02*
X0076797Y0365510D01*
X0076797Y0363912D02*
X0168597Y0363912D01*
X0168597Y0362313D02*
X0076797Y0362313D01*
X0076797Y0360715D02*
X0168597Y0360715D01*
X0168597Y0359116D02*
X0076797Y0359116D01*
X0076797Y0357518D02*
X0168597Y0357518D01*
X0168597Y0355919D02*
X0076797Y0355919D01*
X0076797Y0354321D02*
X0168597Y0354321D01*
X0168597Y0352722D02*
X0076797Y0352722D01*
X0076797Y0351124D02*
X0168597Y0351124D01*
X0168597Y0349525D02*
X0076797Y0349525D01*
X0076797Y0347927D02*
X0168597Y0347927D01*
X0168597Y0346328D02*
X0076797Y0346328D01*
X0076797Y0344730D02*
X0168597Y0344730D01*
X0168597Y0343131D02*
X0076797Y0343131D01*
X0076797Y0341533D02*
X0168597Y0341533D01*
X0168597Y0339934D02*
X0076797Y0339934D01*
X0076797Y0338335D02*
X0168597Y0338335D01*
X0168597Y0336737D02*
X0140082Y0336737D01*
X0140880Y0335138D02*
X0168597Y0335138D01*
X0168597Y0333540D02*
X0140821Y0333540D01*
X0139933Y0331941D02*
X0168597Y0331941D01*
X0168597Y0330343D02*
X0136803Y0330343D01*
X0135204Y0328744D02*
X0168597Y0328744D01*
X0168597Y0327146D02*
X0133606Y0327146D01*
X0132007Y0325547D02*
X0168597Y0325547D01*
X0168597Y0323949D02*
X0130409Y0323949D01*
X0128810Y0322350D02*
X0168597Y0322350D01*
X0168597Y0320752D02*
X0127212Y0320752D01*
X0126999Y0320540D02*
X0126999Y0320540D01*
X0126252Y0327146D02*
X0086437Y0327146D01*
X0087673Y0328744D02*
X0127850Y0328744D01*
X0129449Y0330343D02*
X0088965Y0330343D01*
X0088965Y0331941D02*
X0131047Y0331941D01*
X0132646Y0333540D02*
X0088965Y0333540D01*
X0087814Y0335138D02*
X0133514Y0335138D01*
X0134312Y0336737D02*
X0086216Y0336737D01*
X0082178Y0336737D02*
X0076797Y0336737D01*
X0076797Y0335138D02*
X0080579Y0335138D01*
X0079428Y0333540D02*
X0076797Y0333540D01*
X0076797Y0331941D02*
X0079428Y0331941D01*
X0079428Y0330343D02*
X0076797Y0330343D01*
X0076797Y0328744D02*
X0080721Y0328744D01*
X0076797Y0315956D02*
X0118126Y0315956D01*
X0118464Y0316097D02*
X0117111Y0315536D01*
X0116075Y0314500D01*
X0115514Y0313146D01*
X0115514Y0311681D01*
X0116075Y0310328D01*
X0117111Y0309292D01*
X0118464Y0308731D01*
X0119203Y0308731D01*
X0126724Y0301210D01*
X0127680Y0300814D01*
X0133589Y0300814D01*
X0134111Y0300292D01*
X0135464Y0299731D01*
X0136929Y0299731D01*
X0138283Y0300292D01*
X0139319Y0301328D01*
X0139880Y0302681D01*
X0139880Y0304146D01*
X0139319Y0305500D01*
X0138283Y0306536D01*
X0136929Y0307097D01*
X0135464Y0307097D01*
X0134111Y0306536D01*
X0133589Y0306014D01*
X0129274Y0306014D01*
X0122880Y0312408D01*
X0122880Y0313146D01*
X0122319Y0314500D01*
X0121283Y0315536D01*
X0119929Y0316097D01*
X0118464Y0316097D01*
X0120268Y0315956D02*
X0168597Y0315956D01*
X0168597Y0314358D02*
X0122378Y0314358D01*
X0122880Y0312759D02*
X0168597Y0312759D01*
X0168597Y0311161D02*
X0124127Y0311161D01*
X0125725Y0309562D02*
X0168597Y0309562D01*
X0168597Y0307964D02*
X0127324Y0307964D01*
X0128922Y0306365D02*
X0133940Y0306365D01*
X0134885Y0299971D02*
X0076797Y0299971D01*
X0076797Y0298373D02*
X0156514Y0298373D01*
X0156856Y0299971D02*
X0137509Y0299971D01*
X0139419Y0301570D02*
X0158192Y0301570D01*
X0160514Y0303168D02*
X0139880Y0303168D01*
X0139623Y0304767D02*
X0160771Y0304767D01*
X0161940Y0306365D02*
X0138454Y0306365D01*
X0126364Y0301570D02*
X0076797Y0301570D01*
X0076797Y0303168D02*
X0124766Y0303168D01*
X0123167Y0304767D02*
X0076797Y0304767D01*
X0076797Y0306365D02*
X0121569Y0306365D01*
X0119970Y0307964D02*
X0076797Y0307964D01*
X0076797Y0309562D02*
X0116840Y0309562D01*
X0115730Y0311161D02*
X0076797Y0311161D01*
X0076797Y0312759D02*
X0115514Y0312759D01*
X0116016Y0314358D02*
X0076797Y0314358D01*
X0076797Y0296774D02*
X0156890Y0296774D01*
X0158391Y0295176D02*
X0121644Y0295176D01*
X0122702Y0293577D02*
X0160597Y0293577D01*
X0160597Y0291979D02*
X0122880Y0291979D01*
X0122341Y0290380D02*
X0160597Y0290380D01*
X0160597Y0288782D02*
X0120052Y0288782D01*
X0118343Y0288782D02*
X0076797Y0288782D01*
X0076797Y0287183D02*
X0081837Y0287183D01*
X0080238Y0285585D02*
X0076797Y0285585D01*
X0076797Y0283986D02*
X0079428Y0283986D01*
X0079428Y0282388D02*
X0076797Y0282388D01*
X0076797Y0280789D02*
X0079464Y0280789D01*
X0081062Y0279191D02*
X0076797Y0279191D01*
X0076797Y0266402D02*
X0160597Y0266402D01*
X0160597Y0264804D02*
X0076797Y0264804D01*
X0076797Y0263205D02*
X0160597Y0263205D01*
X0160597Y0261607D02*
X0076797Y0261607D01*
X0076797Y0260008D02*
X0160597Y0260008D01*
X0160597Y0258410D02*
X0076797Y0258410D01*
X0076797Y0256811D02*
X0160597Y0256811D01*
X0160597Y0255213D02*
X0076797Y0255213D01*
X0076797Y0253614D02*
X0160597Y0253614D01*
X0160597Y0252016D02*
X0076797Y0252016D01*
X0076797Y0250417D02*
X0160597Y0250417D01*
X0160597Y0248819D02*
X0076797Y0248819D01*
X0076797Y0247220D02*
X0160597Y0247220D01*
X0160597Y0245622D02*
X0076797Y0245622D01*
X0076797Y0244023D02*
X0111598Y0244023D01*
X0116795Y0244023D02*
X0160597Y0244023D01*
X0160597Y0242425D02*
X0117764Y0242425D01*
X0117880Y0240826D02*
X0160597Y0240826D01*
X0160597Y0239228D02*
X0117219Y0239228D01*
X0107510Y0228038D02*
X0160597Y0228038D01*
X0160597Y0226440D02*
X0107880Y0226440D01*
X0107532Y0224841D02*
X0160597Y0224841D01*
X0160597Y0223243D02*
X0106797Y0223243D01*
X0106797Y0221644D02*
X0160597Y0221644D01*
X0160597Y0220046D02*
X0106797Y0220046D01*
X0106797Y0218447D02*
X0160597Y0218447D01*
X0160597Y0216849D02*
X0106797Y0216849D01*
X0106797Y0215250D02*
X0160597Y0215250D01*
X0161282Y0213652D02*
X0106797Y0213652D01*
X0106797Y0212053D02*
X0139159Y0212053D01*
X0137561Y0210455D02*
X0106797Y0210455D01*
X0106797Y0208856D02*
X0135962Y0208856D01*
X0134364Y0207258D02*
X0106797Y0207258D01*
X0107629Y0205659D02*
X0132765Y0205659D01*
X0131167Y0204061D02*
X0109227Y0204061D01*
X0106669Y0199265D02*
X0076797Y0199265D01*
X0076797Y0200864D02*
X0105070Y0200864D01*
X0103472Y0202462D02*
X0076797Y0202462D01*
X0076797Y0204061D02*
X0101943Y0204061D01*
X0101597Y0205659D02*
X0076797Y0205659D01*
X0076797Y0207258D02*
X0101597Y0207258D01*
X0101597Y0208856D02*
X0076797Y0208856D01*
X0076797Y0210455D02*
X0101597Y0210455D01*
X0101597Y0212053D02*
X0076797Y0212053D01*
X0076797Y0213652D02*
X0101597Y0213652D01*
X0101597Y0215250D02*
X0076797Y0215250D01*
X0076797Y0216849D02*
X0101597Y0216849D01*
X0101597Y0218447D02*
X0076797Y0218447D01*
X0076797Y0228038D02*
X0081904Y0228038D01*
X0082222Y0228819D02*
X0086172Y0228819D01*
X0088965Y0231612D01*
X0088965Y0235562D01*
X0086172Y0238356D01*
X0082222Y0238356D01*
X0079428Y0235562D01*
X0079428Y0231612D01*
X0082222Y0228819D01*
X0081404Y0229637D02*
X0076797Y0229637D01*
X0076797Y0231235D02*
X0079805Y0231235D01*
X0079428Y0232834D02*
X0076797Y0232834D01*
X0076797Y0234432D02*
X0079428Y0234432D01*
X0079897Y0236031D02*
X0076797Y0236031D01*
X0076797Y0237629D02*
X0081495Y0237629D01*
X0086898Y0237629D02*
X0160597Y0237629D01*
X0160597Y0236031D02*
X0088497Y0236031D01*
X0088965Y0234432D02*
X0160597Y0234432D01*
X0160597Y0232834D02*
X0088965Y0232834D01*
X0088589Y0231235D02*
X0160597Y0231235D01*
X0160597Y0229637D02*
X0106039Y0229637D01*
X0102354Y0229637D02*
X0086990Y0229637D01*
X0086489Y0228038D02*
X0100884Y0228038D01*
X0100514Y0226440D02*
X0088088Y0226440D01*
X0088965Y0224841D02*
X0100862Y0224841D01*
X0101597Y0223243D02*
X0088965Y0223243D01*
X0088965Y0221644D02*
X0101597Y0221644D01*
X0101597Y0220046D02*
X0087399Y0220046D01*
X0087501Y0187814D02*
X0115791Y0187814D01*
X0115514Y0187146D01*
X0115514Y0185681D01*
X0116075Y0184328D01*
X0117111Y0183292D01*
X0118464Y0182731D01*
X0119929Y0182731D01*
X0121283Y0183292D01*
X0122319Y0184328D01*
X0122880Y0185681D01*
X0122880Y0187146D01*
X0122603Y0187814D01*
X0135311Y0187814D01*
X0137369Y0188666D01*
X0138944Y0190242D01*
X0147404Y0198701D01*
X0149748Y0196357D01*
X0149588Y0196382D01*
X0149381Y0196382D01*
X0149381Y0191598D01*
X0154165Y0191598D01*
X0154165Y0191805D01*
X0154140Y0191965D01*
X0154428Y0191677D01*
X0154428Y0190465D01*
X0155154Y0188713D01*
X0156496Y0187371D01*
X0158248Y0186645D01*
X0160145Y0186645D01*
X0161597Y0187247D01*
X0161597Y0185581D01*
X0160145Y0186182D01*
X0158248Y0186182D01*
X0156496Y0185456D01*
X0155154Y0184115D01*
X0154428Y0182362D01*
X0154428Y0180465D01*
X0155154Y0178713D01*
X0156496Y0177371D01*
X0158248Y0176645D01*
X0160145Y0176645D01*
X0161597Y0177247D01*
X0161597Y0175581D01*
X0160145Y0176182D01*
X0158248Y0176182D01*
X0156496Y0175456D01*
X0155154Y0174115D01*
X0154428Y0172362D01*
X0154428Y0170465D01*
X0155017Y0169045D01*
X0153711Y0169045D01*
X0153308Y0168878D01*
X0153965Y0170465D01*
X0153965Y0172362D01*
X0153239Y0174115D01*
X0151898Y0175456D01*
X0150145Y0176182D01*
X0148248Y0176182D01*
X0146496Y0175456D01*
X0145154Y0174115D01*
X0144428Y0172362D01*
X0144428Y0170465D01*
X0145154Y0168713D01*
X0146496Y0167371D01*
X0148248Y0166645D01*
X0150145Y0166645D01*
X0151180Y0167074D01*
X0150247Y0166140D01*
X0150145Y0166182D01*
X0148248Y0166182D01*
X0146496Y0165456D01*
X0145154Y0164115D01*
X0144428Y0162362D01*
X0144428Y0160465D01*
X0145030Y0159014D01*
X0110274Y0159014D01*
X0101139Y0168148D01*
X0101319Y0168328D01*
X0101880Y0169681D01*
X0101880Y0171146D01*
X0101319Y0172500D01*
X0100283Y0173536D01*
X0098929Y0174097D01*
X0097464Y0174097D01*
X0096111Y0173536D01*
X0095075Y0172500D01*
X0094514Y0171146D01*
X0094514Y0169681D01*
X0095075Y0168328D01*
X0095597Y0167806D01*
X0095597Y0166897D01*
X0095993Y0165941D01*
X0106993Y0154941D01*
X0107724Y0154210D01*
X0108680Y0153814D01*
X0145030Y0153814D01*
X0144428Y0152362D01*
X0144428Y0150465D01*
X0145154Y0148713D01*
X0146496Y0147371D01*
X0146597Y0147329D01*
X0146597Y0131491D01*
X0141742Y0126636D01*
X0141142Y0126884D01*
X0139677Y0126884D01*
X0138323Y0126323D01*
X0137287Y0125287D01*
X0136727Y0123934D01*
X0136727Y0122469D01*
X0137287Y0121115D01*
X0138323Y0120079D01*
X0139677Y0119519D01*
X0141142Y0119519D01*
X0142496Y0120079D01*
X0143382Y0120966D01*
X0143457Y0120997D01*
X0144188Y0121728D01*
X0144188Y0121729D01*
X0150670Y0128210D01*
X0151401Y0128941D01*
X0151797Y0129897D01*
X0151797Y0147329D01*
X0151898Y0147371D01*
X0153239Y0148713D01*
X0153965Y0150465D01*
X0153965Y0152362D01*
X0153364Y0153814D01*
X0154714Y0153814D01*
X0155095Y0153972D01*
X0154428Y0152362D01*
X0154428Y0150465D01*
X0155154Y0148713D01*
X0156496Y0147371D01*
X0156597Y0147329D01*
X0156597Y0089491D01*
X0152120Y0085014D01*
X0119680Y0085014D01*
X0118724Y0084618D01*
X0117993Y0083887D01*
X0111203Y0077097D01*
X0110464Y0077097D01*
X0109111Y0076536D01*
X0108075Y0075500D01*
X0107514Y0074146D01*
X0107514Y0072681D01*
X0108075Y0071328D01*
X0109111Y0070292D01*
X0110464Y0069731D01*
X0111929Y0069731D01*
X0113283Y0070292D01*
X0114319Y0071328D01*
X0114880Y0072681D01*
X0114880Y0073420D01*
X0121274Y0079814D01*
X0153714Y0079814D01*
X0154670Y0080210D01*
X0155401Y0080941D01*
X0161401Y0086941D01*
X0161797Y0087897D01*
X0161797Y0147329D01*
X0161898Y0147371D01*
X0163239Y0148713D01*
X0163965Y0150465D01*
X0163965Y0152362D01*
X0163239Y0154115D01*
X0161898Y0155456D01*
X0160145Y0156182D01*
X0158248Y0156182D01*
X0157214Y0155754D01*
X0158147Y0156687D01*
X0158248Y0156645D01*
X0160145Y0156645D01*
X0161898Y0157371D01*
X0163239Y0158713D01*
X0163965Y0160465D01*
X0163965Y0162362D01*
X0163239Y0164115D01*
X0162920Y0164434D01*
X0163514Y0165028D01*
X0163514Y0163681D01*
X0164075Y0162328D01*
X0165111Y0161292D01*
X0166464Y0160731D01*
X0167929Y0160731D01*
X0169283Y0161292D01*
X0170319Y0162328D01*
X0170880Y0163681D01*
X0170880Y0165146D01*
X0170319Y0166500D01*
X0169797Y0167022D01*
X0169797Y0173606D01*
X0170111Y0173292D01*
X0171464Y0172731D01*
X0172929Y0172731D01*
X0174283Y0173292D01*
X0175319Y0174328D01*
X0175880Y0175681D01*
X0175880Y0177146D01*
X0175319Y0178500D01*
X0174283Y0179536D01*
X0173811Y0179731D01*
X0174929Y0179731D01*
X0176200Y0180258D01*
X0176200Y0043414D01*
X0176200Y0043413D01*
X0176199Y0043412D01*
X0176199Y0043411D01*
X0176197Y0043411D01*
X0067197Y0043411D01*
X0067197Y0075494D01*
X0068025Y0074666D01*
X0071489Y0071202D01*
X0073548Y0070349D01*
X0085311Y0070349D01*
X0087369Y0071202D01*
X0088944Y0072777D01*
X0089797Y0074835D01*
X0089797Y0077063D01*
X0088944Y0079121D01*
X0087369Y0080697D01*
X0086180Y0081189D01*
X0088965Y0083974D01*
X0088965Y0087924D01*
X0086172Y0090718D01*
X0082222Y0090718D01*
X0079428Y0087924D01*
X0079428Y0083974D01*
X0081853Y0081549D01*
X0076981Y0081549D01*
X0076797Y0081733D01*
X0076797Y0095814D01*
X0116120Y0095814D01*
X0117597Y0094337D01*
X0117597Y0094022D01*
X0117075Y0093500D01*
X0116514Y0092146D01*
X0116514Y0090681D01*
X0117075Y0089328D01*
X0118111Y0088292D01*
X0119464Y0087731D01*
X0120929Y0087731D01*
X0122283Y0088292D01*
X0123319Y0089328D01*
X0123880Y0090681D01*
X0123880Y0092146D01*
X0123319Y0093500D01*
X0122797Y0094022D01*
X0122797Y0095931D01*
X0122401Y0096887D01*
X0119401Y0099887D01*
X0118670Y0100618D01*
X0117714Y0101014D01*
X0076797Y0101014D01*
X0076797Y0119814D01*
X0085059Y0119814D01*
X0087117Y0120666D01*
X0088692Y0122242D01*
X0089545Y0124300D01*
X0089545Y0126528D01*
X0088692Y0128586D01*
X0087117Y0130161D01*
X0086285Y0130506D01*
X0088965Y0133187D01*
X0088965Y0137137D01*
X0086172Y0139930D01*
X0082222Y0139930D01*
X0079428Y0137137D01*
X0079428Y0133187D01*
X0081601Y0131014D01*
X0076797Y0131014D01*
X0076797Y0168814D01*
X0085271Y0168814D01*
X0087330Y0169666D01*
X0088905Y0171242D01*
X0089757Y0173300D01*
X0089757Y0175528D01*
X0088905Y0177586D01*
X0087330Y0179161D01*
X0086197Y0179631D01*
X0088965Y0182399D01*
X0088965Y0186350D01*
X0087501Y0187814D01*
X0088838Y0186477D02*
X0115514Y0186477D01*
X0115847Y0184878D02*
X0088965Y0184878D01*
X0088965Y0183280D02*
X0117140Y0183280D01*
X0121254Y0183280D02*
X0144808Y0183280D01*
X0145154Y0184115D02*
X0144428Y0182362D01*
X0144428Y0180465D01*
X0145154Y0178713D01*
X0146496Y0177371D01*
X0148248Y0176645D01*
X0150145Y0176645D01*
X0151898Y0177371D01*
X0153239Y0178713D01*
X0153965Y0180465D01*
X0153965Y0182362D01*
X0153239Y0184115D01*
X0151898Y0185456D01*
X0150145Y0186182D01*
X0148248Y0186182D01*
X0146496Y0185456D01*
X0145154Y0184115D01*
X0145918Y0184878D02*
X0122547Y0184878D01*
X0122880Y0186477D02*
X0148607Y0186477D01*
X0148806Y0186445D02*
X0148033Y0186568D01*
X0147290Y0186809D01*
X0146593Y0187164D01*
X0145960Y0187624D01*
X0145407Y0188177D01*
X0144947Y0188810D01*
X0144592Y0189507D01*
X0144351Y0190250D01*
X0144228Y0191023D01*
X0144228Y0191230D01*
X0149013Y0191230D01*
X0149381Y0191230D01*
X0149381Y0191598D01*
X0149013Y0191598D01*
X0149013Y0196382D01*
X0148806Y0196382D01*
X0148033Y0196260D01*
X0147290Y0196018D01*
X0146593Y0195663D01*
X0145960Y0195204D01*
X0145407Y0194651D01*
X0144947Y0194018D01*
X0144592Y0193321D01*
X0144351Y0192577D01*
X0144228Y0191805D01*
X0144228Y0191598D01*
X0149013Y0191598D01*
X0149013Y0191230D01*
X0149013Y0186445D01*
X0148806Y0186445D01*
X0149013Y0186477D02*
X0149381Y0186477D01*
X0149381Y0186445D02*
X0149588Y0186445D01*
X0150360Y0186568D01*
X0151104Y0186809D01*
X0151801Y0187164D01*
X0152434Y0187624D01*
X0152987Y0188177D01*
X0153446Y0188810D01*
X0153801Y0189507D01*
X0154043Y0190250D01*
X0154165Y0191023D01*
X0154165Y0191230D01*
X0149381Y0191230D01*
X0149381Y0186445D01*
X0149787Y0186477D02*
X0161597Y0186477D01*
X0161597Y0176886D02*
X0160726Y0176886D01*
X0157668Y0176886D02*
X0150726Y0176886D01*
X0152067Y0175287D02*
X0156327Y0175287D01*
X0154978Y0173689D02*
X0153416Y0173689D01*
X0153965Y0172090D02*
X0154428Y0172090D01*
X0154428Y0170492D02*
X0153965Y0170492D01*
X0153344Y0168893D02*
X0153314Y0168893D01*
X0153011Y0178484D02*
X0155383Y0178484D01*
X0154587Y0180083D02*
X0153807Y0180083D01*
X0153965Y0181681D02*
X0154428Y0181681D01*
X0154808Y0183280D02*
X0153585Y0183280D01*
X0152476Y0184878D02*
X0155918Y0184878D01*
X0155792Y0188075D02*
X0152885Y0188075D01*
X0153856Y0189674D02*
X0154756Y0189674D01*
X0154428Y0191272D02*
X0149381Y0191272D01*
X0149013Y0191272D02*
X0139975Y0191272D01*
X0138377Y0189674D02*
X0144538Y0189674D01*
X0145509Y0188075D02*
X0135942Y0188075D01*
X0141574Y0192871D02*
X0144446Y0192871D01*
X0145275Y0194469D02*
X0143172Y0194469D01*
X0144771Y0196068D02*
X0147442Y0196068D01*
X0149013Y0196068D02*
X0149381Y0196068D01*
X0149381Y0194469D02*
X0149013Y0194469D01*
X0149013Y0192871D02*
X0149381Y0192871D01*
X0149381Y0189674D02*
X0149013Y0189674D01*
X0149013Y0188075D02*
X0149381Y0188075D01*
X0148439Y0197666D02*
X0146369Y0197666D01*
X0144428Y0181681D02*
X0088247Y0181681D01*
X0086649Y0180083D02*
X0144587Y0180083D01*
X0145383Y0178484D02*
X0088007Y0178484D01*
X0089195Y0176886D02*
X0147668Y0176886D01*
X0146327Y0175287D02*
X0089757Y0175287D01*
X0089757Y0173689D02*
X0096480Y0173689D01*
X0094905Y0172090D02*
X0089256Y0172090D01*
X0088155Y0170492D02*
X0094514Y0170492D01*
X0094841Y0168893D02*
X0085463Y0168893D01*
X0076797Y0167295D02*
X0095597Y0167295D01*
X0096237Y0165696D02*
X0076797Y0165696D01*
X0076797Y0164098D02*
X0097836Y0164098D01*
X0099435Y0162499D02*
X0076797Y0162499D01*
X0076797Y0160901D02*
X0101033Y0160901D01*
X0102632Y0159302D02*
X0076797Y0159302D01*
X0076797Y0157704D02*
X0104230Y0157704D01*
X0105829Y0156105D02*
X0076797Y0156105D01*
X0076797Y0154507D02*
X0107427Y0154507D01*
X0109985Y0159302D02*
X0144910Y0159302D01*
X0144428Y0160901D02*
X0108387Y0160901D01*
X0106788Y0162499D02*
X0144485Y0162499D01*
X0145147Y0164098D02*
X0105190Y0164098D01*
X0103591Y0165696D02*
X0147075Y0165696D01*
X0146681Y0167295D02*
X0101993Y0167295D01*
X0101553Y0168893D02*
X0145080Y0168893D01*
X0144428Y0170492D02*
X0101880Y0170492D01*
X0101489Y0172090D02*
X0144428Y0172090D01*
X0144978Y0173689D02*
X0099914Y0173689D01*
X0108867Y0140261D02*
X0106299Y0139573D01*
X0103996Y0138243D01*
X0102115Y0136363D01*
X0100786Y0134060D01*
X0100098Y0131491D01*
X0100098Y0128832D01*
X0100786Y0126264D01*
X0102115Y0123961D01*
X0103996Y0122081D01*
X0106299Y0120751D01*
X0108867Y0120063D01*
X0111526Y0120063D01*
X0114095Y0120751D01*
X0116398Y0122081D01*
X0118278Y0123961D01*
X0119608Y0126264D01*
X0120296Y0128832D01*
X0120296Y0131491D01*
X0119608Y0134060D01*
X0118278Y0136363D01*
X0116398Y0138243D01*
X0114095Y0139573D01*
X0111526Y0140261D01*
X0108867Y0140261D01*
X0108341Y0140120D02*
X0076797Y0140120D01*
X0076797Y0138522D02*
X0080813Y0138522D01*
X0079428Y0136923D02*
X0076797Y0136923D01*
X0076797Y0135325D02*
X0079428Y0135325D01*
X0079428Y0133726D02*
X0076797Y0133726D01*
X0076797Y0132128D02*
X0080488Y0132128D01*
X0076797Y0141719D02*
X0146597Y0141719D01*
X0146597Y0143317D02*
X0076797Y0143317D01*
X0076797Y0144916D02*
X0146597Y0144916D01*
X0146597Y0146514D02*
X0076797Y0146514D01*
X0076797Y0148113D02*
X0145754Y0148113D01*
X0144741Y0149711D02*
X0076797Y0149711D01*
X0076797Y0151310D02*
X0144428Y0151310D01*
X0144654Y0152908D02*
X0076797Y0152908D01*
X0086308Y0130529D02*
X0100098Y0130529D01*
X0100098Y0128931D02*
X0088348Y0128931D01*
X0089212Y0127332D02*
X0100500Y0127332D01*
X0101092Y0125733D02*
X0089545Y0125733D01*
X0089477Y0124135D02*
X0102015Y0124135D01*
X0103540Y0122536D02*
X0088814Y0122536D01*
X0087389Y0120938D02*
X0105975Y0120938D01*
X0100268Y0132128D02*
X0087906Y0132128D01*
X0088965Y0133726D02*
X0100696Y0133726D01*
X0101516Y0135325D02*
X0088965Y0135325D01*
X0088965Y0136923D02*
X0102676Y0136923D01*
X0104478Y0138522D02*
X0087581Y0138522D01*
X0076797Y0119339D02*
X0156597Y0119339D01*
X0156597Y0117741D02*
X0076797Y0117741D01*
X0076797Y0116142D02*
X0156597Y0116142D01*
X0156597Y0114544D02*
X0076797Y0114544D01*
X0076797Y0112945D02*
X0156597Y0112945D01*
X0156597Y0111347D02*
X0076797Y0111347D01*
X0076797Y0109748D02*
X0156597Y0109748D01*
X0156597Y0108150D02*
X0076797Y0108150D01*
X0076797Y0106551D02*
X0156597Y0106551D01*
X0156597Y0104953D02*
X0076797Y0104953D01*
X0076797Y0103354D02*
X0156597Y0103354D01*
X0156597Y0101756D02*
X0076797Y0101756D01*
X0076797Y0095362D02*
X0116572Y0095362D01*
X0117338Y0093763D02*
X0076797Y0093763D01*
X0076797Y0092165D02*
X0116522Y0092165D01*
X0116562Y0090566D02*
X0086324Y0090566D01*
X0087922Y0088968D02*
X0117435Y0088968D01*
X0118278Y0084172D02*
X0088965Y0084172D01*
X0088965Y0085771D02*
X0152877Y0085771D01*
X0154475Y0087369D02*
X0088965Y0087369D01*
X0087565Y0082574D02*
X0116680Y0082574D01*
X0117993Y0083887D02*
X0117993Y0083887D01*
X0120837Y0079377D02*
X0176200Y0079377D01*
X0176200Y0080975D02*
X0155435Y0080975D01*
X0157034Y0082574D02*
X0176200Y0082574D01*
X0176200Y0084172D02*
X0158632Y0084172D01*
X0160231Y0085771D02*
X0176200Y0085771D01*
X0176200Y0087369D02*
X0161578Y0087369D01*
X0161797Y0088968D02*
X0176200Y0088968D01*
X0176200Y0090566D02*
X0161797Y0090566D01*
X0161797Y0092165D02*
X0176200Y0092165D01*
X0176200Y0093763D02*
X0161797Y0093763D01*
X0161797Y0095362D02*
X0176200Y0095362D01*
X0176200Y0096960D02*
X0161797Y0096960D01*
X0161797Y0098559D02*
X0176200Y0098559D01*
X0176200Y0100157D02*
X0161797Y0100157D01*
X0161797Y0101756D02*
X0176200Y0101756D01*
X0176200Y0103354D02*
X0161797Y0103354D01*
X0161797Y0104953D02*
X0176200Y0104953D01*
X0176200Y0106551D02*
X0161797Y0106551D01*
X0161797Y0108150D02*
X0176200Y0108150D01*
X0176200Y0109748D02*
X0161797Y0109748D01*
X0161797Y0111347D02*
X0176200Y0111347D01*
X0176200Y0112945D02*
X0161797Y0112945D01*
X0161797Y0114544D02*
X0176200Y0114544D01*
X0176200Y0116142D02*
X0161797Y0116142D01*
X0161797Y0117741D02*
X0176200Y0117741D01*
X0176200Y0119339D02*
X0161797Y0119339D01*
X0161797Y0120938D02*
X0176200Y0120938D01*
X0176200Y0122536D02*
X0161797Y0122536D01*
X0161797Y0124135D02*
X0176200Y0124135D01*
X0176200Y0125733D02*
X0161797Y0125733D01*
X0161797Y0127332D02*
X0176200Y0127332D01*
X0176200Y0128931D02*
X0161797Y0128931D01*
X0161797Y0130529D02*
X0176200Y0130529D01*
X0176200Y0132128D02*
X0161797Y0132128D01*
X0161797Y0133726D02*
X0176200Y0133726D01*
X0176200Y0135325D02*
X0161797Y0135325D01*
X0161797Y0136923D02*
X0176200Y0136923D01*
X0176200Y0138522D02*
X0161797Y0138522D01*
X0161797Y0140120D02*
X0176200Y0140120D01*
X0176200Y0141719D02*
X0161797Y0141719D01*
X0161797Y0143317D02*
X0176200Y0143317D01*
X0176200Y0144916D02*
X0161797Y0144916D01*
X0161797Y0146514D02*
X0176200Y0146514D01*
X0176200Y0148113D02*
X0162639Y0148113D01*
X0163653Y0149711D02*
X0176200Y0149711D01*
X0176200Y0151310D02*
X0163965Y0151310D01*
X0163739Y0152908D02*
X0176200Y0152908D01*
X0176200Y0154507D02*
X0162848Y0154507D01*
X0160332Y0156105D02*
X0176200Y0156105D01*
X0176200Y0157704D02*
X0162230Y0157704D01*
X0163484Y0159302D02*
X0176200Y0159302D01*
X0176200Y0160901D02*
X0168339Y0160901D01*
X0166055Y0160901D02*
X0163965Y0160901D01*
X0163909Y0162499D02*
X0164004Y0162499D01*
X0163514Y0164098D02*
X0163247Y0164098D01*
X0158062Y0156105D02*
X0157565Y0156105D01*
X0154654Y0152908D02*
X0153739Y0152908D01*
X0153965Y0151310D02*
X0154428Y0151310D01*
X0154741Y0149711D02*
X0153653Y0149711D01*
X0152639Y0148113D02*
X0155754Y0148113D01*
X0156597Y0146514D02*
X0151797Y0146514D01*
X0151797Y0144916D02*
X0156597Y0144916D01*
X0156597Y0143317D02*
X0151797Y0143317D01*
X0151797Y0141719D02*
X0156597Y0141719D01*
X0156597Y0140120D02*
X0151797Y0140120D01*
X0151797Y0138522D02*
X0156597Y0138522D01*
X0156597Y0136923D02*
X0151797Y0136923D01*
X0151797Y0135325D02*
X0156597Y0135325D01*
X0156597Y0133726D02*
X0151797Y0133726D01*
X0151797Y0132128D02*
X0156597Y0132128D01*
X0156597Y0130529D02*
X0151797Y0130529D01*
X0151390Y0128931D02*
X0156597Y0128931D01*
X0156597Y0127332D02*
X0149792Y0127332D01*
X0150670Y0128210D02*
X0150670Y0128210D01*
X0148193Y0125733D02*
X0156597Y0125733D01*
X0156597Y0124135D02*
X0146595Y0124135D01*
X0144996Y0122536D02*
X0156597Y0122536D01*
X0156597Y0120938D02*
X0143354Y0120938D01*
X0142438Y0127332D02*
X0119894Y0127332D01*
X0120296Y0128931D02*
X0144037Y0128931D01*
X0145635Y0130529D02*
X0120296Y0130529D01*
X0120126Y0132128D02*
X0146597Y0132128D01*
X0146597Y0133726D02*
X0119697Y0133726D01*
X0118878Y0135325D02*
X0146597Y0135325D01*
X0146597Y0136923D02*
X0117718Y0136923D01*
X0115916Y0138522D02*
X0146597Y0138522D01*
X0146597Y0140120D02*
X0112053Y0140120D01*
X0119302Y0125733D02*
X0137734Y0125733D01*
X0136810Y0124135D02*
X0118379Y0124135D01*
X0116854Y0122536D02*
X0136727Y0122536D01*
X0137465Y0120938D02*
X0114419Y0120938D01*
X0119130Y0100157D02*
X0156597Y0100157D01*
X0156597Y0098559D02*
X0120729Y0098559D01*
X0122327Y0096960D02*
X0156597Y0096960D01*
X0156597Y0095362D02*
X0122797Y0095362D01*
X0123056Y0093763D02*
X0156597Y0093763D01*
X0156597Y0092165D02*
X0123872Y0092165D01*
X0123832Y0090566D02*
X0156597Y0090566D01*
X0156074Y0088968D02*
X0122959Y0088968D01*
X0119238Y0077778D02*
X0176200Y0077778D01*
X0176200Y0076180D02*
X0117640Y0076180D01*
X0116041Y0074581D02*
X0176200Y0074581D01*
X0176200Y0072983D02*
X0114880Y0072983D01*
X0114342Y0071384D02*
X0176200Y0071384D01*
X0176200Y0069786D02*
X0112061Y0069786D01*
X0110333Y0069786D02*
X0067197Y0069786D01*
X0067197Y0071384D02*
X0071307Y0071384D01*
X0069709Y0072983D02*
X0067197Y0072983D01*
X0067197Y0074581D02*
X0068110Y0074581D01*
X0067197Y0068187D02*
X0176200Y0068187D01*
X0176200Y0066589D02*
X0067197Y0066589D01*
X0067197Y0064990D02*
X0158046Y0064990D01*
X0157067Y0064424D02*
X0159370Y0065754D01*
X0161938Y0066442D01*
X0164597Y0066442D01*
X0167166Y0065754D01*
X0169469Y0064424D01*
X0171349Y0062544D01*
X0172679Y0060241D01*
X0173367Y0057673D01*
X0173367Y0055013D01*
X0172679Y0052445D01*
X0171349Y0050142D01*
X0169469Y0048262D01*
X0167166Y0046932D01*
X0164597Y0046244D01*
X0161938Y0046244D01*
X0159370Y0046932D01*
X0157067Y0048262D01*
X0155186Y0050142D01*
X0153857Y0052445D01*
X0153169Y0055013D01*
X0153169Y0057673D01*
X0153857Y0060241D01*
X0155186Y0062544D01*
X0157067Y0064424D01*
X0156034Y0063392D02*
X0067197Y0063392D01*
X0067197Y0061793D02*
X0154753Y0061793D01*
X0153844Y0060195D02*
X0067197Y0060195D01*
X0067197Y0058596D02*
X0153416Y0058596D01*
X0153169Y0056998D02*
X0067197Y0056998D01*
X0067197Y0055399D02*
X0153169Y0055399D01*
X0153494Y0053800D02*
X0067197Y0053800D01*
X0067197Y0052202D02*
X0153997Y0052202D01*
X0154920Y0050603D02*
X0067197Y0050603D01*
X0067197Y0049005D02*
X0156323Y0049005D01*
X0158548Y0047406D02*
X0067197Y0047406D01*
X0067197Y0045808D02*
X0176200Y0045808D01*
X0176200Y0047406D02*
X0167988Y0047406D01*
X0170212Y0049005D02*
X0176200Y0049005D01*
X0176200Y0050603D02*
X0171616Y0050603D01*
X0172538Y0052202D02*
X0176200Y0052202D01*
X0176200Y0053800D02*
X0173042Y0053800D01*
X0173367Y0055399D02*
X0176200Y0055399D01*
X0176200Y0056998D02*
X0173367Y0056998D01*
X0173120Y0058596D02*
X0176200Y0058596D01*
X0176200Y0060195D02*
X0172691Y0060195D01*
X0171783Y0061793D02*
X0176200Y0061793D01*
X0176200Y0063392D02*
X0170502Y0063392D01*
X0168489Y0064990D02*
X0176200Y0064990D01*
X0176200Y0044209D02*
X0067197Y0044209D01*
X0053197Y0047406D02*
X0046483Y0047406D01*
X0049175Y0049005D02*
X0053197Y0049005D01*
X0053197Y0050603D02*
X0051063Y0050603D01*
X0052662Y0052202D02*
X0053197Y0052202D01*
X0052670Y0052210D02*
X0052670Y0052210D01*
X0048505Y0055399D02*
X0046363Y0055399D01*
X0046019Y0056943D02*
X0048597Y0059520D01*
X0048597Y0063166D01*
X0046019Y0065743D01*
X0042374Y0065743D01*
X0039797Y0063166D01*
X0039797Y0059520D01*
X0042374Y0056943D01*
X0046019Y0056943D01*
X0046074Y0056998D02*
X0048597Y0056998D01*
X0048597Y0058596D02*
X0047672Y0058596D01*
X0048597Y0060195D02*
X0048597Y0060195D01*
X0048597Y0061793D02*
X0048597Y0061793D01*
X0048597Y0063392D02*
X0048371Y0063392D01*
X0048597Y0064990D02*
X0046772Y0064990D01*
X0042320Y0056998D02*
X0028225Y0056998D01*
X0028225Y0055399D02*
X0042030Y0055399D01*
X0040432Y0053800D02*
X0027900Y0053800D01*
X0027397Y0052202D02*
X0039797Y0052202D01*
X0039797Y0050603D02*
X0026474Y0050603D01*
X0025070Y0049005D02*
X0040312Y0049005D01*
X0041911Y0047406D02*
X0022846Y0047406D01*
X0027978Y0058596D02*
X0040721Y0058596D01*
X0039797Y0060195D02*
X0027549Y0060195D01*
X0026641Y0061793D02*
X0039797Y0061793D01*
X0040023Y0063392D02*
X0025360Y0063392D01*
X0023347Y0064990D02*
X0041621Y0064990D01*
X0076797Y0082574D02*
X0080829Y0082574D01*
X0079428Y0084172D02*
X0076797Y0084172D01*
X0076797Y0085771D02*
X0079428Y0085771D01*
X0079428Y0087369D02*
X0076797Y0087369D01*
X0076797Y0088968D02*
X0080472Y0088968D01*
X0082070Y0090566D02*
X0076797Y0090566D01*
X0086697Y0080975D02*
X0115081Y0080975D01*
X0113483Y0079377D02*
X0088689Y0079377D01*
X0089501Y0077778D02*
X0111884Y0077778D01*
X0108755Y0076180D02*
X0089797Y0076180D01*
X0089692Y0074581D02*
X0107694Y0074581D01*
X0107514Y0072983D02*
X0089029Y0072983D01*
X0087551Y0071384D02*
X0108052Y0071384D01*
X0162235Y0212053D02*
X0162881Y0212053D01*
X0163833Y0210455D02*
X0164479Y0210455D01*
X0175778Y0180083D02*
X0176200Y0180083D01*
X0176200Y0178484D02*
X0175325Y0178484D01*
X0175880Y0176886D02*
X0176200Y0176886D01*
X0176200Y0175287D02*
X0175716Y0175287D01*
X0176200Y0173689D02*
X0174680Y0173689D01*
X0176200Y0172090D02*
X0169797Y0172090D01*
X0169797Y0170492D02*
X0176200Y0170492D01*
X0176200Y0168893D02*
X0169797Y0168893D01*
X0169797Y0167295D02*
X0176200Y0167295D01*
X0176200Y0165696D02*
X0170652Y0165696D01*
X0170880Y0164098D02*
X0176200Y0164098D01*
X0176200Y0162499D02*
X0170390Y0162499D01*
X0160597Y0268001D02*
X0087245Y0268001D01*
X0088916Y0269600D02*
X0160597Y0269600D01*
X0160597Y0271198D02*
X0089595Y0271198D01*
X0089797Y0272797D02*
X0160597Y0272797D01*
X0160597Y0274395D02*
X0089597Y0274395D01*
X0088923Y0275994D02*
X0160597Y0275994D01*
X0160597Y0277592D02*
X0087261Y0277592D01*
X0087331Y0279191D02*
X0160597Y0279191D01*
X0160597Y0280789D02*
X0088930Y0280789D01*
X0088965Y0282388D02*
X0160597Y0282388D01*
X0160597Y0283986D02*
X0088965Y0283986D01*
X0088156Y0285585D02*
X0160597Y0285585D01*
X0160597Y0287183D02*
X0086557Y0287183D01*
X0076797Y0295176D02*
X0116751Y0295176D01*
X0124653Y0325547D02*
X0088581Y0325547D01*
X0089074Y0319153D02*
X0168597Y0319153D01*
X0168597Y0317555D02*
X0087659Y0317555D01*
X0088000Y0367109D02*
X0101851Y0367109D01*
X0099495Y0368707D02*
X0089215Y0368707D01*
X0089797Y0370306D02*
X0098016Y0370306D01*
X0097093Y0371904D02*
X0089797Y0371904D01*
X0089315Y0373503D02*
X0096534Y0373503D01*
X0096161Y0375101D02*
X0088240Y0375101D01*
X0086415Y0376700D02*
X0096161Y0376700D01*
X0096360Y0378298D02*
X0088014Y0378298D01*
X0088965Y0379897D02*
X0096788Y0379897D01*
X0097641Y0381495D02*
X0088965Y0381495D01*
X0088965Y0383094D02*
X0098846Y0383094D01*
X0100727Y0384692D02*
X0087473Y0384692D01*
X0080921Y0384692D02*
X0076797Y0384692D01*
X0076797Y0383094D02*
X0079428Y0383094D01*
X0079428Y0381495D02*
X0076797Y0381495D01*
X0076797Y0379897D02*
X0079428Y0379897D01*
X0080380Y0378298D02*
X0076797Y0378298D01*
X0076797Y0392685D02*
X0141718Y0392685D01*
X0140679Y0394283D02*
X0076797Y0394283D01*
X0076797Y0395882D02*
X0140052Y0395882D01*
X0138453Y0397480D02*
X0076797Y0397480D01*
X0076797Y0399079D02*
X0136855Y0399079D01*
X0135256Y0400677D02*
X0076797Y0400677D01*
X0076797Y0402276D02*
X0133658Y0402276D01*
X0132059Y0403874D02*
X0076797Y0403874D01*
X0076797Y0405473D02*
X0130461Y0405473D01*
X0128862Y0407071D02*
X0076797Y0407071D01*
X0076797Y0408670D02*
X0127264Y0408670D01*
X0125665Y0410269D02*
X0076797Y0410269D01*
X0077570Y0411867D02*
X0124067Y0411867D01*
X0122468Y0413466D02*
X0079168Y0413466D01*
X0074519Y0424655D02*
X0067197Y0424655D01*
X0067197Y0423057D02*
X0072920Y0423057D01*
X0071321Y0421458D02*
X0067197Y0421458D01*
X0067197Y0419860D02*
X0069723Y0419860D01*
X0068124Y0418261D02*
X0067197Y0418261D01*
X0067197Y0426254D02*
X0081637Y0426254D01*
X0080039Y0427852D02*
X0067197Y0427852D01*
X0067197Y0429451D02*
X0079428Y0429451D01*
X0079428Y0431049D02*
X0067197Y0431049D01*
X0067197Y0432648D02*
X0079663Y0432648D01*
X0081262Y0434246D02*
X0067197Y0434246D01*
X0067197Y0435845D02*
X0109951Y0435845D01*
X0111549Y0437443D02*
X0067197Y0437443D01*
X0067197Y0439042D02*
X0113148Y0439042D01*
X0114746Y0440640D02*
X0067197Y0440640D01*
X0067197Y0442239D02*
X0116345Y0442239D01*
X0117943Y0443837D02*
X0067197Y0443837D01*
X0067197Y0445436D02*
X0119542Y0445436D01*
X0120514Y0447034D02*
X0067197Y0447034D01*
X0067197Y0448633D02*
X0121208Y0448633D01*
X0120502Y0439042D02*
X0176200Y0439042D01*
X0176200Y0440640D02*
X0167179Y0440640D01*
X0169745Y0442239D02*
X0176200Y0442239D01*
X0176200Y0443837D02*
X0171344Y0443837D01*
X0172269Y0445436D02*
X0176200Y0445436D01*
X0176200Y0447034D02*
X0172917Y0447034D01*
X0173345Y0448633D02*
X0176200Y0448633D01*
X0176200Y0450231D02*
X0173367Y0450231D01*
X0173245Y0451830D02*
X0176200Y0451830D01*
X0176200Y0453428D02*
X0172816Y0453428D01*
X0172052Y0455027D02*
X0176200Y0455027D01*
X0176200Y0456625D02*
X0170969Y0456625D01*
X0169298Y0458224D02*
X0176200Y0458224D01*
X0176200Y0459822D02*
X0165794Y0459822D01*
X0160741Y0459822D02*
X0067197Y0459822D01*
X0067197Y0458224D02*
X0157238Y0458224D01*
X0159424Y0434246D02*
X0176200Y0434246D01*
X0176200Y0432648D02*
X0159880Y0432648D01*
X0161239Y0431049D02*
X0176200Y0431049D01*
X0176200Y0429451D02*
X0162837Y0429451D01*
X0164436Y0427852D02*
X0176200Y0427852D01*
X0176200Y0426254D02*
X0166034Y0426254D01*
X0167633Y0424655D02*
X0176200Y0424655D01*
X0176200Y0423057D02*
X0169231Y0423057D01*
X0170830Y0421458D02*
X0176200Y0421458D01*
X0176200Y0419860D02*
X0172428Y0419860D01*
X0174027Y0418261D02*
X0176200Y0418261D01*
X0176200Y0416663D02*
X0175625Y0416663D01*
X0172597Y0387889D02*
X0155398Y0387889D01*
X0156997Y0386291D02*
X0172597Y0386291D01*
X0172597Y0384692D02*
X0158595Y0384692D01*
X0160194Y0383094D02*
X0172597Y0383094D01*
X0172597Y0381495D02*
X0161792Y0381495D01*
X0163391Y0379897D02*
X0172597Y0379897D01*
X0172597Y0378298D02*
X0164989Y0378298D01*
X0166588Y0376700D02*
X0172597Y0376700D01*
X0172597Y0375101D02*
X0168186Y0375101D01*
X0169785Y0373503D02*
X0172597Y0373503D01*
X0172597Y0371904D02*
X0171383Y0371904D01*
X0168597Y0306365D02*
X0166454Y0306365D01*
X0167623Y0304767D02*
X0168597Y0304767D01*
X0168597Y0303168D02*
X0168119Y0303168D01*
X0120870Y0415064D02*
X0085858Y0415064D01*
X0088341Y0416663D02*
X0119271Y0416663D01*
X0108352Y0434246D02*
X0087132Y0434246D01*
X0088730Y0432648D02*
X0106754Y0432648D01*
X0105155Y0431049D02*
X0088965Y0431049D01*
X0088965Y0429451D02*
X0103557Y0429451D01*
X0101958Y0427852D02*
X0088355Y0427852D01*
X0086757Y0426254D02*
X0100360Y0426254D01*
X0098761Y0424655D02*
X0087899Y0424655D01*
X0089173Y0423057D02*
X0097163Y0423057D01*
X0067197Y0461421D02*
X0176200Y0461421D01*
X0048597Y0408670D02*
X0047581Y0408670D01*
X0048597Y0407071D02*
X0048597Y0407071D01*
X0048597Y0405473D02*
X0048597Y0405473D01*
X0048563Y0403874D02*
X0048463Y0403874D01*
X0046965Y0402276D02*
X0046864Y0402276D01*
X0045366Y0400677D02*
X0040137Y0400677D01*
X0039797Y0399079D02*
X0041222Y0399079D01*
X0039797Y0397480D02*
X0039797Y0397480D01*
X0039797Y0395882D02*
X0039797Y0395882D01*
X0039797Y0395491D02*
X0039797Y0395491D01*
X0040881Y0349525D02*
X0005194Y0349525D01*
X0005194Y0347927D02*
X0039797Y0347927D01*
X0039797Y0346328D02*
X0005194Y0346328D01*
X0005194Y0344730D02*
X0039863Y0344730D01*
X0041462Y0343131D02*
X0005194Y0343131D01*
X0005194Y0367109D02*
X0013717Y0367109D01*
X0011361Y0368707D02*
X0005194Y0368707D01*
X0005194Y0370306D02*
X0009882Y0370306D01*
X0008959Y0371904D02*
X0005194Y0371904D01*
X0005194Y0373503D02*
X0008400Y0373503D01*
X0008027Y0375101D02*
X0005194Y0375101D01*
X0005194Y0376700D02*
X0008027Y0376700D01*
X0008226Y0378298D02*
X0005194Y0378298D01*
X0005194Y0379897D02*
X0008654Y0379897D01*
X0009507Y0381495D02*
X0005194Y0381495D01*
X0005194Y0383094D02*
X0010712Y0383094D01*
X0012594Y0384692D02*
X0005194Y0384692D01*
X0005194Y0280789D02*
X0010840Y0280789D01*
X0009073Y0279191D02*
X0005194Y0279191D01*
X0005194Y0277592D02*
X0008355Y0277592D01*
X0008233Y0275994D02*
X0005194Y0275994D01*
X0005194Y0274395D02*
X0008649Y0274395D01*
X0009788Y0272797D02*
X0005194Y0272797D01*
X0046591Y0293577D02*
X0048597Y0293577D01*
X0048597Y0295176D02*
X0048189Y0295176D01*
X0048597Y0296774D02*
X0048597Y0296774D01*
X0048597Y0298373D02*
X0048597Y0298373D01*
X0048597Y0299971D02*
X0047854Y0299971D01*
X0048597Y0301570D02*
X0046256Y0301570D01*
X0046182Y0303168D02*
X0047766Y0303168D01*
X0047347Y0212053D02*
X0048597Y0212053D01*
X0048597Y0210455D02*
X0048597Y0210455D01*
X0048597Y0208856D02*
X0048597Y0208856D01*
X0048597Y0207258D02*
X0048597Y0207258D01*
X0176197Y0043411D02*
X0176197Y0043411D01*
D16*
X0166197Y0103414D03*
X0152197Y0103414D03*
X0134197Y0150414D03*
X0134197Y0162414D03*
X0127197Y0185414D03*
X0127197Y0206414D03*
X0148197Y0215414D03*
X0153197Y0292414D03*
X0153197Y0309414D03*
X0162197Y0360414D03*
X0148197Y0404414D03*
X0131197Y0397414D03*
X0116197Y0356414D03*
X0097197Y0330414D03*
X0093197Y0316414D03*
X0089197Y0298414D03*
X0098197Y0286414D03*
X0090197Y0246414D03*
X0095197Y0236414D03*
X0092197Y0223414D03*
X0108197Y0088414D03*
X0080197Y0050414D03*
X0096197Y0436414D03*
D17*
X0084197Y0420437D02*
X0078220Y0420437D01*
X0071197Y0413414D01*
X0071197Y0371414D01*
X0071197Y0322414D01*
X0071197Y0291414D01*
X0071197Y0273414D01*
X0071197Y0241414D01*
X0071197Y0223414D01*
X0071197Y0193414D01*
X0119197Y0193414D01*
X0134197Y0193414D01*
X0144197Y0203414D01*
X0084157Y0174414D02*
X0071197Y0174414D01*
X0071197Y0193414D01*
X0071197Y0174414D02*
X0071197Y0125414D01*
X0083945Y0125414D01*
X0071197Y0125414D02*
X0071197Y0098414D01*
X0071197Y0079414D01*
X0074661Y0075949D01*
X0084197Y0075949D01*
X0084197Y0272800D02*
X0071811Y0272800D01*
X0071598Y0322012D02*
X0084197Y0322012D01*
X0084197Y0371225D02*
X0071386Y0371225D01*
D18*
X0071197Y0371414D01*
X0071197Y0322414D02*
X0071598Y0322012D01*
X0071197Y0273414D02*
X0071811Y0272800D01*
X0071197Y0223414D02*
X0084024Y0223414D01*
X0084197Y0223587D01*
X0084157Y0174414D02*
X0084197Y0174375D01*
X0083945Y0125414D02*
X0084197Y0125162D01*
X0144197Y0203414D02*
X0149197Y0203414D01*
X0159197Y0193414D01*
X0159197Y0191414D01*
M02*
