G75*
%MOIN*%
%OFA0B0*%
%FSLAX25Y25*%
%IPPOS*%
%LPD*%
%AMOC8*
5,1,8,0,0,1.08239X$1,22.5*
%
%ADD10C,0.00500*%
%ADD11C,0.00300*%
%ADD12C,0.01000*%
%ADD13C,0.00800*%
%ADD14R,0.00100X0.00100*%
%ADD15R,0.00200X0.00100*%
%ADD16R,0.00600X0.00100*%
%ADD17R,0.01100X0.00100*%
%ADD18R,0.01500X0.00100*%
%ADD19R,0.02000X0.00100*%
%ADD20R,0.02400X0.00100*%
%ADD21R,0.02900X0.00100*%
%ADD22R,0.03400X0.00100*%
%ADD23R,0.03800X0.00100*%
%ADD24R,0.04300X0.00100*%
%ADD25R,0.04700X0.00100*%
%ADD26R,0.04600X0.00100*%
%ADD27R,0.05100X0.00100*%
%ADD28R,0.05600X0.00100*%
%ADD29R,0.06000X0.00100*%
%ADD30R,0.06500X0.00100*%
%ADD31R,0.07000X0.00100*%
%ADD32R,0.07500X0.00100*%
%ADD33R,0.07900X0.00100*%
%ADD34R,0.08400X0.00100*%
%ADD35R,0.08900X0.00100*%
%ADD36R,0.09400X0.00100*%
%ADD37R,0.09700X0.00100*%
%ADD38R,0.10200X0.00100*%
%ADD39R,0.10700X0.00100*%
%ADD40R,0.11200X0.00100*%
%ADD41R,0.11700X0.00100*%
%ADD42R,0.12200X0.00100*%
%ADD43R,0.12700X0.00100*%
%ADD44R,0.13300X0.00100*%
%ADD45R,0.13800X0.00100*%
%ADD46R,0.14300X0.00100*%
%ADD47R,0.14900X0.00100*%
%ADD48R,0.15300X0.00100*%
%ADD49R,0.15900X0.00100*%
%ADD50R,0.16500X0.00100*%
%ADD51R,0.17100X0.00100*%
%ADD52R,0.17800X0.00100*%
%ADD53R,0.18500X0.00100*%
%ADD54R,0.19400X0.00100*%
%ADD55R,0.20400X0.00100*%
%ADD56R,0.44200X0.00100*%
%ADD57R,0.44600X0.00100*%
%ADD58R,0.44800X0.00100*%
%ADD59R,0.45200X0.00100*%
%ADD60R,0.45600X0.00100*%
%ADD61R,0.46000X0.00100*%
%ADD62R,0.46400X0.00100*%
%ADD63R,0.46800X0.00100*%
%ADD64R,0.47200X0.00100*%
%ADD65R,0.47600X0.00100*%
%ADD66R,0.48000X0.00100*%
%ADD67R,0.48400X0.00100*%
%ADD68R,0.48800X0.00100*%
%ADD69R,0.49000X0.00100*%
%ADD70R,0.49400X0.00100*%
%ADD71R,0.49800X0.00100*%
%ADD72R,0.48600X0.00100*%
%ADD73R,0.48200X0.00100*%
%ADD74R,0.47800X0.00100*%
%ADD75R,0.47400X0.00100*%
%ADD76R,0.47000X0.00100*%
%ADD77R,0.46600X0.00100*%
%ADD78R,0.46200X0.00100*%
%ADD79R,0.44400X0.00100*%
%ADD80R,0.21500X0.00100*%
%ADD81R,0.19900X0.00100*%
%ADD82R,0.19000X0.00100*%
%ADD83R,0.18200X0.00100*%
%ADD84R,0.17500X0.00100*%
%ADD85R,0.16900X0.00100*%
%ADD86R,0.16300X0.00100*%
%ADD87R,0.15800X0.00100*%
%ADD88R,0.15200X0.00100*%
%ADD89R,0.14600X0.00100*%
%ADD90R,0.14100X0.00100*%
%ADD91R,0.13600X0.00100*%
%ADD92R,0.13000X0.00100*%
%ADD93R,0.12500X0.00100*%
%ADD94R,0.12000X0.00100*%
%ADD95R,0.11500X0.00100*%
%ADD96R,0.11000X0.00100*%
%ADD97R,0.10600X0.00100*%
%ADD98R,0.10100X0.00100*%
%ADD99R,0.09600X0.00100*%
%ADD100R,0.09200X0.00100*%
%ADD101R,0.08700X0.00100*%
%ADD102R,0.08200X0.00100*%
%ADD103R,0.07700X0.00100*%
%ADD104R,0.07300X0.00100*%
%ADD105R,0.06800X0.00100*%
%ADD106R,0.06300X0.00100*%
%ADD107R,0.05900X0.00100*%
%ADD108R,0.05500X0.00100*%
%ADD109R,0.05000X0.00100*%
%ADD110R,0.04100X0.00100*%
%ADD111R,0.03600X0.00100*%
%ADD112R,0.03200X0.00100*%
%ADD113R,0.02700X0.00100*%
%ADD114R,0.02300X0.00100*%
%ADD115R,0.01800X0.00100*%
%ADD116R,0.01300X0.00100*%
%ADD117R,0.01000X0.00100*%
%ADD118R,0.00500X0.00100*%
%ADD119R,0.02500X0.00100*%
%ADD120R,0.04800X0.00100*%
%ADD121R,0.06100X0.00100*%
%ADD122R,0.09800X0.00100*%
%ADD123R,0.45000X0.00100*%
%ADD124R,0.45800X0.00100*%
%ADD125R,0.05800X0.00100*%
%ADD126R,0.49200X0.00100*%
%ADD127R,0.03900X0.00100*%
%ADD128R,0.04900X0.00100*%
%ADD129R,0.07400X0.00100*%
%ADD130R,0.03700X0.00100*%
%ADD131R,0.08800X0.00100*%
%ADD132R,0.04200X0.00100*%
%ADD133R,0.09900X0.00100*%
%ADD134R,0.04400X0.00100*%
%ADD135R,0.10500X0.00100*%
%ADD136R,0.04500X0.00100*%
%ADD137R,0.08100X0.00100*%
%ADD138R,0.10900X0.00100*%
%ADD139R,0.11100X0.00100*%
%ADD140R,0.09100X0.00100*%
%ADD141R,0.11300X0.00100*%
%ADD142R,0.09300X0.00100*%
%ADD143R,0.11400X0.00100*%
%ADD144R,0.11600X0.00100*%
%ADD145R,0.10000X0.00100*%
%ADD146R,0.11800X0.00100*%
%ADD147R,0.11900X0.00100*%
%ADD148R,0.10400X0.00100*%
%ADD149R,0.12100X0.00100*%
%ADD150R,0.10800X0.00100*%
%ADD151R,0.12300X0.00100*%
%ADD152R,0.12400X0.00100*%
%ADD153R,0.12600X0.00100*%
%ADD154R,0.12800X0.00100*%
%ADD155R,0.12900X0.00100*%
%ADD156R,0.05200X0.00100*%
%ADD157R,0.05300X0.00100*%
%ADD158R,0.13200X0.00100*%
%ADD159R,0.13400X0.00100*%
%ADD160R,0.10300X0.00100*%
%ADD161R,0.13500X0.00100*%
%ADD162R,0.04000X0.00100*%
%ADD163R,0.09000X0.00100*%
%ADD164R,0.08000X0.00100*%
D10*
X0046947Y0062489D02*
X0046947Y0065492D01*
X0047697Y0067093D02*
X0046947Y0067844D01*
X0046947Y0069345D01*
X0047697Y0070096D01*
X0050700Y0070096D01*
X0051451Y0069345D01*
X0051451Y0067844D01*
X0050700Y0067093D01*
X0049949Y0067093D01*
X0049199Y0067844D01*
X0049199Y0070096D01*
X0051451Y0062489D02*
X0046947Y0062489D01*
X0045947Y0110702D02*
X0045947Y0113704D01*
X0046697Y0115306D02*
X0047448Y0115306D01*
X0048199Y0116056D01*
X0048199Y0117558D01*
X0047448Y0118308D01*
X0046697Y0118308D01*
X0045947Y0117558D01*
X0045947Y0116056D01*
X0046697Y0115306D01*
X0048199Y0116056D02*
X0048949Y0115306D01*
X0049700Y0115306D01*
X0050451Y0116056D01*
X0050451Y0117558D01*
X0049700Y0118308D01*
X0048949Y0118308D01*
X0048199Y0117558D01*
X0050451Y0110702D02*
X0045947Y0110702D01*
X0046947Y0160914D02*
X0046947Y0163917D01*
X0046947Y0165518D02*
X0047697Y0165518D01*
X0050700Y0168521D01*
X0051451Y0168521D01*
X0051451Y0165518D01*
X0051451Y0160914D02*
X0046947Y0160914D01*
X0046947Y0210127D02*
X0046947Y0213129D01*
X0047697Y0214731D02*
X0046947Y0215481D01*
X0046947Y0216983D01*
X0047697Y0217733D01*
X0048448Y0217733D01*
X0049199Y0216983D01*
X0049199Y0214731D01*
X0047697Y0214731D01*
X0049199Y0214731D02*
X0050700Y0216232D01*
X0051451Y0217733D01*
X0051451Y0210127D02*
X0046947Y0210127D01*
X0045947Y0258339D02*
X0045947Y0261342D01*
X0046697Y0262943D02*
X0045947Y0263694D01*
X0045947Y0265195D01*
X0046697Y0265946D01*
X0048199Y0265946D01*
X0048949Y0265195D01*
X0048949Y0264445D01*
X0048199Y0262943D01*
X0050451Y0262943D01*
X0050451Y0265946D01*
X0050451Y0258339D02*
X0045947Y0258339D01*
X0045947Y0307552D02*
X0045947Y0310555D01*
X0048199Y0312156D02*
X0048199Y0315159D01*
X0050451Y0314408D02*
X0048199Y0312156D01*
X0045947Y0314408D02*
X0050451Y0314408D01*
X0050451Y0307552D02*
X0045947Y0307552D01*
X0045947Y0356765D02*
X0045947Y0359767D01*
X0046697Y0361369D02*
X0045947Y0362119D01*
X0045947Y0363621D01*
X0046697Y0364371D01*
X0047448Y0364371D01*
X0048199Y0363621D01*
X0048199Y0362870D01*
X0048199Y0363621D02*
X0048949Y0364371D01*
X0049700Y0364371D01*
X0050451Y0363621D01*
X0050451Y0362119D01*
X0049700Y0361369D01*
X0050451Y0356765D02*
X0045947Y0356765D01*
X0045947Y0405977D02*
X0045947Y0408980D01*
X0045947Y0410581D02*
X0048949Y0413584D01*
X0049700Y0413584D01*
X0050451Y0412833D01*
X0050451Y0411332D01*
X0049700Y0410581D01*
X0050451Y0405977D02*
X0045947Y0405977D01*
X0045947Y0410581D02*
X0045947Y0413584D01*
X0047947Y0454190D02*
X0047947Y0457192D01*
X0047947Y0458794D02*
X0047947Y0461796D01*
X0047947Y0460295D02*
X0052451Y0460295D01*
X0050949Y0458794D01*
X0052451Y0454190D02*
X0047947Y0454190D01*
X0080944Y0437187D02*
X0083947Y0437187D01*
X0082446Y0437187D02*
X0082446Y0441691D01*
X0083947Y0440190D01*
X0085548Y0441691D02*
X0088551Y0437187D01*
X0085548Y0437187D02*
X0088551Y0441691D01*
X0088551Y0392479D02*
X0085548Y0387975D01*
X0083947Y0387975D02*
X0080944Y0390977D01*
X0080944Y0391728D01*
X0081695Y0392479D01*
X0083196Y0392479D01*
X0083947Y0391728D01*
X0085548Y0392479D02*
X0088551Y0387975D01*
X0083947Y0387975D02*
X0080944Y0387975D01*
X0081695Y0343266D02*
X0080944Y0342516D01*
X0080944Y0341765D01*
X0081695Y0341014D01*
X0080944Y0340264D01*
X0080944Y0339513D01*
X0081695Y0338762D01*
X0083196Y0338762D01*
X0083947Y0339513D01*
X0085548Y0338762D02*
X0088551Y0343266D01*
X0085548Y0343266D02*
X0088551Y0338762D01*
X0083947Y0342516D02*
X0083196Y0343266D01*
X0081695Y0343266D01*
X0081695Y0341014D02*
X0082446Y0341014D01*
X0081695Y0294054D02*
X0083947Y0291802D01*
X0080944Y0291802D01*
X0081695Y0289550D02*
X0081695Y0294054D01*
X0085548Y0294054D02*
X0088551Y0289550D01*
X0085548Y0289550D02*
X0088551Y0294054D01*
X0088551Y0244841D02*
X0085548Y0240337D01*
X0083947Y0241088D02*
X0083196Y0240337D01*
X0081695Y0240337D01*
X0080944Y0241088D01*
X0080944Y0242589D01*
X0081695Y0243340D01*
X0082446Y0243340D01*
X0083947Y0242589D01*
X0083947Y0244841D01*
X0080944Y0244841D01*
X0085548Y0244841D02*
X0088551Y0240337D01*
X0088551Y0195628D02*
X0085548Y0191125D01*
X0083947Y0191875D02*
X0083196Y0191125D01*
X0081695Y0191125D01*
X0080944Y0191875D01*
X0080944Y0192626D01*
X0081695Y0193376D01*
X0083947Y0193376D01*
X0083947Y0191875D01*
X0083947Y0193376D02*
X0082446Y0194878D01*
X0080944Y0195628D01*
X0085548Y0195628D02*
X0088551Y0191125D01*
X0088551Y0146416D02*
X0085548Y0141912D01*
X0083947Y0141912D02*
X0083947Y0142663D01*
X0080944Y0145665D01*
X0080944Y0146416D01*
X0083947Y0146416D01*
X0085548Y0146416D02*
X0088551Y0141912D01*
X0088551Y0097203D02*
X0085548Y0092699D01*
X0083947Y0093450D02*
X0083947Y0094201D01*
X0083196Y0094951D01*
X0081695Y0094951D01*
X0080944Y0094201D01*
X0080944Y0093450D01*
X0081695Y0092699D01*
X0083196Y0092699D01*
X0083947Y0093450D01*
X0083196Y0094951D02*
X0083947Y0095702D01*
X0083947Y0096453D01*
X0083196Y0097203D01*
X0081695Y0097203D01*
X0080944Y0096453D01*
X0080944Y0095702D01*
X0081695Y0094951D01*
X0085548Y0097203D02*
X0088551Y0092699D01*
X0141393Y0196664D02*
X0140642Y0197415D01*
X0140642Y0200417D01*
X0141393Y0201168D01*
X0143645Y0201168D01*
X0143645Y0196664D01*
X0141393Y0196664D01*
X0145246Y0196664D02*
X0145246Y0201168D01*
X0148249Y0201168D02*
X0145246Y0196664D01*
X0148249Y0196664D02*
X0148249Y0201168D01*
X0149850Y0200417D02*
X0150601Y0201168D01*
X0152102Y0201168D01*
X0152853Y0200417D01*
X0152853Y0197415D01*
X0152102Y0196664D01*
X0150601Y0196664D01*
X0149850Y0197415D01*
X0149850Y0198916D01*
X0151351Y0198916D01*
X0157642Y0198165D02*
X0157642Y0201168D01*
X0157642Y0198165D02*
X0159144Y0196664D01*
X0160645Y0198165D01*
X0160645Y0201168D01*
X0162246Y0201168D02*
X0165249Y0201168D01*
X0165249Y0198916D01*
X0163748Y0199666D01*
X0162997Y0199666D01*
X0162246Y0198916D01*
X0162246Y0197415D01*
X0162997Y0196664D01*
X0164498Y0196664D01*
X0165249Y0197415D01*
X0166850Y0198916D02*
X0169853Y0198916D01*
X0168351Y0200417D02*
X0168351Y0197415D01*
D11*
X0166978Y0182766D02*
X0166077Y0182766D01*
X0165627Y0182316D01*
X0166077Y0181415D02*
X0165627Y0180965D01*
X0165627Y0180514D01*
X0166077Y0180064D01*
X0166978Y0180064D01*
X0167428Y0180514D01*
X0166978Y0181415D02*
X0166077Y0181415D01*
X0166978Y0181415D02*
X0167428Y0181865D01*
X0167428Y0182316D01*
X0166978Y0182766D01*
X0168389Y0180064D02*
X0170190Y0180064D01*
X0170190Y0182766D01*
X0171190Y0172766D02*
X0171190Y0170064D01*
X0169389Y0170064D01*
X0168428Y0170514D02*
X0167978Y0170064D01*
X0167077Y0170064D01*
X0166627Y0170514D01*
X0166627Y0170965D01*
X0167077Y0171415D01*
X0167978Y0171415D01*
X0168428Y0171865D01*
X0168428Y0172316D01*
X0167978Y0172766D01*
X0167077Y0172766D01*
X0166627Y0172316D01*
X0165666Y0171415D02*
X0163864Y0171415D01*
X0164315Y0170064D02*
X0164315Y0172766D01*
X0165666Y0171415D01*
X0164666Y0180064D02*
X0162864Y0180064D01*
X0163765Y0180064D02*
X0163765Y0182766D01*
X0164666Y0181865D01*
X0163864Y0161766D02*
X0163864Y0161316D01*
X0165666Y0159514D01*
X0165666Y0159064D01*
X0166627Y0159514D02*
X0167077Y0159064D01*
X0167978Y0159064D01*
X0168428Y0159514D01*
X0167978Y0160415D02*
X0167077Y0160415D01*
X0166627Y0159965D01*
X0166627Y0159514D01*
X0167978Y0160415D02*
X0168428Y0160865D01*
X0168428Y0161316D01*
X0167978Y0161766D01*
X0167077Y0161766D01*
X0166627Y0161316D01*
X0165666Y0161766D02*
X0163864Y0161766D01*
X0163864Y0152766D02*
X0165666Y0152766D01*
X0165666Y0151415D01*
X0164765Y0151865D01*
X0164315Y0151865D01*
X0163864Y0151415D01*
X0163864Y0150514D01*
X0164315Y0150064D01*
X0165215Y0150064D01*
X0165666Y0150514D01*
X0166627Y0150514D02*
X0167077Y0150064D01*
X0167978Y0150064D01*
X0168428Y0150514D01*
X0167978Y0151415D02*
X0167077Y0151415D01*
X0166627Y0150965D01*
X0166627Y0150514D01*
X0167978Y0151415D02*
X0168428Y0151865D01*
X0168428Y0152316D01*
X0167978Y0152766D01*
X0167077Y0152766D01*
X0166627Y0152316D01*
X0169389Y0150064D02*
X0171190Y0150064D01*
X0171190Y0152766D01*
X0171190Y0159064D02*
X0169389Y0159064D01*
X0171190Y0159064D02*
X0171190Y0161766D01*
X0145190Y0162766D02*
X0145190Y0160064D01*
X0143389Y0160064D01*
X0142428Y0160514D02*
X0141978Y0160064D01*
X0141077Y0160064D01*
X0140627Y0160514D01*
X0140627Y0160965D01*
X0141077Y0161415D01*
X0141978Y0161415D01*
X0142428Y0161865D01*
X0142428Y0162316D01*
X0141978Y0162766D01*
X0141077Y0162766D01*
X0140627Y0162316D01*
X0139666Y0161415D02*
X0139666Y0160514D01*
X0139215Y0160064D01*
X0138315Y0160064D01*
X0137864Y0160514D01*
X0137864Y0160965D01*
X0138315Y0161415D01*
X0139666Y0161415D01*
X0138765Y0162316D01*
X0137864Y0162766D01*
X0138315Y0170064D02*
X0139215Y0170064D01*
X0139666Y0170514D01*
X0140627Y0170514D02*
X0140627Y0170965D01*
X0141077Y0171415D01*
X0141978Y0171415D01*
X0142428Y0171865D01*
X0142428Y0172316D01*
X0141978Y0172766D01*
X0141077Y0172766D01*
X0140627Y0172316D01*
X0139666Y0172316D02*
X0139215Y0172766D01*
X0138315Y0172766D01*
X0137864Y0172316D01*
X0137864Y0171865D01*
X0138315Y0171415D01*
X0137864Y0170965D01*
X0137864Y0170514D01*
X0138315Y0170064D01*
X0138315Y0171415D02*
X0138765Y0171415D01*
X0140627Y0170514D02*
X0141077Y0170064D01*
X0141978Y0170064D01*
X0142428Y0170514D01*
X0143389Y0170064D02*
X0145190Y0170064D01*
X0145190Y0172766D01*
X0145190Y0180064D02*
X0143389Y0180064D01*
X0142428Y0180514D02*
X0141978Y0180064D01*
X0141077Y0180064D01*
X0140627Y0180514D01*
X0140627Y0180965D01*
X0141077Y0181415D01*
X0141978Y0181415D01*
X0142428Y0181865D01*
X0142428Y0182316D01*
X0141978Y0182766D01*
X0141077Y0182766D01*
X0140627Y0182316D01*
X0139666Y0182316D02*
X0139215Y0182766D01*
X0138315Y0182766D01*
X0137864Y0182316D01*
X0139666Y0180514D01*
X0139215Y0180064D01*
X0138315Y0180064D01*
X0137864Y0180514D01*
X0137864Y0182316D01*
X0139666Y0182316D02*
X0139666Y0180514D01*
X0145190Y0180064D02*
X0145190Y0182766D01*
X0145190Y0152766D02*
X0145190Y0150064D01*
X0143389Y0150064D01*
X0142428Y0150514D02*
X0141978Y0150064D01*
X0141077Y0150064D01*
X0140627Y0150514D01*
X0140627Y0150965D01*
X0141077Y0151415D01*
X0141978Y0151415D01*
X0142428Y0151865D01*
X0142428Y0152316D01*
X0141978Y0152766D01*
X0141077Y0152766D01*
X0140627Y0152316D01*
X0139666Y0152316D02*
X0139215Y0152766D01*
X0138315Y0152766D01*
X0137864Y0152316D01*
X0137864Y0151865D01*
X0139666Y0150064D01*
X0137864Y0150064D01*
X0173696Y0045266D02*
X0173245Y0044816D01*
X0173245Y0044365D01*
X0173696Y0043915D01*
X0175047Y0043915D01*
X0175047Y0042564D02*
X0175047Y0045266D01*
X0173696Y0045266D01*
X0173696Y0043915D02*
X0173245Y0043465D01*
X0173245Y0043014D01*
X0173696Y0042564D01*
X0175047Y0042564D01*
X0031809Y0265564D02*
X0030008Y0265564D01*
X0029047Y0266014D02*
X0028596Y0265564D01*
X0027696Y0265564D01*
X0027245Y0266014D01*
X0027245Y0267816D01*
X0027696Y0268266D01*
X0028596Y0268266D01*
X0029047Y0267816D01*
X0029047Y0266014D01*
X0031809Y0265564D02*
X0031809Y0268266D01*
X0028671Y0282014D02*
X0028671Y0283816D01*
X0029572Y0282915D02*
X0027770Y0282915D01*
X0026809Y0283365D02*
X0025908Y0284266D01*
X0025908Y0281564D01*
X0025008Y0281564D02*
X0026809Y0281564D01*
X0024047Y0281564D02*
X0022245Y0283365D01*
X0022245Y0283816D01*
X0022696Y0284266D01*
X0023596Y0284266D01*
X0024047Y0283816D01*
X0024047Y0281564D02*
X0022245Y0281564D01*
X0021285Y0282465D02*
X0020384Y0281564D01*
X0019483Y0282465D01*
X0019483Y0284266D01*
X0021285Y0284266D02*
X0021285Y0282465D01*
X0017190Y0282014D02*
X0016740Y0281564D01*
X0015839Y0281564D01*
X0015389Y0282014D01*
X0015389Y0282915D01*
X0016290Y0282915D01*
X0017190Y0283816D02*
X0017190Y0282014D01*
X0017190Y0283816D02*
X0016740Y0284266D01*
X0015839Y0284266D01*
X0015389Y0283816D01*
X0014428Y0284266D02*
X0012627Y0281564D01*
X0012627Y0284266D01*
X0011666Y0284266D02*
X0010315Y0284266D01*
X0009864Y0283816D01*
X0009864Y0282014D01*
X0010315Y0281564D01*
X0011666Y0281564D01*
X0011666Y0284266D01*
X0014428Y0284266D02*
X0014428Y0281564D01*
X0007349Y0268266D02*
X0007349Y0265564D01*
X0007349Y0266915D02*
X0005547Y0266915D01*
X0005547Y0268266D02*
X0005547Y0265564D01*
X0004586Y0265564D02*
X0003686Y0265564D01*
X0004136Y0265564D02*
X0004136Y0268266D01*
X0004586Y0268266D02*
X0003686Y0268266D01*
D12*
X0030197Y0070514D02*
X0079597Y0070514D01*
X0079697Y0091314D02*
X0030197Y0091314D01*
X0030197Y0070514D01*
X0038852Y0066088D02*
X0049541Y0066088D01*
X0049197Y0046343D02*
X0048951Y0046224D01*
X0048703Y0046111D01*
X0048452Y0046004D01*
X0048199Y0045904D01*
X0047943Y0045809D01*
X0047684Y0045721D01*
X0047424Y0045639D01*
X0047162Y0045563D01*
X0046898Y0045494D01*
X0046633Y0045432D01*
X0046366Y0045375D01*
X0046097Y0045326D01*
X0045828Y0045283D01*
X0045558Y0045246D01*
X0045287Y0045216D01*
X0045015Y0045193D01*
X0044742Y0045176D01*
X0044470Y0045166D01*
X0044197Y0045163D01*
X0043924Y0045166D01*
X0043652Y0045176D01*
X0043379Y0045193D01*
X0043107Y0045216D01*
X0042836Y0045246D01*
X0042566Y0045283D01*
X0042297Y0045326D01*
X0042028Y0045375D01*
X0041761Y0045432D01*
X0041496Y0045494D01*
X0041232Y0045563D01*
X0040970Y0045639D01*
X0040710Y0045721D01*
X0040451Y0045809D01*
X0040195Y0045904D01*
X0039942Y0046004D01*
X0039691Y0046111D01*
X0039443Y0046224D01*
X0039197Y0046343D01*
X0039197Y0095556D02*
X0039443Y0095437D01*
X0039691Y0095324D01*
X0039942Y0095217D01*
X0040195Y0095117D01*
X0040451Y0095022D01*
X0040710Y0094934D01*
X0040970Y0094852D01*
X0041232Y0094776D01*
X0041496Y0094707D01*
X0041761Y0094645D01*
X0042028Y0094588D01*
X0042297Y0094539D01*
X0042566Y0094496D01*
X0042836Y0094459D01*
X0043107Y0094429D01*
X0043379Y0094406D01*
X0043652Y0094389D01*
X0043924Y0094379D01*
X0044197Y0094376D01*
X0044470Y0094379D01*
X0044742Y0094389D01*
X0045015Y0094406D01*
X0045287Y0094429D01*
X0045558Y0094459D01*
X0045828Y0094496D01*
X0046097Y0094539D01*
X0046366Y0094588D01*
X0046633Y0094645D01*
X0046898Y0094707D01*
X0047162Y0094776D01*
X0047424Y0094852D01*
X0047684Y0094934D01*
X0047943Y0095022D01*
X0048199Y0095117D01*
X0048452Y0095217D01*
X0048703Y0095324D01*
X0048951Y0095437D01*
X0049197Y0095556D01*
X0049541Y0115301D02*
X0038852Y0115301D01*
X0030197Y0119714D02*
X0030197Y0140514D01*
X0079697Y0140514D01*
X0079597Y0119714D02*
X0030197Y0119714D01*
X0039197Y0144768D02*
X0039443Y0144649D01*
X0039691Y0144536D01*
X0039942Y0144429D01*
X0040195Y0144329D01*
X0040451Y0144234D01*
X0040710Y0144146D01*
X0040970Y0144064D01*
X0041232Y0143988D01*
X0041496Y0143919D01*
X0041761Y0143857D01*
X0042028Y0143800D01*
X0042297Y0143751D01*
X0042566Y0143708D01*
X0042836Y0143671D01*
X0043107Y0143641D01*
X0043379Y0143618D01*
X0043652Y0143601D01*
X0043924Y0143591D01*
X0044197Y0143588D01*
X0044470Y0143591D01*
X0044742Y0143601D01*
X0045015Y0143618D01*
X0045287Y0143641D01*
X0045558Y0143671D01*
X0045828Y0143708D01*
X0046097Y0143751D01*
X0046366Y0143800D01*
X0046633Y0143857D01*
X0046898Y0143919D01*
X0047162Y0143988D01*
X0047424Y0144064D01*
X0047684Y0144146D01*
X0047943Y0144234D01*
X0048199Y0144329D01*
X0048452Y0144429D01*
X0048703Y0144536D01*
X0048951Y0144649D01*
X0049197Y0144768D01*
X0049541Y0164513D02*
X0038852Y0164513D01*
X0030197Y0168914D02*
X0079597Y0168914D01*
X0079697Y0189714D02*
X0030197Y0189714D01*
X0030197Y0168914D01*
X0039197Y0193981D02*
X0039443Y0193862D01*
X0039691Y0193749D01*
X0039942Y0193642D01*
X0040195Y0193542D01*
X0040451Y0193447D01*
X0040710Y0193359D01*
X0040970Y0193277D01*
X0041232Y0193201D01*
X0041496Y0193132D01*
X0041761Y0193070D01*
X0042028Y0193013D01*
X0042297Y0192964D01*
X0042566Y0192921D01*
X0042836Y0192884D01*
X0043107Y0192854D01*
X0043379Y0192831D01*
X0043652Y0192814D01*
X0043924Y0192804D01*
X0044197Y0192801D01*
X0044470Y0192804D01*
X0044742Y0192814D01*
X0045015Y0192831D01*
X0045287Y0192854D01*
X0045558Y0192884D01*
X0045828Y0192921D01*
X0046097Y0192964D01*
X0046366Y0193013D01*
X0046633Y0193070D01*
X0046898Y0193132D01*
X0047162Y0193201D01*
X0047424Y0193277D01*
X0047684Y0193359D01*
X0047943Y0193447D01*
X0048199Y0193542D01*
X0048452Y0193642D01*
X0048703Y0193749D01*
X0048951Y0193862D01*
X0049197Y0193981D01*
X0049541Y0213726D02*
X0038852Y0213726D01*
X0030297Y0218214D02*
X0030297Y0239014D01*
X0079797Y0239014D01*
X0079697Y0218214D02*
X0030297Y0218214D01*
X0039197Y0243193D02*
X0039443Y0243074D01*
X0039691Y0242961D01*
X0039942Y0242854D01*
X0040195Y0242754D01*
X0040451Y0242659D01*
X0040710Y0242571D01*
X0040970Y0242489D01*
X0041232Y0242413D01*
X0041496Y0242344D01*
X0041761Y0242282D01*
X0042028Y0242225D01*
X0042297Y0242176D01*
X0042566Y0242133D01*
X0042836Y0242096D01*
X0043107Y0242066D01*
X0043379Y0242043D01*
X0043652Y0242026D01*
X0043924Y0242016D01*
X0044197Y0242013D01*
X0044470Y0242016D01*
X0044742Y0242026D01*
X0045015Y0242043D01*
X0045287Y0242066D01*
X0045558Y0242096D01*
X0045828Y0242133D01*
X0046097Y0242176D01*
X0046366Y0242225D01*
X0046633Y0242282D01*
X0046898Y0242344D01*
X0047162Y0242413D01*
X0047424Y0242489D01*
X0047684Y0242571D01*
X0047943Y0242659D01*
X0048199Y0242754D01*
X0048452Y0242854D01*
X0048703Y0242961D01*
X0048951Y0243074D01*
X0049197Y0243193D01*
X0049541Y0262938D02*
X0038852Y0262938D01*
X0030297Y0267414D02*
X0030297Y0288214D01*
X0079797Y0288214D01*
X0079697Y0267414D02*
X0030297Y0267414D01*
X0039197Y0292406D02*
X0039443Y0292287D01*
X0039691Y0292174D01*
X0039942Y0292067D01*
X0040195Y0291967D01*
X0040451Y0291872D01*
X0040710Y0291784D01*
X0040970Y0291702D01*
X0041232Y0291626D01*
X0041496Y0291557D01*
X0041761Y0291495D01*
X0042028Y0291438D01*
X0042297Y0291389D01*
X0042566Y0291346D01*
X0042836Y0291309D01*
X0043107Y0291279D01*
X0043379Y0291256D01*
X0043652Y0291239D01*
X0043924Y0291229D01*
X0044197Y0291226D01*
X0044470Y0291229D01*
X0044742Y0291239D01*
X0045015Y0291256D01*
X0045287Y0291279D01*
X0045558Y0291309D01*
X0045828Y0291346D01*
X0046097Y0291389D01*
X0046366Y0291438D01*
X0046633Y0291495D01*
X0046898Y0291557D01*
X0047162Y0291626D01*
X0047424Y0291702D01*
X0047684Y0291784D01*
X0047943Y0291872D01*
X0048199Y0291967D01*
X0048452Y0292067D01*
X0048703Y0292174D01*
X0048951Y0292287D01*
X0049197Y0292406D01*
X0049541Y0312151D02*
X0038852Y0312151D01*
X0030297Y0316614D02*
X0079697Y0316614D01*
X0079797Y0337414D02*
X0030297Y0337414D01*
X0030297Y0316614D01*
X0039197Y0341619D02*
X0039443Y0341500D01*
X0039691Y0341387D01*
X0039942Y0341280D01*
X0040195Y0341180D01*
X0040451Y0341085D01*
X0040710Y0340997D01*
X0040970Y0340915D01*
X0041232Y0340839D01*
X0041496Y0340770D01*
X0041761Y0340708D01*
X0042028Y0340651D01*
X0042297Y0340602D01*
X0042566Y0340559D01*
X0042836Y0340522D01*
X0043107Y0340492D01*
X0043379Y0340469D01*
X0043652Y0340452D01*
X0043924Y0340442D01*
X0044197Y0340439D01*
X0044470Y0340442D01*
X0044742Y0340452D01*
X0045015Y0340469D01*
X0045287Y0340492D01*
X0045558Y0340522D01*
X0045828Y0340559D01*
X0046097Y0340602D01*
X0046366Y0340651D01*
X0046633Y0340708D01*
X0046898Y0340770D01*
X0047162Y0340839D01*
X0047424Y0340915D01*
X0047684Y0340997D01*
X0047943Y0341085D01*
X0048199Y0341180D01*
X0048452Y0341280D01*
X0048703Y0341387D01*
X0048951Y0341500D01*
X0049197Y0341619D01*
X0049541Y0361364D02*
X0038852Y0361364D01*
X0030297Y0365814D02*
X0030297Y0386614D01*
X0079797Y0386614D01*
X0079697Y0365814D02*
X0030297Y0365814D01*
X0039197Y0390831D02*
X0039443Y0390712D01*
X0039691Y0390599D01*
X0039942Y0390492D01*
X0040195Y0390392D01*
X0040451Y0390297D01*
X0040710Y0390209D01*
X0040970Y0390127D01*
X0041232Y0390051D01*
X0041496Y0389982D01*
X0041761Y0389920D01*
X0042028Y0389863D01*
X0042297Y0389814D01*
X0042566Y0389771D01*
X0042836Y0389734D01*
X0043107Y0389704D01*
X0043379Y0389681D01*
X0043652Y0389664D01*
X0043924Y0389654D01*
X0044197Y0389651D01*
X0044470Y0389654D01*
X0044742Y0389664D01*
X0045015Y0389681D01*
X0045287Y0389704D01*
X0045558Y0389734D01*
X0045828Y0389771D01*
X0046097Y0389814D01*
X0046366Y0389863D01*
X0046633Y0389920D01*
X0046898Y0389982D01*
X0047162Y0390051D01*
X0047424Y0390127D01*
X0047684Y0390209D01*
X0047943Y0390297D01*
X0048199Y0390392D01*
X0048452Y0390492D01*
X0048703Y0390599D01*
X0048951Y0390712D01*
X0049197Y0390831D01*
X0049541Y0410576D02*
X0038852Y0410576D01*
X0030197Y0415014D02*
X0030197Y0435814D01*
X0079697Y0435814D01*
X0079597Y0415014D02*
X0030197Y0415014D01*
X0039197Y0440044D02*
X0039443Y0439925D01*
X0039691Y0439812D01*
X0039942Y0439705D01*
X0040195Y0439605D01*
X0040451Y0439510D01*
X0040710Y0439422D01*
X0040970Y0439340D01*
X0041232Y0439264D01*
X0041496Y0439195D01*
X0041761Y0439133D01*
X0042028Y0439076D01*
X0042297Y0439027D01*
X0042566Y0438984D01*
X0042836Y0438947D01*
X0043107Y0438917D01*
X0043379Y0438894D01*
X0043652Y0438877D01*
X0043924Y0438867D01*
X0044197Y0438864D01*
X0044470Y0438867D01*
X0044742Y0438877D01*
X0045015Y0438894D01*
X0045287Y0438917D01*
X0045558Y0438947D01*
X0045828Y0438984D01*
X0046097Y0439027D01*
X0046366Y0439076D01*
X0046633Y0439133D01*
X0046898Y0439195D01*
X0047162Y0439264D01*
X0047424Y0439340D01*
X0047684Y0439422D01*
X0047943Y0439510D01*
X0048199Y0439605D01*
X0048452Y0439705D01*
X0048703Y0439812D01*
X0048951Y0439925D01*
X0049197Y0440044D01*
X0049541Y0459789D02*
X0038852Y0459789D01*
D13*
X0079650Y0435945D02*
X0079650Y0414930D01*
X0088744Y0414930D01*
X0088744Y0435945D01*
X0079650Y0435945D01*
X0079650Y0386733D02*
X0088744Y0386733D01*
X0088744Y0365717D01*
X0079650Y0365717D01*
X0079650Y0386733D01*
X0079650Y0337520D02*
X0088744Y0337520D01*
X0088744Y0316504D01*
X0079650Y0316504D01*
X0079650Y0337520D01*
X0079650Y0288308D02*
X0088744Y0288308D01*
X0088744Y0267292D01*
X0079650Y0267292D01*
X0079650Y0288308D01*
X0079650Y0239095D02*
X0088744Y0239095D01*
X0088744Y0218079D01*
X0079650Y0218079D01*
X0079650Y0239095D01*
X0079650Y0189882D02*
X0088744Y0189882D01*
X0088744Y0168867D01*
X0079650Y0168867D01*
X0079650Y0189882D01*
X0079650Y0140670D02*
X0088744Y0140670D01*
X0088744Y0119654D01*
X0079650Y0119654D01*
X0079650Y0140670D01*
X0079650Y0091457D02*
X0088744Y0091457D01*
X0088744Y0070441D01*
X0079650Y0070441D01*
X0079650Y0091457D01*
D14*
X0158997Y0216414D03*
D15*
X0158947Y0230214D03*
X0158947Y0244014D03*
X0130347Y0244014D03*
X0130347Y0230214D03*
X0130347Y0216414D03*
D16*
X0130347Y0216514D03*
X0130347Y0230314D03*
X0130347Y0244114D03*
X0158947Y0244114D03*
X0158947Y0230314D03*
X0158947Y0216514D03*
D17*
X0158897Y0216614D03*
X0158897Y0230414D03*
X0158897Y0244214D03*
X0130397Y0244214D03*
X0130397Y0230414D03*
X0130397Y0216614D03*
D18*
X0130397Y0216714D03*
X0130397Y0230514D03*
X0130397Y0244314D03*
X0158897Y0244314D03*
X0158897Y0230514D03*
X0158897Y0216714D03*
D19*
X0158847Y0216814D03*
X0158847Y0230614D03*
X0158847Y0244414D03*
X0130447Y0244414D03*
X0130447Y0230614D03*
X0130447Y0216814D03*
D20*
X0130447Y0216914D03*
X0158847Y0216914D03*
D21*
X0158797Y0217014D03*
X0158797Y0230814D03*
X0158797Y0244614D03*
X0130497Y0244614D03*
X0130497Y0230814D03*
X0130497Y0217014D03*
D22*
X0130547Y0217114D03*
X0130547Y0230914D03*
X0130547Y0244714D03*
X0158747Y0244714D03*
X0158747Y0230914D03*
X0158747Y0217114D03*
D23*
X0158747Y0217214D03*
X0158747Y0231014D03*
X0158747Y0244814D03*
X0130547Y0244814D03*
X0130547Y0231014D03*
X0130547Y0217214D03*
D24*
X0130597Y0217314D03*
X0130597Y0231114D03*
X0130597Y0244914D03*
X0133697Y0266714D03*
X0133697Y0266814D03*
X0133797Y0266914D03*
X0133797Y0267014D03*
X0133797Y0267114D03*
X0133797Y0267214D03*
X0133897Y0267514D03*
X0133897Y0267614D03*
X0124997Y0266614D03*
X0124997Y0266514D03*
X0124897Y0266714D03*
X0124897Y0266814D03*
X0124897Y0266914D03*
X0124797Y0267114D03*
X0124797Y0267214D03*
X0124697Y0267714D03*
X0144697Y0263014D03*
X0155697Y0267414D03*
X0155697Y0267514D03*
X0155597Y0267714D03*
X0155597Y0267814D03*
X0155597Y0267914D03*
X0155597Y0268014D03*
X0155597Y0268114D03*
X0155497Y0268414D03*
X0155497Y0268514D03*
X0155497Y0268614D03*
X0155497Y0268714D03*
X0155497Y0268814D03*
X0155497Y0268914D03*
X0155397Y0269714D03*
X0155397Y0269814D03*
X0155397Y0269914D03*
X0155397Y0270014D03*
X0155397Y0270114D03*
X0155397Y0270214D03*
X0155397Y0270314D03*
X0155397Y0270414D03*
X0155397Y0270514D03*
X0155397Y0270614D03*
X0155397Y0270714D03*
X0155397Y0270814D03*
X0155397Y0270914D03*
X0155397Y0271014D03*
X0155397Y0271114D03*
X0155397Y0271214D03*
X0155397Y0271314D03*
X0155397Y0271414D03*
X0155397Y0271514D03*
X0155397Y0271614D03*
X0155397Y0271714D03*
X0155397Y0271814D03*
X0155397Y0271914D03*
X0155397Y0272014D03*
X0155397Y0272114D03*
X0155397Y0272214D03*
X0155397Y0272314D03*
X0155397Y0272414D03*
X0155397Y0272514D03*
X0155397Y0272614D03*
X0155397Y0272714D03*
X0155397Y0272814D03*
X0155397Y0279314D03*
X0155397Y0279414D03*
X0155397Y0279514D03*
X0155397Y0279614D03*
X0155397Y0279714D03*
X0155397Y0279814D03*
X0155397Y0279914D03*
X0155397Y0280014D03*
X0155397Y0280114D03*
X0155397Y0280214D03*
X0155397Y0280314D03*
X0155397Y0280414D03*
X0155397Y0280514D03*
X0155397Y0280614D03*
X0155397Y0280714D03*
X0155397Y0280814D03*
X0155397Y0280914D03*
X0155397Y0281014D03*
X0155397Y0281114D03*
X0155397Y0281214D03*
X0155397Y0281314D03*
X0155397Y0281414D03*
X0155397Y0281514D03*
X0155397Y0281614D03*
X0155397Y0281714D03*
X0155397Y0281814D03*
X0155397Y0281914D03*
X0155397Y0282014D03*
X0155397Y0282114D03*
X0155397Y0282214D03*
X0155397Y0282314D03*
X0155497Y0283114D03*
X0155497Y0283214D03*
X0155497Y0283314D03*
X0155497Y0283414D03*
X0155497Y0283514D03*
X0155497Y0283614D03*
X0155597Y0283914D03*
X0155597Y0284014D03*
X0155597Y0284114D03*
X0155597Y0284214D03*
X0155597Y0284314D03*
X0155697Y0284514D03*
X0155697Y0284614D03*
X0158697Y0244914D03*
X0158697Y0231114D03*
X0158697Y0217314D03*
D25*
X0158597Y0217414D03*
X0156097Y0266514D03*
X0156097Y0285614D03*
X0125397Y0265914D03*
X0125297Y0266014D03*
D26*
X0125247Y0266114D03*
X0130647Y0254114D03*
X0133347Y0266014D03*
X0133447Y0266214D03*
X0144747Y0285914D03*
X0155947Y0285314D03*
X0156047Y0285514D03*
X0155947Y0266714D03*
X0156047Y0266614D03*
X0158647Y0254114D03*
X0158647Y0240314D03*
X0158647Y0226514D03*
X0130647Y0226514D03*
X0130647Y0217414D03*
X0130647Y0240314D03*
D27*
X0130697Y0245114D03*
X0130697Y0231314D03*
X0130697Y0217514D03*
X0156397Y0266114D03*
X0156397Y0285914D03*
X0158597Y0245114D03*
X0158597Y0231314D03*
X0158597Y0217514D03*
D28*
X0158547Y0217614D03*
X0158547Y0231414D03*
X0158547Y0245214D03*
X0156747Y0286114D03*
X0130747Y0245214D03*
X0130747Y0231414D03*
X0130747Y0217614D03*
X0129347Y0262814D03*
D29*
X0130747Y0217714D03*
X0158547Y0217714D03*
X0158547Y0231514D03*
X0158547Y0245314D03*
D30*
X0158497Y0245414D03*
X0158497Y0231614D03*
X0158497Y0217814D03*
X0130797Y0217814D03*
X0130797Y0231614D03*
X0130797Y0245414D03*
D31*
X0130847Y0245514D03*
X0130847Y0231714D03*
X0130847Y0217914D03*
X0158447Y0217914D03*
X0158447Y0231714D03*
X0158447Y0245514D03*
D32*
X0158397Y0245614D03*
X0158397Y0231814D03*
X0158397Y0218014D03*
X0130897Y0218014D03*
X0130897Y0231814D03*
X0130897Y0245614D03*
D33*
X0130897Y0245714D03*
X0130897Y0231914D03*
X0130897Y0218114D03*
X0158397Y0218114D03*
X0158397Y0231914D03*
X0158397Y0245714D03*
D34*
X0158347Y0245814D03*
X0158347Y0232014D03*
X0158347Y0218214D03*
X0130947Y0218214D03*
X0130947Y0232014D03*
X0130947Y0245814D03*
X0129347Y0263414D03*
D35*
X0130997Y0245914D03*
X0130997Y0232114D03*
X0130997Y0218314D03*
X0158297Y0218314D03*
X0158297Y0232114D03*
X0158297Y0245914D03*
D36*
X0158247Y0246014D03*
X0158247Y0232214D03*
X0158247Y0218414D03*
X0162147Y0263014D03*
X0131047Y0246014D03*
X0131047Y0232214D03*
X0131047Y0218414D03*
D37*
X0131097Y0218514D03*
X0131097Y0232314D03*
X0158197Y0218514D03*
D38*
X0158147Y0218614D03*
X0158147Y0232414D03*
X0158147Y0246214D03*
X0161847Y0263214D03*
X0131147Y0246214D03*
X0131147Y0232414D03*
X0131147Y0218614D03*
X0129347Y0264114D03*
D39*
X0131197Y0246314D03*
X0131197Y0232514D03*
X0131197Y0218714D03*
X0158097Y0218714D03*
X0158097Y0232514D03*
X0158097Y0246314D03*
X0161597Y0263414D03*
D40*
X0158047Y0246414D03*
X0158047Y0232614D03*
X0158047Y0218814D03*
X0161347Y0288414D03*
X0131247Y0246414D03*
X0131247Y0232614D03*
X0131247Y0218814D03*
X0129347Y0264614D03*
D41*
X0129297Y0265014D03*
X0131297Y0246514D03*
X0131297Y0232714D03*
X0131297Y0218914D03*
X0157997Y0218914D03*
X0157997Y0232714D03*
X0157997Y0246514D03*
X0161097Y0264014D03*
X0161097Y0288014D03*
D42*
X0160847Y0287514D03*
X0160847Y0264514D03*
X0157947Y0246614D03*
X0157947Y0232814D03*
X0157947Y0219014D03*
X0131347Y0219014D03*
X0131347Y0232814D03*
X0131347Y0246614D03*
X0129347Y0265414D03*
D43*
X0131397Y0246714D03*
X0131397Y0232914D03*
X0131397Y0219114D03*
X0157897Y0219114D03*
X0157897Y0232914D03*
X0157897Y0246714D03*
X0160597Y0265214D03*
X0160597Y0265314D03*
X0160597Y0286714D03*
X0160597Y0286814D03*
D44*
X0157797Y0246814D03*
X0157797Y0233014D03*
X0157797Y0219214D03*
X0131497Y0219214D03*
X0131497Y0233014D03*
X0131497Y0246814D03*
X0144697Y0289114D03*
D45*
X0157747Y0246914D03*
X0157747Y0233114D03*
X0157747Y0219314D03*
X0131547Y0219314D03*
X0131547Y0233114D03*
X0131547Y0246914D03*
D46*
X0131597Y0247014D03*
X0131597Y0233214D03*
X0131597Y0219414D03*
X0157697Y0219414D03*
X0157697Y0233214D03*
X0157697Y0247014D03*
D47*
X0157597Y0247114D03*
X0157597Y0233314D03*
X0157597Y0219514D03*
X0131697Y0219514D03*
X0131697Y0233314D03*
X0131697Y0247114D03*
D48*
X0131797Y0247214D03*
X0131797Y0233414D03*
X0131797Y0219614D03*
X0157497Y0219614D03*
X0157497Y0233414D03*
X0157497Y0247214D03*
D49*
X0157397Y0247314D03*
X0157397Y0233514D03*
X0157397Y0219714D03*
X0131897Y0219714D03*
X0131897Y0233514D03*
X0131897Y0247314D03*
D50*
X0131997Y0247414D03*
X0131997Y0233614D03*
X0131997Y0219814D03*
X0157297Y0219814D03*
X0157297Y0233614D03*
X0157297Y0247414D03*
D51*
X0157197Y0247514D03*
X0157197Y0233714D03*
X0157197Y0219914D03*
X0132097Y0219914D03*
X0132097Y0233714D03*
X0132097Y0247514D03*
D52*
X0132247Y0247614D03*
X0132247Y0233814D03*
X0132247Y0220014D03*
X0157047Y0220014D03*
X0157047Y0233814D03*
X0157047Y0247614D03*
D53*
X0156897Y0247714D03*
X0156897Y0233914D03*
X0156897Y0220114D03*
X0132397Y0220114D03*
X0132397Y0233914D03*
X0132397Y0247714D03*
D54*
X0132647Y0247814D03*
X0132647Y0234014D03*
X0132647Y0220214D03*
X0156647Y0220214D03*
X0156647Y0234014D03*
X0156647Y0247814D03*
D55*
X0156347Y0247914D03*
X0156347Y0234114D03*
X0156347Y0220314D03*
X0132947Y0220314D03*
X0132947Y0234114D03*
X0132947Y0247914D03*
D56*
X0144647Y0248014D03*
X0144647Y0234214D03*
X0144647Y0220414D03*
D57*
X0144647Y0220514D03*
X0144647Y0234314D03*
X0144647Y0248114D03*
D58*
X0144647Y0250914D03*
X0144647Y0237114D03*
X0144647Y0223314D03*
X0144647Y0220614D03*
D59*
X0144647Y0220714D03*
X0144647Y0223214D03*
X0144647Y0234514D03*
X0144647Y0237014D03*
X0144647Y0248314D03*
X0144647Y0250814D03*
D60*
X0144647Y0250714D03*
X0144647Y0248414D03*
X0144647Y0236914D03*
X0144647Y0234614D03*
X0144647Y0223114D03*
X0144647Y0220814D03*
D61*
X0144647Y0220914D03*
X0144647Y0223014D03*
X0144647Y0234714D03*
X0144647Y0248514D03*
D62*
X0144647Y0248614D03*
X0144647Y0234814D03*
X0144647Y0221014D03*
D63*
X0144647Y0221114D03*
X0144647Y0234914D03*
X0144647Y0248714D03*
D64*
X0144647Y0248814D03*
X0144647Y0235014D03*
X0144647Y0221214D03*
D65*
X0144647Y0221314D03*
X0144647Y0235114D03*
X0144647Y0248914D03*
D66*
X0144647Y0249014D03*
X0144647Y0235214D03*
X0144647Y0221414D03*
D67*
X0144647Y0221514D03*
X0144647Y0235314D03*
X0144647Y0249114D03*
D68*
X0144647Y0249214D03*
X0144647Y0235414D03*
X0144647Y0221614D03*
D69*
X0144647Y0221714D03*
X0144647Y0222214D03*
X0144647Y0235514D03*
X0144647Y0236014D03*
X0144647Y0249814D03*
D70*
X0144647Y0249714D03*
X0144647Y0249414D03*
X0144647Y0235914D03*
X0144647Y0235614D03*
X0144647Y0222114D03*
X0144647Y0221814D03*
D71*
X0144647Y0221914D03*
X0144647Y0222014D03*
X0144647Y0235714D03*
X0144647Y0235814D03*
X0144647Y0249514D03*
X0144647Y0249614D03*
D72*
X0144647Y0249914D03*
X0144647Y0236114D03*
X0144647Y0222314D03*
D73*
X0144647Y0222414D03*
X0144647Y0236214D03*
X0144647Y0250014D03*
D74*
X0144647Y0250114D03*
X0144647Y0236314D03*
X0144647Y0222514D03*
D75*
X0144647Y0222614D03*
X0144647Y0236414D03*
X0144647Y0250214D03*
D76*
X0144647Y0250314D03*
X0144647Y0236514D03*
X0144647Y0222714D03*
D77*
X0144647Y0222814D03*
X0144647Y0236614D03*
X0144647Y0250414D03*
D78*
X0144647Y0250514D03*
X0144647Y0236714D03*
X0144647Y0222914D03*
D79*
X0144647Y0223414D03*
X0144647Y0237214D03*
X0144647Y0251014D03*
D80*
X0155897Y0251114D03*
X0155897Y0237314D03*
X0155897Y0223514D03*
X0133397Y0223514D03*
X0133397Y0237314D03*
X0133397Y0251114D03*
D81*
X0132797Y0251214D03*
X0132797Y0237414D03*
X0132797Y0223614D03*
X0156497Y0223614D03*
X0156497Y0237414D03*
X0156497Y0251214D03*
D82*
X0156747Y0251314D03*
X0156747Y0237514D03*
X0156747Y0223714D03*
X0132547Y0223714D03*
X0132547Y0237514D03*
X0132547Y0251314D03*
D83*
X0132347Y0251414D03*
X0132347Y0237614D03*
X0132347Y0223814D03*
X0156947Y0223814D03*
X0156947Y0237614D03*
X0156947Y0251414D03*
D84*
X0157097Y0251514D03*
X0157097Y0237714D03*
X0157097Y0223914D03*
X0132197Y0223914D03*
X0132197Y0237714D03*
X0132197Y0251514D03*
D85*
X0132097Y0251614D03*
X0132097Y0237814D03*
X0132097Y0224014D03*
X0157197Y0224014D03*
X0157197Y0237814D03*
X0157197Y0251614D03*
D86*
X0157397Y0251714D03*
X0157397Y0237914D03*
X0157397Y0224114D03*
X0131897Y0224114D03*
X0131897Y0237914D03*
X0131897Y0251714D03*
D87*
X0131847Y0251814D03*
X0131847Y0238014D03*
X0131847Y0224214D03*
X0157447Y0224214D03*
X0157447Y0238014D03*
X0157447Y0251814D03*
D88*
X0157547Y0251914D03*
X0157547Y0238114D03*
X0157547Y0224314D03*
X0131747Y0224314D03*
X0131747Y0238114D03*
X0131747Y0251914D03*
D89*
X0131647Y0252014D03*
X0131647Y0238214D03*
X0131647Y0224414D03*
X0157647Y0224414D03*
X0157647Y0238214D03*
X0157647Y0252014D03*
D90*
X0157697Y0252114D03*
X0157697Y0238314D03*
X0157697Y0224514D03*
X0131597Y0224514D03*
X0131597Y0238314D03*
X0131597Y0252114D03*
D91*
X0131547Y0252214D03*
X0131547Y0238414D03*
X0131547Y0224614D03*
X0144747Y0286314D03*
X0144747Y0286414D03*
X0144747Y0286514D03*
X0144747Y0286614D03*
X0144747Y0286714D03*
X0144747Y0286814D03*
X0144747Y0286914D03*
X0144747Y0287014D03*
X0144747Y0287114D03*
X0144747Y0287214D03*
X0144747Y0287314D03*
X0144747Y0287414D03*
X0144747Y0287514D03*
X0144747Y0287614D03*
X0144747Y0287714D03*
X0144747Y0287814D03*
X0144747Y0287914D03*
X0144747Y0288014D03*
X0144747Y0288114D03*
X0144747Y0288214D03*
X0144747Y0288314D03*
X0144747Y0288414D03*
X0144747Y0288514D03*
X0144747Y0288614D03*
X0144747Y0288714D03*
X0144747Y0288814D03*
X0157747Y0252214D03*
X0157747Y0238414D03*
X0157747Y0224614D03*
D92*
X0157847Y0224714D03*
X0157847Y0238514D03*
X0157847Y0252314D03*
X0160447Y0265814D03*
X0160447Y0286214D03*
X0144747Y0289214D03*
X0131447Y0252314D03*
X0131447Y0238514D03*
X0131447Y0224714D03*
D93*
X0131397Y0224814D03*
X0131397Y0238614D03*
X0131397Y0252414D03*
X0157897Y0252414D03*
X0160697Y0264914D03*
X0160697Y0287114D03*
X0157897Y0238614D03*
X0157897Y0224814D03*
D94*
X0157947Y0224914D03*
X0157947Y0238714D03*
X0157947Y0252514D03*
X0160947Y0264314D03*
X0160947Y0287714D03*
X0131347Y0252514D03*
X0129347Y0265214D03*
X0129347Y0265314D03*
X0131347Y0238714D03*
X0131347Y0224914D03*
D95*
X0131297Y0225014D03*
X0131297Y0238814D03*
X0131297Y0252614D03*
X0157997Y0252614D03*
X0157997Y0238814D03*
X0157997Y0225014D03*
X0161197Y0288214D03*
D96*
X0161447Y0288514D03*
X0158047Y0252714D03*
X0158047Y0238914D03*
X0158047Y0225114D03*
X0131247Y0225114D03*
X0131247Y0238914D03*
X0131247Y0252714D03*
X0129347Y0264514D03*
D97*
X0129347Y0264314D03*
X0131147Y0252814D03*
X0131147Y0239014D03*
X0131147Y0225214D03*
X0158147Y0225214D03*
X0158147Y0239014D03*
X0158147Y0252814D03*
X0161647Y0288714D03*
D98*
X0158197Y0252914D03*
X0158197Y0239114D03*
X0158197Y0225314D03*
X0131097Y0225314D03*
X0131097Y0239114D03*
X0131097Y0252914D03*
D99*
X0131047Y0253014D03*
X0129347Y0263814D03*
X0131047Y0239214D03*
X0131047Y0225414D03*
X0158247Y0225414D03*
X0158247Y0239214D03*
X0158247Y0253014D03*
X0162147Y0289014D03*
D100*
X0158247Y0253114D03*
X0158247Y0239314D03*
X0158247Y0225514D03*
X0131047Y0225514D03*
X0131047Y0239314D03*
X0131047Y0253114D03*
D101*
X0130997Y0253214D03*
X0130997Y0239414D03*
X0130997Y0225614D03*
X0158297Y0225614D03*
X0158297Y0239414D03*
X0158297Y0253214D03*
D102*
X0158347Y0253314D03*
X0158347Y0239514D03*
X0158347Y0225714D03*
X0130947Y0225714D03*
X0130947Y0239514D03*
X0130947Y0253314D03*
D103*
X0130897Y0253414D03*
X0129297Y0263214D03*
X0130897Y0239614D03*
X0130897Y0225814D03*
X0158397Y0225814D03*
X0158397Y0239614D03*
X0158397Y0253414D03*
D104*
X0158397Y0253514D03*
X0158397Y0239714D03*
X0158397Y0225914D03*
X0130897Y0225914D03*
X0130897Y0239714D03*
X0130897Y0253514D03*
X0129297Y0263114D03*
D105*
X0129347Y0263014D03*
X0130847Y0253614D03*
X0130847Y0239814D03*
X0130847Y0226014D03*
X0158447Y0226014D03*
X0158447Y0239814D03*
X0158447Y0253614D03*
D106*
X0158497Y0253714D03*
X0158497Y0239914D03*
X0158497Y0226114D03*
X0130797Y0226114D03*
X0130797Y0239914D03*
X0130797Y0253714D03*
X0129297Y0262914D03*
D107*
X0130697Y0226214D03*
X0158597Y0226214D03*
X0158597Y0240014D03*
X0158597Y0253814D03*
D108*
X0158597Y0253914D03*
X0158597Y0240114D03*
X0158597Y0226314D03*
X0132697Y0265514D03*
X0130697Y0253914D03*
X0125997Y0265514D03*
X0130697Y0240114D03*
X0130697Y0226314D03*
D109*
X0130647Y0226414D03*
X0130647Y0240214D03*
X0130647Y0254014D03*
X0133047Y0265714D03*
X0158647Y0254014D03*
X0158647Y0240214D03*
X0158647Y0226414D03*
D110*
X0158697Y0226614D03*
X0158697Y0240414D03*
X0158697Y0254214D03*
X0130597Y0254214D03*
X0130597Y0240414D03*
X0130597Y0226614D03*
D111*
X0130547Y0226714D03*
X0130547Y0240514D03*
X0130547Y0254314D03*
X0134047Y0289214D03*
X0124547Y0289214D03*
X0158747Y0254314D03*
X0158747Y0240514D03*
X0158747Y0226714D03*
D112*
X0158747Y0226814D03*
X0158747Y0240614D03*
X0158747Y0254414D03*
X0130547Y0254414D03*
X0130547Y0240614D03*
X0130547Y0226814D03*
D113*
X0130497Y0226914D03*
X0130497Y0240714D03*
X0130497Y0254514D03*
X0158797Y0254514D03*
X0158797Y0240714D03*
X0158797Y0226914D03*
D114*
X0158797Y0227014D03*
X0158797Y0240814D03*
X0158797Y0254614D03*
X0130497Y0254614D03*
X0129297Y0262514D03*
X0130497Y0240814D03*
X0130497Y0227014D03*
D115*
X0130447Y0227114D03*
X0130447Y0240914D03*
X0130447Y0254714D03*
X0158847Y0254714D03*
X0158847Y0240914D03*
X0158847Y0227114D03*
D116*
X0158897Y0227214D03*
X0158897Y0241014D03*
X0158897Y0254814D03*
X0130397Y0254814D03*
X0130397Y0241014D03*
X0130397Y0227214D03*
D117*
X0130347Y0227314D03*
X0130347Y0241114D03*
X0130347Y0254914D03*
X0158947Y0254914D03*
X0158947Y0241114D03*
X0158947Y0227314D03*
D118*
X0158997Y0227414D03*
X0158997Y0241214D03*
X0158997Y0255014D03*
X0130297Y0255014D03*
X0130297Y0241214D03*
X0130297Y0227414D03*
D119*
X0130497Y0230714D03*
X0130497Y0244514D03*
X0158797Y0244514D03*
X0158797Y0230714D03*
D120*
X0158647Y0231214D03*
X0158647Y0245014D03*
X0156147Y0266414D03*
X0156147Y0285714D03*
X0133247Y0265914D03*
X0133147Y0265814D03*
X0125447Y0265814D03*
X0130647Y0245014D03*
X0130647Y0231214D03*
D121*
X0130797Y0231514D03*
X0130797Y0245314D03*
D122*
X0131047Y0246114D03*
X0129347Y0263914D03*
X0158247Y0246114D03*
X0158247Y0232314D03*
D123*
X0144647Y0234414D03*
X0144647Y0248214D03*
D124*
X0144647Y0250614D03*
X0144647Y0236814D03*
D125*
X0130747Y0240014D03*
X0130747Y0253814D03*
X0156847Y0265914D03*
D126*
X0144647Y0249314D03*
D127*
X0129297Y0262614D03*
X0124597Y0289114D03*
X0134097Y0289114D03*
D128*
X0125597Y0265714D03*
X0129297Y0262714D03*
X0156197Y0266314D03*
X0156297Y0266214D03*
X0156297Y0285814D03*
D129*
X0162847Y0262814D03*
D130*
X0144697Y0262814D03*
D131*
X0129347Y0263514D03*
X0162447Y0262914D03*
D132*
X0164847Y0265914D03*
X0164847Y0266014D03*
X0164847Y0266114D03*
X0164847Y0266214D03*
X0164847Y0266314D03*
X0164847Y0266414D03*
X0164847Y0266514D03*
X0164847Y0266614D03*
X0164847Y0266714D03*
X0164847Y0266814D03*
X0164847Y0266914D03*
X0164847Y0267014D03*
X0164847Y0267114D03*
X0164847Y0267214D03*
X0164847Y0267314D03*
X0164847Y0267414D03*
X0164847Y0267514D03*
X0164847Y0267614D03*
X0164847Y0267714D03*
X0164847Y0267814D03*
X0164847Y0267914D03*
X0164847Y0268014D03*
X0164847Y0268114D03*
X0164847Y0268214D03*
X0164847Y0268314D03*
X0164847Y0268414D03*
X0164847Y0268514D03*
X0164847Y0268614D03*
X0164847Y0268714D03*
X0164847Y0268814D03*
X0164847Y0268914D03*
X0164847Y0269014D03*
X0164847Y0269114D03*
X0164847Y0269214D03*
X0164847Y0269314D03*
X0164847Y0269414D03*
X0164847Y0269514D03*
X0164847Y0269614D03*
X0164847Y0269714D03*
X0164847Y0269814D03*
X0164847Y0269914D03*
X0164847Y0270014D03*
X0164847Y0270114D03*
X0164847Y0270214D03*
X0164847Y0270314D03*
X0164847Y0270414D03*
X0164847Y0270514D03*
X0164847Y0270614D03*
X0164847Y0270714D03*
X0164847Y0270814D03*
X0164847Y0270914D03*
X0164847Y0271014D03*
X0164847Y0271114D03*
X0164847Y0271214D03*
X0164847Y0271314D03*
X0164847Y0271414D03*
X0164847Y0271514D03*
X0164847Y0271614D03*
X0164847Y0271714D03*
X0164847Y0271814D03*
X0164847Y0271914D03*
X0164847Y0272014D03*
X0164847Y0272114D03*
X0164847Y0272214D03*
X0164847Y0272314D03*
X0164847Y0272414D03*
X0164847Y0272514D03*
X0164847Y0272614D03*
X0164847Y0272714D03*
X0164847Y0272814D03*
X0164847Y0272914D03*
X0164847Y0273014D03*
X0164847Y0273114D03*
X0164847Y0273214D03*
X0164847Y0273314D03*
X0164847Y0273414D03*
X0164847Y0273514D03*
X0164847Y0273614D03*
X0164847Y0273714D03*
X0164847Y0273814D03*
X0164847Y0273914D03*
X0164847Y0274014D03*
X0164847Y0274114D03*
X0164847Y0274214D03*
X0164847Y0274314D03*
X0164847Y0274414D03*
X0164847Y0274514D03*
X0164847Y0274614D03*
X0164847Y0274714D03*
X0164847Y0274814D03*
X0164847Y0274914D03*
X0164847Y0275014D03*
X0164847Y0275114D03*
X0164847Y0275214D03*
X0164847Y0275314D03*
X0164847Y0275414D03*
X0164847Y0275514D03*
X0164847Y0275614D03*
X0164847Y0275714D03*
X0164847Y0275814D03*
X0164847Y0275914D03*
X0164847Y0276014D03*
X0164847Y0276114D03*
X0164847Y0276214D03*
X0164847Y0276314D03*
X0164847Y0276414D03*
X0164847Y0276514D03*
X0164847Y0276614D03*
X0164847Y0276714D03*
X0164847Y0276814D03*
X0164847Y0276914D03*
X0164847Y0277014D03*
X0164847Y0277114D03*
X0164847Y0277214D03*
X0164847Y0277314D03*
X0164847Y0277414D03*
X0164847Y0277514D03*
X0164847Y0277614D03*
X0164847Y0277714D03*
X0164847Y0277814D03*
X0164847Y0277914D03*
X0164847Y0278014D03*
X0164847Y0278114D03*
X0164847Y0278214D03*
X0164847Y0278314D03*
X0164847Y0278414D03*
X0164847Y0278514D03*
X0164847Y0278614D03*
X0164847Y0278714D03*
X0164847Y0278814D03*
X0164847Y0278914D03*
X0164847Y0279014D03*
X0164847Y0279114D03*
X0164847Y0279214D03*
X0164847Y0279314D03*
X0164847Y0279414D03*
X0164847Y0279514D03*
X0164847Y0279614D03*
X0164847Y0279714D03*
X0164847Y0279814D03*
X0164847Y0279914D03*
X0164847Y0280014D03*
X0164847Y0280114D03*
X0164847Y0280214D03*
X0164847Y0280314D03*
X0164847Y0280414D03*
X0164847Y0280514D03*
X0164847Y0280614D03*
X0164847Y0280714D03*
X0164847Y0280814D03*
X0164847Y0280914D03*
X0164847Y0281014D03*
X0164847Y0281114D03*
X0164847Y0281214D03*
X0164847Y0281314D03*
X0164847Y0281414D03*
X0164847Y0281514D03*
X0164847Y0281614D03*
X0164847Y0281714D03*
X0164847Y0281814D03*
X0164847Y0281914D03*
X0164847Y0282014D03*
X0164847Y0282114D03*
X0164847Y0282214D03*
X0164847Y0282314D03*
X0164847Y0282414D03*
X0164847Y0282514D03*
X0164847Y0282614D03*
X0164847Y0282714D03*
X0164847Y0282814D03*
X0164847Y0282914D03*
X0164847Y0283014D03*
X0164847Y0283114D03*
X0164847Y0283214D03*
X0164847Y0283314D03*
X0164847Y0283414D03*
X0164847Y0283514D03*
X0164847Y0283614D03*
X0164847Y0283714D03*
X0164847Y0283814D03*
X0164847Y0283914D03*
X0164847Y0284014D03*
X0164847Y0284114D03*
X0164847Y0284214D03*
X0164847Y0284314D03*
X0164847Y0284414D03*
X0164847Y0284514D03*
X0164847Y0284614D03*
X0164847Y0284714D03*
X0164847Y0284814D03*
X0164847Y0284914D03*
X0164847Y0285014D03*
X0164847Y0285114D03*
X0164847Y0285214D03*
X0164847Y0285314D03*
X0164847Y0285414D03*
X0164847Y0285514D03*
X0164847Y0285614D03*
X0164847Y0285714D03*
X0164847Y0285814D03*
X0164847Y0285914D03*
X0164847Y0286014D03*
X0164847Y0286114D03*
X0155547Y0283814D03*
X0155547Y0283714D03*
X0155447Y0283014D03*
X0155447Y0282914D03*
X0155447Y0282814D03*
X0155447Y0282714D03*
X0155447Y0282614D03*
X0155447Y0282514D03*
X0155447Y0282414D03*
X0155347Y0279214D03*
X0155347Y0279114D03*
X0155347Y0279014D03*
X0155347Y0278914D03*
X0155347Y0278814D03*
X0155347Y0278714D03*
X0155347Y0278614D03*
X0155347Y0278514D03*
X0155347Y0278414D03*
X0155347Y0278314D03*
X0155347Y0278214D03*
X0155347Y0278114D03*
X0155347Y0278014D03*
X0155347Y0277914D03*
X0155347Y0277814D03*
X0155347Y0277714D03*
X0155347Y0277614D03*
X0155347Y0277514D03*
X0155347Y0277414D03*
X0155347Y0277314D03*
X0155347Y0277214D03*
X0155347Y0277114D03*
X0155347Y0277014D03*
X0155347Y0276914D03*
X0155347Y0276814D03*
X0155347Y0276714D03*
X0155347Y0276614D03*
X0155347Y0276514D03*
X0155347Y0276414D03*
X0155347Y0276314D03*
X0155347Y0276214D03*
X0155347Y0276114D03*
X0155347Y0276014D03*
X0155347Y0275914D03*
X0155347Y0275814D03*
X0155347Y0275714D03*
X0155347Y0275614D03*
X0155347Y0275514D03*
X0155347Y0275414D03*
X0155347Y0275314D03*
X0155347Y0275214D03*
X0155347Y0275114D03*
X0155347Y0275014D03*
X0155347Y0274914D03*
X0155347Y0274814D03*
X0155347Y0274714D03*
X0155347Y0274614D03*
X0155347Y0274514D03*
X0155347Y0274414D03*
X0155347Y0274314D03*
X0155347Y0274214D03*
X0155347Y0274114D03*
X0155347Y0274014D03*
X0155347Y0273914D03*
X0155347Y0273814D03*
X0155347Y0273714D03*
X0155347Y0273614D03*
X0155347Y0273514D03*
X0155347Y0273414D03*
X0155347Y0273314D03*
X0155347Y0273214D03*
X0155347Y0273114D03*
X0155347Y0273014D03*
X0155347Y0272914D03*
X0155447Y0269614D03*
X0155447Y0269514D03*
X0155447Y0269414D03*
X0155447Y0269314D03*
X0155447Y0269214D03*
X0155447Y0269114D03*
X0155447Y0269014D03*
X0155547Y0268314D03*
X0155547Y0268214D03*
X0144747Y0262914D03*
X0133847Y0267314D03*
X0133847Y0267414D03*
X0133947Y0267714D03*
X0133947Y0267814D03*
X0133947Y0267914D03*
X0133947Y0268014D03*
X0133947Y0268114D03*
X0133947Y0268214D03*
X0133947Y0268314D03*
X0133947Y0268414D03*
X0134047Y0268514D03*
X0134047Y0268614D03*
X0134047Y0268714D03*
X0134047Y0268814D03*
X0134047Y0268914D03*
X0134047Y0269014D03*
X0134047Y0269114D03*
X0134047Y0269214D03*
X0134047Y0269314D03*
X0134047Y0269414D03*
X0134047Y0269514D03*
X0134047Y0269614D03*
X0134047Y0269714D03*
X0134047Y0269814D03*
X0134047Y0269914D03*
X0134047Y0270014D03*
X0134047Y0270114D03*
X0134047Y0270214D03*
X0134047Y0270314D03*
X0134047Y0270414D03*
X0134047Y0270514D03*
X0134047Y0270614D03*
X0134047Y0270714D03*
X0134047Y0270814D03*
X0134047Y0270914D03*
X0134047Y0271014D03*
X0134047Y0271114D03*
X0134047Y0271214D03*
X0134047Y0271314D03*
X0134047Y0271414D03*
X0134047Y0271514D03*
X0134047Y0271614D03*
X0134047Y0271714D03*
X0134047Y0271814D03*
X0134047Y0271914D03*
X0134047Y0272014D03*
X0134047Y0272114D03*
X0134047Y0272214D03*
X0134047Y0272314D03*
X0134047Y0272414D03*
X0134047Y0272514D03*
X0134047Y0272614D03*
X0134047Y0272714D03*
X0134047Y0272814D03*
X0134047Y0272914D03*
X0134047Y0273014D03*
X0134047Y0273114D03*
X0134047Y0273214D03*
X0134047Y0273314D03*
X0134047Y0273414D03*
X0134047Y0273514D03*
X0134047Y0273614D03*
X0134047Y0273714D03*
X0134047Y0273814D03*
X0134047Y0273914D03*
X0134047Y0274014D03*
X0134047Y0274114D03*
X0134047Y0274214D03*
X0134047Y0274314D03*
X0134047Y0274414D03*
X0134047Y0274514D03*
X0134047Y0274614D03*
X0134047Y0274714D03*
X0134047Y0274814D03*
X0134047Y0274914D03*
X0134047Y0275014D03*
X0134047Y0275114D03*
X0134047Y0275214D03*
X0134047Y0275314D03*
X0134047Y0275414D03*
X0134047Y0275514D03*
X0134047Y0275614D03*
X0134047Y0275714D03*
X0134047Y0275814D03*
X0134047Y0275914D03*
X0134047Y0276014D03*
X0134047Y0276114D03*
X0134047Y0276214D03*
X0134047Y0276314D03*
X0134047Y0276414D03*
X0134047Y0276514D03*
X0134047Y0276614D03*
X0134047Y0276714D03*
X0134047Y0276814D03*
X0134047Y0276914D03*
X0134047Y0277014D03*
X0134047Y0277114D03*
X0134047Y0277214D03*
X0134047Y0277314D03*
X0134047Y0277414D03*
X0134047Y0277514D03*
X0134047Y0277614D03*
X0134047Y0277714D03*
X0134047Y0277814D03*
X0134047Y0277914D03*
X0134047Y0278014D03*
X0134047Y0278114D03*
X0134047Y0278214D03*
X0134047Y0278314D03*
X0134047Y0278414D03*
X0134047Y0278514D03*
X0134047Y0278614D03*
X0134047Y0278714D03*
X0134047Y0278814D03*
X0134047Y0278914D03*
X0134047Y0279014D03*
X0134047Y0279114D03*
X0134047Y0279214D03*
X0134047Y0279314D03*
X0134047Y0279414D03*
X0134047Y0279514D03*
X0134047Y0279614D03*
X0134047Y0279714D03*
X0134047Y0279814D03*
X0134047Y0279914D03*
X0134047Y0280014D03*
X0134047Y0280114D03*
X0134047Y0280214D03*
X0134047Y0280314D03*
X0134047Y0280414D03*
X0134047Y0280514D03*
X0134047Y0280614D03*
X0134047Y0280714D03*
X0134047Y0280814D03*
X0134047Y0280914D03*
X0134047Y0281014D03*
X0134047Y0281114D03*
X0134047Y0281214D03*
X0134047Y0281314D03*
X0134047Y0281414D03*
X0134047Y0281514D03*
X0134047Y0281614D03*
X0134047Y0281714D03*
X0134047Y0281814D03*
X0134047Y0281914D03*
X0134047Y0282014D03*
X0134047Y0282114D03*
X0134047Y0282214D03*
X0134047Y0282314D03*
X0134047Y0282414D03*
X0134047Y0282514D03*
X0134047Y0282614D03*
X0134047Y0282714D03*
X0134047Y0282814D03*
X0134047Y0282914D03*
X0134047Y0283014D03*
X0134047Y0283114D03*
X0134047Y0283214D03*
X0134047Y0283314D03*
X0134047Y0283414D03*
X0134047Y0283514D03*
X0134047Y0283614D03*
X0134047Y0283714D03*
X0134047Y0283814D03*
X0134047Y0283914D03*
X0134047Y0284014D03*
X0134047Y0284114D03*
X0134047Y0284214D03*
X0134047Y0284314D03*
X0134047Y0284414D03*
X0134047Y0284514D03*
X0134047Y0284614D03*
X0134047Y0284714D03*
X0134047Y0284814D03*
X0134047Y0284914D03*
X0134047Y0285014D03*
X0134047Y0285114D03*
X0134047Y0285214D03*
X0134047Y0285314D03*
X0134047Y0285414D03*
X0134047Y0285514D03*
X0134047Y0285614D03*
X0134047Y0285714D03*
X0134047Y0285814D03*
X0134047Y0285914D03*
X0134047Y0286014D03*
X0134047Y0286114D03*
X0134047Y0286214D03*
X0134047Y0286314D03*
X0134047Y0286414D03*
X0134047Y0286514D03*
X0134047Y0286614D03*
X0134047Y0286714D03*
X0134047Y0286814D03*
X0134047Y0286914D03*
X0134047Y0287014D03*
X0134047Y0287114D03*
X0134047Y0287214D03*
X0134047Y0287314D03*
X0134047Y0287414D03*
X0134047Y0287514D03*
X0134047Y0287614D03*
X0134047Y0287714D03*
X0134047Y0287814D03*
X0134047Y0287914D03*
X0134047Y0288014D03*
X0134047Y0288114D03*
X0134047Y0288214D03*
X0134047Y0288314D03*
X0134047Y0288414D03*
X0134047Y0288514D03*
X0134047Y0288614D03*
X0134047Y0288714D03*
X0134047Y0288814D03*
X0134047Y0288914D03*
X0124547Y0288914D03*
X0124547Y0288814D03*
X0124547Y0288714D03*
X0124547Y0288614D03*
X0124547Y0288514D03*
X0124547Y0288414D03*
X0124547Y0288314D03*
X0124547Y0288214D03*
X0124547Y0288114D03*
X0124547Y0288014D03*
X0124547Y0287914D03*
X0124547Y0287814D03*
X0124547Y0287714D03*
X0124547Y0287614D03*
X0124547Y0287514D03*
X0124547Y0287414D03*
X0124547Y0287314D03*
X0124547Y0287214D03*
X0124547Y0287114D03*
X0124547Y0287014D03*
X0124547Y0286914D03*
X0124547Y0286814D03*
X0124547Y0286714D03*
X0124547Y0286614D03*
X0124547Y0286514D03*
X0124547Y0286414D03*
X0124547Y0286314D03*
X0124547Y0286214D03*
X0124547Y0286114D03*
X0124547Y0286014D03*
X0124547Y0285914D03*
X0124547Y0285814D03*
X0124547Y0285714D03*
X0124547Y0285614D03*
X0124547Y0285514D03*
X0124547Y0285414D03*
X0124547Y0285314D03*
X0124547Y0285214D03*
X0124547Y0285114D03*
X0124547Y0285014D03*
X0124547Y0284914D03*
X0124547Y0284814D03*
X0124547Y0284714D03*
X0124547Y0284614D03*
X0124547Y0284514D03*
X0124547Y0284414D03*
X0124547Y0284314D03*
X0124547Y0284214D03*
X0124547Y0284114D03*
X0124547Y0284014D03*
X0124547Y0283914D03*
X0124547Y0283814D03*
X0124547Y0283714D03*
X0124547Y0283614D03*
X0124547Y0283514D03*
X0124547Y0283414D03*
X0124547Y0283314D03*
X0124547Y0283214D03*
X0124547Y0283114D03*
X0124547Y0283014D03*
X0124547Y0282914D03*
X0124547Y0282814D03*
X0124547Y0282714D03*
X0124547Y0282614D03*
X0124547Y0282514D03*
X0124547Y0282414D03*
X0124547Y0282314D03*
X0124547Y0282214D03*
X0124547Y0282114D03*
X0124547Y0282014D03*
X0124547Y0281914D03*
X0124547Y0281814D03*
X0124547Y0281714D03*
X0124547Y0281614D03*
X0124547Y0281514D03*
X0124547Y0281414D03*
X0124547Y0281314D03*
X0124547Y0281214D03*
X0124547Y0281114D03*
X0124547Y0281014D03*
X0124547Y0280914D03*
X0124547Y0280814D03*
X0124547Y0280714D03*
X0124547Y0280614D03*
X0124547Y0280514D03*
X0124547Y0280414D03*
X0124547Y0280314D03*
X0124547Y0280214D03*
X0124547Y0280114D03*
X0124547Y0280014D03*
X0124547Y0279914D03*
X0124547Y0279814D03*
X0124547Y0279714D03*
X0124547Y0279614D03*
X0124547Y0279514D03*
X0124547Y0279414D03*
X0124547Y0279314D03*
X0124547Y0279214D03*
X0124547Y0279114D03*
X0124547Y0279014D03*
X0124547Y0278914D03*
X0124547Y0278814D03*
X0124547Y0278714D03*
X0124547Y0278614D03*
X0124547Y0278514D03*
X0124547Y0278414D03*
X0124547Y0278314D03*
X0124547Y0278214D03*
X0124547Y0278114D03*
X0124547Y0278014D03*
X0124547Y0277914D03*
X0124547Y0277814D03*
X0124547Y0277714D03*
X0124547Y0277614D03*
X0124547Y0277514D03*
X0124547Y0277414D03*
X0124547Y0277314D03*
X0124547Y0277214D03*
X0124547Y0277114D03*
X0124547Y0277014D03*
X0124547Y0276914D03*
X0124547Y0276814D03*
X0124547Y0276714D03*
X0124547Y0276614D03*
X0124547Y0276514D03*
X0124547Y0276414D03*
X0124547Y0276314D03*
X0124547Y0276214D03*
X0124547Y0276114D03*
X0124547Y0276014D03*
X0124547Y0275914D03*
X0124547Y0275814D03*
X0124547Y0275714D03*
X0124547Y0275614D03*
X0124547Y0275514D03*
X0124547Y0275414D03*
X0124547Y0275314D03*
X0124547Y0275214D03*
X0124547Y0275114D03*
X0124547Y0275014D03*
X0124547Y0274914D03*
X0124547Y0274814D03*
X0124547Y0274714D03*
X0124547Y0274614D03*
X0124547Y0274514D03*
X0124547Y0274414D03*
X0124547Y0274314D03*
X0124547Y0274214D03*
X0124547Y0274114D03*
X0124547Y0274014D03*
X0124547Y0273914D03*
X0124547Y0273814D03*
X0124547Y0273714D03*
X0124547Y0273614D03*
X0124547Y0273514D03*
X0124547Y0273414D03*
X0124547Y0273314D03*
X0124547Y0273214D03*
X0124547Y0273114D03*
X0124547Y0273014D03*
X0124547Y0272914D03*
X0124547Y0272814D03*
X0124547Y0272714D03*
X0124547Y0272614D03*
X0124547Y0272514D03*
X0124547Y0272414D03*
X0124547Y0272314D03*
X0124547Y0272214D03*
X0124547Y0272114D03*
X0124547Y0272014D03*
X0124547Y0271914D03*
X0124547Y0271814D03*
X0124547Y0271714D03*
X0124547Y0271614D03*
X0124547Y0271514D03*
X0124547Y0271414D03*
X0124547Y0271314D03*
X0124547Y0271214D03*
X0124547Y0271114D03*
X0124547Y0271014D03*
X0124547Y0270914D03*
X0124547Y0270814D03*
X0124547Y0270714D03*
X0124547Y0270614D03*
X0124547Y0270514D03*
X0124547Y0270414D03*
X0124547Y0270314D03*
X0124547Y0270214D03*
X0124547Y0270114D03*
X0124547Y0270014D03*
X0124547Y0269914D03*
X0124547Y0269814D03*
X0124547Y0269714D03*
X0124547Y0269614D03*
X0124547Y0269514D03*
X0124547Y0269414D03*
X0124547Y0269314D03*
X0124547Y0269214D03*
X0124547Y0269114D03*
X0124547Y0269014D03*
X0124547Y0268914D03*
X0124547Y0268814D03*
X0124547Y0268714D03*
X0124647Y0268614D03*
X0124647Y0268514D03*
X0124647Y0268414D03*
X0124647Y0268314D03*
X0124647Y0268214D03*
X0124647Y0268114D03*
X0124647Y0268014D03*
X0124647Y0267914D03*
X0124647Y0267814D03*
X0124747Y0267614D03*
X0124747Y0267514D03*
X0124747Y0267414D03*
X0124747Y0267314D03*
X0124847Y0267014D03*
D133*
X0161997Y0263114D03*
D134*
X0155847Y0267014D03*
X0155747Y0267214D03*
X0155747Y0267314D03*
X0155647Y0267614D03*
X0155647Y0284414D03*
X0155747Y0284714D03*
X0155747Y0284814D03*
X0155747Y0284914D03*
X0155847Y0285014D03*
X0155847Y0285114D03*
X0144747Y0263214D03*
X0144747Y0263114D03*
X0133647Y0266514D03*
X0133647Y0266614D03*
X0133547Y0266414D03*
X0125047Y0266414D03*
D135*
X0161697Y0263314D03*
D136*
X0155897Y0266814D03*
X0155897Y0266914D03*
X0155797Y0267114D03*
X0155897Y0285214D03*
X0155997Y0285414D03*
X0144697Y0285414D03*
X0144697Y0285514D03*
X0144697Y0285614D03*
X0144697Y0285714D03*
X0144697Y0285814D03*
X0144697Y0285314D03*
X0144697Y0285214D03*
X0144697Y0285114D03*
X0144697Y0285014D03*
X0144697Y0284914D03*
X0144697Y0284814D03*
X0144697Y0284714D03*
X0144697Y0284614D03*
X0144697Y0284514D03*
X0144697Y0284414D03*
X0144697Y0284314D03*
X0144697Y0284214D03*
X0144697Y0284114D03*
X0144697Y0284014D03*
X0144697Y0283914D03*
X0144697Y0283814D03*
X0144697Y0283714D03*
X0144697Y0283614D03*
X0144697Y0283514D03*
X0144697Y0283414D03*
X0144697Y0283314D03*
X0144697Y0283214D03*
X0144697Y0283114D03*
X0144697Y0283014D03*
X0144697Y0282914D03*
X0144697Y0282814D03*
X0144697Y0282714D03*
X0144697Y0282614D03*
X0144697Y0282514D03*
X0144697Y0282414D03*
X0144697Y0282314D03*
X0144697Y0282214D03*
X0144697Y0282114D03*
X0144697Y0282014D03*
X0144697Y0281914D03*
X0144697Y0281814D03*
X0144697Y0281714D03*
X0144697Y0281614D03*
X0144697Y0281514D03*
X0144697Y0281414D03*
X0144697Y0281314D03*
X0144697Y0281214D03*
X0144697Y0281114D03*
X0144697Y0281014D03*
X0144697Y0280914D03*
X0144697Y0280814D03*
X0144697Y0280714D03*
X0144697Y0280614D03*
X0144697Y0280514D03*
X0144697Y0280414D03*
X0144697Y0280314D03*
X0144697Y0280214D03*
X0144697Y0280114D03*
X0144697Y0280014D03*
X0144697Y0279914D03*
X0144697Y0279814D03*
X0144697Y0279714D03*
X0144697Y0279614D03*
X0144697Y0279514D03*
X0144697Y0279414D03*
X0144697Y0279314D03*
X0144697Y0279214D03*
X0144697Y0279114D03*
X0144697Y0279014D03*
X0144697Y0278914D03*
X0144697Y0278814D03*
X0144697Y0278714D03*
X0144697Y0278614D03*
X0144697Y0278514D03*
X0144697Y0278414D03*
X0144697Y0278314D03*
X0144697Y0278214D03*
X0144697Y0278114D03*
X0144697Y0278014D03*
X0144697Y0277914D03*
X0144697Y0277814D03*
X0144697Y0277714D03*
X0144697Y0277614D03*
X0144697Y0277514D03*
X0144697Y0277414D03*
X0144697Y0277314D03*
X0144697Y0277214D03*
X0144697Y0277114D03*
X0144697Y0277014D03*
X0144697Y0276914D03*
X0144697Y0276814D03*
X0144697Y0276714D03*
X0144697Y0276614D03*
X0144697Y0276514D03*
X0144697Y0276414D03*
X0144697Y0276314D03*
X0144697Y0276214D03*
X0144697Y0276114D03*
X0144697Y0276014D03*
X0144697Y0275914D03*
X0144697Y0275814D03*
X0144697Y0275714D03*
X0144697Y0275614D03*
X0144697Y0275514D03*
X0144697Y0275414D03*
X0144697Y0275314D03*
X0144697Y0275214D03*
X0144697Y0275114D03*
X0144697Y0275014D03*
X0144697Y0274914D03*
X0144697Y0274814D03*
X0144697Y0274714D03*
X0144697Y0274614D03*
X0144697Y0274514D03*
X0144697Y0274414D03*
X0144697Y0274314D03*
X0144697Y0274214D03*
X0144697Y0274114D03*
X0144697Y0274014D03*
X0144697Y0273914D03*
X0144697Y0273814D03*
X0144697Y0273714D03*
X0144697Y0273614D03*
X0144697Y0273514D03*
X0144697Y0273414D03*
X0144697Y0273314D03*
X0144697Y0273214D03*
X0144697Y0273114D03*
X0144697Y0273014D03*
X0144697Y0272914D03*
X0144697Y0272814D03*
X0144697Y0272714D03*
X0144697Y0272614D03*
X0144697Y0272514D03*
X0144697Y0272414D03*
X0144697Y0272314D03*
X0144697Y0272214D03*
X0144697Y0272114D03*
X0144697Y0272014D03*
X0144697Y0271914D03*
X0144697Y0271814D03*
X0144697Y0271714D03*
X0144697Y0271614D03*
X0144697Y0271514D03*
X0144697Y0271414D03*
X0144697Y0271314D03*
X0144697Y0271214D03*
X0144697Y0271114D03*
X0144697Y0271014D03*
X0144697Y0270914D03*
X0144697Y0270814D03*
X0144697Y0270714D03*
X0144697Y0270614D03*
X0144697Y0270514D03*
X0144697Y0270414D03*
X0144697Y0270314D03*
X0144697Y0270214D03*
X0144697Y0270114D03*
X0144697Y0270014D03*
X0144697Y0269914D03*
X0144697Y0269814D03*
X0144697Y0269714D03*
X0144697Y0269614D03*
X0144697Y0269514D03*
X0144697Y0269414D03*
X0144697Y0269314D03*
X0144697Y0269214D03*
X0144697Y0269114D03*
X0144697Y0269014D03*
X0144697Y0268914D03*
X0144697Y0268814D03*
X0144697Y0268714D03*
X0144697Y0268614D03*
X0144697Y0268514D03*
X0144697Y0268414D03*
X0144697Y0268314D03*
X0144697Y0268214D03*
X0144697Y0268114D03*
X0144697Y0268014D03*
X0144697Y0267914D03*
X0144697Y0267814D03*
X0144697Y0267714D03*
X0144697Y0267614D03*
X0144697Y0267514D03*
X0144697Y0267414D03*
X0144697Y0267314D03*
X0144697Y0267214D03*
X0144697Y0267114D03*
X0144697Y0267014D03*
X0144697Y0266914D03*
X0144697Y0266814D03*
X0144697Y0266714D03*
X0144697Y0266614D03*
X0144697Y0266514D03*
X0144697Y0266414D03*
X0144697Y0266314D03*
X0144697Y0266214D03*
X0144697Y0266114D03*
X0144697Y0266014D03*
X0144697Y0265914D03*
X0144697Y0265814D03*
X0144697Y0265714D03*
X0144697Y0265614D03*
X0144697Y0265514D03*
X0144697Y0265414D03*
X0144697Y0265314D03*
X0144697Y0265214D03*
X0144697Y0265114D03*
X0144697Y0265014D03*
X0144697Y0264914D03*
X0144697Y0264814D03*
X0144697Y0264714D03*
X0144697Y0264614D03*
X0144697Y0264514D03*
X0144697Y0264414D03*
X0144697Y0264314D03*
X0144697Y0264214D03*
X0144697Y0264114D03*
X0144697Y0264014D03*
X0144697Y0263914D03*
X0144697Y0263814D03*
X0144697Y0263714D03*
X0144697Y0263614D03*
X0144697Y0263514D03*
X0144697Y0263414D03*
X0144697Y0263314D03*
X0133497Y0266314D03*
X0133397Y0266114D03*
X0125197Y0266214D03*
X0125097Y0266314D03*
D137*
X0129297Y0263314D03*
D138*
X0161497Y0263514D03*
D139*
X0161397Y0263614D03*
D140*
X0129297Y0263614D03*
D141*
X0129297Y0264714D03*
X0161297Y0263714D03*
X0161297Y0288314D03*
D142*
X0129297Y0263714D03*
D143*
X0129347Y0264814D03*
X0161247Y0263814D03*
D144*
X0161147Y0263914D03*
X0161147Y0288114D03*
X0129347Y0264914D03*
D145*
X0129347Y0264014D03*
X0161947Y0288914D03*
D146*
X0161047Y0287914D03*
X0161047Y0264114D03*
X0129347Y0265114D03*
D147*
X0160997Y0264214D03*
X0160997Y0287814D03*
D148*
X0129347Y0264214D03*
D149*
X0160897Y0264414D03*
X0160897Y0287614D03*
D150*
X0161547Y0288614D03*
X0129347Y0264414D03*
D151*
X0160797Y0264614D03*
X0160797Y0264714D03*
X0160797Y0287414D03*
D152*
X0160747Y0287314D03*
X0160747Y0287214D03*
X0160747Y0264814D03*
D153*
X0160647Y0265014D03*
X0160647Y0265114D03*
X0160647Y0286914D03*
X0160647Y0287014D03*
D154*
X0160547Y0286614D03*
X0160547Y0286514D03*
X0160547Y0265514D03*
X0160547Y0265414D03*
D155*
X0160497Y0265614D03*
X0160497Y0265714D03*
X0160497Y0286314D03*
X0160497Y0286414D03*
D156*
X0132947Y0265614D03*
X0125747Y0265614D03*
D157*
X0156597Y0266014D03*
X0156497Y0286014D03*
D158*
X0144747Y0286014D03*
D159*
X0144747Y0286114D03*
X0144747Y0286214D03*
X0144747Y0289014D03*
D160*
X0161797Y0288814D03*
D161*
X0144697Y0288914D03*
D162*
X0134047Y0289014D03*
X0124547Y0289014D03*
D163*
X0162347Y0289114D03*
D164*
X0162647Y0289214D03*
M02*
