<?xml version="1.0" encoding="UTF-8" standalone="no"?>
<svg width="297.011mm" height="209.973mm"
 viewBox="0 0 3508 2480"
 xmlns="http://www.w3.org/2000/svg" xmlns:xlink="http://www.w3.org/1999/xlink"  version="1.2" baseProfile="tiny">
<defs>
</defs>
<g fill="none" stroke="black" stroke-width="1" fill-rule="evenodd" stroke-linecap="square" stroke-linejoin="bevel" >

<g fill="#ffffff" fill-opacity="1" stroke="none" transform="matrix(1,0,0,1,0,0)"
font-family="Arial" font-size="12" font-weight="400" font-style="normal" 
>
<rect x="0" y="0" width="3508" height="2480"/>
</g>

<g fill="none" stroke="#000000" stroke-opacity="1" stroke-width="1" stroke-linecap="square" stroke-linejoin="bevel" transform="matrix(1,0,0,1,0,0)"
font-family="Arial" font-size="12" font-weight="400" font-style="normal" 
>
</g>

<g fill="#000000" fill-opacity="1" stroke="#000000" stroke-opacity="1" stroke-width="1" stroke-linecap="butt" stroke-linejoin="miter" stroke-miterlimit="2" transform="matrix(1,0,0,1,0,0)"
font-family="Arial" font-size="12" font-weight="400" font-style="normal" 
>
</g>

<g fill="#ff0000" fill-opacity="1" stroke="#ff0000" stroke-opacity="1" stroke-width="2" stroke-linecap="round" stroke-linejoin="bevel" transform="matrix(1,0,0,1,0,0)"
font-family="Arial" font-size="12" font-weight="400" font-style="normal" 
>
<polyline fill="none" vector-effect="none" points="2318.46,553.958 2318.46,825.577 " />
<polyline fill="none" vector-effect="none" points="2318.46,825.577 2318.61,828.846 2319.06,832.087 2319.81,835.272 2320.85,838.375 2322.17,841.369 2323.76,844.227 2325.61,846.927 2327.7,849.445 2330.02,851.759 2332.54,853.849 2335.24,855.699 2338.09,857.291 2341.09,858.613 2344.19,859.653 2347.38,860.402 2350.62,860.854 2353.89,861.005 " />
<polyline fill="none" vector-effect="none" points="2353.89,861.005 2460.17,861.005 " />
<polyline fill="none" vector-effect="none" points="2460.17,861.005 2463.44,860.854 2466.68,860.402 2469.87,859.653 2472.97,858.613 2475.96,857.291 2478.82,855.699 2481.52,853.849 2484.04,851.759 2486.35,849.445 2488.45,846.927 2490.29,844.227 2491.89,841.369 2493.21,838.375 2494.25,835.272 2495,832.087 2495.45,828.846 2495.6,825.577 " />
<polyline fill="none" vector-effect="none" points="2495.6,553.958 2495.6,825.577 " />
<polyline fill="none" vector-effect="none" points="2495.6,553.958 2495.45,550.689 2495,547.448 2494.25,544.262 2493.21,541.159 2491.89,538.166 2490.29,535.307 2488.45,532.607 2486.35,530.09 2484.04,527.776 2481.52,525.685 2478.82,523.836 2475.96,522.243 2472.97,520.921 2469.87,519.882 2466.68,519.132 2463.44,518.68 2460.17,518.529 " />
<polyline fill="none" vector-effect="none" points="2353.89,518.529 2460.17,518.529 " />
<polyline fill="none" vector-effect="none" points="2353.89,518.529 2350.62,518.68 2347.38,519.132 2344.19,519.882 2341.09,520.921 2338.09,522.243 2335.24,523.836 2332.54,525.685 2330.02,527.776 2327.7,530.09 2325.61,532.607 2323.76,535.307 2322.17,538.166 2320.85,541.159 2319.81,544.262 2319.06,547.448 2318.61,550.689 2318.46,553.958 " />
<polyline fill="none" vector-effect="none" points="1899.22,454.167 1899.39,451.755 1899.88,449.388 1900.69,447.11 1901.8,444.963 1903.19,442.988 1904.84,441.221 1906.72,439.695 1908.78,438.439 1911,437.476 1913.33,436.823 1915.73,436.494 1918.14,436.494 1920.54,436.823 1922.87,437.476 1925.08,438.439 1927.15,439.695 1929.03,441.221 1930.68,442.988 1932.07,444.963 1933.18,447.11 1933.99,449.388 1934.48,451.755 1934.65,454.167 1934.48,456.579 1933.99,458.946 1933.18,461.225 1932.07,463.371 1930.68,465.346 1929.03,467.113 1927.15,468.639 1925.08,469.895 1922.87,470.859 1920.54,471.511 1918.14,471.84 1915.73,471.84 1913.33,471.511 1911,470.859 1908.78,469.895 1906.72,468.639 1904.84,467.113 1903.19,465.346 1901.8,463.371 1900.69,461.225 1899.88,458.946 1899.39,456.579 1899.22,454.167 " />
<polyline fill="none" vector-effect="none" points="2500.51,985.005 2500.68,982.593 2501.17,980.226 2501.98,977.948 2503.09,975.801 2504.49,973.826 2506.14,972.059 2508.01,970.533 2510.08,969.277 2512.3,968.314 2514.62,967.662 2517.02,967.332 2519.44,967.332 2521.83,967.662 2524.16,968.314 2526.38,969.277 2528.44,970.533 2530.32,972.059 2531.97,973.826 2533.36,975.801 2534.48,977.948 2535.29,980.226 2535.78,982.593 2535.94,985.005 2535.78,987.417 2535.29,989.785 2534.48,992.063 2533.36,994.209 2531.97,996.185 2530.32,997.952 2528.44,999.477 2526.38,1000.73 2524.16,1001.7 2521.83,1002.35 2519.44,1002.68 2517.02,1002.68 2514.62,1002.35 2512.3,1001.7 2510.08,1000.73 2508.01,999.477 2506.14,997.952 2504.49,996.185 2503.09,994.209 2501.98,992.063 2501.17,989.785 2500.68,987.417 2500.51,985.005 " />
<polyline fill="none" vector-effect="none" points="2142.56,1191.67 2142.72,1189.26 2143.21,1186.89 2144.02,1184.61 2145.14,1182.47 2146.53,1180.49 2148.18,1178.73 2150.06,1177.2 2152.12,1175.94 2154.34,1174.98 2156.67,1174.33 2159.06,1174 2161.48,1174 2163.88,1174.33 2166.2,1174.98 2168.42,1175.94 2170.49,1177.2 2172.36,1178.73 2174.01,1180.49 2175.41,1182.47 2176.52,1184.61 2177.33,1186.89 2177.82,1189.26 2177.99,1191.67 2177.82,1194.08 2177.33,1196.45 2176.52,1198.73 2175.41,1200.88 2174.01,1202.85 2172.36,1204.62 2170.49,1206.14 2168.42,1207.4 2166.2,1208.36 2163.88,1209.02 2161.48,1209.34 2159.06,1209.34 2156.67,1209.02 2154.34,1208.36 2152.12,1207.4 2150.06,1206.14 2148.18,1204.62 2146.53,1202.85 2145.14,1200.88 2144.02,1198.73 2143.21,1196.45 2142.72,1194.08 2142.56,1191.67 " />
<polyline fill="none" vector-effect="none" points="1792.93,1522.34 1793.1,1519.93 1793.59,1517.56 1794.4,1515.28 1795.51,1513.13 1796.91,1511.16 1798.56,1509.39 1800.43,1507.87 1802.5,1506.61 1804.72,1505.65 1807.04,1504.99 1809.44,1504.67 1811.86,1504.67 1814.25,1504.99 1816.58,1505.65 1818.8,1506.61 1820.86,1507.87 1822.74,1509.39 1824.39,1511.16 1825.78,1513.13 1826.9,1515.28 1827.71,1517.56 1828.2,1519.93 1828.36,1522.34 1828.2,1524.75 1827.71,1527.12 1826.9,1529.4 1825.78,1531.54 1824.39,1533.52 1822.74,1535.28 1820.86,1536.81 1818.8,1538.07 1816.58,1539.03 1814.25,1539.68 1811.86,1540.01 1809.44,1540.01 1807.04,1539.68 1804.72,1539.03 1802.5,1538.07 1800.43,1536.81 1798.56,1535.28 1796.91,1533.52 1795.51,1531.54 1794.4,1529.4 1793.59,1527.12 1793.1,1524.75 1792.93,1522.34 " />
<polyline fill="none" vector-effect="none" points="1521.32,454.167 1521.15,451.755 1520.66,449.388 1519.85,447.11 1518.74,444.963 1517.34,442.988 1515.69,441.221 1513.82,439.695 1511.75,438.439 1509.53,437.476 1507.21,436.823 1504.81,436.494 1502.39,436.494 1500,436.823 1497.67,437.476 1495.45,438.439 1493.39,439.695 1491.51,441.221 1489.86,442.988 1488.47,444.963 1487.35,447.11 1486.54,449.388 1486.05,451.755 1485.89,454.167 1486.05,456.579 1486.54,458.946 1487.35,461.225 1488.47,463.371 1489.86,465.346 1491.51,467.113 1493.39,468.639 1495.45,469.895 1497.67,470.859 1500,471.511 1502.39,471.84 1504.81,471.84 1507.21,471.511 1509.53,470.859 1511.75,469.895 1513.82,468.639 1515.69,467.113 1517.34,465.346 1518.74,463.371 1519.85,461.225 1520.66,458.946 1521.15,456.579 1521.32,454.167 " />
<polyline fill="none" vector-effect="none" points="1277.98,1191.67 1277.81,1189.26 1277.32,1186.89 1276.51,1184.61 1275.4,1182.47 1274.01,1180.49 1272.36,1178.73 1270.48,1177.2 1268.41,1175.94 1266.2,1174.98 1263.87,1174.33 1261.47,1174 1259.06,1174 1256.66,1174.33 1254.33,1174.98 1252.11,1175.94 1250.05,1177.2 1248.17,1178.73 1246.52,1180.49 1245.13,1182.47 1244.02,1184.61 1243.21,1186.89 1242.72,1189.26 1242.55,1191.67 1242.72,1194.08 1243.21,1196.45 1244.02,1198.73 1245.13,1200.88 1246.52,1202.85 1248.17,1204.62 1250.05,1206.14 1252.11,1207.4 1254.33,1208.36 1256.66,1209.02 1259.06,1209.34 1261.47,1209.34 1263.87,1209.02 1266.2,1208.36 1268.41,1207.4 1270.48,1206.14 1272.36,1204.62 1274.01,1202.85 1275.4,1200.88 1276.51,1198.73 1277.32,1196.45 1277.81,1194.08 1277.98,1191.67 " />
<polyline fill="none" vector-effect="none" points="920.022,985.005 919.857,982.593 919.365,980.226 918.555,977.948 917.443,975.801 916.049,973.826 914.398,972.059 912.523,970.533 910.457,969.277 908.239,968.314 905.911,967.662 903.516,967.332 901.098,967.332 898.703,967.662 896.375,968.314 894.158,969.277 892.092,970.533 890.216,972.059 888.566,973.826 887.172,975.801 886.06,977.948 885.25,980.226 884.758,982.593 884.593,985.005 884.758,987.417 885.25,989.785 886.06,992.063 887.172,994.209 888.566,996.185 890.216,997.952 892.092,999.477 894.158,1000.73 896.375,1001.7 898.703,1002.35 901.098,1002.68 903.516,1002.68 905.911,1002.35 908.239,1001.7 910.457,1000.73 912.523,999.477 914.398,997.952 916.049,996.185 917.443,994.209 918.555,992.063 919.365,989.785 919.857,987.417 920.022,985.005 " />
<polyline fill="none" vector-effect="none" points="1627.6,1522.34 1627.44,1519.93 1626.94,1517.56 1626.13,1515.28 1625.02,1513.13 1623.63,1511.16 1621.98,1509.39 1620.1,1507.87 1618.04,1506.61 1615.82,1505.65 1613.49,1504.99 1611.1,1504.67 1608.68,1504.67 1606.28,1504.99 1603.95,1505.65 1601.74,1506.61 1599.67,1507.87 1597.8,1509.39 1596.15,1511.16 1594.75,1513.13 1593.64,1515.28 1592.83,1517.56 1592.34,1519.93 1592.17,1522.34 1592.34,1524.75 1592.83,1527.12 1593.64,1529.4 1594.75,1531.54 1596.15,1533.52 1597.8,1535.28 1599.67,1536.81 1601.74,1538.07 1603.95,1539.03 1606.28,1539.68 1608.68,1540.01 1611.1,1540.01 1613.49,1539.68 1615.82,1539.03 1618.04,1538.07 1620.1,1536.81 1621.98,1535.28 1623.63,1533.52 1625.02,1531.54 1626.13,1529.4 1626.94,1527.12 1627.44,1524.75 1627.6,1522.34 " />
<polyline fill="none" vector-effect="none" points="1757.51,1522.34 1757.34,1518.39 1756.84,1514.46 1756.02,1510.59 1754.88,1506.8 1753.42,1503.13 1751.66,1499.58 1749.61,1496.2 1747.29,1493 1744.7,1490 1741.88,1487.23 1738.83,1484.71 1735.58,1482.45 1732.15,1480.48 1728.57,1478.79 1724.87,1477.41 1721.05,1476.35 1717.17,1475.61 1713.23,1475.19 1709.28,1475.11 1705.33,1475.36 1701.42,1475.94 1697.56,1476.84 1693.8,1478.06 1690.15,1479.6 1686.65,1481.43 1683.31,1483.55 1680.16,1485.94 1677.22,1488.59 1674.51,1491.47 1672.05,1494.57 1669.86,1497.87 1667.96,1501.33 1666.35,1504.95 1665.05,1508.69 1664.06,1512.52 1663.4,1516.42 1663.07,1520.36 1663.07,1524.32 1663.4,1528.26 1664.06,1532.16 1665.05,1535.99 1666.35,1539.73 1667.96,1543.34 1669.86,1546.81 1672.05,1550.1 1674.51,1553.2 1677.22,1556.09 1680.16,1558.74 1683.31,1561.13 1686.65,1563.25 1690.15,1565.08 1693.8,1566.61 1697.56,1567.84 1701.42,1568.74 1705.33,1569.32 1709.28,1569.57 1713.23,1569.48 1717.17,1569.07 1721.05,1568.33 1724.87,1567.26 1728.57,1565.89 1732.15,1564.2 1735.58,1562.22 1738.83,1559.97 1741.88,1557.44 1744.7,1554.68 1747.29,1551.68 1749.61,1548.48 1751.66,1545.1 1753.42,1541.55 1754.88,1537.87 1756.02,1534.09 1756.84,1530.22 1757.34,1526.29 1757.51,1522.34 " />
<polyline fill="none" vector-effect="none" points="1834.07,1358.87 1833.24,1357.1 1832.71,1355.23 1832.49,1353.29 1832.6,1351.34 1833.03,1349.44 1833.76,1347.63 1834.78,1345.97 1836.06,1344.5 1837.57,1343.26 1839.26,1342.28 1841.08,1341.6 1843,1341.22 1844.95,1341.17 1846.88,1341.44 1848.74,1342.02 1850.48,1342.9 1852.05,1344.06 1853.41,1345.45 1854.53,1347.06 " />
<polyline fill="none" vector-effect="none" points="1852.38,1390.57 1834.07,1358.87 " />
<polyline fill="none" vector-effect="none" points="1852.38,1390.57 1853.49,1392.17 1854.85,1393.57 1856.42,1394.73 1858.16,1395.61 1860.02,1396.19 1861.95,1396.46 1863.9,1396.41 1865.82,1396.03 1867.64,1395.35 1869.33,1394.37 1870.84,1393.13 1872.12,1391.66 1873.14,1390 1873.87,1388.19 1874.3,1386.29 1874.41,1384.34 1874.19,1382.4 1873.66,1380.53 1872.83,1378.76 " />
<polyline fill="none" vector-effect="none" points="2056.92,1272.48 1872.83,1378.76 " />
<polyline fill="none" vector-effect="none" points="2077.38,1260.67 2078.21,1262.43 2078.74,1264.31 2078.96,1266.25 2078.85,1268.19 2078.42,1270.1 2077.69,1271.9 2076.67,1273.57 2075.38,1275.04 2073.88,1276.28 2072.19,1277.25 2070.36,1277.94 2068.45,1278.31 2066.5,1278.36 2064.57,1278.1 2062.71,1277.51 2060.97,1276.63 2059.39,1275.48 2058.03,1274.08 2056.92,1272.48 " />
<polyline fill="none" vector-effect="none" points="2059.07,1228.96 2077.38,1260.67 " />
<polyline fill="none" vector-effect="none" points="2059.07,1228.96 2057.96,1227.36 2056.6,1225.96 2055.03,1224.81 2053.29,1223.93 2051.43,1223.34 2049.5,1223.08 2047.55,1223.13 2045.63,1223.5 2043.81,1224.19 2042.12,1225.16 2040.61,1226.4 2039.33,1227.87 2038.31,1229.53 2037.57,1231.34 2037.15,1233.25 2037.04,1235.19 2037.25,1237.13 2037.79,1239.01 2038.62,1240.77 " />
<polyline fill="none" vector-effect="none" points="2038.62,1240.77 1854.53,1347.06 " />
<polyline fill="none" vector-effect="none" points="2601.12,916.01 2600.29,914.246 2599.76,912.369 2599.54,910.431 2599.65,908.483 2600.08,906.58 2600.81,904.773 2601.83,903.111 2603.11,901.64 2604.62,900.4 2606.31,899.425 2608.14,898.741 2610.05,898.367 2612,898.314 2613.93,898.582 2615.79,899.164 2617.53,900.045 2619.11,901.2 2620.47,902.598 2621.58,904.201 " />
<polyline fill="none" vector-effect="none" points="2619.43,947.715 2601.12,916.01 " />
<polyline fill="none" vector-effect="none" points="2619.43,947.715 2620.54,949.318 2621.9,950.716 2623.47,951.871 2625.21,952.752 2627.07,953.334 2629,953.602 2630.95,953.548 2632.87,953.174 2634.69,952.49 2636.38,951.515 2637.89,950.275 2639.17,948.804 2640.19,947.142 2640.93,945.335 2641.35,943.432 2641.46,941.485 2641.24,939.546 2640.71,937.669 2639.88,935.905 " />
<polyline fill="none" vector-effect="none" points="2823.97,829.62 2639.88,935.905 " />
<polyline fill="none" vector-effect="none" points="2844.43,817.81 2845.26,819.574 2845.79,821.451 2846.01,823.389 2845.9,825.337 2845.47,827.24 2844.74,829.047 2843.72,830.709 2842.44,832.18 2840.93,833.42 2839.24,834.395 2837.41,835.079 2835.5,835.453 2833.55,835.506 2831.62,835.238 2829.76,834.656 2828.02,833.776 2826.45,832.62 2825.09,831.222 2823.97,829.62 " />
<polyline fill="none" vector-effect="none" points="2826.12,786.105 2844.43,817.81 " />
<polyline fill="none" vector-effect="none" points="2826.12,786.105 2825.01,784.502 2823.65,783.104 2822.08,781.949 2820.34,781.069 2818.48,780.486 2816.55,780.218 2814.6,780.272 2812.68,780.646 2810.86,781.33 2809.17,782.305 2807.66,783.545 2806.38,785.016 2805.36,786.678 2804.63,788.485 2804.2,790.388 2804.09,792.335 2804.31,794.274 2804.84,796.151 2805.67,797.915 " />
<polyline fill="none" vector-effect="none" points="2805.67,797.915 2621.58,904.201 " />
<polyline fill="none" vector-effect="none" points="2046.84,435.862 2046.68,433.919 2046.2,432.028 2045.42,430.242 2044.35,428.609 2043.03,427.174 2041.49,425.976 2039.77,425.048 2037.93,424.414 2036,424.093 2034.05,424.093 2032.13,424.414 2030.29,425.048 2028.57,425.976 2027.03,427.174 2025.71,428.609 2024.64,430.242 2023.86,432.028 2023.38,433.919 2023.22,435.862 " />
<polyline fill="none" vector-effect="none" points="2023.22,435.862 2023.22,472.472 " />
<polyline fill="none" vector-effect="none" points="2023.22,472.472 2023.38,474.416 2023.86,476.306 2024.64,478.093 2025.71,479.726 2027.03,481.16 2028.57,482.358 2030.29,483.287 2032.13,483.92 2034.05,484.241 2036,484.241 2037.93,483.92 2039.77,483.287 2041.49,482.358 2043.03,481.16 2044.35,479.726 2045.42,478.093 2046.2,476.306 2046.68,474.416 2046.84,472.472 " />
<polyline fill="none" vector-effect="none" points="2259.41,472.472 2046.84,472.472 " />
<polyline fill="none" vector-effect="none" points="2283.03,472.472 2282.87,474.416 2282.39,476.306 2281.61,478.093 2280.54,479.726 2279.22,481.16 2277.68,482.358 2275.96,483.287 2274.12,483.92 2272.2,484.241 2270.24,484.241 2268.32,483.92 2266.48,483.287 2264.76,482.358 2263.22,481.16 2261.9,479.726 2260.83,478.093 2260.05,476.306 2259.57,474.416 2259.41,472.472 " />
<polyline fill="none" vector-effect="none" points="2283.03,435.862 2283.03,472.472 " />
<polyline fill="none" vector-effect="none" points="2259.41,435.862 2259.57,433.919 2260.05,432.028 2260.83,430.242 2261.9,428.609 2263.22,427.174 2264.76,425.976 2266.48,425.048 2268.32,424.414 2270.24,424.093 2272.2,424.093 2274.12,424.414 2275.96,425.048 2277.68,425.976 2279.22,427.174 2280.54,428.609 2281.61,430.242 2282.39,432.028 2282.87,433.919 2283.03,435.862 " />
<polyline fill="none" vector-effect="none" points="2259.41,435.862 2046.84,435.862 " />
<polyline fill="none" vector-effect="none" points="1137.51,472.472 1137.67,474.416 1138.15,476.306 1138.93,478.093 1140,479.726 1141.32,481.16 1142.86,482.358 1144.57,483.287 1146.42,483.92 1148.34,484.241 1150.29,484.241 1152.21,483.92 1154.06,483.287 1155.77,482.358 1157.31,481.16 1158.63,479.726 1159.7,478.093 1160.49,476.306 1160.96,474.416 1161.12,472.472 " />
<polyline fill="none" vector-effect="none" points="1161.12,472.472 1373.7,472.472 " />
<polyline fill="none" vector-effect="none" points="1397.32,472.472 1397.15,474.416 1396.68,476.306 1395.89,478.093 1394.83,479.726 1393.5,481.16 1391.97,482.358 1390.25,483.287 1388.4,483.92 1386.48,484.241 1384.53,484.241 1382.61,483.92 1380.76,483.287 1379.05,482.358 1377.51,481.16 1376.19,479.726 1375.12,478.093 1374.34,476.306 1373.86,474.416 1373.7,472.472 " />
<polyline fill="none" vector-effect="none" points="1397.32,435.862 1397.32,472.472 " />
<polyline fill="none" vector-effect="none" points="1373.7,435.862 1373.86,433.919 1374.34,432.028 1375.12,430.242 1376.19,428.609 1377.51,427.174 1379.05,425.976 1380.76,425.048 1382.61,424.414 1384.53,424.093 1386.48,424.093 1388.4,424.414 1390.25,425.048 1391.97,425.976 1393.5,427.174 1394.83,428.609 1395.89,430.242 1396.68,432.028 1397.15,433.919 1397.32,435.862 " />
<polyline fill="none" vector-effect="none" points="1161.12,435.862 1373.7,435.862 " />
<polyline fill="none" vector-effect="none" points="1161.12,435.862 1160.96,433.919 1160.49,432.028 1159.7,430.242 1158.63,428.609 1157.31,427.174 1155.77,425.976 1154.06,425.048 1152.21,424.414 1150.29,424.093 1148.34,424.093 1146.42,424.414 1144.57,425.048 1142.86,425.976 1141.32,427.174 1140,428.609 1138.93,430.242 1138.15,432.028 1137.67,433.919 1137.51,435.862 " />
<polyline fill="none" vector-effect="none" points="1137.51,435.862 1137.51,472.472 " />
<polyline fill="none" vector-effect="none" points="801.109,947.715 799.997,949.318 798.637,950.716 797.066,951.871 795.326,952.752 793.464,953.334 791.532,953.602 789.582,953.548 787.668,953.174 785.841,952.49 784.152,951.515 782.647,950.275 781.366,948.804 780.344,947.142 779.61,945.335 779.184,943.432 779.076,941.485 779.291,939.546 779.822,937.669 780.654,935.905 " />
<polyline fill="none" vector-effect="none" points="819.414,916.01 801.109,947.715 " />
<polyline fill="none" vector-effect="none" points="819.414,916.01 820.246,914.246 820.777,912.369 820.991,910.431 820.884,908.483 820.457,906.58 819.723,904.773 818.702,903.111 817.421,901.64 815.915,900.4 814.226,899.425 812.4,898.741 810.485,898.367 808.536,898.314 806.604,898.582 804.742,899.164 803.002,900.045 801.43,901.2 800.07,902.598 798.959,904.201 " />
<polyline fill="none" vector-effect="none" points="614.867,797.915 798.959,904.201 " />
<polyline fill="none" vector-effect="none" points="594.412,786.105 595.523,784.502 596.883,783.104 598.455,781.949 600.195,781.069 602.057,780.486 603.989,780.218 605.938,780.272 607.853,780.646 609.679,781.33 611.368,782.305 612.874,783.545 614.155,785.016 615.176,786.678 615.91,788.485 616.337,790.388 616.444,792.335 616.23,794.274 615.699,796.151 614.867,797.915 " />
<polyline fill="none" vector-effect="none" points="576.107,817.81 594.412,786.105 " />
<polyline fill="none" vector-effect="none" points="576.107,817.81 575.275,819.574 574.744,821.451 574.529,823.389 574.637,825.337 575.063,827.24 575.797,829.047 576.819,830.709 578.1,832.18 579.605,833.42 581.295,834.395 583.121,835.079 585.035,835.453 586.985,835.506 588.917,835.238 590.779,834.656 592.519,833.776 594.09,832.62 595.45,831.222 596.562,829.62 " />
<polyline fill="none" vector-effect="none" points="596.562,829.62 780.654,935.905 " />
<polyline fill="none" vector-effect="none" points="1568.16,1390.57 1567.05,1392.17 1565.69,1393.57 1564.12,1394.73 1562.38,1395.61 1560.52,1396.19 1558.58,1396.46 1556.63,1396.41 1554.72,1396.03 1552.89,1395.35 1551.2,1394.37 1549.7,1393.13 1548.42,1391.66 1547.4,1390 1546.66,1388.19 1546.23,1386.29 1546.13,1384.34 1546.34,1382.4 1546.87,1380.53 1547.71,1378.76 " />
<polyline fill="none" vector-effect="none" points="1586.46,1358.87 1568.16,1390.57 " />
<polyline fill="none" vector-effect="none" points="1586.46,1358.87 1587.3,1357.1 1587.83,1355.23 1588.04,1353.29 1587.93,1351.34 1587.51,1349.44 1586.77,1347.63 1585.75,1345.97 1584.47,1344.5 1582.97,1343.26 1581.28,1342.28 1579.45,1341.6 1577.54,1341.22 1575.59,1341.17 1573.65,1341.44 1571.79,1342.02 1570.05,1342.9 1568.48,1344.06 1567.12,1345.45 1566.01,1347.06 " />
<polyline fill="none" vector-effect="none" points="1381.92,1240.77 1566.01,1347.06 " />
<polyline fill="none" vector-effect="none" points="1361.46,1228.96 1362.57,1227.36 1363.93,1225.96 1365.51,1224.81 1367.25,1223.93 1369.11,1223.34 1371.04,1223.08 1372.99,1223.13 1374.9,1223.5 1376.73,1224.19 1378.42,1225.16 1379.93,1226.4 1381.21,1227.87 1382.23,1229.53 1382.96,1231.34 1383.39,1233.25 1383.5,1235.19 1383.28,1237.13 1382.75,1239.01 1381.92,1240.77 " />
<polyline fill="none" vector-effect="none" points="1343.16,1260.67 1361.46,1228.96 " />
<polyline fill="none" vector-effect="none" points="1343.16,1260.67 1342.33,1262.43 1341.8,1264.31 1341.58,1266.25 1341.69,1268.19 1342.11,1270.1 1342.85,1271.9 1343.87,1273.57 1345.15,1275.04 1346.66,1276.28 1348.35,1277.25 1350.17,1277.94 1352.09,1278.31 1354.04,1278.36 1355.97,1278.1 1357.83,1277.51 1359.57,1276.63 1361.14,1275.48 1362.5,1274.08 1363.61,1272.48 " />
<polyline fill="none" vector-effect="none" points="1363.61,1272.48 1547.71,1378.76 " />
<polyline fill="none" vector-effect="none" points="603.262,681.552 595.255,689.354 587.471,697.377 579.915,705.616 572.594,714.065 565.513,722.715 558.679,731.562 552.095,740.597 545.768,749.813 539.703,759.204 533.904,768.761 528.376,778.478 523.123,788.346 518.149,798.358 513.459,808.505 " />
<polyline fill="none" vector-effect="none" points="603.262,681.552 924.934,376.815 " />
<polyline fill="none" vector-effect="none" points="2495.6,376.815 924.934,376.815 " />
<polyline fill="none" vector-effect="none" points="2817.27,681.552 2495.6,376.815 " />
<polyline fill="none" vector-effect="none" points="2817.27,681.552 2825.28,689.354 2833.06,697.377 2840.62,705.616 2847.94,714.065 2855.02,722.715 2861.86,731.562 2868.44,740.597 2874.77,749.813 2880.83,759.204 2886.63,768.761 2892.16,778.478 2897.41,788.346 2902.39,798.358 2907.08,808.505 " />
<polyline fill="none" vector-effect="none" points="2969.52,948.756 2907.08,808.505 " />
<polyline fill="none" vector-effect="none" points="2969.52,948.756 2972.51,955.884 2975.18,963.135 2977.54,970.495 2979.57,977.952 2981.28,985.49 2982.65,993.095 2983.7,1000.75 2984.4,1008.45 2984.77,1016.17 2984.81,1023.9 2984.5,1031.62 2983.86,1039.32 2982.89,1046.99 2981.58,1054.61 2979.94,1062.16 2977.97,1069.63 2975.68,1077.01 2973.07,1084.29 2970.14,1091.44 2966.91,1098.46 2963.37,1105.33 2959.53,1112.04 2955.41,1118.58 2951,1124.93 2946.33,1131.08 2941.38,1137.02 2936.19,1142.74 2930.75,1148.23 2925.07,1153.48 2919.17,1158.47 2913.06,1163.2 2906.75,1167.66 2900.25,1171.85 2893.57,1175.74 2886.73,1179.34 2879.74,1182.63 " />
<polyline fill="none" vector-effect="none" points="1777.51,1673.38 2879.74,1182.63 " />
<polyline fill="none" vector-effect="none" points="1643.02,1673.38 1649.74,1676.2 1656.58,1678.71 1663.53,1680.93 1670.56,1682.83 1677.68,1684.43 1684.85,1685.71 1692.08,1686.67 1699.34,1687.31 1706.62,1687.63 1713.91,1687.63 1721.19,1687.31 1728.46,1686.67 1735.68,1685.71 1742.86,1684.43 1749.97,1682.83 1757.01,1680.93 1763.95,1678.71 1770.79,1676.2 1777.51,1673.38 " />
<polyline fill="none" vector-effect="none" points="1643.02,1673.38 540.793,1182.63 " />
<polyline fill="none" vector-effect="none" points="451.016,948.756 448.027,955.884 445.352,963.135 442.996,970.495 440.963,977.952 439.257,985.49 437.882,993.095 436.839,1000.75 436.132,1008.45 435.761,1016.17 435.728,1023.9 436.031,1031.62 436.671,1039.32 437.647,1046.99 438.955,1054.61 440.595,1062.16 442.563,1069.63 444.855,1077.01 447.466,1084.29 450.393,1091.44 453.629,1098.46 457.167,1105.33 461.003,1112.04 465.127,1118.58 469.532,1124.93 474.21,1131.08 479.152,1137.02 484.349,1142.74 489.79,1148.23 495.465,1153.48 501.364,1158.47 507.475,1163.2 513.787,1167.66 520.287,1171.85 526.963,1175.74 533.803,1179.34 540.793,1182.63 " />
<polyline fill="none" vector-effect="none" points="451.016,948.756 513.459,808.505 " />
</g>

<g fill="none" stroke="#000000" stroke-opacity="1" stroke-width="1" stroke-linecap="square" stroke-linejoin="bevel" transform="matrix(1,0,0,1,0,0)"
font-family="Arial" font-size="12" font-weight="400" font-style="normal" 
>
</g>
</g>
</svg>
