<?xml version="1.0" encoding="UTF-8" standalone="no"?>
<svg width="297.011mm" height="209.973mm"
 viewBox="0 0 3508 2480"
 xmlns="http://www.w3.org/2000/svg" xmlns:xlink="http://www.w3.org/1999/xlink"  version="1.2" baseProfile="tiny">
<defs>
</defs>
<g fill="none" stroke="black" stroke-width="1" fill-rule="evenodd" stroke-linecap="square" stroke-linejoin="bevel" >

<g fill="#ffffff" fill-opacity="1" stroke="none" transform="matrix(1,0,0,1,0,0)"
font-family="Arial" font-size="12" font-weight="400" font-style="normal" 
>
<rect x="0" y="0" width="3508" height="2480"/>
</g>

<g fill="none" stroke="#000000" stroke-opacity="1" stroke-width="1" stroke-linecap="square" stroke-linejoin="bevel" transform="matrix(1,0,0,1,0,0)"
font-family="Arial" font-size="12" font-weight="400" font-style="normal" 
>
</g>

<g fill="#000000" fill-opacity="1" stroke="#000000" stroke-opacity="1" stroke-width="1" stroke-linecap="butt" stroke-linejoin="miter" stroke-miterlimit="2" transform="matrix(1,0,0,1,0,0)"
font-family="Arial" font-size="12" font-weight="400" font-style="normal" 
>
</g>

<g fill="#ff0000" fill-opacity="1" stroke="#ff0000" stroke-opacity="1" stroke-width="2" stroke-linecap="round" stroke-linejoin="bevel" transform="matrix(1,0,0,1,0,0)"
font-family="Arial" font-size="12" font-weight="400" font-style="normal" 
>
<polyline fill="none" vector-effect="none" points="1860.88,1255.05 1860.88,1101.53 " />
<polyline fill="none" vector-effect="none" points="1707.36,1101.53 1860.88,1101.53 " />
<polyline fill="none" vector-effect="none" points="1707.36,1255.05 1707.36,1101.53 " />
<polyline fill="none" vector-effect="none" points="1707.36,1255.05 1860.88,1255.05 " />
<polyline fill="none" vector-effect="none" points="1973.07,659.261 1973.24,656.849 1973.73,654.481 1974.54,652.203 1975.65,650.057 1977.05,648.081 1978.7,646.314 1980.57,644.789 1982.64,643.532 1984.86,642.569 1987.18,641.917 1989.58,641.588 1992,641.588 1994.39,641.917 1996.72,642.569 1998.94,643.532 2001,644.789 2002.88,646.314 2004.53,648.081 2005.92,650.057 2007.03,652.203 2007.84,654.481 2008.34,656.849 2008.5,659.261 2008.34,661.673 2007.84,664.04 2007.03,666.318 2005.92,668.465 2004.53,670.44 2002.88,672.207 2001,673.733 1998.94,674.989 1996.72,675.952 1994.39,676.604 1992,676.934 1989.58,676.934 1987.18,676.604 1984.86,675.952 1982.64,674.989 1980.57,673.733 1978.7,672.207 1977.05,670.44 1975.65,668.465 1974.54,666.318 1973.73,664.04 1973.24,661.673 1973.07,659.261 " />
<polyline fill="none" vector-effect="none" points="2574.37,1190.1 2574.53,1187.69 2575.02,1185.32 2575.83,1183.04 2576.95,1180.89 2578.34,1178.92 2579.99,1177.15 2581.87,1175.63 2583.93,1174.37 2586.15,1173.41 2588.48,1172.76 2590.87,1172.43 2593.29,1172.43 2595.69,1172.76 2598.01,1173.41 2600.23,1174.37 2602.3,1175.63 2604.17,1177.15 2605.82,1178.92 2607.22,1180.89 2608.33,1183.04 2609.14,1185.32 2609.63,1187.69 2609.8,1190.1 2609.63,1192.51 2609.14,1194.88 2608.33,1197.16 2607.22,1199.3 2605.82,1201.28 2604.17,1203.05 2602.3,1204.57 2600.23,1205.83 2598.01,1206.79 2595.69,1207.44 2593.29,1207.77 2590.87,1207.77 2588.48,1207.44 2586.15,1206.79 2583.93,1205.83 2581.87,1204.57 2579.99,1203.05 2578.34,1201.28 2576.95,1199.3 2575.83,1197.16 2575.02,1194.88 2574.53,1192.51 2574.37,1190.1 " />
<polyline fill="none" vector-effect="none" points="2216.41,1396.77 2216.57,1394.35 2217.07,1391.99 2217.88,1389.71 2218.99,1387.56 2220.38,1385.59 2222.03,1383.82 2223.91,1382.29 2225.97,1381.04 2228.19,1380.07 2230.52,1379.42 2232.91,1379.09 2235.33,1379.09 2237.73,1379.42 2240.06,1380.07 2242.27,1381.04 2244.34,1382.29 2246.21,1383.82 2247.87,1385.59 2249.26,1387.56 2250.37,1389.71 2251.18,1391.99 2251.67,1394.35 2251.84,1396.77 2251.67,1399.18 2251.18,1401.54 2250.37,1403.82 2249.26,1405.97 2247.87,1407.94 2246.21,1409.71 2244.34,1411.24 2242.27,1412.49 2240.06,1413.46 2237.73,1414.11 2235.33,1414.44 2232.91,1414.44 2230.52,1414.11 2228.19,1413.46 2225.97,1412.49 2223.91,1411.24 2222.03,1409.71 2220.38,1407.94 2218.99,1405.97 2217.88,1403.82 2217.07,1401.54 2216.57,1399.18 2216.41,1396.77 " />
<polyline fill="none" vector-effect="none" points="1866.79,1727.43 1866.95,1725.02 1867.44,1722.65 1868.25,1720.37 1869.37,1718.23 1870.76,1716.25 1872.41,1714.49 1874.29,1712.96 1876.35,1711.7 1878.57,1710.74 1880.9,1710.09 1883.29,1709.76 1885.71,1709.76 1888.11,1710.09 1890.43,1710.74 1892.65,1711.7 1894.72,1712.96 1896.59,1714.49 1898.24,1716.25 1899.64,1718.23 1900.75,1720.37 1901.56,1722.65 1902.05,1725.02 1902.22,1727.43 1902.05,1729.84 1901.56,1732.21 1900.75,1734.49 1899.64,1736.64 1898.24,1738.61 1896.59,1740.38 1894.72,1741.9 1892.65,1743.16 1890.43,1744.12 1888.11,1744.78 1885.71,1745.11 1883.29,1745.11 1880.9,1744.78 1878.57,1744.12 1876.35,1743.16 1874.29,1741.9 1872.41,1740.38 1870.76,1738.61 1869.37,1736.64 1868.25,1734.49 1867.44,1732.21 1866.95,1729.84 1866.79,1727.43 " />
<polyline fill="none" vector-effect="none" points="1943.55,1178.29 1943.71,1175.88 1944.21,1173.51 1945.02,1171.23 1946.13,1169.09 1947.52,1167.11 1949.17,1165.34 1951.05,1163.82 1953.11,1162.56 1955.33,1161.6 1957.66,1160.95 1960.05,1160.62 1962.47,1160.62 1964.87,1160.95 1967.2,1161.6 1969.41,1162.56 1971.48,1163.82 1973.35,1165.34 1975,1167.11 1976.4,1169.09 1977.51,1171.23 1978.32,1173.51 1978.81,1175.88 1978.98,1178.29 1978.81,1180.7 1978.32,1183.07 1977.51,1185.35 1976.4,1187.49 1975,1189.47 1973.35,1191.24 1971.48,1192.76 1969.41,1194.02 1967.2,1194.98 1964.87,1195.63 1962.47,1195.96 1960.05,1195.96 1957.66,1195.63 1955.33,1194.98 1953.11,1194.02 1951.05,1192.76 1949.17,1191.24 1947.52,1189.47 1946.13,1187.49 1945.02,1185.35 1944.21,1183.07 1943.71,1180.7 1943.55,1178.29 " />
<polyline fill="none" vector-effect="none" points="1595.17,659.261 1595,656.849 1594.51,654.481 1593.7,652.203 1592.59,650.057 1591.2,648.081 1589.54,646.314 1587.67,644.789 1585.6,643.532 1583.39,642.569 1581.06,641.917 1578.66,641.588 1576.25,641.588 1573.85,641.917 1571.52,642.569 1569.3,643.532 1567.24,644.789 1565.36,646.314 1563.71,648.081 1562.32,650.057 1561.21,652.203 1560.4,654.481 1559.9,656.849 1559.74,659.261 1559.9,661.673 1560.4,664.04 1561.21,666.318 1562.32,668.465 1563.71,670.44 1565.36,672.207 1567.24,673.733 1569.3,674.989 1571.52,675.952 1573.85,676.604 1576.25,676.934 1578.66,676.934 1581.06,676.604 1583.39,675.952 1585.6,674.989 1587.67,673.733 1589.54,672.207 1591.2,670.44 1592.59,668.465 1593.7,666.318 1594.51,664.04 1595,661.673 1595.17,659.261 " />
<polyline fill="none" vector-effect="none" points="1624.69,1178.29 1624.53,1175.88 1624.04,1173.51 1623.23,1171.23 1622.11,1169.09 1620.72,1167.11 1619.07,1165.34 1617.19,1163.82 1615.13,1162.56 1612.91,1161.6 1610.58,1160.95 1608.19,1160.62 1605.77,1160.62 1603.37,1160.95 1601.05,1161.6 1598.83,1162.56 1596.76,1163.82 1594.89,1165.34 1593.24,1167.11 1591.84,1169.09 1590.73,1171.23 1589.92,1173.51 1589.43,1175.88 1589.26,1178.29 1589.43,1180.7 1589.92,1183.07 1590.73,1185.35 1591.84,1187.49 1593.24,1189.47 1594.89,1191.24 1596.76,1192.76 1598.83,1194.02 1601.05,1194.98 1603.37,1195.63 1605.77,1195.96 1608.19,1195.96 1610.58,1195.63 1612.91,1194.98 1615.13,1194.02 1617.19,1192.76 1619.07,1191.24 1620.72,1189.47 1622.11,1187.49 1623.23,1185.35 1624.04,1183.07 1624.53,1180.7 1624.69,1178.29 " />
<polyline fill="none" vector-effect="none" points="1351.83,1396.77 1351.67,1394.35 1351.17,1391.99 1350.37,1389.71 1349.25,1387.56 1347.86,1385.59 1346.21,1383.82 1344.33,1382.29 1342.27,1381.04 1340.05,1380.07 1337.72,1379.42 1335.33,1379.09 1332.91,1379.09 1330.51,1379.42 1328.19,1380.07 1325.97,1381.04 1323.9,1382.29 1322.03,1383.82 1320.38,1385.59 1318.98,1387.56 1317.87,1389.71 1317.06,1391.99 1316.57,1394.35 1316.4,1396.77 1316.57,1399.18 1317.06,1401.54 1317.87,1403.82 1318.98,1405.97 1320.38,1407.94 1322.03,1409.71 1323.9,1411.24 1325.97,1412.49 1328.19,1413.46 1330.51,1414.11 1332.91,1414.44 1335.33,1414.44 1337.72,1414.11 1340.05,1413.46 1342.27,1412.49 1344.33,1411.24 1346.21,1409.71 1347.86,1407.94 1349.25,1405.97 1350.37,1403.82 1351.17,1401.54 1351.67,1399.18 1351.83,1396.77 " />
<polyline fill="none" vector-effect="none" points="993.874,1190.1 993.709,1187.69 993.217,1185.32 992.408,1183.04 991.296,1180.89 989.901,1178.92 988.251,1177.15 986.376,1175.63 984.31,1174.37 982.092,1173.41 979.764,1172.76 977.369,1172.43 974.951,1172.43 972.556,1172.76 970.228,1173.41 968.01,1174.37 965.945,1175.63 964.069,1177.15 962.419,1178.92 961.025,1180.89 959.912,1183.04 959.103,1185.32 958.611,1187.69 958.446,1190.1 958.611,1192.51 959.103,1194.88 959.912,1197.16 961.025,1199.3 962.419,1201.28 964.069,1203.05 965.945,1204.57 968.01,1205.83 970.228,1206.79 972.556,1207.44 974.951,1207.77 977.369,1207.77 979.764,1207.44 982.092,1206.79 984.31,1205.83 986.376,1204.57 988.251,1203.05 989.901,1201.28 991.296,1199.3 992.408,1197.16 993.217,1194.88 993.709,1192.51 993.874,1190.1 " />
<polyline fill="none" vector-effect="none" points="1701.45,1727.43 1701.29,1725.02 1700.8,1722.65 1699.99,1720.37 1698.88,1718.23 1697.48,1716.25 1695.83,1714.49 1693.96,1712.96 1691.89,1711.7 1689.67,1710.74 1687.34,1710.09 1684.95,1709.76 1682.53,1709.76 1680.14,1710.09 1677.81,1710.74 1675.59,1711.7 1673.52,1712.96 1671.65,1714.49 1670,1716.25 1668.6,1718.23 1667.49,1720.37 1666.68,1722.65 1666.19,1725.02 1666.03,1727.43 1666.19,1729.84 1666.68,1732.21 1667.49,1734.49 1668.6,1736.64 1670,1738.61 1671.65,1740.38 1673.52,1741.9 1675.59,1743.16 1677.81,1744.12 1680.14,1744.78 1682.53,1745.11 1684.95,1745.11 1687.34,1744.78 1689.67,1744.12 1691.89,1743.16 1693.96,1741.9 1695.83,1740.38 1697.48,1738.61 1698.88,1736.64 1699.99,1734.49 1700.8,1732.21 1701.29,1729.84 1701.45,1727.43 " />
<polyline fill="none" vector-effect="none" points="1831.36,1727.43 1831.19,1723.48 1830.7,1719.55 1829.87,1715.68 1828.73,1711.9 1827.27,1708.22 1825.52,1704.68 1823.47,1701.29 1821.14,1698.09 1818.56,1695.1 1815.73,1692.33 1812.68,1689.81 1809.43,1687.55 1806.01,1685.57 1802.43,1683.89 1798.72,1682.51 1794.91,1681.44 1791.02,1680.7 1787.09,1680.29 1783.13,1680.2 1779.18,1680.45 1775.27,1681.03 1771.42,1681.93 1767.65,1683.16 1764.01,1684.69 1760.5,1686.52 1757.16,1688.64 1754.01,1691.03 1751.07,1693.68 1748.36,1696.57 1745.9,1699.67 1743.71,1702.96 1741.81,1706.43 1740.2,1710.04 1738.9,1713.78 1737.91,1717.61 1737.25,1721.51 1736.92,1725.45 1736.92,1729.41 1737.25,1733.35 1737.91,1737.25 1738.9,1741.09 1740.2,1744.82 1741.81,1748.44 1743.71,1751.9 1745.9,1755.2 1748.36,1758.3 1751.07,1761.18 1754.01,1763.83 1757.16,1766.22 1760.5,1768.34 1764.01,1770.17 1767.65,1771.71 1771.42,1772.93 1775.27,1773.83 1779.18,1774.41 1783.13,1774.66 1787.09,1774.58 1791.02,1774.16 1794.91,1773.42 1798.72,1772.36 1802.43,1770.98 1806.01,1769.29 1809.43,1767.32 1812.68,1765.06 1815.73,1762.54 1818.56,1759.77 1821.14,1756.77 1823.47,1753.57 1825.52,1750.19 1827.27,1746.65 1828.73,1742.97 1829.87,1739.18 1830.7,1735.31 1831.19,1731.38 1831.36,1727.43 " />
<polyline fill="none" vector-effect="none" points="1907.92,1563.96 1907.09,1562.2 1906.56,1560.32 1906.35,1558.38 1906.45,1556.43 1906.88,1554.53 1907.61,1552.72 1908.64,1551.06 1909.92,1549.59 1911.42,1548.35 1913.11,1547.38 1914.94,1546.69 1916.85,1546.32 1918.8,1546.26 1920.73,1546.53 1922.6,1547.11 1924.34,1548 1925.91,1549.15 1927.27,1550.55 1928.38,1552.15 " />
<polyline fill="none" vector-effect="none" points="1926.23,1595.67 1907.92,1563.96 " />
<polyline fill="none" vector-effect="none" points="1926.23,1595.67 1927.34,1597.27 1928.7,1598.67 1930.27,1599.82 1932.01,1600.7 1933.87,1601.28 1935.81,1601.55 1937.75,1601.5 1939.67,1601.12 1941.5,1600.44 1943.18,1599.47 1944.69,1598.23 1945.97,1596.75 1946.99,1595.09 1947.73,1593.29 1948.15,1591.38 1948.26,1589.44 1948.05,1587.5 1947.52,1585.62 1946.68,1583.86 " />
<polyline fill="none" vector-effect="none" points="2130.78,1477.57 1946.68,1583.86 " />
<polyline fill="none" vector-effect="none" points="2151.23,1465.76 2152.06,1467.52 2152.59,1469.4 2152.81,1471.34 2152.7,1473.29 2152.27,1475.19 2151.54,1477 2150.52,1478.66 2149.24,1480.13 2147.73,1481.37 2146.04,1482.35 2144.22,1483.03 2142.3,1483.4 2140.35,1483.46 2138.42,1483.19 2136.56,1482.61 2134.82,1481.73 2133.25,1480.57 2131.89,1479.17 2130.78,1477.57 " />
<polyline fill="none" vector-effect="none" points="2132.93,1434.06 2151.23,1465.76 " />
<polyline fill="none" vector-effect="none" points="2132.93,1434.06 2131.81,1432.45 2130.45,1431.06 2128.88,1429.9 2127.14,1429.02 2125.28,1428.44 2123.35,1428.17 2121.4,1428.22 2119.48,1428.6 2117.66,1429.28 2115.97,1430.26 2114.46,1431.5 2113.18,1432.97 2112.16,1434.63 2111.43,1436.44 2111,1438.34 2110.89,1440.29 2111.11,1442.22 2111.64,1444.1 2112.47,1445.87 " />
<polyline fill="none" vector-effect="none" points="2112.47,1445.87 1928.38,1552.15 " />
<polyline fill="none" vector-effect="none" points="2674.97,1121.1 2674.14,1119.34 2673.61,1117.46 2673.4,1115.52 2673.5,1113.58 2673.93,1111.67 2674.67,1109.87 2675.69,1108.2 2676.97,1106.73 2678.47,1105.49 2680.16,1104.52 2681.99,1103.83 2683.9,1103.46 2685.85,1103.41 2687.78,1103.68 2689.65,1104.26 2691.39,1105.14 2692.96,1106.29 2694.32,1107.69 2695.43,1109.29 " />
<polyline fill="none" vector-effect="none" points="2693.28,1152.81 2674.97,1121.1 " />
<polyline fill="none" vector-effect="none" points="2693.28,1152.81 2694.39,1154.41 2695.75,1155.81 2697.32,1156.96 2699.06,1157.85 2700.92,1158.43 2702.86,1158.7 2704.81,1158.64 2706.72,1158.27 2708.55,1157.58 2710.24,1156.61 2711.74,1155.37 2713.02,1153.9 2714.04,1152.24 2714.78,1150.43 2715.2,1148.53 2715.31,1146.58 2715.1,1144.64 2714.57,1142.76 2713.73,1141 " />
<polyline fill="none" vector-effect="none" points="2897.83,1034.71 2713.73,1141 " />
<polyline fill="none" vector-effect="none" points="2918.28,1022.9 2919.11,1024.67 2919.64,1026.54 2919.86,1028.48 2919.75,1030.43 2919.32,1032.33 2918.59,1034.14 2917.57,1035.8 2916.29,1037.27 2914.78,1038.51 2913.09,1039.49 2911.27,1040.17 2909.35,1040.55 2907.4,1040.6 2905.47,1040.33 2903.61,1039.75 2901.87,1038.87 2900.3,1037.71 2898.94,1036.32 2897.83,1034.71 " />
<polyline fill="none" vector-effect="none" points="2899.98,991.199 2918.28,1022.9 " />
<polyline fill="none" vector-effect="none" points="2899.98,991.199 2898.87,989.596 2897.51,988.198 2895.93,987.043 2894.19,986.162 2892.33,985.58 2890.4,985.312 2888.45,985.366 2886.54,985.74 2884.71,986.424 2883.02,987.399 2881.51,988.639 2880.23,990.11 2879.21,991.771 2878.48,993.578 2878.05,995.481 2877.94,997.429 2878.16,999.368 2878.69,1001.24 2879.52,1003.01 " />
<polyline fill="none" vector-effect="none" points="2879.52,1003.01 2695.43,1109.29 " />
<polyline fill="none" vector-effect="none" points="2120.69,640.956 2120.53,639.012 2120.05,637.121 2119.27,635.335 2118.2,633.702 2116.88,632.267 2115.34,631.069 2113.63,630.141 2111.78,629.508 2109.86,629.187 2107.91,629.187 2105.98,629.508 2104.14,630.141 2102.42,631.069 2100.88,632.267 2099.56,633.702 2098.5,635.335 2097.71,637.121 2097.23,639.012 2097.07,640.956 " />
<polyline fill="none" vector-effect="none" points="2097.07,640.956 2097.07,677.565 " />
<polyline fill="none" vector-effect="none" points="2097.07,677.565 2097.23,679.509 2097.71,681.4 2098.5,683.186 2099.56,684.819 2100.88,686.254 2102.42,687.452 2104.14,688.38 2105.98,689.014 2107.91,689.335 2109.86,689.335 2111.78,689.014 2113.63,688.38 2115.34,687.452 2116.88,686.254 2118.2,684.819 2119.27,683.186 2120.05,681.4 2120.53,679.509 2120.69,677.565 " />
<polyline fill="none" vector-effect="none" points="2333.26,677.565 2120.69,677.565 " />
<polyline fill="none" vector-effect="none" points="2356.88,677.565 2356.72,679.509 2356.24,681.4 2355.46,683.186 2354.39,684.819 2353.07,686.254 2351.53,687.452 2349.82,688.38 2347.97,689.014 2346.05,689.335 2344.1,689.335 2342.17,689.014 2340.33,688.38 2338.61,687.452 2337.07,686.254 2335.75,684.819 2334.69,683.186 2333.9,681.4 2333.42,679.509 2333.26,677.565 " />
<polyline fill="none" vector-effect="none" points="2356.88,640.956 2356.88,677.565 " />
<polyline fill="none" vector-effect="none" points="2333.26,640.956 2333.42,639.012 2333.9,637.121 2334.69,635.335 2335.75,633.702 2337.07,632.267 2338.61,631.069 2340.33,630.141 2342.17,629.508 2344.1,629.187 2346.05,629.187 2347.97,629.508 2349.82,630.141 2351.53,631.069 2353.07,632.267 2354.39,633.702 2355.46,635.335 2356.24,637.121 2356.72,639.012 2356.88,640.956 " />
<polyline fill="none" vector-effect="none" points="2333.26,640.956 2120.69,640.956 " />
<polyline fill="none" vector-effect="none" points="1211.36,677.565 1211.52,679.509 1212,681.4 1212.78,683.186 1213.85,684.819 1215.17,686.254 1216.71,687.452 1218.42,688.38 1220.27,689.014 1222.19,689.335 1224.14,689.335 1226.07,689.014 1227.91,688.38 1229.63,687.452 1231.17,686.254 1232.49,684.819 1233.55,683.186 1234.34,681.4 1234.82,679.509 1234.98,677.565 " />
<polyline fill="none" vector-effect="none" points="1234.98,677.565 1447.55,677.565 " />
<polyline fill="none" vector-effect="none" points="1471.17,677.565 1471.01,679.509 1470.53,681.4 1469.74,683.186 1468.68,684.819 1467.36,686.254 1465.82,687.452 1464.1,688.38 1462.26,689.014 1460.33,689.335 1458.38,689.335 1456.46,689.014 1454.61,688.38 1452.9,687.452 1451.36,686.254 1450.04,684.819 1448.97,683.186 1448.19,681.4 1447.71,679.509 1447.55,677.565 " />
<polyline fill="none" vector-effect="none" points="1471.17,640.956 1471.17,677.565 " />
<polyline fill="none" vector-effect="none" points="1447.55,640.956 1447.71,639.012 1448.19,637.121 1448.97,635.335 1450.04,633.702 1451.36,632.267 1452.9,631.069 1454.61,630.141 1456.46,629.508 1458.38,629.187 1460.33,629.187 1462.26,629.508 1464.1,630.141 1465.82,631.069 1467.36,632.267 1468.68,633.702 1469.74,635.335 1470.53,637.121 1471.01,639.012 1471.17,640.956 " />
<polyline fill="none" vector-effect="none" points="1234.98,640.956 1447.55,640.956 " />
<polyline fill="none" vector-effect="none" points="1234.98,640.956 1234.82,639.012 1234.34,637.121 1233.55,635.335 1232.49,633.702 1231.17,632.267 1229.63,631.069 1227.91,630.141 1226.07,629.508 1224.14,629.187 1222.19,629.187 1220.27,629.508 1218.42,630.141 1216.71,631.069 1215.17,632.267 1213.85,633.702 1212.78,635.335 1212,637.121 1211.52,639.012 1211.36,640.956 " />
<polyline fill="none" vector-effect="none" points="1211.36,640.956 1211.36,677.565 " />
<polyline fill="none" vector-effect="none" points="874.962,1152.81 873.85,1154.41 872.49,1155.81 870.919,1156.96 869.178,1157.85 867.317,1158.43 865.385,1158.7 863.435,1158.64 861.521,1158.27 859.694,1157.58 858.005,1156.61 856.5,1155.37 855.219,1153.9 854.197,1152.24 853.463,1150.43 853.037,1148.53 852.929,1146.58 853.144,1144.64 853.674,1142.76 854.507,1141 " />
<polyline fill="none" vector-effect="none" points="893.266,1121.1 874.962,1152.81 " />
<polyline fill="none" vector-effect="none" points="893.266,1121.1 894.099,1119.34 894.629,1117.46 894.844,1115.52 894.737,1113.58 894.31,1111.67 893.576,1109.87 892.555,1108.2 891.274,1106.73 889.768,1105.49 888.079,1104.52 886.252,1103.83 884.338,1103.46 882.388,1103.41 880.456,1103.68 878.595,1104.26 876.855,1105.14 875.283,1106.29 873.923,1107.69 872.812,1109.29 " />
<polyline fill="none" vector-effect="none" points="688.719,1003.01 872.812,1109.29 " />
<polyline fill="none" vector-effect="none" points="668.265,991.199 669.376,989.596 670.736,988.198 672.308,987.043 674.048,986.162 675.91,985.58 677.841,985.312 679.791,985.366 681.705,985.74 683.532,986.424 685.221,987.399 686.727,988.639 688.008,990.11 689.029,991.771 689.763,993.578 690.19,995.481 690.297,997.429 690.083,999.368 689.552,1001.24 688.719,1003.01 " />
<polyline fill="none" vector-effect="none" points="649.96,1022.9 668.265,991.199 " />
<polyline fill="none" vector-effect="none" points="649.96,1022.9 649.128,1024.67 648.597,1026.54 648.382,1028.48 648.49,1030.43 648.916,1032.33 649.65,1034.14 650.672,1035.8 651.953,1037.27 653.458,1038.51 655.147,1039.49 656.974,1040.17 658.888,1040.55 660.838,1040.6 662.77,1040.33 664.631,1039.75 666.372,1038.87 667.943,1037.71 669.303,1036.32 670.415,1034.71 " />
<polyline fill="none" vector-effect="none" points="670.415,1034.71 854.507,1141 " />
<polyline fill="none" vector-effect="none" points="1642.01,1595.67 1640.9,1597.27 1639.54,1598.67 1637.97,1599.82 1636.23,1600.7 1634.37,1601.28 1632.44,1601.55 1630.49,1601.5 1628.57,1601.12 1626.75,1600.44 1625.06,1599.47 1623.55,1598.23 1622.27,1596.75 1621.25,1595.09 1620.51,1593.29 1620.09,1591.38 1619.98,1589.44 1620.19,1587.5 1620.73,1585.62 1621.56,1583.86 " />
<polyline fill="none" vector-effect="none" points="1660.32,1563.96 1642.01,1595.67 " />
<polyline fill="none" vector-effect="none" points="1660.32,1563.96 1661.15,1562.2 1661.68,1560.32 1661.9,1558.38 1661.79,1556.43 1661.36,1554.53 1660.63,1552.72 1659.61,1551.06 1658.32,1549.59 1656.82,1548.35 1655.13,1547.38 1653.3,1546.69 1651.39,1546.32 1649.44,1546.26 1647.51,1546.53 1645.65,1547.11 1643.91,1548 1642.33,1549.15 1640.97,1550.55 1639.86,1552.15 " />
<polyline fill="none" vector-effect="none" points="1455.77,1445.87 1639.86,1552.15 " />
<polyline fill="none" vector-effect="none" points="1435.32,1434.06 1436.43,1432.45 1437.79,1431.06 1439.36,1429.9 1441.1,1429.02 1442.96,1428.44 1444.89,1428.17 1446.84,1428.22 1448.76,1428.6 1450.58,1429.28 1452.27,1430.26 1453.78,1431.5 1455.06,1432.97 1456.08,1434.63 1456.81,1436.44 1457.24,1438.34 1457.35,1440.29 1457.13,1442.22 1456.6,1444.1 1455.77,1445.87 " />
<polyline fill="none" vector-effect="none" points="1417.01,1465.76 1435.32,1434.06 " />
<polyline fill="none" vector-effect="none" points="1417.01,1465.76 1416.18,1467.52 1415.65,1469.4 1415.43,1471.34 1415.54,1473.29 1415.97,1475.19 1416.7,1477 1417.72,1478.66 1419,1480.13 1420.51,1481.37 1422.2,1482.35 1424.02,1483.03 1425.94,1483.4 1427.89,1483.46 1429.82,1483.19 1431.68,1482.61 1433.42,1481.73 1434.99,1480.57 1436.35,1479.17 1437.47,1477.57 " />
<polyline fill="none" vector-effect="none" points="1437.47,1477.57 1621.56,1583.86 " />
<polyline fill="none" vector-effect="none" points="677.115,886.646 669.108,894.447 661.324,902.471 653.768,910.71 646.447,919.158 639.366,927.809 632.531,936.655 625.948,945.69 619.621,954.907 613.556,964.297 607.756,973.855 602.228,983.571 596.976,993.439 592.002,1003.45 587.312,1013.6 " />
<polyline fill="none" vector-effect="none" points="677.115,886.646 998.787,581.908 " />
<polyline fill="none" vector-effect="none" points="2569.45,581.908 998.787,581.908 " />
<polyline fill="none" vector-effect="none" points="2891.13,886.646 2569.45,581.908 " />
<polyline fill="none" vector-effect="none" points="2891.13,886.646 2899.13,894.447 2906.92,902.471 2914.47,910.71 2921.79,919.158 2928.88,927.809 2935.71,936.655 2942.29,945.69 2948.62,954.907 2954.69,964.297 2960.48,973.855 2966.01,983.571 2971.27,993.439 2976.24,1003.45 2980.93,1013.6 " />
<polyline fill="none" vector-effect="none" points="3043.37,1153.85 2980.93,1013.6 " />
<polyline fill="none" vector-effect="none" points="3043.37,1153.85 3046.36,1160.98 3049.04,1168.23 3051.39,1175.59 3053.43,1183.05 3055.13,1190.58 3056.51,1198.19 3057.55,1205.85 3058.26,1213.54 3058.63,1221.26 3058.66,1228.99 3058.36,1236.71 3057.72,1244.42 3056.74,1252.08 3055.43,1259.7 3053.79,1267.25 3051.83,1274.73 3049.53,1282.11 3046.92,1289.38 3044,1296.54 3040.76,1303.55 3037.22,1310.43 3033.39,1317.14 3029.26,1323.67 3024.86,1330.02 3020.18,1336.17 3015.24,1342.12 3010.04,1347.84 3004.6,1353.33 2998.92,1358.57 2993.02,1363.57 2986.91,1368.3 2980.6,1372.76 2974.1,1376.94 2967.43,1380.83 2960.59,1384.43 2953.6,1387.73 " />
<polyline fill="none" vector-effect="none" points="1851.37,1878.47 2953.6,1387.73 " />
<polyline fill="none" vector-effect="none" points="1716.87,1878.47 1723.6,1881.29 1730.44,1883.81 1737.38,1886.02 1744.42,1887.93 1751.53,1889.52 1758.71,1890.8 1765.93,1891.76 1773.19,1892.4 1780.48,1892.73 1787.77,1892.73 1795.05,1892.4 1802.31,1891.76 1809.53,1890.8 1816.71,1889.52 1823.82,1887.93 1830.86,1886.02 1837.8,1883.81 1844.64,1881.29 1851.37,1878.47 " />
<polyline fill="none" vector-effect="none" points="1716.87,1878.47 614.646,1387.73 " />
<polyline fill="none" vector-effect="none" points="524.868,1153.85 521.88,1160.98 519.205,1168.23 516.848,1175.59 514.815,1183.05 513.11,1190.58 511.734,1198.19 510.692,1205.85 509.985,1213.54 509.614,1221.26 509.58,1228.99 509.884,1236.71 510.524,1244.42 511.499,1252.08 512.808,1259.7 514.448,1267.25 516.416,1274.73 518.708,1282.11 521.319,1289.38 524.246,1296.54 527.481,1303.55 531.02,1310.43 534.855,1317.14 538.979,1323.67 543.385,1330.02 548.063,1336.17 553.005,1342.12 558.201,1347.84 563.643,1353.33 569.318,1358.57 575.217,1363.57 581.328,1368.3 587.639,1372.76 594.139,1376.94 600.816,1380.83 607.656,1384.43 614.646,1387.73 " />
<polyline fill="none" vector-effect="none" points="524.868,1153.85 587.312,1013.6 " />
</g>

<g fill="none" stroke="#000000" stroke-opacity="1" stroke-width="1" stroke-linecap="square" stroke-linejoin="bevel" transform="matrix(1,0,0,1,0,0)"
font-family="Arial" font-size="12" font-weight="400" font-style="normal" 
>
</g>
</g>
</svg>
