<?xml version="1.0" encoding="UTF-8" standalone="no"?>
<svg width="297.011mm" height="209.973mm"
 viewBox="0 0 3508 2480"
 xmlns="http://www.w3.org/2000/svg" xmlns:xlink="http://www.w3.org/1999/xlink"  version="1.2" baseProfile="tiny">
<defs>
</defs>
<g fill="none" stroke="black" stroke-width="1" fill-rule="evenodd" stroke-linecap="square" stroke-linejoin="bevel" >

<g fill="#ffffff" fill-opacity="1" stroke="none" transform="matrix(1,0,0,1,0,0)"
font-family="Arial" font-size="12" font-weight="400" font-style="normal" 
>
<rect x="0" y="0" width="3508" height="2480"/>
</g>

<g fill="none" stroke="#000000" stroke-opacity="1" stroke-width="1" stroke-linecap="square" stroke-linejoin="bevel" transform="matrix(1,0,0,1,0,0)"
font-family="Arial" font-size="12" font-weight="400" font-style="normal" 
>
</g>

<g fill="#000000" fill-opacity="1" stroke="#000000" stroke-opacity="1" stroke-width="1" stroke-linecap="butt" stroke-linejoin="miter" stroke-miterlimit="2" transform="matrix(1,0,0,1,0,0)"
font-family="Arial" font-size="12" font-weight="400" font-style="normal" 
>
</g>

<g fill="#ff0000" fill-opacity="1" stroke="#ff0000" stroke-opacity="1" stroke-width="2" stroke-linecap="round" stroke-linejoin="bevel" transform="matrix(1,0,0,1,0,0)"
font-family="Arial" font-size="12" font-weight="400" font-style="normal" 
>
<polyline fill="none" vector-effect="none" points="1445.04,1389.19 1444.87,1386.65 1444.37,1384.15 1443.55,1381.74 1442.43,1379.45 1441.01,1377.33 1439.33,1375.41 1437.41,1373.73 1435.29,1372.32 1433.01,1371.19 1430.59,1370.37 1428.09,1369.87 1425.55,1369.71 1423.01,1369.87 1420.51,1370.37 1418.09,1371.19 1415.81,1372.32 1413.69,1373.73 1411.77,1375.41 1410.09,1377.33 1408.67,1379.45 1407.55,1381.74 1406.73,1384.15 1406.23,1386.65 1406.06,1389.19 1406.23,1391.74 1406.73,1394.24 1407.55,1396.65 1408.67,1398.94 1410.09,1401.05 1411.77,1402.97 1413.69,1404.65 1415.81,1406.07 1418.09,1407.2 1420.51,1408.01 1423.01,1408.51 1425.55,1408.68 1428.09,1408.51 1430.59,1408.01 1433.01,1407.2 1435.29,1406.07 1437.41,1404.65 1439.33,1402.97 1441.01,1401.05 1442.43,1398.94 1443.55,1396.65 1444.37,1394.24 1444.87,1391.74 1445.04,1389.19 " />
<polyline fill="none" vector-effect="none" points="774.845,1595.86 774.845,1359.67 " />
<polyline fill="none" vector-effect="none" points="889.988,1034.91 889.821,1032.36 889.324,1029.86 888.505,1027.45 887.378,1025.16 885.962,1023.04 884.281,1021.13 882.365,1019.45 880.245,1018.03 877.959,1016.9 875.546,1016.09 873.046,1015.59 870.502,1015.42 867.959,1015.59 865.459,1016.09 863.046,1016.9 860.76,1018.03 858.64,1019.45 856.724,1021.13 855.043,1023.04 853.627,1025.16 852.5,1027.45 851.681,1029.86 851.183,1032.36 851.017,1034.91 851.183,1037.45 851.681,1039.95 852.5,1042.36 853.627,1044.65 855.043,1046.77 856.724,1048.69 858.64,1050.37 860.76,1051.78 863.046,1052.91 865.459,1053.73 867.959,1054.23 870.502,1054.39 873.046,1054.23 875.546,1053.73 877.959,1052.91 880.245,1051.78 882.365,1050.37 884.281,1048.69 885.962,1046.77 887.378,1044.65 888.505,1042.36 889.324,1039.95 889.821,1037.45 889.988,1034.91 " />
<polyline fill="none" vector-effect="none" points="2242.18,1034.91 2242.01,1032.36 2241.51,1029.86 2240.7,1027.45 2239.57,1025.16 2238.15,1023.04 2236.47,1021.13 2234.56,1019.45 2232.44,1018.03 2230.15,1016.9 2227.74,1016.09 2225.24,1015.59 2222.69,1015.42 2220.15,1015.59 2217.65,1016.09 2215.24,1016.9 2212.95,1018.03 2210.83,1019.45 2208.91,1021.13 2207.23,1023.04 2205.82,1025.16 2204.69,1027.45 2203.87,1029.86 2203.37,1032.36 2203.21,1034.91 2203.37,1037.45 2203.87,1039.95 2204.69,1042.36 2205.82,1044.65 2207.23,1046.77 2208.91,1048.69 2210.83,1050.37 2212.95,1051.78 2215.24,1052.91 2217.65,1053.73 2220.15,1054.23 2222.69,1054.39 2225.24,1054.23 2227.74,1053.73 2230.15,1052.91 2232.44,1051.78 2234.56,1050.37 2236.47,1048.69 2238.15,1046.77 2239.57,1044.65 2240.7,1042.36 2241.51,1039.95 2242.01,1037.45 2242.18,1034.91 " />
<polyline fill="none" vector-effect="none" points="1445.04,680.621 1444.87,678.078 1444.37,675.578 1443.55,673.164 1442.43,670.878 1441.01,668.759 1439.33,666.843 1437.41,665.162 1435.29,663.746 1433.01,662.619 1430.59,661.799 1428.09,661.302 1425.55,661.135 1423.01,661.302 1420.51,661.799 1418.09,662.619 1415.81,663.746 1413.69,665.162 1411.77,666.843 1410.09,668.759 1408.67,670.878 1407.55,673.164 1406.73,675.578 1406.23,678.078 1406.06,680.621 1406.23,683.165 1406.73,685.664 1407.55,688.078 1408.67,690.364 1410.09,692.483 1411.77,694.4 1413.69,696.08 1415.81,697.496 1418.09,698.624 1420.51,699.443 1423.01,699.94 1425.55,700.107 1428.09,699.94 1430.59,699.443 1433.01,698.624 1435.29,697.496 1437.41,696.08 1439.33,694.4 1441.01,692.483 1442.43,690.364 1443.55,688.078 1444.37,685.664 1444.87,683.165 1445.04,680.621 " />
<polyline fill="none" vector-effect="none" points="1445.04,857.764 1444.87,855.221 1444.37,852.721 1443.55,850.307 1442.43,848.021 1441.01,845.902 1439.33,843.986 1437.41,842.305 1435.29,840.889 1433.01,839.762 1430.59,838.942 1428.09,838.445 1425.55,838.278 1423.01,838.445 1420.51,838.942 1418.09,839.762 1415.81,840.889 1413.69,842.305 1411.77,843.986 1410.09,845.902 1408.67,848.021 1407.55,850.307 1406.73,852.721 1406.23,855.221 1406.06,857.764 1406.23,860.307 1406.73,862.807 1407.55,865.221 1408.67,867.507 1410.09,869.626 1411.77,871.543 1413.69,873.223 1415.81,874.639 1418.09,875.767 1420.51,876.586 1423.01,877.083 1425.55,877.25 1428.09,877.083 1430.59,876.586 1433.01,875.767 1435.29,874.639 1437.41,873.223 1439.33,871.543 1441.01,869.626 1442.43,867.507 1443.55,865.221 1444.37,862.807 1444.87,860.307 1445.04,857.764 " />
<polyline fill="none" vector-effect="none" points="1445.04,1034.91 1444.87,1032.36 1444.37,1029.86 1443.55,1027.45 1442.43,1025.16 1441.01,1023.04 1439.33,1021.13 1437.41,1019.45 1435.29,1018.03 1433.01,1016.9 1430.59,1016.09 1428.09,1015.59 1425.55,1015.42 1423.01,1015.59 1420.51,1016.09 1418.09,1016.9 1415.81,1018.03 1413.69,1019.45 1411.77,1021.13 1410.09,1023.04 1408.67,1025.16 1407.55,1027.45 1406.73,1029.86 1406.23,1032.36 1406.06,1034.91 1406.23,1037.45 1406.73,1039.95 1407.55,1042.36 1408.67,1044.65 1410.09,1046.77 1411.77,1048.69 1413.69,1050.37 1415.81,1051.78 1418.09,1052.91 1420.51,1053.73 1423.01,1054.23 1425.55,1054.39 1428.09,1054.23 1430.59,1053.73 1433.01,1052.91 1435.29,1051.78 1437.41,1050.37 1439.33,1048.69 1441.01,1046.77 1442.43,1044.65 1443.55,1042.36 1444.37,1039.95 1444.87,1037.45 1445.04,1034.91 " />
<polyline fill="none" vector-effect="none" points="1445.04,1212.05 1444.87,1209.51 1444.37,1207.01 1443.55,1204.59 1442.43,1202.31 1441.01,1200.19 1439.33,1198.27 1437.41,1196.59 1435.29,1195.17 1433.01,1194.05 1430.59,1193.23 1428.09,1192.73 1425.55,1192.56 1423.01,1192.73 1420.51,1193.23 1418.09,1194.05 1415.81,1195.17 1413.69,1196.59 1411.77,1198.27 1410.09,1200.19 1408.67,1202.31 1407.55,1204.59 1406.73,1207.01 1406.23,1209.51 1406.06,1212.05 1406.23,1214.59 1406.73,1217.09 1407.55,1219.51 1408.67,1221.79 1410.09,1223.91 1411.77,1225.83 1413.69,1227.51 1415.81,1228.92 1418.09,1230.05 1420.51,1230.87 1423.01,1231.37 1425.55,1231.54 1428.09,1231.37 1430.59,1230.87 1433.01,1230.05 1435.29,1228.92 1437.41,1227.51 1439.33,1225.83 1441.01,1223.91 1442.43,1221.79 1443.55,1219.51 1444.37,1217.09 1444.87,1214.59 1445.04,1212.05 " />
<polyline fill="none" vector-effect="none" points="774.845,1359.67 811.455,1359.67 " />
<polyline fill="none" vector-effect="none" points="811.455,1336.05 813.399,1336.21 815.289,1336.69 817.076,1337.47 818.708,1338.54 820.143,1339.86 821.341,1341.4 822.27,1343.12 822.903,1344.96 823.224,1346.88 823.224,1348.83 822.903,1350.76 822.27,1352.6 821.341,1354.32 820.143,1355.86 818.708,1357.18 817.076,1358.25 815.289,1359.03 813.399,1359.51 811.455,1359.67 " />
<polyline fill="none" vector-effect="none" points="811.455,1336.05 811.455,1259.29 " />
<polyline fill="none" vector-effect="none" points="811.455,1259.29 869.322,1259.29 " />
<polyline fill="none" vector-effect="none" points="869.322,1259.29 869.322,1274.35 " />
<polyline fill="none" vector-effect="none" points="869.322,1274.35 1011.04,1274.35 " />
<polyline fill="none" vector-effect="none" points="1011.04,1274.35 1011.04,1208.8 " />
<polyline fill="none" vector-effect="none" points="1011.04,1208.8 869.322,1208.8 " />
<polyline fill="none" vector-effect="none" points="869.322,1208.8 869.322,1223.86 " />
<polyline fill="none" vector-effect="none" points="869.322,1223.86 811.455,1223.86 " />
<polyline fill="none" vector-effect="none" points="811.455,845.955 811.455,1223.86 " />
<polyline fill="none" vector-effect="none" points="869.322,845.955 811.455,845.955 " />
<polyline fill="none" vector-effect="none" points="869.322,861.012 869.322,845.955 " />
<polyline fill="none" vector-effect="none" points="1011.04,861.012 869.322,861.012 " />
<polyline fill="none" vector-effect="none" points="1011.04,795.469 1011.04,861.012 " />
<polyline fill="none" vector-effect="none" points="869.322,795.469 1011.04,795.469 " />
<polyline fill="none" vector-effect="none" points="869.322,810.526 869.322,795.469 " />
<polyline fill="none" vector-effect="none" points="811.455,810.526 869.322,810.526 " />
<polyline fill="none" vector-effect="none" points="811.455,733.764 811.455,810.526 " />
<polyline fill="none" vector-effect="none" points="811.455,710.145 813.399,710.306 815.289,710.785 817.076,711.568 818.708,712.635 820.143,713.956 821.341,715.495 822.27,717.211 822.903,719.055 823.224,720.979 823.224,722.93 822.903,724.854 822.27,726.698 821.341,728.414 820.143,729.953 818.708,731.274 817.076,732.341 815.289,733.124 813.399,733.603 811.455,733.764 " />
<polyline fill="none" vector-effect="none" points="774.845,710.145 811.455,710.145 " />
<polyline fill="none" vector-effect="none" points="774.845,473.955 774.845,710.145 " />
<polyline fill="none" vector-effect="none" points="774.845,473.955 2311.26,473.955 " />
<polyline fill="none" vector-effect="none" points="2311.26,473.955 2311.26,710.145 " />
<polyline fill="none" vector-effect="none" points="2311.26,710.145 2274.65,710.145 " />
<polyline fill="none" vector-effect="none" points="2274.65,710.145 2272.71,710.306 2270.82,710.785 2269.03,711.568 2267.4,712.635 2265.97,713.956 2264.77,715.495 2263.84,717.211 2263.21,719.055 2262.89,720.979 2262.89,722.93 2263.21,724.854 2263.84,726.698 2264.77,728.414 2265.97,729.953 2267.4,731.274 2269.03,732.341 2270.82,733.124 2272.71,733.603 2274.65,733.764 " />
<polyline fill="none" vector-effect="none" points="2274.65,733.764 2274.65,810.526 " />
<polyline fill="none" vector-effect="none" points="2274.65,810.526 2216.79,810.526 " />
<polyline fill="none" vector-effect="none" points="2216.79,810.526 2216.79,795.469 " />
<polyline fill="none" vector-effect="none" points="2216.79,795.469 2075.07,795.469 " />
<polyline fill="none" vector-effect="none" points="2075.07,795.469 2075.07,861.012 " />
<polyline fill="none" vector-effect="none" points="2075.07,861.012 2216.79,861.012 " />
<polyline fill="none" vector-effect="none" points="2216.79,861.012 2216.79,845.955 " />
<polyline fill="none" vector-effect="none" points="2216.79,845.955 2274.65,845.955 " />
<polyline fill="none" vector-effect="none" points="2274.65,845.955 2274.65,1223.86 " />
<polyline fill="none" vector-effect="none" points="2216.79,1223.86 2274.65,1223.86 " />
<polyline fill="none" vector-effect="none" points="2216.79,1208.8 2216.79,1223.86 " />
<polyline fill="none" vector-effect="none" points="2075.07,1208.8 2216.79,1208.8 " />
<polyline fill="none" vector-effect="none" points="2075.07,1274.35 2075.07,1208.8 " />
<polyline fill="none" vector-effect="none" points="2216.79,1274.35 2075.07,1274.35 " />
<polyline fill="none" vector-effect="none" points="2216.79,1259.29 2216.79,1274.35 " />
<polyline fill="none" vector-effect="none" points="2274.65,1259.29 2216.79,1259.29 " />
<polyline fill="none" vector-effect="none" points="2274.65,1259.29 2274.65,1336.05 " />
<polyline fill="none" vector-effect="none" points="2274.65,1336.05 2272.71,1336.21 2270.82,1336.69 2269.03,1337.47 2267.4,1338.54 2265.97,1339.86 2264.77,1341.4 2263.84,1343.12 2263.21,1344.96 2262.89,1346.88 2262.89,1348.83 2263.21,1350.76 2263.84,1352.6 2264.77,1354.32 2265.97,1355.86 2267.4,1357.18 2269.03,1358.25 2270.82,1359.03 2272.71,1359.51 2274.65,1359.67 " />
<polyline fill="none" vector-effect="none" points="2311.26,1359.67 2274.65,1359.67 " />
<polyline fill="none" vector-effect="none" points="2311.26,1595.86 2311.26,1359.67 " />
<polyline fill="none" vector-effect="none" points="2311.26,1595.86 774.845,1595.86 " />
<polyline fill="none" vector-effect="none" points="1978.24,1353.76 1978.07,1350.63 1977.57,1347.52 1976.74,1344.49 1975.6,1341.56 1974.15,1338.78 1972.41,1336.16 1970.41,1333.74 1968.15,1331.55 1965.68,1329.6 1963.02,1327.94 1960.19,1326.56 1957.24,1325.5 1954.18,1324.75 1951.07,1324.33 1947.93,1324.25 1944.79,1324.5 1941.71,1325.08 1938.7,1325.99 1935.8,1327.21 1933.05,1328.74 1930.48,1330.54 1928.12,1332.61 1925.98,1334.92 1924.11,1337.44 1922.51,1340.15 1921.22,1343.01 1920.23,1346 1919.56,1349.07 1919.23,1352.19 1919.23,1355.34 1919.56,1358.46 1920.23,1361.53 1921.22,1364.52 1922.51,1367.38 1924.11,1370.08 1925.98,1372.61 1928.12,1374.92 1930.48,1376.99 1933.05,1378.79 1935.8,1380.32 1938.7,1381.54 1941.71,1382.44 1944.79,1383.03 1947.93,1383.28 1951.07,1383.19 1954.18,1382.78 1957.24,1382.03 1960.19,1380.96 1963.02,1379.59 1965.68,1377.92 1968.15,1375.98 1970.41,1373.79 1972.41,1371.37 1974.15,1368.75 1975.6,1365.96 1976.74,1363.04 1977.57,1360 1978.07,1356.9 1978.24,1353.76 " />
<polyline fill="none" vector-effect="none" points="1836.52,1353.76 1836.35,1350.63 1835.85,1347.52 1835.03,1344.49 1833.88,1341.56 1832.43,1338.78 1830.7,1336.16 1828.69,1333.74 1826.44,1331.55 1823.97,1329.6 1821.3,1327.94 1818.48,1326.56 1815.52,1325.5 1812.47,1324.75 1809.35,1324.33 1806.21,1324.25 1803.08,1324.5 1799.99,1325.08 1796.98,1325.99 1794.09,1327.21 1791.34,1328.74 1788.77,1330.54 1786.4,1332.61 1784.27,1334.92 1782.4,1337.44 1780.8,1340.15 1779.5,1343.01 1778.51,1346 1777.85,1349.07 1777.52,1352.19 1777.52,1355.34 1777.85,1358.46 1778.51,1361.53 1779.5,1364.52 1780.8,1367.38 1782.4,1370.08 1784.27,1372.61 1786.4,1374.92 1788.77,1376.99 1791.34,1378.79 1794.09,1380.32 1796.98,1381.54 1799.99,1382.44 1803.08,1383.03 1806.21,1383.28 1809.35,1383.19 1812.47,1382.78 1815.52,1382.03 1818.48,1380.96 1821.3,1379.59 1823.97,1377.92 1826.44,1375.98 1828.69,1373.79 1830.7,1371.37 1832.43,1368.75 1833.88,1365.96 1835.03,1363.04 1835.85,1360 1836.35,1356.9 1836.52,1353.76 " />
<polyline fill="none" vector-effect="none" points="1694.81,1353.76 1694.64,1350.63 1694.14,1347.52 1693.31,1344.49 1692.17,1341.56 1690.72,1338.78 1688.98,1336.16 1686.98,1333.74 1684.73,1331.55 1682.25,1329.6 1679.59,1327.94 1676.76,1326.56 1673.81,1325.5 1670.75,1324.75 1667.64,1324.33 1664.5,1324.25 1661.36,1324.5 1658.28,1325.08 1655.27,1325.99 1652.37,1327.21 1649.62,1328.74 1647.05,1330.54 1644.69,1332.61 1642.55,1334.92 1640.68,1337.44 1639.09,1340.15 1637.79,1343.01 1636.8,1346 1636.14,1349.07 1635.8,1352.19 1635.8,1355.34 1636.14,1358.46 1636.8,1361.53 1637.79,1364.52 1639.09,1367.38 1640.68,1370.08 1642.55,1372.61 1644.69,1374.92 1647.05,1376.99 1649.62,1378.79 1652.37,1380.32 1655.27,1381.54 1658.28,1382.44 1661.36,1383.03 1664.5,1383.28 1667.64,1383.19 1670.75,1382.78 1673.81,1382.03 1676.76,1380.96 1679.59,1379.59 1682.25,1377.92 1684.73,1375.98 1686.98,1373.79 1688.98,1371.37 1690.72,1368.75 1692.17,1365.96 1693.31,1363.04 1694.14,1360 1694.64,1356.9 1694.81,1353.76 " />
</g>

<g fill="none" stroke="#000000" stroke-opacity="1" stroke-width="1" stroke-linecap="square" stroke-linejoin="bevel" transform="matrix(1,0,0,1,0,0)"
font-family="Arial" font-size="12" font-weight="400" font-style="normal" 
>
</g>
</g>
</svg>
